<?xml version="1.0"?>
<VTKFile type="UnstructuredGrid"  version="0.1"  >
<UnstructuredGrid>
<Piece  NumberOfPoints="121" NumberOfCells="200">
<Points>
<DataArray  type="Float64"  NumberOfComponents="3"  format="ascii">0 0 0  0.1 0 0  0.2 0 0  0.3 0 0  0.4 0 0  0.5 0 0  0.6 0 0  0.7 0 0  0.8 0 0  0.9 0 0  1 0 0  0 0.1 0  0.1 0.1 0  0.2 0.1 0  0.3 0.1 0  0.4 0.1 0  0.5 0.1 0  0.6 0.1 0  0.7 0.1 0  0.8 0.1 0  0.9 0.1 0  1 0.1 0  0 0.2 0  0.1 0.2 0  0.2 0.2 0  0.3 0.2 0  0.4 0.2 0  0.5 0.2 0  0.6 0.2 0  0.7 0.2 0  0.8 0.2 0  0.9 0.2 0  1 0.2 0  0 0.3 0  0.1 0.3 0  0.2 0.3 0  0.3 0.3 0  0.4 0.3 0  0.5 0.3 0  0.6 0.3 0  0.7 0.3 0  0.8 0.3 0  0.9 0.3 0  1 0.3 0  0 0.4 0  0.1 0.4 0  0.2 0.4 0  0.3 0.4 0  0.4 0.4 0  0.5 0.4 0  0.6 0.4 0  0.7 0.4 0  0.8 0.4 0  0.9 0.4 0  1 0.4 0  0 0.5 0  0.1 0.5 0  0.2 0.5 0  0.3 0.5 0  0.4 0.5 0  0.5 0.5 0  0.6 0.5 0  0.7 0.5 0  0.8 0.5 0  0.9 0.5 0  1 0.5 0  0 0.6 0  0.1 0.6 0  0.2 0.6 0  0.3 0.6 0  0.4 0.6 0  0.5 0.6 0  0.6 0.6 0  0.7 0.6 0  0.8 0.6 0  0.9 0.6 0  1 0.6 0  0 0.7 0  0.1 0.7 0  0.2 0.7 0  0.3 0.7 0  0.4 0.7 0  0.5 0.7 0  0.6 0.7 0  0.7 0.7 0  0.8 0.7 0  0.9 0.7 0  1 0.7 0  0 0.8 0  0.1 0.8 0  0.2 0.8 0  0.3 0.8 0  0.4 0.8 0  0.5 0.8 0  0.6 0.8 0  0.7 0.8 0  0.8 0.8 0  0.9 0.8 0  1 0.8 0  0 0.9 0  0.1 0.9 0  0.2 0.9 0  0.3 0.9 0  0.4 0.9 0  0.5 0.9 0  0.6 0.9 0  0.7 0.9 0  0.8 0.9 0  0.9 0.9 0  1 0.9 0  0 1 0  0.1 1 0  0.2 1 0  0.3 1 0  0.4 1 0  0.5 1 0  0.6 1 0  0.7 1 0  0.8 1 0  0.9 1 0  1 1 0  </DataArray>
</Points>
<Cells>
<DataArray  type="UInt32"  Name="connectivity"  format="ascii">0 1 12  0 11 12  1 2 13  1 12 13  2 3 14  2 13 14  3 4 15  3 14 15  4 5 16  4 15 16  5 6 17  5 16 17  6 7 18  6 17 18  7 8 19  7 18 19  8 9 20  8 19 20  9 10 21  9 20 21  11 12 23  11 22 23  12 13 24  12 23 24  13 14 25  13 24 25  14 15 26  14 25 26  15 16 27  15 26 27  16 17 28  16 27 28  17 18 29  17 28 29  18 19 30  18 29 30  19 20 31  19 30 31  20 21 32  20 31 32  22 23 34  22 33 34  23 24 35  23 34 35  24 25 36  24 35 36  25 26 37  25 36 37  26 27 38  26 37 38  27 28 39  27 38 39  28 29 40  28 39 40  29 30 41  29 40 41  30 31 42  30 41 42  31 32 43  31 42 43  33 34 45  33 44 45  34 35 46  34 45 46  35 36 47  35 46 47  36 37 48  36 47 48  37 38 49  37 48 49  38 39 50  38 49 50  39 40 51  39 50 51  40 41 52  40 51 52  41 42 53  41 52 53  42 43 54  42 53 54  44 45 56  44 55 56  45 46 57  45 56 57  46 47 58  46 57 58  47 48 59  47 58 59  48 49 60  48 59 60  49 50 61  49 60 61  50 51 62  50 61 62  51 52 63  51 62 63  52 53 64  52 63 64  53 54 65  53 64 65  55 56 67  55 66 67  56 57 68  56 67 68  57 58 69  57 68 69  58 59 70  58 69 70  59 60 71  59 70 71  60 61 72  60 71 72  61 62 73  61 72 73  62 63 74  62 73 74  63 64 75  63 74 75  64 65 76  64 75 76  66 67 78  66 77 78  67 68 79  67 78 79  68 69 80  68 79 80  69 70 81  69 80 81  70 71 82  70 81 82  71 72 83  71 82 83  72 73 84  72 83 84  73 74 85  73 84 85  74 75 86  74 85 86  75 76 87  75 86 87  77 78 89  77 88 89  78 79 90  78 89 90  79 80 91  79 90 91  80 81 92  80 91 92  81 82 93  81 92 93  82 83 94  82 93 94  83 84 95  83 94 95  84 85 96  84 95 96  85 86 97  85 96 97  86 87 98  86 97 98  88 89 100  88 99 100  89 90 101  89 100 101  90 91 102  90 101 102  91 92 103  91 102 103  92 93 104  92 103 104  93 94 105  93 104 105  94 95 106  94 105 106  95 96 107  95 106 107  96 97 108  96 107 108  97 98 109  97 108 109  99 100 111  99 110 111  100 101 112  100 111 112  101 102 113  101 112 113  102 103 114  102 113 114  103 104 115  103 114 115  104 105 116  104 115 116  105 106 117  105 116 117  106 107 118  106 117 118  107 108 119  107 118 119  108 109 120  108 119 120  </DataArray>
<DataArray  type="UInt32"  Name="offsets"  format="ascii">3 6 9 12 15 18 21 24 27 30 33 36 39 42 45 48 51 54 57 60 63 66 69 72 75 78 81 84 87 90 93 96 99 102 105 108 111 114 117 120 123 126 129 132 135 138 141 144 147 150 153 156 159 162 165 168 171 174 177 180 183 186 189 192 195 198 201 204 207 210 213 216 219 222 225 228 231 234 237 240 243 246 249 252 255 258 261 264 267 270 273 276 279 282 285 288 291 294 297 300 303 306 309 312 315 318 321 324 327 330 333 336 339 342 345 348 351 354 357 360 363 366 369 372 375 378 381 384 387 390 393 396 399 402 405 408 411 414 417 420 423 426 429 432 435 438 441 444 447 450 453 456 459 462 465 468 471 474 477 480 483 486 489 492 495 498 501 504 507 510 513 516 519 522 525 528 531 534 537 540 543 546 549 552 555 558 561 564 567 570 573 576 579 582 585 588 591 594 597 600 </DataArray>
<DataArray  type="UInt8"  Name="types"  format="ascii">5 5 5 5 5 5 5 5 5 5 5 5 5 5 5 5 5 5 5 5 5 5 5 5 5 5 5 5 5 5 5 5 5 5 5 5 5 5 5 5 5 5 5 5 5 5 5 5 5 5 5 5 5 5 5 5 5 5 5 5 5 5 5 5 5 5 5 5 5 5 5 5 5 5 5 5 5 5 5 5 5 5 5 5 5 5 5 5 5 5 5 5 5 5 5 5 5 5 5 5 5 5 5 5 5 5 5 5 5 5 5 5 5 5 5 5 5 5 5 5 5 5 5 5 5 5 5 5 5 5 5 5 5 5 5 5 5 5 5 5 5 5 5 5 5 5 5 5 5 5 5 5 5 5 5 5 5 5 5 5 5 5 5 5 5 5 5 5 5 5 5 5 5 5 5 5 5 5 5 5 5 5 5 5 5 5 5 5 5 5 5 5 5 5 5 5 5 5 5 5 </DataArray>
</Cells>
<PointData  Vectors="f_482"> 
<DataArray  type="Float64"  Name="f_482"  NumberOfComponents="3" format="ascii">1.4921510023279533e-02 -1.1907764814724469e+00 0.0000000000000000e+00  8.3509253467087222e-02 -2.0244008946127243e+00 0.0000000000000000e+00  -6.5827796150986673e-01 -9.3572986559939919e-01 0.0000000000000000e+00  -8.1796721959617735e-01 7.3519446484585207e-02 0.0000000000000000e+00  -7.2628492011665158e-01 -1.0647022590768885e-03 0.0000000000000000e+00  -7.1284903990193216e-01 -2.7589554467157070e-03 0.0000000000000000e+00  -7.0465844625807650e-01 1.7488247901617201e-04 0.0000000000000000e+00  -7.0033660577925494e-01 -2.1507023238768729e-04 0.0000000000000000e+00  -6.9828072811466302e-01 -8.3630029257042316e-05 0.0000000000000000e+00  -6.9731204469486385e-01 -5.6263728888785279e-05 0.0000000000000000e+00  -6.9699885770980086e-01 -2.1993293264223762e-05 0.0000000000000000e+00  1.8524213954909174e-02 -1.2033233070552882e+00 0.0000000000000000e+00  -2.6663033539270725e-01 -1.4423536820807663e+00 0.0000000000000000e+00  -7.4498098288885239e-01 -8.1006251517219219e-01 0.0000000000000000e+00  -7.7304868357585543e-01 1.7197410249077771e-01 0.0000000000000000e+00  -7.0770149642624502e-01 -7.0389516129489113e-02 0.0000000000000000e+00  -7.1123707431419603e-01 -5.3620446505242420e-03 0.0000000000000000e+00  -7.0219730829513616e-01 -5.9241336927021940e-03 0.0000000000000000e+00  -6.9938414622654366e-01 -2.9585557357265685e-03 0.0000000000000000e+00  -6.9774526770196610e-01 -1.3845750256566757e-03 0.0000000000000000e+00  -6.9697473644936592e-01 -6.0550457863338283e-04 0.0000000000000000e+00  -6.9676704899426434e-01 -3.8265131004505841e-05 0.0000000000000000e+00  1.2365425770515734e-03 -9.1218453339682304e-01 0.0000000000000000e+00  -3.2383975620633193e-01 -1.0681758795144747e+00 0.0000000000000000e+00  -6.7939570472017585e-01 -5.1896541335785729e-01 0.0000000000000000e+00  -6.8530669043821280e-01 8.9303269194824592e-02 0.0000000000000000e+00  -6.9584234504577758e-01 -8.4006366748726954e-02 0.0000000000000000e+00  -7.0107247046625210e-01 -9.3575484739386364e-04 0.0000000000000000e+00  -6.9688155840531596e-01 -1.1355517126228643e-02 0.0000000000000000e+00  -6.9700686281445956e-01 -3.8833944331747540e-03 0.0000000000000000e+00  -6.9632635515508412e-01 -2.1969075565657645e-03 0.0000000000000000e+00  -6.9612128977574650e-01 -9.0811920769951100e-04 0.0000000000000000e+00  -6.9606044323449534e-01 -4.6030927225422431e-06 0.0000000000000000e+00  -2.0463288441985482e-04 -6.1633737107490905e-01 0.0000000000000000e+00  -3.2245114243348122e-01 -6.9318594066551253e-01 0.0000000000000000e+00  -6.4488701077847987e-01 -3.3973202043424927e-01 0.0000000000000000e+00  -6.6964147860361800e-01 5.1327505638891650e-02 0.0000000000000000e+00  -6.8497500559830526e-01 -5.4999232349210232e-02 0.0000000000000000e+00  -6.8923175631098577e-01 -2.5423896819176690e-03 0.0000000000000000e+00  -6.9218153318422437e-01 -1.1517808592216881e-02 0.0000000000000000e+00  -6.9414913076910900e-01 -3.0990540150395108e-03 0.0000000000000000e+00  -6.9468901534541794e-01 -2.2839410508556836e-03 0.0000000000000000e+00  -6.9510518160788459e-01 -8.2506634804694441e-04 0.0000000000000000e+00  -6.9520364845538174e-01 1.2605968240895855e-05 0.0000000000000000e+00  -2.3021432136696482e-04 -3.1594418487834880e-01 0.0000000000000000e+00  -3.1724825920367045e-01 -3.3366385943440363e-01 0.0000000000000000e+00  -6.3045584799534682e-01 -1.6797727199068804e-01 0.0000000000000000e+00  -6.5586167073004042e-01 3.5068475654421907e-02 0.0000000000000000e+00  -6.7245706036580422e-01 -3.2974294749243752e-02 0.0000000000000000e+00  -6.8262323903471145e-01 -1.4852633974866472e-03 0.0000000000000000e+00  -6.8881138107559181e-01 -6.7564036743735251e-03 0.0000000000000000e+00  -6.9184234026634706e-01 -1.5376125200431197e-03 0.0000000000000000e+00  -6.9346466911250004e-01 -1.4822408641190228e-03 0.0000000000000000e+00  -6.9429280119700287e-01 -4.1895129254346941e-04 0.0000000000000000e+00  -6.9451546902403982e-01 1.0583515036189732e-05 0.0000000000000000e+00  -1.5528227813983031e-04 -1.9898805458248209e-02 0.0000000000000000e+00  -3.1480224475997370e-01 2.0238481921515106e-02 0.0000000000000000e+00  -6.2548921403131330e-01 6.7296769964397438e-04 0.0000000000000000e+00  -6.5169289773691419e-01 1.9096780239712733e-02 0.0000000000000000e+00  -6.6972414025375193e-01 -9.4438909906467295e-03 0.0000000000000000e+00  -6.8095665383533110e-01 4.4007050600933326e-03 0.0000000000000000e+00  -6.8744438726568557e-01 -1.1045038839888385e-03 0.0000000000000000e+00  -6.9106342955498923e-01 6.1268552309186536e-04 0.0000000000000000e+00  -6.9305367301859999e-01 -9.4368310085499963e-05 0.0000000000000000e+00  -6.9398778874261324e-01 1.2104381182809336e-04 0.0000000000000000e+00  -6.9426063986311071e-01 7.7874734820874271e-06 0.0000000000000000e+00  7.7318994260395515e-04 2.7681831910948090e-01 0.0000000000000000e+00  -3.1613260262801995e-01 3.7434657683121292e-01 0.0000000000000000e+00  -6.2991197916425423e-01 1.6904006967581506e-01 0.0000000000000000e+00  -6.5622084690615456e-01 4.1173794882617947e-03 0.0000000000000000e+00  -6.7319433498973213e-01 1.4441829712128471e-02 0.0000000000000000e+00  -6.8328781671584016e-01 9.8970883980693727e-03 0.0000000000000000e+00  -6.8891439827532253e-01 4.1293695358277163e-03 0.0000000000000000e+00  -6.9198443408544308e-01 2.9040794958041048e-03 0.0000000000000000e+00  -6.9356947612114561e-01 1.2576704663338721e-03 0.0000000000000000e+00  -6.9431155980864701e-01 6.2008587685555944e-04 0.0000000000000000e+00  -6.9452720877216401e-01 8.8233021638279707e-06 0.0000000000000000e+00  -1.3846088021868101e-03 5.7047009479988331e-01 0.0000000000000000e+00  -3.2180267076078373e-01 7.3364330836791680e-01 0.0000000000000000e+00  -6.4389195615818162e-01 3.4244273035230938e-01 0.0000000000000000e+00  -6.6982306124276192e-01 -1.2747367017904241e-02 0.0000000000000000e+00  -6.8392106740356118e-01 3.5479790055182162e-02 0.0000000000000000e+00  -6.9002324793377845e-01 1.3445012573702855e-02 0.0000000000000000e+00  -6.9294413400080745e-01 7.8866001070448909e-03 0.0000000000000000e+00  -6.9424143931580895e-01 4.3427871779429649e-03 0.0000000000000000e+00  -6.9487026339870128e-01 2.0794314908881822e-03 0.0000000000000000e+00  -6.9514610398330112e-01 9.1773134212854194e-04 0.0000000000000000e+00  -6.9521444530722765e-01 -3.3319153924187589e-06 0.0000000000000000e+00  -8.3831123023815693e-03 8.5474603488548473e-01 0.0000000000000000e+00  -3.1255516453664656e-01 1.1211718864131452e+00 0.0000000000000000e+00  -6.6750876810658177e-01 5.1857823794096269e-01 0.0000000000000000e+00  -6.9956816921832088e-01 -3.7930434638322338e-02 0.0000000000000000e+00  -7.0050304510222150e-01 5.3501948486090696e-02 0.0000000000000000e+00  -7.0021517016633883e-01 1.0976574833471333e-02 0.0000000000000000e+00  -6.9819736023731471e-01 9.2131727609002286e-03 0.0000000000000000e+00  -6.9713940788351136e-01 4.1006778687747367e-03 0.0000000000000000e+00  -6.9649865127642374e-01 2.1300210662645006e-03 0.0000000000000000e+00  -6.9617757047157525e-01 8.7611005037773924e-04 0.0000000000000000e+00  -6.9606855189787131e-01 -2.3914972157468508e-05 0.0000000000000000e+00  -4.5923362992178883e-02 1.1573366731053398e+00 0.0000000000000000e+00  -2.4671268244941869e-01 1.4877770219490076e+00 0.0000000000000000e+00  -7.5808777243414849e-01 7.2148458370692814e-01 0.0000000000000000e+00  -7.3079626885506410e-01 -4.0768379515488277e-02 0.0000000000000000e+00  -7.2628045638093786e-01 3.8847714828682448e-02 0.0000000000000000e+00  -7.0865793791662457e-01 7.4851454267419199e-03 0.0000000000000000e+00  -7.0297466948757570e-01 5.7004086586112893e-03 0.0000000000000000e+00  -6.9953424156152466e-01 2.4894467097734837e-03 0.0000000000000000e+00  -6.9781672348950008e-01 1.2880241693226809e-03 0.0000000000000000e+00  -6.9700767362262384e-01 5.0956042498236077e-04 0.0000000000000000e+00  -6.9676250693845454e-01 -4.0749131789166012e-05 0.0000000000000000e+00  -2.1522179756913236e-02 1.3765180856175245e+00 0.0000000000000000e+00  1.8396819208814603e-02 1.5720246765600654e+00 0.0000000000000000e+00  -5.1861730523723570e-01 1.5750423981309529e+00 0.0000000000000000e+00  -8.7489940016382406e-01 -4.1716685849265317e-01 0.0000000000000000e+00  -7.2106184152989095e-01 9.5857496762337929e-02 0.0000000000000000e+00  -7.1432522258158537e-01 -2.2528072125080113e-02 0.0000000000000000e+00  -7.0486862618317381e-01 4.1587012817988723e-03 0.0000000000000000e+00  -7.0042240430486280e-01 -1.1293806723444548e-03 0.0000000000000000e+00  -6.9833220935053786e-01 9.3911165196630697e-05 0.0000000000000000e+00  -6.9732326276899592e-01 -9.7674918594436668e-05 0.0000000000000000e+00  -6.9704546357848030e-01 -4.9320490755524863e-05 0.0000000000000000e+00  </DataArray> 
</PointData> 
</Piece>
</UnstructuredGrid>
</VTKFile>