<?xml version="1.0"?>
<VTKFile type="UnstructuredGrid"  version="0.1"  >
<UnstructuredGrid>
<Piece  NumberOfPoints="961" NumberOfCells="1800">
<Points>
<DataArray  type="Float64"  NumberOfComponents="3"  format="ascii">-2 -2 0  -1.866666666666667 -2 0  -1.733333333333333 -2 0  -1.6 -2 0  -1.466666666666667 -2 0  -1.333333333333333 -2 0  -1.2 -2 0  -1.066666666666667 -2 0  -0.9333333333333333 -2 0  -0.8 -2 0  -0.6666666666666667 -2 0  -0.5333333333333334 -2 0  -0.3999999999999999 -2 0  -0.2666666666666666 -2 0  -0.1333333333333333 -2 0  0 -2 0  0.1333333333333333 -2 0  0.2666666666666666 -2 0  0.3999999999999999 -2 0  0.5333333333333332 -2 0  0.6666666666666665 -2 0  0.7999999999999998 -2 0  0.9333333333333331 -2 0  1.066666666666667 -2 0  1.2 -2 0  1.333333333333333 -2 0  1.466666666666667 -2 0  1.6 -2 0  1.733333333333333 -2 0  1.866666666666667 -2 0  2 -2 0  -2 -1.866666666666667 0  -1.866666666666667 -1.866666666666667 0  -1.733333333333333 -1.866666666666667 0  -1.6 -1.866666666666667 0  -1.466666666666667 -1.866666666666667 0  -1.333333333333333 -1.866666666666667 0  -1.2 -1.866666666666667 0  -1.066666666666667 -1.866666666666667 0  -0.9333333333333333 -1.866666666666667 0  -0.8 -1.866666666666667 0  -0.6666666666666667 -1.866666666666667 0  -0.5333333333333334 -1.866666666666667 0  -0.3999999999999999 -1.866666666666667 0  -0.2666666666666666 -1.866666666666667 0  -0.1333333333333333 -1.866666666666667 0  0 -1.866666666666667 0  0.1333333333333333 -1.866666666666667 0  0.2666666666666666 -1.866666666666667 0  0.3999999999999999 -1.866666666666667 0  0.5333333333333332 -1.866666666666667 0  0.6666666666666665 -1.866666666666667 0  0.7999999999999998 -1.866666666666667 0  0.9333333333333331 -1.866666666666667 0  1.066666666666667 -1.866666666666667 0  1.2 -1.866666666666667 0  1.333333333333333 -1.866666666666667 0  1.466666666666667 -1.866666666666667 0  1.6 -1.866666666666667 0  1.733333333333333 -1.866666666666667 0  1.866666666666667 -1.866666666666667 0  2 -1.866666666666667 0  -2 -1.733333333333333 0  -1.866666666666667 -1.733333333333333 0  -1.733333333333333 -1.733333333333333 0  -1.6 -1.733333333333333 0  -1.466666666666667 -1.733333333333333 0  -1.333333333333333 -1.733333333333333 0  -1.2 -1.733333333333333 0  -1.066666666666667 -1.733333333333333 0  -0.9333333333333333 -1.733333333333333 0  -0.8 -1.733333333333333 0  -0.6666666666666667 -1.733333333333333 0  -0.5333333333333334 -1.733333333333333 0  -0.3999999999999999 -1.733333333333333 0  -0.2666666666666666 -1.733333333333333 0  -0.1333333333333333 -1.733333333333333 0  0 -1.733333333333333 0  0.1333333333333333 -1.733333333333333 0  0.2666666666666666 -1.733333333333333 0  0.3999999999999999 -1.733333333333333 0  0.5333333333333332 -1.733333333333333 0  0.6666666666666665 -1.733333333333333 0  0.7999999999999998 -1.733333333333333 0  0.9333333333333331 -1.733333333333333 0  1.066666666666667 -1.733333333333333 0  1.2 -1.733333333333333 0  1.333333333333333 -1.733333333333333 0  1.466666666666667 -1.733333333333333 0  1.6 -1.733333333333333 0  1.733333333333333 -1.733333333333333 0  1.866666666666667 -1.733333333333333 0  2 -1.733333333333333 0  -2 -1.6 0  -1.866666666666667 -1.6 0  -1.733333333333333 -1.6 0  -1.6 -1.6 0  -1.466666666666667 -1.6 0  -1.333333333333333 -1.6 0  -1.2 -1.6 0  -1.066666666666667 -1.6 0  -0.9333333333333333 -1.6 0  -0.8 -1.6 0  -0.6666666666666667 -1.6 0  -0.5333333333333334 -1.6 0  -0.3999999999999999 -1.6 0  -0.2666666666666666 -1.6 0  -0.1333333333333333 -1.6 0  0 -1.6 0  0.1333333333333333 -1.6 0  0.2666666666666666 -1.6 0  0.3999999999999999 -1.6 0  0.5333333333333332 -1.6 0  0.6666666666666665 -1.6 0  0.7999999999999998 -1.6 0  0.9333333333333331 -1.6 0  1.066666666666667 -1.6 0  1.2 -1.6 0  1.333333333333333 -1.6 0  1.466666666666667 -1.6 0  1.6 -1.6 0  1.733333333333333 -1.6 0  1.866666666666667 -1.6 0  2 -1.6 0  -2 -1.466666666666667 0  -1.866666666666667 -1.466666666666667 0  -1.733333333333333 -1.466666666666667 0  -1.6 -1.466666666666667 0  -1.466666666666667 -1.466666666666667 0  -1.333333333333333 -1.466666666666667 0  -1.2 -1.466666666666667 0  -1.066666666666667 -1.466666666666667 0  -0.9333333333333333 -1.466666666666667 0  -0.8 -1.466666666666667 0  -0.6666666666666667 -1.466666666666667 0  -0.5333333333333334 -1.466666666666667 0  -0.3999999999999999 -1.466666666666667 0  -0.2666666666666666 -1.466666666666667 0  -0.1333333333333333 -1.466666666666667 0  0 -1.466666666666667 0  0.1333333333333333 -1.466666666666667 0  0.2666666666666666 -1.466666666666667 0  0.3999999999999999 -1.466666666666667 0  0.5333333333333332 -1.466666666666667 0  0.6666666666666665 -1.466666666666667 0  0.7999999999999998 -1.466666666666667 0  0.9333333333333331 -1.466666666666667 0  1.066666666666667 -1.466666666666667 0  1.2 -1.466666666666667 0  1.333333333333333 -1.466666666666667 0  1.466666666666667 -1.466666666666667 0  1.6 -1.466666666666667 0  1.733333333333333 -1.466666666666667 0  1.866666666666667 -1.466666666666667 0  2 -1.466666666666667 0  -2 -1.333333333333333 0  -1.866666666666667 -1.333333333333333 0  -1.733333333333333 -1.333333333333333 0  -1.6 -1.333333333333333 0  -1.466666666666667 -1.333333333333333 0  -1.333333333333333 -1.333333333333333 0  -1.2 -1.333333333333333 0  -1.066666666666667 -1.333333333333333 0  -0.9333333333333333 -1.333333333333333 0  -0.8 -1.333333333333333 0  -0.6666666666666667 -1.333333333333333 0  -0.5333333333333334 -1.333333333333333 0  -0.3999999999999999 -1.333333333333333 0  -0.2666666666666666 -1.333333333333333 0  -0.1333333333333333 -1.333333333333333 0  0 -1.333333333333333 0  0.1333333333333333 -1.333333333333333 0  0.2666666666666666 -1.333333333333333 0  0.3999999999999999 -1.333333333333333 0  0.5333333333333332 -1.333333333333333 0  0.6666666666666665 -1.333333333333333 0  0.7999999999999998 -1.333333333333333 0  0.9333333333333331 -1.333333333333333 0  1.066666666666667 -1.333333333333333 0  1.2 -1.333333333333333 0  1.333333333333333 -1.333333333333333 0  1.466666666666667 -1.333333333333333 0  1.6 -1.333333333333333 0  1.733333333333333 -1.333333333333333 0  1.866666666666667 -1.333333333333333 0  2 -1.333333333333333 0  -2 -1.2 0  -1.866666666666667 -1.2 0  -1.733333333333333 -1.2 0  -1.6 -1.2 0  -1.466666666666667 -1.2 0  -1.333333333333333 -1.2 0  -1.2 -1.2 0  -1.066666666666667 -1.2 0  -0.9333333333333333 -1.2 0  -0.8 -1.2 0  -0.6666666666666667 -1.2 0  -0.5333333333333334 -1.2 0  -0.3999999999999999 -1.2 0  -0.2666666666666666 -1.2 0  -0.1333333333333333 -1.2 0  0 -1.2 0  0.1333333333333333 -1.2 0  0.2666666666666666 -1.2 0  0.3999999999999999 -1.2 0  0.5333333333333332 -1.2 0  0.6666666666666665 -1.2 0  0.7999999999999998 -1.2 0  0.9333333333333331 -1.2 0  1.066666666666667 -1.2 0  1.2 -1.2 0  1.333333333333333 -1.2 0  1.466666666666667 -1.2 0  1.6 -1.2 0  1.733333333333333 -1.2 0  1.866666666666667 -1.2 0  2 -1.2 0  -2 -1.066666666666667 0  -1.866666666666667 -1.066666666666667 0  -1.733333333333333 -1.066666666666667 0  -1.6 -1.066666666666667 0  -1.466666666666667 -1.066666666666667 0  -1.333333333333333 -1.066666666666667 0  -1.2 -1.066666666666667 0  -1.066666666666667 -1.066666666666667 0  -0.9333333333333333 -1.066666666666667 0  -0.8 -1.066666666666667 0  -0.6666666666666667 -1.066666666666667 0  -0.5333333333333334 -1.066666666666667 0  -0.3999999999999999 -1.066666666666667 0  -0.2666666666666666 -1.066666666666667 0  -0.1333333333333333 -1.066666666666667 0  0 -1.066666666666667 0  0.1333333333333333 -1.066666666666667 0  0.2666666666666666 -1.066666666666667 0  0.3999999999999999 -1.066666666666667 0  0.5333333333333332 -1.066666666666667 0  0.6666666666666665 -1.066666666666667 0  0.7999999999999998 -1.066666666666667 0  0.9333333333333331 -1.066666666666667 0  1.066666666666667 -1.066666666666667 0  1.2 -1.066666666666667 0  1.333333333333333 -1.066666666666667 0  1.466666666666667 -1.066666666666667 0  1.6 -1.066666666666667 0  1.733333333333333 -1.066666666666667 0  1.866666666666667 -1.066666666666667 0  2 -1.066666666666667 0  -2 -0.9333333333333333 0  -1.866666666666667 -0.9333333333333333 0  -1.733333333333333 -0.9333333333333333 0  -1.6 -0.9333333333333333 0  -1.466666666666667 -0.9333333333333333 0  -1.333333333333333 -0.9333333333333333 0  -1.2 -0.9333333333333333 0  -1.066666666666667 -0.9333333333333333 0  -0.9333333333333333 -0.9333333333333333 0  -0.8 -0.9333333333333333 0  -0.6666666666666667 -0.9333333333333333 0  -0.5333333333333334 -0.9333333333333333 0  -0.3999999999999999 -0.9333333333333333 0  -0.2666666666666666 -0.9333333333333333 0  -0.1333333333333333 -0.9333333333333333 0  0 -0.9333333333333333 0  0.1333333333333333 -0.9333333333333333 0  0.2666666666666666 -0.9333333333333333 0  0.3999999999999999 -0.9333333333333333 0  0.5333333333333332 -0.9333333333333333 0  0.6666666666666665 -0.9333333333333333 0  0.7999999999999998 -0.9333333333333333 0  0.9333333333333331 -0.9333333333333333 0  1.066666666666667 -0.9333333333333333 0  1.2 -0.9333333333333333 0  1.333333333333333 -0.9333333333333333 0  1.466666666666667 -0.9333333333333333 0  1.6 -0.9333333333333333 0  1.733333333333333 -0.9333333333333333 0  1.866666666666667 -0.9333333333333333 0  2 -0.9333333333333333 0  -2 -0.8 0  -1.866666666666667 -0.8 0  -1.733333333333333 -0.8 0  -1.6 -0.8 0  -1.466666666666667 -0.8 0  -1.333333333333333 -0.8 0  -1.2 -0.8 0  -1.066666666666667 -0.8 0  -0.9333333333333333 -0.8 0  -0.8 -0.8 0  -0.6666666666666667 -0.8 0  -0.5333333333333334 -0.8 0  -0.3999999999999999 -0.8 0  -0.2666666666666666 -0.8 0  -0.1333333333333333 -0.8 0  0 -0.8 0  0.1333333333333333 -0.8 0  0.2666666666666666 -0.8 0  0.3999999999999999 -0.8 0  0.5333333333333332 -0.8 0  0.6666666666666665 -0.8 0  0.7999999999999998 -0.8 0  0.9333333333333331 -0.8 0  1.066666666666667 -0.8 0  1.2 -0.8 0  1.333333333333333 -0.8 0  1.466666666666667 -0.8 0  1.6 -0.8 0  1.733333333333333 -0.8 0  1.866666666666667 -0.8 0  2 -0.8 0  -2 -0.6666666666666667 0  -1.866666666666667 -0.6666666666666667 0  -1.733333333333333 -0.6666666666666667 0  -1.6 -0.6666666666666667 0  -1.466666666666667 -0.6666666666666667 0  -1.333333333333333 -0.6666666666666667 0  -1.2 -0.6666666666666667 0  -1.066666666666667 -0.6666666666666667 0  -0.9333333333333333 -0.6666666666666667 0  -0.8 -0.6666666666666667 0  -0.6666666666666667 -0.6666666666666667 0  -0.5333333333333334 -0.6666666666666667 0  -0.3999999999999999 -0.6666666666666667 0  -0.2666666666666666 -0.6666666666666667 0  -0.1333333333333333 -0.6666666666666667 0  0 -0.6666666666666667 0  0.1333333333333333 -0.6666666666666667 0  0.2666666666666666 -0.6666666666666667 0  0.3999999999999999 -0.6666666666666667 0  0.5333333333333332 -0.6666666666666667 0  0.6666666666666665 -0.6666666666666667 0  0.7999999999999998 -0.6666666666666667 0  0.9333333333333331 -0.6666666666666667 0  1.066666666666667 -0.6666666666666667 0  1.2 -0.6666666666666667 0  1.333333333333333 -0.6666666666666667 0  1.466666666666667 -0.6666666666666667 0  1.6 -0.6666666666666667 0  1.733333333333333 -0.6666666666666667 0  1.866666666666667 -0.6666666666666667 0  2 -0.6666666666666667 0  -2 -0.5333333333333334 0  -1.866666666666667 -0.5333333333333334 0  -1.733333333333333 -0.5333333333333334 0  -1.6 -0.5333333333333334 0  -1.466666666666667 -0.5333333333333334 0  -1.333333333333333 -0.5333333333333334 0  -1.2 -0.5333333333333334 0  -1.066666666666667 -0.5333333333333334 0  -0.9333333333333333 -0.5333333333333334 0  -0.8 -0.5333333333333334 0  -0.6666666666666667 -0.5333333333333334 0  -0.5333333333333334 -0.5333333333333334 0  -0.3999999999999999 -0.5333333333333334 0  -0.2666666666666666 -0.5333333333333334 0  -0.1333333333333333 -0.5333333333333334 0  0 -0.5333333333333334 0  0.1333333333333333 -0.5333333333333334 0  0.2666666666666666 -0.5333333333333334 0  0.3999999999999999 -0.5333333333333334 0  0.5333333333333332 -0.5333333333333334 0  0.6666666666666665 -0.5333333333333334 0  0.7999999999999998 -0.5333333333333334 0  0.9333333333333331 -0.5333333333333334 0  1.066666666666667 -0.5333333333333334 0  1.2 -0.5333333333333334 0  1.333333333333333 -0.5333333333333334 0  1.466666666666667 -0.5333333333333334 0  1.6 -0.5333333333333334 0  1.733333333333333 -0.5333333333333334 0  1.866666666666667 -0.5333333333333334 0  2 -0.5333333333333334 0  -2 -0.3999999999999999 0  -1.866666666666667 -0.3999999999999999 0  -1.733333333333333 -0.3999999999999999 0  -1.6 -0.3999999999999999 0  -1.466666666666667 -0.3999999999999999 0  -1.333333333333333 -0.3999999999999999 0  -1.2 -0.3999999999999999 0  -1.066666666666667 -0.3999999999999999 0  -0.9333333333333333 -0.3999999999999999 0  -0.8 -0.3999999999999999 0  -0.6666666666666667 -0.3999999999999999 0  -0.5333333333333334 -0.3999999999999999 0  -0.3999999999999999 -0.3999999999999999 0  -0.2666666666666666 -0.3999999999999999 0  -0.1333333333333333 -0.3999999999999999 0  0 -0.3999999999999999 0  0.1333333333333333 -0.3999999999999999 0  0.2666666666666666 -0.3999999999999999 0  0.3999999999999999 -0.3999999999999999 0  0.5333333333333332 -0.3999999999999999 0  0.6666666666666665 -0.3999999999999999 0  0.7999999999999998 -0.3999999999999999 0  0.9333333333333331 -0.3999999999999999 0  1.066666666666667 -0.3999999999999999 0  1.2 -0.3999999999999999 0  1.333333333333333 -0.3999999999999999 0  1.466666666666667 -0.3999999999999999 0  1.6 -0.3999999999999999 0  1.733333333333333 -0.3999999999999999 0  1.866666666666667 -0.3999999999999999 0  2 -0.3999999999999999 0  -2 -0.2666666666666666 0  -1.866666666666667 -0.2666666666666666 0  -1.733333333333333 -0.2666666666666666 0  -1.6 -0.2666666666666666 0  -1.466666666666667 -0.2666666666666666 0  -1.333333333333333 -0.2666666666666666 0  -1.2 -0.2666666666666666 0  -1.066666666666667 -0.2666666666666666 0  -0.9333333333333333 -0.2666666666666666 0  -0.8 -0.2666666666666666 0  -0.6666666666666667 -0.2666666666666666 0  -0.5333333333333334 -0.2666666666666666 0  -0.3999999999999999 -0.2666666666666666 0  -0.2666666666666666 -0.2666666666666666 0  -0.1333333333333333 -0.2666666666666666 0  0 -0.2666666666666666 0  0.1333333333333333 -0.2666666666666666 0  0.2666666666666666 -0.2666666666666666 0  0.3999999999999999 -0.2666666666666666 0  0.5333333333333332 -0.2666666666666666 0  0.6666666666666665 -0.2666666666666666 0  0.7999999999999998 -0.2666666666666666 0  0.9333333333333331 -0.2666666666666666 0  1.066666666666667 -0.2666666666666666 0  1.2 -0.2666666666666666 0  1.333333333333333 -0.2666666666666666 0  1.466666666666667 -0.2666666666666666 0  1.6 -0.2666666666666666 0  1.733333333333333 -0.2666666666666666 0  1.866666666666667 -0.2666666666666666 0  2 -0.2666666666666666 0  -2 -0.1333333333333333 0  -1.866666666666667 -0.1333333333333333 0  -1.733333333333333 -0.1333333333333333 0  -1.6 -0.1333333333333333 0  -1.466666666666667 -0.1333333333333333 0  -1.333333333333333 -0.1333333333333333 0  -1.2 -0.1333333333333333 0  -1.066666666666667 -0.1333333333333333 0  -0.9333333333333333 -0.1333333333333333 0  -0.8 -0.1333333333333333 0  -0.6666666666666667 -0.1333333333333333 0  -0.5333333333333334 -0.1333333333333333 0  -0.3999999999999999 -0.1333333333333333 0  -0.2666666666666666 -0.1333333333333333 0  -0.1333333333333333 -0.1333333333333333 0  0 -0.1333333333333333 0  0.1333333333333333 -0.1333333333333333 0  0.2666666666666666 -0.1333333333333333 0  0.3999999999999999 -0.1333333333333333 0  0.5333333333333332 -0.1333333333333333 0  0.6666666666666665 -0.1333333333333333 0  0.7999999999999998 -0.1333333333333333 0  0.9333333333333331 -0.1333333333333333 0  1.066666666666667 -0.1333333333333333 0  1.2 -0.1333333333333333 0  1.333333333333333 -0.1333333333333333 0  1.466666666666667 -0.1333333333333333 0  1.6 -0.1333333333333333 0  1.733333333333333 -0.1333333333333333 0  1.866666666666667 -0.1333333333333333 0  2 -0.1333333333333333 0  -2 0 0  -1.866666666666667 0 0  -1.733333333333333 0 0  -1.6 0 0  -1.466666666666667 0 0  -1.333333333333333 0 0  -1.2 0 0  -1.066666666666667 0 0  -0.9333333333333333 0 0  -0.8 0 0  -0.6666666666666667 0 0  -0.5333333333333334 0 0  -0.3999999999999999 0 0  -0.2666666666666666 0 0  -0.1333333333333333 0 0  0 0 0  0.1333333333333333 0 0  0.2666666666666666 0 0  0.3999999999999999 0 0  0.5333333333333332 0 0  0.6666666666666665 0 0  0.7999999999999998 0 0  0.9333333333333331 0 0  1.066666666666667 0 0  1.2 0 0  1.333333333333333 0 0  1.466666666666667 0 0  1.6 0 0  1.733333333333333 0 0  1.866666666666667 0 0  2 0 0  -2 0.1333333333333333 0  -1.866666666666667 0.1333333333333333 0  -1.733333333333333 0.1333333333333333 0  -1.6 0.1333333333333333 0  -1.466666666666667 0.1333333333333333 0  -1.333333333333333 0.1333333333333333 0  -1.2 0.1333333333333333 0  -1.066666666666667 0.1333333333333333 0  -0.9333333333333333 0.1333333333333333 0  -0.8 0.1333333333333333 0  -0.6666666666666667 0.1333333333333333 0  -0.5333333333333334 0.1333333333333333 0  -0.3999999999999999 0.1333333333333333 0  -0.2666666666666666 0.1333333333333333 0  -0.1333333333333333 0.1333333333333333 0  0 0.1333333333333333 0  0.1333333333333333 0.1333333333333333 0  0.2666666666666666 0.1333333333333333 0  0.3999999999999999 0.1333333333333333 0  0.5333333333333332 0.1333333333333333 0  0.6666666666666665 0.1333333333333333 0  0.7999999999999998 0.1333333333333333 0  0.9333333333333331 0.1333333333333333 0  1.066666666666667 0.1333333333333333 0  1.2 0.1333333333333333 0  1.333333333333333 0.1333333333333333 0  1.466666666666667 0.1333333333333333 0  1.6 0.1333333333333333 0  1.733333333333333 0.1333333333333333 0  1.866666666666667 0.1333333333333333 0  2 0.1333333333333333 0  -2 0.2666666666666666 0  -1.866666666666667 0.2666666666666666 0  -1.733333333333333 0.2666666666666666 0  -1.6 0.2666666666666666 0  -1.466666666666667 0.2666666666666666 0  -1.333333333333333 0.2666666666666666 0  -1.2 0.2666666666666666 0  -1.066666666666667 0.2666666666666666 0  -0.9333333333333333 0.2666666666666666 0  -0.8 0.2666666666666666 0  -0.6666666666666667 0.2666666666666666 0  -0.5333333333333334 0.2666666666666666 0  -0.3999999999999999 0.2666666666666666 0  -0.2666666666666666 0.2666666666666666 0  -0.1333333333333333 0.2666666666666666 0  0 0.2666666666666666 0  0.1333333333333333 0.2666666666666666 0  0.2666666666666666 0.2666666666666666 0  0.3999999999999999 0.2666666666666666 0  0.5333333333333332 0.2666666666666666 0  0.6666666666666665 0.2666666666666666 0  0.7999999999999998 0.2666666666666666 0  0.9333333333333331 0.2666666666666666 0  1.066666666666667 0.2666666666666666 0  1.2 0.2666666666666666 0  1.333333333333333 0.2666666666666666 0  1.466666666666667 0.2666666666666666 0  1.6 0.2666666666666666 0  1.733333333333333 0.2666666666666666 0  1.866666666666667 0.2666666666666666 0  2 0.2666666666666666 0  -2 0.3999999999999999 0  -1.866666666666667 0.3999999999999999 0  -1.733333333333333 0.3999999999999999 0  -1.6 0.3999999999999999 0  -1.466666666666667 0.3999999999999999 0  -1.333333333333333 0.3999999999999999 0  -1.2 0.3999999999999999 0  -1.066666666666667 0.3999999999999999 0  -0.9333333333333333 0.3999999999999999 0  -0.8 0.3999999999999999 0  -0.6666666666666667 0.3999999999999999 0  -0.5333333333333334 0.3999999999999999 0  -0.3999999999999999 0.3999999999999999 0  -0.2666666666666666 0.3999999999999999 0  -0.1333333333333333 0.3999999999999999 0  0 0.3999999999999999 0  0.1333333333333333 0.3999999999999999 0  0.2666666666666666 0.3999999999999999 0  0.3999999999999999 0.3999999999999999 0  0.5333333333333332 0.3999999999999999 0  0.6666666666666665 0.3999999999999999 0  0.7999999999999998 0.3999999999999999 0  0.9333333333333331 0.3999999999999999 0  1.066666666666667 0.3999999999999999 0  1.2 0.3999999999999999 0  1.333333333333333 0.3999999999999999 0  1.466666666666667 0.3999999999999999 0  1.6 0.3999999999999999 0  1.733333333333333 0.3999999999999999 0  1.866666666666667 0.3999999999999999 0  2 0.3999999999999999 0  -2 0.5333333333333332 0  -1.866666666666667 0.5333333333333332 0  -1.733333333333333 0.5333333333333332 0  -1.6 0.5333333333333332 0  -1.466666666666667 0.5333333333333332 0  -1.333333333333333 0.5333333333333332 0  -1.2 0.5333333333333332 0  -1.066666666666667 0.5333333333333332 0  -0.9333333333333333 0.5333333333333332 0  -0.8 0.5333333333333332 0  -0.6666666666666667 0.5333333333333332 0  -0.5333333333333334 0.5333333333333332 0  -0.3999999999999999 0.5333333333333332 0  -0.2666666666666666 0.5333333333333332 0  -0.1333333333333333 0.5333333333333332 0  0 0.5333333333333332 0  0.1333333333333333 0.5333333333333332 0  0.2666666666666666 0.5333333333333332 0  0.3999999999999999 0.5333333333333332 0  0.5333333333333332 0.5333333333333332 0  0.6666666666666665 0.5333333333333332 0  0.7999999999999998 0.5333333333333332 0  0.9333333333333331 0.5333333333333332 0  1.066666666666667 0.5333333333333332 0  1.2 0.5333333333333332 0  1.333333333333333 0.5333333333333332 0  1.466666666666667 0.5333333333333332 0  1.6 0.5333333333333332 0  1.733333333333333 0.5333333333333332 0  1.866666666666667 0.5333333333333332 0  2 0.5333333333333332 0  -2 0.6666666666666665 0  -1.866666666666667 0.6666666666666665 0  -1.733333333333333 0.6666666666666665 0  -1.6 0.6666666666666665 0  -1.466666666666667 0.6666666666666665 0  -1.333333333333333 0.6666666666666665 0  -1.2 0.6666666666666665 0  -1.066666666666667 0.6666666666666665 0  -0.9333333333333333 0.6666666666666665 0  -0.8 0.6666666666666665 0  -0.6666666666666667 0.6666666666666665 0  -0.5333333333333334 0.6666666666666665 0  -0.3999999999999999 0.6666666666666665 0  -0.2666666666666666 0.6666666666666665 0  -0.1333333333333333 0.6666666666666665 0  0 0.6666666666666665 0  0.1333333333333333 0.6666666666666665 0  0.2666666666666666 0.6666666666666665 0  0.3999999999999999 0.6666666666666665 0  0.5333333333333332 0.6666666666666665 0  0.6666666666666665 0.6666666666666665 0  0.7999999999999998 0.6666666666666665 0  0.9333333333333331 0.6666666666666665 0  1.066666666666667 0.6666666666666665 0  1.2 0.6666666666666665 0  1.333333333333333 0.6666666666666665 0  1.466666666666667 0.6666666666666665 0  1.6 0.6666666666666665 0  1.733333333333333 0.6666666666666665 0  1.866666666666667 0.6666666666666665 0  2 0.6666666666666665 0  -2 0.7999999999999998 0  -1.866666666666667 0.7999999999999998 0  -1.733333333333333 0.7999999999999998 0  -1.6 0.7999999999999998 0  -1.466666666666667 0.7999999999999998 0  -1.333333333333333 0.7999999999999998 0  -1.2 0.7999999999999998 0  -1.066666666666667 0.7999999999999998 0  -0.9333333333333333 0.7999999999999998 0  -0.8 0.7999999999999998 0  -0.6666666666666667 0.7999999999999998 0  -0.5333333333333334 0.7999999999999998 0  -0.3999999999999999 0.7999999999999998 0  -0.2666666666666666 0.7999999999999998 0  -0.1333333333333333 0.7999999999999998 0  0 0.7999999999999998 0  0.1333333333333333 0.7999999999999998 0  0.2666666666666666 0.7999999999999998 0  0.3999999999999999 0.7999999999999998 0  0.5333333333333332 0.7999999999999998 0  0.6666666666666665 0.7999999999999998 0  0.7999999999999998 0.7999999999999998 0  0.9333333333333331 0.7999999999999998 0  1.066666666666667 0.7999999999999998 0  1.2 0.7999999999999998 0  1.333333333333333 0.7999999999999998 0  1.466666666666667 0.7999999999999998 0  1.6 0.7999999999999998 0  1.733333333333333 0.7999999999999998 0  1.866666666666667 0.7999999999999998 0  2 0.7999999999999998 0  -2 0.9333333333333331 0  -1.866666666666667 0.9333333333333331 0  -1.733333333333333 0.9333333333333331 0  -1.6 0.9333333333333331 0  -1.466666666666667 0.9333333333333331 0  -1.333333333333333 0.9333333333333331 0  -1.2 0.9333333333333331 0  -1.066666666666667 0.9333333333333331 0  -0.9333333333333333 0.9333333333333331 0  -0.8 0.9333333333333331 0  -0.6666666666666667 0.9333333333333331 0  -0.5333333333333334 0.9333333333333331 0  -0.3999999999999999 0.9333333333333331 0  -0.2666666666666666 0.9333333333333331 0  -0.1333333333333333 0.9333333333333331 0  0 0.9333333333333331 0  0.1333333333333333 0.9333333333333331 0  0.2666666666666666 0.9333333333333331 0  0.3999999999999999 0.9333333333333331 0  0.5333333333333332 0.9333333333333331 0  0.6666666666666665 0.9333333333333331 0  0.7999999999999998 0.9333333333333331 0  0.9333333333333331 0.9333333333333331 0  1.066666666666667 0.9333333333333331 0  1.2 0.9333333333333331 0  1.333333333333333 0.9333333333333331 0  1.466666666666667 0.9333333333333331 0  1.6 0.9333333333333331 0  1.733333333333333 0.9333333333333331 0  1.866666666666667 0.9333333333333331 0  2 0.9333333333333331 0  -2 1.066666666666667 0  -1.866666666666667 1.066666666666667 0  -1.733333333333333 1.066666666666667 0  -1.6 1.066666666666667 0  -1.466666666666667 1.066666666666667 0  -1.333333333333333 1.066666666666667 0  -1.2 1.066666666666667 0  -1.066666666666667 1.066666666666667 0  -0.9333333333333333 1.066666666666667 0  -0.8 1.066666666666667 0  -0.6666666666666667 1.066666666666667 0  -0.5333333333333334 1.066666666666667 0  -0.3999999999999999 1.066666666666667 0  -0.2666666666666666 1.066666666666667 0  -0.1333333333333333 1.066666666666667 0  0 1.066666666666667 0  0.1333333333333333 1.066666666666667 0  0.2666666666666666 1.066666666666667 0  0.3999999999999999 1.066666666666667 0  0.5333333333333332 1.066666666666667 0  0.6666666666666665 1.066666666666667 0  0.7999999999999998 1.066666666666667 0  0.9333333333333331 1.066666666666667 0  1.066666666666667 1.066666666666667 0  1.2 1.066666666666667 0  1.333333333333333 1.066666666666667 0  1.466666666666667 1.066666666666667 0  1.6 1.066666666666667 0  1.733333333333333 1.066666666666667 0  1.866666666666667 1.066666666666667 0  2 1.066666666666667 0  -2 1.2 0  -1.866666666666667 1.2 0  -1.733333333333333 1.2 0  -1.6 1.2 0  -1.466666666666667 1.2 0  -1.333333333333333 1.2 0  -1.2 1.2 0  -1.066666666666667 1.2 0  -0.9333333333333333 1.2 0  -0.8 1.2 0  -0.6666666666666667 1.2 0  -0.5333333333333334 1.2 0  -0.3999999999999999 1.2 0  -0.2666666666666666 1.2 0  -0.1333333333333333 1.2 0  0 1.2 0  0.1333333333333333 1.2 0  0.2666666666666666 1.2 0  0.3999999999999999 1.2 0  0.5333333333333332 1.2 0  0.6666666666666665 1.2 0  0.7999999999999998 1.2 0  0.9333333333333331 1.2 0  1.066666666666667 1.2 0  1.2 1.2 0  1.333333333333333 1.2 0  1.466666666666667 1.2 0  1.6 1.2 0  1.733333333333333 1.2 0  1.866666666666667 1.2 0  2 1.2 0  -2 1.333333333333333 0  -1.866666666666667 1.333333333333333 0  -1.733333333333333 1.333333333333333 0  -1.6 1.333333333333333 0  -1.466666666666667 1.333333333333333 0  -1.333333333333333 1.333333333333333 0  -1.2 1.333333333333333 0  -1.066666666666667 1.333333333333333 0  -0.9333333333333333 1.333333333333333 0  -0.8 1.333333333333333 0  -0.6666666666666667 1.333333333333333 0  -0.5333333333333334 1.333333333333333 0  -0.3999999999999999 1.333333333333333 0  -0.2666666666666666 1.333333333333333 0  -0.1333333333333333 1.333333333333333 0  0 1.333333333333333 0  0.1333333333333333 1.333333333333333 0  0.2666666666666666 1.333333333333333 0  0.3999999999999999 1.333333333333333 0  0.5333333333333332 1.333333333333333 0  0.6666666666666665 1.333333333333333 0  0.7999999999999998 1.333333333333333 0  0.9333333333333331 1.333333333333333 0  1.066666666666667 1.333333333333333 0  1.2 1.333333333333333 0  1.333333333333333 1.333333333333333 0  1.466666666666667 1.333333333333333 0  1.6 1.333333333333333 0  1.733333333333333 1.333333333333333 0  1.866666666666667 1.333333333333333 0  2 1.333333333333333 0  -2 1.466666666666667 0  -1.866666666666667 1.466666666666667 0  -1.733333333333333 1.466666666666667 0  -1.6 1.466666666666667 0  -1.466666666666667 1.466666666666667 0  -1.333333333333333 1.466666666666667 0  -1.2 1.466666666666667 0  -1.066666666666667 1.466666666666667 0  -0.9333333333333333 1.466666666666667 0  -0.8 1.466666666666667 0  -0.6666666666666667 1.466666666666667 0  -0.5333333333333334 1.466666666666667 0  -0.3999999999999999 1.466666666666667 0  -0.2666666666666666 1.466666666666667 0  -0.1333333333333333 1.466666666666667 0  0 1.466666666666667 0  0.1333333333333333 1.466666666666667 0  0.2666666666666666 1.466666666666667 0  0.3999999999999999 1.466666666666667 0  0.5333333333333332 1.466666666666667 0  0.6666666666666665 1.466666666666667 0  0.7999999999999998 1.466666666666667 0  0.9333333333333331 1.466666666666667 0  1.066666666666667 1.466666666666667 0  1.2 1.466666666666667 0  1.333333333333333 1.466666666666667 0  1.466666666666667 1.466666666666667 0  1.6 1.466666666666667 0  1.733333333333333 1.466666666666667 0  1.866666666666667 1.466666666666667 0  2 1.466666666666667 0  -2 1.6 0  -1.866666666666667 1.6 0  -1.733333333333333 1.6 0  -1.6 1.6 0  -1.466666666666667 1.6 0  -1.333333333333333 1.6 0  -1.2 1.6 0  -1.066666666666667 1.6 0  -0.9333333333333333 1.6 0  -0.8 1.6 0  -0.6666666666666667 1.6 0  -0.5333333333333334 1.6 0  -0.3999999999999999 1.6 0  -0.2666666666666666 1.6 0  -0.1333333333333333 1.6 0  0 1.6 0  0.1333333333333333 1.6 0  0.2666666666666666 1.6 0  0.3999999999999999 1.6 0  0.5333333333333332 1.6 0  0.6666666666666665 1.6 0  0.7999999999999998 1.6 0  0.9333333333333331 1.6 0  1.066666666666667 1.6 0  1.2 1.6 0  1.333333333333333 1.6 0  1.466666666666667 1.6 0  1.6 1.6 0  1.733333333333333 1.6 0  1.866666666666667 1.6 0  2 1.6 0  -2 1.733333333333333 0  -1.866666666666667 1.733333333333333 0  -1.733333333333333 1.733333333333333 0  -1.6 1.733333333333333 0  -1.466666666666667 1.733333333333333 0  -1.333333333333333 1.733333333333333 0  -1.2 1.733333333333333 0  -1.066666666666667 1.733333333333333 0  -0.9333333333333333 1.733333333333333 0  -0.8 1.733333333333333 0  -0.6666666666666667 1.733333333333333 0  -0.5333333333333334 1.733333333333333 0  -0.3999999999999999 1.733333333333333 0  -0.2666666666666666 1.733333333333333 0  -0.1333333333333333 1.733333333333333 0  0 1.733333333333333 0  0.1333333333333333 1.733333333333333 0  0.2666666666666666 1.733333333333333 0  0.3999999999999999 1.733333333333333 0  0.5333333333333332 1.733333333333333 0  0.6666666666666665 1.733333333333333 0  0.7999999999999998 1.733333333333333 0  0.9333333333333331 1.733333333333333 0  1.066666666666667 1.733333333333333 0  1.2 1.733333333333333 0  1.333333333333333 1.733333333333333 0  1.466666666666667 1.733333333333333 0  1.6 1.733333333333333 0  1.733333333333333 1.733333333333333 0  1.866666666666667 1.733333333333333 0  2 1.733333333333333 0  -2 1.866666666666667 0  -1.866666666666667 1.866666666666667 0  -1.733333333333333 1.866666666666667 0  -1.6 1.866666666666667 0  -1.466666666666667 1.866666666666667 0  -1.333333333333333 1.866666666666667 0  -1.2 1.866666666666667 0  -1.066666666666667 1.866666666666667 0  -0.9333333333333333 1.866666666666667 0  -0.8 1.866666666666667 0  -0.6666666666666667 1.866666666666667 0  -0.5333333333333334 1.866666666666667 0  -0.3999999999999999 1.866666666666667 0  -0.2666666666666666 1.866666666666667 0  -0.1333333333333333 1.866666666666667 0  0 1.866666666666667 0  0.1333333333333333 1.866666666666667 0  0.2666666666666666 1.866666666666667 0  0.3999999999999999 1.866666666666667 0  0.5333333333333332 1.866666666666667 0  0.6666666666666665 1.866666666666667 0  0.7999999999999998 1.866666666666667 0  0.9333333333333331 1.866666666666667 0  1.066666666666667 1.866666666666667 0  1.2 1.866666666666667 0  1.333333333333333 1.866666666666667 0  1.466666666666667 1.866666666666667 0  1.6 1.866666666666667 0  1.733333333333333 1.866666666666667 0  1.866666666666667 1.866666666666667 0  2 1.866666666666667 0  -2 2 0  -1.866666666666667 2 0  -1.733333333333333 2 0  -1.6 2 0  -1.466666666666667 2 0  -1.333333333333333 2 0  -1.2 2 0  -1.066666666666667 2 0  -0.9333333333333333 2 0  -0.8 2 0  -0.6666666666666667 2 0  -0.5333333333333334 2 0  -0.3999999999999999 2 0  -0.2666666666666666 2 0  -0.1333333333333333 2 0  0 2 0  0.1333333333333333 2 0  0.2666666666666666 2 0  0.3999999999999999 2 0  0.5333333333333332 2 0  0.6666666666666665 2 0  0.7999999999999998 2 0  0.9333333333333331 2 0  1.066666666666667 2 0  1.2 2 0  1.333333333333333 2 0  1.466666666666667 2 0  1.6 2 0  1.733333333333333 2 0  1.866666666666667 2 0  2 2 0  </DataArray>
</Points>
<Cells>
<DataArray  type="UInt32"  Name="connectivity"  format="ascii">0 1 32  0 31 32  1 2 33  1 32 33  2 3 34  2 33 34  3 4 35  3 34 35  4 5 36  4 35 36  5 6 37  5 36 37  6 7 38  6 37 38  7 8 39  7 38 39  8 9 40  8 39 40  9 10 41  9 40 41  10 11 42  10 41 42  11 12 43  11 42 43  12 13 44  12 43 44  13 14 45  13 44 45  14 15 46  14 45 46  15 16 47  15 46 47  16 17 48  16 47 48  17 18 49  17 48 49  18 19 50  18 49 50  19 20 51  19 50 51  20 21 52  20 51 52  21 22 53  21 52 53  22 23 54  22 53 54  23 24 55  23 54 55  24 25 56  24 55 56  25 26 57  25 56 57  26 27 58  26 57 58  27 28 59  27 58 59  28 29 60  28 59 60  29 30 61  29 60 61  31 32 63  31 62 63  32 33 64  32 63 64  33 34 65  33 64 65  34 35 66  34 65 66  35 36 67  35 66 67  36 37 68  36 67 68  37 38 69  37 68 69  38 39 70  38 69 70  39 40 71  39 70 71  40 41 72  40 71 72  41 42 73  41 72 73  42 43 74  42 73 74  43 44 75  43 74 75  44 45 76  44 75 76  45 46 77  45 76 77  46 47 78  46 77 78  47 48 79  47 78 79  48 49 80  48 79 80  49 50 81  49 80 81  50 51 82  50 81 82  51 52 83  51 82 83  52 53 84  52 83 84  53 54 85  53 84 85  54 55 86  54 85 86  55 56 87  55 86 87  56 57 88  56 87 88  57 58 89  57 88 89  58 59 90  58 89 90  59 60 91  59 90 91  60 61 92  60 91 92  62 63 94  62 93 94  63 64 95  63 94 95  64 65 96  64 95 96  65 66 97  65 96 97  66 67 98  66 97 98  67 68 99  67 98 99  68 69 100  68 99 100  69 70 101  69 100 101  70 71 102  70 101 102  71 72 103  71 102 103  72 73 104  72 103 104  73 74 105  73 104 105  74 75 106  74 105 106  75 76 107  75 106 107  76 77 108  76 107 108  77 78 109  77 108 109  78 79 110  78 109 110  79 80 111  79 110 111  80 81 112  80 111 112  81 82 113  81 112 113  82 83 114  82 113 114  83 84 115  83 114 115  84 85 116  84 115 116  85 86 117  85 116 117  86 87 118  86 117 118  87 88 119  87 118 119  88 89 120  88 119 120  89 90 121  89 120 121  90 91 122  90 121 122  91 92 123  91 122 123  93 94 125  93 124 125  94 95 126  94 125 126  95 96 127  95 126 127  96 97 128  96 127 128  97 98 129  97 128 129  98 99 130  98 129 130  99 100 131  99 130 131  100 101 132  100 131 132  101 102 133  101 132 133  102 103 134  102 133 134  103 104 135  103 134 135  104 105 136  104 135 136  105 106 137  105 136 137  106 107 138  106 137 138  107 108 139  107 138 139  108 109 140  108 139 140  109 110 141  109 140 141  110 111 142  110 141 142  111 112 143  111 142 143  112 113 144  112 143 144  113 114 145  113 144 145  114 115 146  114 145 146  115 116 147  115 146 147  116 117 148  116 147 148  117 118 149  117 148 149  118 119 150  118 149 150  119 120 151  119 150 151  120 121 152  120 151 152  121 122 153  121 152 153  122 123 154  122 153 154  124 125 156  124 155 156  125 126 157  125 156 157  126 127 158  126 157 158  127 128 159  127 158 159  128 129 160  128 159 160  129 130 161  129 160 161  130 131 162  130 161 162  131 132 163  131 162 163  132 133 164  132 163 164  133 134 165  133 164 165  134 135 166  134 165 166  135 136 167  135 166 167  136 137 168  136 167 168  137 138 169  137 168 169  138 139 170  138 169 170  139 140 171  139 170 171  140 141 172  140 171 172  141 142 173  141 172 173  142 143 174  142 173 174  143 144 175  143 174 175  144 145 176  144 175 176  145 146 177  145 176 177  146 147 178  146 177 178  147 148 179  147 178 179  148 149 180  148 179 180  149 150 181  149 180 181  150 151 182  150 181 182  151 152 183  151 182 183  152 153 184  152 183 184  153 154 185  153 184 185  155 156 187  155 186 187  156 157 188  156 187 188  157 158 189  157 188 189  158 159 190  158 189 190  159 160 191  159 190 191  160 161 192  160 191 192  161 162 193  161 192 193  162 163 194  162 193 194  163 164 195  163 194 195  164 165 196  164 195 196  165 166 197  165 196 197  166 167 198  166 197 198  167 168 199  167 198 199  168 169 200  168 199 200  169 170 201  169 200 201  170 171 202  170 201 202  171 172 203  171 202 203  172 173 204  172 203 204  173 174 205  173 204 205  174 175 206  174 205 206  175 176 207  175 206 207  176 177 208  176 207 208  177 178 209  177 208 209  178 179 210  178 209 210  179 180 211  179 210 211  180 181 212  180 211 212  181 182 213  181 212 213  182 183 214  182 213 214  183 184 215  183 214 215  184 185 216  184 215 216  186 187 218  186 217 218  187 188 219  187 218 219  188 189 220  188 219 220  189 190 221  189 220 221  190 191 222  190 221 222  191 192 223  191 222 223  192 193 224  192 223 224  193 194 225  193 224 225  194 195 226  194 225 226  195 196 227  195 226 227  196 197 228  196 227 228  197 198 229  197 228 229  198 199 230  198 229 230  199 200 231  199 230 231  200 201 232  200 231 232  201 202 233  201 232 233  202 203 234  202 233 234  203 204 235  203 234 235  204 205 236  204 235 236  205 206 237  205 236 237  206 207 238  206 237 238  207 208 239  207 238 239  208 209 240  208 239 240  209 210 241  209 240 241  210 211 242  210 241 242  211 212 243  211 242 243  212 213 244  212 243 244  213 214 245  213 244 245  214 215 246  214 245 246  215 216 247  215 246 247  217 218 249  217 248 249  218 219 250  218 249 250  219 220 251  219 250 251  220 221 252  220 251 252  221 222 253  221 252 253  222 223 254  222 253 254  223 224 255  223 254 255  224 225 256  224 255 256  225 226 257  225 256 257  226 227 258  226 257 258  227 228 259  227 258 259  228 229 260  228 259 260  229 230 261  229 260 261  230 231 262  230 261 262  231 232 263  231 262 263  232 233 264  232 263 264  233 234 265  233 264 265  234 235 266  234 265 266  235 236 267  235 266 267  236 237 268  236 267 268  237 238 269  237 268 269  238 239 270  238 269 270  239 240 271  239 270 271  240 241 272  240 271 272  241 242 273  241 272 273  242 243 274  242 273 274  243 244 275  243 274 275  244 245 276  244 275 276  245 246 277  245 276 277  246 247 278  246 277 278  248 249 280  248 279 280  249 250 281  249 280 281  250 251 282  250 281 282  251 252 283  251 282 283  252 253 284  252 283 284  253 254 285  253 284 285  254 255 286  254 285 286  255 256 287  255 286 287  256 257 288  256 287 288  257 258 289  257 288 289  258 259 290  258 289 290  259 260 291  259 290 291  260 261 292  260 291 292  261 262 293  261 292 293  262 263 294  262 293 294  263 264 295  263 294 295  264 265 296  264 295 296  265 266 297  265 296 297  266 267 298  266 297 298  267 268 299  267 298 299  268 269 300  268 299 300  269 270 301  269 300 301  270 271 302  270 301 302  271 272 303  271 302 303  272 273 304  272 303 304  273 274 305  273 304 305  274 275 306  274 305 306  275 276 307  275 306 307  276 277 308  276 307 308  277 278 309  277 308 309  279 280 311  279 310 311  280 281 312  280 311 312  281 282 313  281 312 313  282 283 314  282 313 314  283 284 315  283 314 315  284 285 316  284 315 316  285 286 317  285 316 317  286 287 318  286 317 318  287 288 319  287 318 319  288 289 320  288 319 320  289 290 321  289 320 321  290 291 322  290 321 322  291 292 323  291 322 323  292 293 324  292 323 324  293 294 325  293 324 325  294 295 326  294 325 326  295 296 327  295 326 327  296 297 328  296 327 328  297 298 329  297 328 329  298 299 330  298 329 330  299 300 331  299 330 331  300 301 332  300 331 332  301 302 333  301 332 333  302 303 334  302 333 334  303 304 335  303 334 335  304 305 336  304 335 336  305 306 337  305 336 337  306 307 338  306 337 338  307 308 339  307 338 339  308 309 340  308 339 340  310 311 342  310 341 342  311 312 343  311 342 343  312 313 344  312 343 344  313 314 345  313 344 345  314 315 346  314 345 346  315 316 347  315 346 347  316 317 348  316 347 348  317 318 349  317 348 349  318 319 350  318 349 350  319 320 351  319 350 351  320 321 352  320 351 352  321 322 353  321 352 353  322 323 354  322 353 354  323 324 355  323 354 355  324 325 356  324 355 356  325 326 357  325 356 357  326 327 358  326 357 358  327 328 359  327 358 359  328 329 360  328 359 360  329 330 361  329 360 361  330 331 362  330 361 362  331 332 363  331 362 363  332 333 364  332 363 364  333 334 365  333 364 365  334 335 366  334 365 366  335 336 367  335 366 367  336 337 368  336 367 368  337 338 369  337 368 369  338 339 370  338 369 370  339 340 371  339 370 371  341 342 373  341 372 373  342 343 374  342 373 374  343 344 375  343 374 375  344 345 376  344 375 376  345 346 377  345 376 377  346 347 378  346 377 378  347 348 379  347 378 379  348 349 380  348 379 380  349 350 381  349 380 381  350 351 382  350 381 382  351 352 383  351 382 383  352 353 384  352 383 384  353 354 385  353 384 385  354 355 386  354 385 386  355 356 387  355 386 387  356 357 388  356 387 388  357 358 389  357 388 389  358 359 390  358 389 390  359 360 391  359 390 391  360 361 392  360 391 392  361 362 393  361 392 393  362 363 394  362 393 394  363 364 395  363 394 395  364 365 396  364 395 396  365 366 397  365 396 397  366 367 398  366 397 398  367 368 399  367 398 399  368 369 400  368 399 400  369 370 401  369 400 401  370 371 402  370 401 402  372 373 404  372 403 404  373 374 405  373 404 405  374 375 406  374 405 406  375 376 407  375 406 407  376 377 408  376 407 408  377 378 409  377 408 409  378 379 410  378 409 410  379 380 411  379 410 411  380 381 412  380 411 412  381 382 413  381 412 413  382 383 414  382 413 414  383 384 415  383 414 415  384 385 416  384 415 416  385 386 417  385 416 417  386 387 418  386 417 418  387 388 419  387 418 419  388 389 420  388 419 420  389 390 421  389 420 421  390 391 422  390 421 422  391 392 423  391 422 423  392 393 424  392 423 424  393 394 425  393 424 425  394 395 426  394 425 426  395 396 427  395 426 427  396 397 428  396 427 428  397 398 429  397 428 429  398 399 430  398 429 430  399 400 431  399 430 431  400 401 432  400 431 432  401 402 433  401 432 433  403 404 435  403 434 435  404 405 436  404 435 436  405 406 437  405 436 437  406 407 438  406 437 438  407 408 439  407 438 439  408 409 440  408 439 440  409 410 441  409 440 441  410 411 442  410 441 442  411 412 443  411 442 443  412 413 444  412 443 444  413 414 445  413 444 445  414 415 446  414 445 446  415 416 447  415 446 447  416 417 448  416 447 448  417 418 449  417 448 449  418 419 450  418 449 450  419 420 451  419 450 451  420 421 452  420 451 452  421 422 453  421 452 453  422 423 454  422 453 454  423 424 455  423 454 455  424 425 456  424 455 456  425 426 457  425 456 457  426 427 458  426 457 458  427 428 459  427 458 459  428 429 460  428 459 460  429 430 461  429 460 461  430 431 462  430 461 462  431 432 463  431 462 463  432 433 464  432 463 464  434 435 466  434 465 466  435 436 467  435 466 467  436 437 468  436 467 468  437 438 469  437 468 469  438 439 470  438 469 470  439 440 471  439 470 471  440 441 472  440 471 472  441 442 473  441 472 473  442 443 474  442 473 474  443 444 475  443 474 475  444 445 476  444 475 476  445 446 477  445 476 477  446 447 478  446 477 478  447 448 479  447 478 479  448 449 480  448 479 480  449 450 481  449 480 481  450 451 482  450 481 482  451 452 483  451 482 483  452 453 484  452 483 484  453 454 485  453 484 485  454 455 486  454 485 486  455 456 487  455 486 487  456 457 488  456 487 488  457 458 489  457 488 489  458 459 490  458 489 490  459 460 491  459 490 491  460 461 492  460 491 492  461 462 493  461 492 493  462 463 494  462 493 494  463 464 495  463 494 495  465 466 497  465 496 497  466 467 498  466 497 498  467 468 499  467 498 499  468 469 500  468 499 500  469 470 501  469 500 501  470 471 502  470 501 502  471 472 503  471 502 503  472 473 504  472 503 504  473 474 505  473 504 505  474 475 506  474 505 506  475 476 507  475 506 507  476 477 508  476 507 508  477 478 509  477 508 509  478 479 510  478 509 510  479 480 511  479 510 511  480 481 512  480 511 512  481 482 513  481 512 513  482 483 514  482 513 514  483 484 515  483 514 515  484 485 516  484 515 516  485 486 517  485 516 517  486 487 518  486 517 518  487 488 519  487 518 519  488 489 520  488 519 520  489 490 521  489 520 521  490 491 522  490 521 522  491 492 523  491 522 523  492 493 524  492 523 524  493 494 525  493 524 525  494 495 526  494 525 526  496 497 528  496 527 528  497 498 529  497 528 529  498 499 530  498 529 530  499 500 531  499 530 531  500 501 532  500 531 532  501 502 533  501 532 533  502 503 534  502 533 534  503 504 535  503 534 535  504 505 536  504 535 536  505 506 537  505 536 537  506 507 538  506 537 538  507 508 539  507 538 539  508 509 540  508 539 540  509 510 541  509 540 541  510 511 542  510 541 542  511 512 543  511 542 543  512 513 544  512 543 544  513 514 545  513 544 545  514 515 546  514 545 546  515 516 547  515 546 547  516 517 548  516 547 548  517 518 549  517 548 549  518 519 550  518 549 550  519 520 551  519 550 551  520 521 552  520 551 552  521 522 553  521 552 553  522 523 554  522 553 554  523 524 555  523 554 555  524 525 556  524 555 556  525 526 557  525 556 557  527 528 559  527 558 559  528 529 560  528 559 560  529 530 561  529 560 561  530 531 562  530 561 562  531 532 563  531 562 563  532 533 564  532 563 564  533 534 565  533 564 565  534 535 566  534 565 566  535 536 567  535 566 567  536 537 568  536 567 568  537 538 569  537 568 569  538 539 570  538 569 570  539 540 571  539 570 571  540 541 572  540 571 572  541 542 573  541 572 573  542 543 574  542 573 574  543 544 575  543 574 575  544 545 576  544 575 576  545 546 577  545 576 577  546 547 578  546 577 578  547 548 579  547 578 579  548 549 580  548 579 580  549 550 581  549 580 581  550 551 582  550 581 582  551 552 583  551 582 583  552 553 584  552 583 584  553 554 585  553 584 585  554 555 586  554 585 586  555 556 587  555 586 587  556 557 588  556 587 588  558 559 590  558 589 590  559 560 591  559 590 591  560 561 592  560 591 592  561 562 593  561 592 593  562 563 594  562 593 594  563 564 595  563 594 595  564 565 596  564 595 596  565 566 597  565 596 597  566 567 598  566 597 598  567 568 599  567 598 599  568 569 600  568 599 600  569 570 601  569 600 601  570 571 602  570 601 602  571 572 603  571 602 603  572 573 604  572 603 604  573 574 605  573 604 605  574 575 606  574 605 606  575 576 607  575 606 607  576 577 608  576 607 608  577 578 609  577 608 609  578 579 610  578 609 610  579 580 611  579 610 611  580 581 612  580 611 612  581 582 613  581 612 613  582 583 614  582 613 614  583 584 615  583 614 615  584 585 616  584 615 616  585 586 617  585 616 617  586 587 618  586 617 618  587 588 619  587 618 619  589 590 621  589 620 621  590 591 622  590 621 622  591 592 623  591 622 623  592 593 624  592 623 624  593 594 625  593 624 625  594 595 626  594 625 626  595 596 627  595 626 627  596 597 628  596 627 628  597 598 629  597 628 629  598 599 630  598 629 630  599 600 631  599 630 631  600 601 632  600 631 632  601 602 633  601 632 633  602 603 634  602 633 634  603 604 635  603 634 635  604 605 636  604 635 636  605 606 637  605 636 637  606 607 638  606 637 638  607 608 639  607 638 639  608 609 640  608 639 640  609 610 641  609 640 641  610 611 642  610 641 642  611 612 643  611 642 643  612 613 644  612 643 644  613 614 645  613 644 645  614 615 646  614 645 646  615 616 647  615 646 647  616 617 648  616 647 648  617 618 649  617 648 649  618 619 650  618 649 650  620 621 652  620 651 652  621 622 653  621 652 653  622 623 654  622 653 654  623 624 655  623 654 655  624 625 656  624 655 656  625 626 657  625 656 657  626 627 658  626 657 658  627 628 659  627 658 659  628 629 660  628 659 660  629 630 661  629 660 661  630 631 662  630 661 662  631 632 663  631 662 663  632 633 664  632 663 664  633 634 665  633 664 665  634 635 666  634 665 666  635 636 667  635 666 667  636 637 668  636 667 668  637 638 669  637 668 669  638 639 670  638 669 670  639 640 671  639 670 671  640 641 672  640 671 672  641 642 673  641 672 673  642 643 674  642 673 674  643 644 675  643 674 675  644 645 676  644 675 676  645 646 677  645 676 677  646 647 678  646 677 678  647 648 679  647 678 679  648 649 680  648 679 680  649 650 681  649 680 681  651 652 683  651 682 683  652 653 684  652 683 684  653 654 685  653 684 685  654 655 686  654 685 686  655 656 687  655 686 687  656 657 688  656 687 688  657 658 689  657 688 689  658 659 690  658 689 690  659 660 691  659 690 691  660 661 692  660 691 692  661 662 693  661 692 693  662 663 694  662 693 694  663 664 695  663 694 695  664 665 696  664 695 696  665 666 697  665 696 697  666 667 698  666 697 698  667 668 699  667 698 699  668 669 700  668 699 700  669 670 701  669 700 701  670 671 702  670 701 702  671 672 703  671 702 703  672 673 704  672 703 704  673 674 705  673 704 705  674 675 706  674 705 706  675 676 707  675 706 707  676 677 708  676 707 708  677 678 709  677 708 709  678 679 710  678 709 710  679 680 711  679 710 711  680 681 712  680 711 712  682 683 714  682 713 714  683 684 715  683 714 715  684 685 716  684 715 716  685 686 717  685 716 717  686 687 718  686 717 718  687 688 719  687 718 719  688 689 720  688 719 720  689 690 721  689 720 721  690 691 722  690 721 722  691 692 723  691 722 723  692 693 724  692 723 724  693 694 725  693 724 725  694 695 726  694 725 726  695 696 727  695 726 727  696 697 728  696 727 728  697 698 729  697 728 729  698 699 730  698 729 730  699 700 731  699 730 731  700 701 732  700 731 732  701 702 733  701 732 733  702 703 734  702 733 734  703 704 735  703 734 735  704 705 736  704 735 736  705 706 737  705 736 737  706 707 738  706 737 738  707 708 739  707 738 739  708 709 740  708 739 740  709 710 741  709 740 741  710 711 742  710 741 742  711 712 743  711 742 743  713 714 745  713 744 745  714 715 746  714 745 746  715 716 747  715 746 747  716 717 748  716 747 748  717 718 749  717 748 749  718 719 750  718 749 750  719 720 751  719 750 751  720 721 752  720 751 752  721 722 753  721 752 753  722 723 754  722 753 754  723 724 755  723 754 755  724 725 756  724 755 756  725 726 757  725 756 757  726 727 758  726 757 758  727 728 759  727 758 759  728 729 760  728 759 760  729 730 761  729 760 761  730 731 762  730 761 762  731 732 763  731 762 763  732 733 764  732 763 764  733 734 765  733 764 765  734 735 766  734 765 766  735 736 767  735 766 767  736 737 768  736 767 768  737 738 769  737 768 769  738 739 770  738 769 770  739 740 771  739 770 771  740 741 772  740 771 772  741 742 773  741 772 773  742 743 774  742 773 774  744 745 776  744 775 776  745 746 777  745 776 777  746 747 778  746 777 778  747 748 779  747 778 779  748 749 780  748 779 780  749 750 781  749 780 781  750 751 782  750 781 782  751 752 783  751 782 783  752 753 784  752 783 784  753 754 785  753 784 785  754 755 786  754 785 786  755 756 787  755 786 787  756 757 788  756 787 788  757 758 789  757 788 789  758 759 790  758 789 790  759 760 791  759 790 791  760 761 792  760 791 792  761 762 793  761 792 793  762 763 794  762 793 794  763 764 795  763 794 795  764 765 796  764 795 796  765 766 797  765 796 797  766 767 798  766 797 798  767 768 799  767 798 799  768 769 800  768 799 800  769 770 801  769 800 801  770 771 802  770 801 802  771 772 803  771 802 803  772 773 804  772 803 804  773 774 805  773 804 805  775 776 807  775 806 807  776 777 808  776 807 808  777 778 809  777 808 809  778 779 810  778 809 810  779 780 811  779 810 811  780 781 812  780 811 812  781 782 813  781 812 813  782 783 814  782 813 814  783 784 815  783 814 815  784 785 816  784 815 816  785 786 817  785 816 817  786 787 818  786 817 818  787 788 819  787 818 819  788 789 820  788 819 820  789 790 821  789 820 821  790 791 822  790 821 822  791 792 823  791 822 823  792 793 824  792 823 824  793 794 825  793 824 825  794 795 826  794 825 826  795 796 827  795 826 827  796 797 828  796 827 828  797 798 829  797 828 829  798 799 830  798 829 830  799 800 831  799 830 831  800 801 832  800 831 832  801 802 833  801 832 833  802 803 834  802 833 834  803 804 835  803 834 835  804 805 836  804 835 836  806 807 838  806 837 838  807 808 839  807 838 839  808 809 840  808 839 840  809 810 841  809 840 841  810 811 842  810 841 842  811 812 843  811 842 843  812 813 844  812 843 844  813 814 845  813 844 845  814 815 846  814 845 846  815 816 847  815 846 847  816 817 848  816 847 848  817 818 849  817 848 849  818 819 850  818 849 850  819 820 851  819 850 851  820 821 852  820 851 852  821 822 853  821 852 853  822 823 854  822 853 854  823 824 855  823 854 855  824 825 856  824 855 856  825 826 857  825 856 857  826 827 858  826 857 858  827 828 859  827 858 859  828 829 860  828 859 860  829 830 861  829 860 861  830 831 862  830 861 862  831 832 863  831 862 863  832 833 864  832 863 864  833 834 865  833 864 865  834 835 866  834 865 866  835 836 867  835 866 867  837 838 869  837 868 869  838 839 870  838 869 870  839 840 871  839 870 871  840 841 872  840 871 872  841 842 873  841 872 873  842 843 874  842 873 874  843 844 875  843 874 875  844 845 876  844 875 876  845 846 877  845 876 877  846 847 878  846 877 878  847 848 879  847 878 879  848 849 880  848 879 880  849 850 881  849 880 881  850 851 882  850 881 882  851 852 883  851 882 883  852 853 884  852 883 884  853 854 885  853 884 885  854 855 886  854 885 886  855 856 887  855 886 887  856 857 888  856 887 888  857 858 889  857 888 889  858 859 890  858 889 890  859 860 891  859 890 891  860 861 892  860 891 892  861 862 893  861 892 893  862 863 894  862 893 894  863 864 895  863 894 895  864 865 896  864 895 896  865 866 897  865 896 897  866 867 898  866 897 898  868 869 900  868 899 900  869 870 901  869 900 901  870 871 902  870 901 902  871 872 903  871 902 903  872 873 904  872 903 904  873 874 905  873 904 905  874 875 906  874 905 906  875 876 907  875 906 907  876 877 908  876 907 908  877 878 909  877 908 909  878 879 910  878 909 910  879 880 911  879 910 911  880 881 912  880 911 912  881 882 913  881 912 913  882 883 914  882 913 914  883 884 915  883 914 915  884 885 916  884 915 916  885 886 917  885 916 917  886 887 918  886 917 918  887 888 919  887 918 919  888 889 920  888 919 920  889 890 921  889 920 921  890 891 922  890 921 922  891 892 923  891 922 923  892 893 924  892 923 924  893 894 925  893 924 925  894 895 926  894 925 926  895 896 927  895 926 927  896 897 928  896 927 928  897 898 929  897 928 929  899 900 931  899 930 931  900 901 932  900 931 932  901 902 933  901 932 933  902 903 934  902 933 934  903 904 935  903 934 935  904 905 936  904 935 936  905 906 937  905 936 937  906 907 938  906 937 938  907 908 939  907 938 939  908 909 940  908 939 940  909 910 941  909 940 941  910 911 942  910 941 942  911 912 943  911 942 943  912 913 944  912 943 944  913 914 945  913 944 945  914 915 946  914 945 946  915 916 947  915 946 947  916 917 948  916 947 948  917 918 949  917 948 949  918 919 950  918 949 950  919 920 951  919 950 951  920 921 952  920 951 952  921 922 953  921 952 953  922 923 954  922 953 954  923 924 955  923 954 955  924 925 956  924 955 956  925 926 957  925 956 957  926 927 958  926 957 958  927 928 959  927 958 959  928 929 960  928 959 960  </DataArray>
<DataArray  type="UInt32"  Name="offsets"  format="ascii">3 6 9 12 15 18 21 24 27 30 33 36 39 42 45 48 51 54 57 60 63 66 69 72 75 78 81 84 87 90 93 96 99 102 105 108 111 114 117 120 123 126 129 132 135 138 141 144 147 150 153 156 159 162 165 168 171 174 177 180 183 186 189 192 195 198 201 204 207 210 213 216 219 222 225 228 231 234 237 240 243 246 249 252 255 258 261 264 267 270 273 276 279 282 285 288 291 294 297 300 303 306 309 312 315 318 321 324 327 330 333 336 339 342 345 348 351 354 357 360 363 366 369 372 375 378 381 384 387 390 393 396 399 402 405 408 411 414 417 420 423 426 429 432 435 438 441 444 447 450 453 456 459 462 465 468 471 474 477 480 483 486 489 492 495 498 501 504 507 510 513 516 519 522 525 528 531 534 537 540 543 546 549 552 555 558 561 564 567 570 573 576 579 582 585 588 591 594 597 600 603 606 609 612 615 618 621 624 627 630 633 636 639 642 645 648 651 654 657 660 663 666 669 672 675 678 681 684 687 690 693 696 699 702 705 708 711 714 717 720 723 726 729 732 735 738 741 744 747 750 753 756 759 762 765 768 771 774 777 780 783 786 789 792 795 798 801 804 807 810 813 816 819 822 825 828 831 834 837 840 843 846 849 852 855 858 861 864 867 870 873 876 879 882 885 888 891 894 897 900 903 906 909 912 915 918 921 924 927 930 933 936 939 942 945 948 951 954 957 960 963 966 969 972 975 978 981 984 987 990 993 996 999 1002 1005 1008 1011 1014 1017 1020 1023 1026 1029 1032 1035 1038 1041 1044 1047 1050 1053 1056 1059 1062 1065 1068 1071 1074 1077 1080 1083 1086 1089 1092 1095 1098 1101 1104 1107 1110 1113 1116 1119 1122 1125 1128 1131 1134 1137 1140 1143 1146 1149 1152 1155 1158 1161 1164 1167 1170 1173 1176 1179 1182 1185 1188 1191 1194 1197 1200 1203 1206 1209 1212 1215 1218 1221 1224 1227 1230 1233 1236 1239 1242 1245 1248 1251 1254 1257 1260 1263 1266 1269 1272 1275 1278 1281 1284 1287 1290 1293 1296 1299 1302 1305 1308 1311 1314 1317 1320 1323 1326 1329 1332 1335 1338 1341 1344 1347 1350 1353 1356 1359 1362 1365 1368 1371 1374 1377 1380 1383 1386 1389 1392 1395 1398 1401 1404 1407 1410 1413 1416 1419 1422 1425 1428 1431 1434 1437 1440 1443 1446 1449 1452 1455 1458 1461 1464 1467 1470 1473 1476 1479 1482 1485 1488 1491 1494 1497 1500 1503 1506 1509 1512 1515 1518 1521 1524 1527 1530 1533 1536 1539 1542 1545 1548 1551 1554 1557 1560 1563 1566 1569 1572 1575 1578 1581 1584 1587 1590 1593 1596 1599 1602 1605 1608 1611 1614 1617 1620 1623 1626 1629 1632 1635 1638 1641 1644 1647 1650 1653 1656 1659 1662 1665 1668 1671 1674 1677 1680 1683 1686 1689 1692 1695 1698 1701 1704 1707 1710 1713 1716 1719 1722 1725 1728 1731 1734 1737 1740 1743 1746 1749 1752 1755 1758 1761 1764 1767 1770 1773 1776 1779 1782 1785 1788 1791 1794 1797 1800 1803 1806 1809 1812 1815 1818 1821 1824 1827 1830 1833 1836 1839 1842 1845 1848 1851 1854 1857 1860 1863 1866 1869 1872 1875 1878 1881 1884 1887 1890 1893 1896 1899 1902 1905 1908 1911 1914 1917 1920 1923 1926 1929 1932 1935 1938 1941 1944 1947 1950 1953 1956 1959 1962 1965 1968 1971 1974 1977 1980 1983 1986 1989 1992 1995 1998 2001 2004 2007 2010 2013 2016 2019 2022 2025 2028 2031 2034 2037 2040 2043 2046 2049 2052 2055 2058 2061 2064 2067 2070 2073 2076 2079 2082 2085 2088 2091 2094 2097 2100 2103 2106 2109 2112 2115 2118 2121 2124 2127 2130 2133 2136 2139 2142 2145 2148 2151 2154 2157 2160 2163 2166 2169 2172 2175 2178 2181 2184 2187 2190 2193 2196 2199 2202 2205 2208 2211 2214 2217 2220 2223 2226 2229 2232 2235 2238 2241 2244 2247 2250 2253 2256 2259 2262 2265 2268 2271 2274 2277 2280 2283 2286 2289 2292 2295 2298 2301 2304 2307 2310 2313 2316 2319 2322 2325 2328 2331 2334 2337 2340 2343 2346 2349 2352 2355 2358 2361 2364 2367 2370 2373 2376 2379 2382 2385 2388 2391 2394 2397 2400 2403 2406 2409 2412 2415 2418 2421 2424 2427 2430 2433 2436 2439 2442 2445 2448 2451 2454 2457 2460 2463 2466 2469 2472 2475 2478 2481 2484 2487 2490 2493 2496 2499 2502 2505 2508 2511 2514 2517 2520 2523 2526 2529 2532 2535 2538 2541 2544 2547 2550 2553 2556 2559 2562 2565 2568 2571 2574 2577 2580 2583 2586 2589 2592 2595 2598 2601 2604 2607 2610 2613 2616 2619 2622 2625 2628 2631 2634 2637 2640 2643 2646 2649 2652 2655 2658 2661 2664 2667 2670 2673 2676 2679 2682 2685 2688 2691 2694 2697 2700 2703 2706 2709 2712 2715 2718 2721 2724 2727 2730 2733 2736 2739 2742 2745 2748 2751 2754 2757 2760 2763 2766 2769 2772 2775 2778 2781 2784 2787 2790 2793 2796 2799 2802 2805 2808 2811 2814 2817 2820 2823 2826 2829 2832 2835 2838 2841 2844 2847 2850 2853 2856 2859 2862 2865 2868 2871 2874 2877 2880 2883 2886 2889 2892 2895 2898 2901 2904 2907 2910 2913 2916 2919 2922 2925 2928 2931 2934 2937 2940 2943 2946 2949 2952 2955 2958 2961 2964 2967 2970 2973 2976 2979 2982 2985 2988 2991 2994 2997 3000 3003 3006 3009 3012 3015 3018 3021 3024 3027 3030 3033 3036 3039 3042 3045 3048 3051 3054 3057 3060 3063 3066 3069 3072 3075 3078 3081 3084 3087 3090 3093 3096 3099 3102 3105 3108 3111 3114 3117 3120 3123 3126 3129 3132 3135 3138 3141 3144 3147 3150 3153 3156 3159 3162 3165 3168 3171 3174 3177 3180 3183 3186 3189 3192 3195 3198 3201 3204 3207 3210 3213 3216 3219 3222 3225 3228 3231 3234 3237 3240 3243 3246 3249 3252 3255 3258 3261 3264 3267 3270 3273 3276 3279 3282 3285 3288 3291 3294 3297 3300 3303 3306 3309 3312 3315 3318 3321 3324 3327 3330 3333 3336 3339 3342 3345 3348 3351 3354 3357 3360 3363 3366 3369 3372 3375 3378 3381 3384 3387 3390 3393 3396 3399 3402 3405 3408 3411 3414 3417 3420 3423 3426 3429 3432 3435 3438 3441 3444 3447 3450 3453 3456 3459 3462 3465 3468 3471 3474 3477 3480 3483 3486 3489 3492 3495 3498 3501 3504 3507 3510 3513 3516 3519 3522 3525 3528 3531 3534 3537 3540 3543 3546 3549 3552 3555 3558 3561 3564 3567 3570 3573 3576 3579 3582 3585 3588 3591 3594 3597 3600 3603 3606 3609 3612 3615 3618 3621 3624 3627 3630 3633 3636 3639 3642 3645 3648 3651 3654 3657 3660 3663 3666 3669 3672 3675 3678 3681 3684 3687 3690 3693 3696 3699 3702 3705 3708 3711 3714 3717 3720 3723 3726 3729 3732 3735 3738 3741 3744 3747 3750 3753 3756 3759 3762 3765 3768 3771 3774 3777 3780 3783 3786 3789 3792 3795 3798 3801 3804 3807 3810 3813 3816 3819 3822 3825 3828 3831 3834 3837 3840 3843 3846 3849 3852 3855 3858 3861 3864 3867 3870 3873 3876 3879 3882 3885 3888 3891 3894 3897 3900 3903 3906 3909 3912 3915 3918 3921 3924 3927 3930 3933 3936 3939 3942 3945 3948 3951 3954 3957 3960 3963 3966 3969 3972 3975 3978 3981 3984 3987 3990 3993 3996 3999 4002 4005 4008 4011 4014 4017 4020 4023 4026 4029 4032 4035 4038 4041 4044 4047 4050 4053 4056 4059 4062 4065 4068 4071 4074 4077 4080 4083 4086 4089 4092 4095 4098 4101 4104 4107 4110 4113 4116 4119 4122 4125 4128 4131 4134 4137 4140 4143 4146 4149 4152 4155 4158 4161 4164 4167 4170 4173 4176 4179 4182 4185 4188 4191 4194 4197 4200 4203 4206 4209 4212 4215 4218 4221 4224 4227 4230 4233 4236 4239 4242 4245 4248 4251 4254 4257 4260 4263 4266 4269 4272 4275 4278 4281 4284 4287 4290 4293 4296 4299 4302 4305 4308 4311 4314 4317 4320 4323 4326 4329 4332 4335 4338 4341 4344 4347 4350 4353 4356 4359 4362 4365 4368 4371 4374 4377 4380 4383 4386 4389 4392 4395 4398 4401 4404 4407 4410 4413 4416 4419 4422 4425 4428 4431 4434 4437 4440 4443 4446 4449 4452 4455 4458 4461 4464 4467 4470 4473 4476 4479 4482 4485 4488 4491 4494 4497 4500 4503 4506 4509 4512 4515 4518 4521 4524 4527 4530 4533 4536 4539 4542 4545 4548 4551 4554 4557 4560 4563 4566 4569 4572 4575 4578 4581 4584 4587 4590 4593 4596 4599 4602 4605 4608 4611 4614 4617 4620 4623 4626 4629 4632 4635 4638 4641 4644 4647 4650 4653 4656 4659 4662 4665 4668 4671 4674 4677 4680 4683 4686 4689 4692 4695 4698 4701 4704 4707 4710 4713 4716 4719 4722 4725 4728 4731 4734 4737 4740 4743 4746 4749 4752 4755 4758 4761 4764 4767 4770 4773 4776 4779 4782 4785 4788 4791 4794 4797 4800 4803 4806 4809 4812 4815 4818 4821 4824 4827 4830 4833 4836 4839 4842 4845 4848 4851 4854 4857 4860 4863 4866 4869 4872 4875 4878 4881 4884 4887 4890 4893 4896 4899 4902 4905 4908 4911 4914 4917 4920 4923 4926 4929 4932 4935 4938 4941 4944 4947 4950 4953 4956 4959 4962 4965 4968 4971 4974 4977 4980 4983 4986 4989 4992 4995 4998 5001 5004 5007 5010 5013 5016 5019 5022 5025 5028 5031 5034 5037 5040 5043 5046 5049 5052 5055 5058 5061 5064 5067 5070 5073 5076 5079 5082 5085 5088 5091 5094 5097 5100 5103 5106 5109 5112 5115 5118 5121 5124 5127 5130 5133 5136 5139 5142 5145 5148 5151 5154 5157 5160 5163 5166 5169 5172 5175 5178 5181 5184 5187 5190 5193 5196 5199 5202 5205 5208 5211 5214 5217 5220 5223 5226 5229 5232 5235 5238 5241 5244 5247 5250 5253 5256 5259 5262 5265 5268 5271 5274 5277 5280 5283 5286 5289 5292 5295 5298 5301 5304 5307 5310 5313 5316 5319 5322 5325 5328 5331 5334 5337 5340 5343 5346 5349 5352 5355 5358 5361 5364 5367 5370 5373 5376 5379 5382 5385 5388 5391 5394 5397 5400 </DataArray>
<DataArray  type="UInt8"  Name="types"  format="ascii">5 5 5 5 5 5 5 5 5 5 5 5 5 5 5 5 5 5 5 5 5 5 5 5 5 5 5 5 5 5 5 5 5 5 5 5 5 5 5 5 5 5 5 5 5 5 5 5 5 5 5 5 5 5 5 5 5 5 5 5 5 5 5 5 5 5 5 5 5 5 5 5 5 5 5 5 5 5 5 5 5 5 5 5 5 5 5 5 5 5 5 5 5 5 5 5 5 5 5 5 5 5 5 5 5 5 5 5 5 5 5 5 5 5 5 5 5 5 5 5 5 5 5 5 5 5 5 5 5 5 5 5 5 5 5 5 5 5 5 5 5 5 5 5 5 5 5 5 5 5 5 5 5 5 5 5 5 5 5 5 5 5 5 5 5 5 5 5 5 5 5 5 5 5 5 5 5 5 5 5 5 5 5 5 5 5 5 5 5 5 5 5 5 5 5 5 5 5 5 5 5 5 5 5 5 5 5 5 5 5 5 5 5 5 5 5 5 5 5 5 5 5 5 5 5 5 5 5 5 5 5 5 5 5 5 5 5 5 5 5 5 5 5 5 5 5 5 5 5 5 5 5 5 5 5 5 5 5 5 5 5 5 5 5 5 5 5 5 5 5 5 5 5 5 5 5 5 5 5 5 5 5 5 5 5 5 5 5 5 5 5 5 5 5 5 5 5 5 5 5 5 5 5 5 5 5 5 5 5 5 5 5 5 5 5 5 5 5 5 5 5 5 5 5 5 5 5 5 5 5 5 5 5 5 5 5 5 5 5 5 5 5 5 5 5 5 5 5 5 5 5 5 5 5 5 5 5 5 5 5 5 5 5 5 5 5 5 5 5 5 5 5 5 5 5 5 5 5 5 5 5 5 5 5 5 5 5 5 5 5 5 5 5 5 5 5 5 5 5 5 5 5 5 5 5 5 5 5 5 5 5 5 5 5 5 5 5 5 5 5 5 5 5 5 5 5 5 5 5 5 5 5 5 5 5 5 5 5 5 5 5 5 5 5 5 5 5 5 5 5 5 5 5 5 5 5 5 5 5 5 5 5 5 5 5 5 5 5 5 5 5 5 5 5 5 5 5 5 5 5 5 5 5 5 5 5 5 5 5 5 5 5 5 5 5 5 5 5 5 5 5 5 5 5 5 5 5 5 5 5 5 5 5 5 5 5 5 5 5 5 5 5 5 5 5 5 5 5 5 5 5 5 5 5 5 5 5 5 5 5 5 5 5 5 5 5 5 5 5 5 5 5 5 5 5 5 5 5 5 5 5 5 5 5 5 5 5 5 5 5 5 5 5 5 5 5 5 5 5 5 5 5 5 5 5 5 5 5 5 5 5 5 5 5 5 5 5 5 5 5 5 5 5 5 5 5 5 5 5 5 5 5 5 5 5 5 5 5 5 5 5 5 5 5 5 5 5 5 5 5 5 5 5 5 5 5 5 5 5 5 5 5 5 5 5 5 5 5 5 5 5 5 5 5 5 5 5 5 5 5 5 5 5 5 5 5 5 5 5 5 5 5 5 5 5 5 5 5 5 5 5 5 5 5 5 5 5 5 5 5 5 5 5 5 5 5 5 5 5 5 5 5 5 5 5 5 5 5 5 5 5 5 5 5 5 5 5 5 5 5 5 5 5 5 5 5 5 5 5 5 5 5 5 5 5 5 5 5 5 5 5 5 5 5 5 5 5 5 5 5 5 5 5 5 5 5 5 5 5 5 5 5 5 5 5 5 5 5 5 5 5 5 5 5 5 5 5 5 5 5 5 5 5 5 5 5 5 5 5 5 5 5 5 5 5 5 5 5 5 5 5 5 5 5 5 5 5 5 5 5 5 5 5 5 5 5 5 5 5 5 5 5 5 5 5 5 5 5 5 5 5 5 5 5 5 5 5 5 5 5 5 5 5 5 5 5 5 5 5 5 5 5 5 5 5 5 5 5 5 5 5 5 5 5 5 5 5 5 5 5 5 5 5 5 5 5 5 5 5 5 5 5 5 5 5 5 5 5 5 5 5 5 5 5 5 5 5 5 5 5 5 5 5 5 5 5 5 5 5 5 5 5 5 5 5 5 5 5 5 5 5 5 5 5 5 5 5 5 5 5 5 5 5 5 5 5 5 5 5 5 5 5 5 5 5 5 5 5 5 5 5 5 5 5 5 5 5 5 5 5 5 5 5 5 5 5 5 5 5 5 5 5 5 5 5 5 5 5 5 5 5 5 5 5 5 5 5 5 5 5 5 5 5 5 5 5 5 5 5 5 5 5 5 5 5 5 5 5 5 5 5 5 5 5 5 5 5 5 5 5 5 5 5 5 5 5 5 5 5 5 5 5 5 5 5 5 5 5 5 5 5 5 5 5 5 5 5 5 5 5 5 5 5 5 5 5 5 5 5 5 5 5 5 5 5 5 5 5 5 5 5 5 5 5 5 5 5 5 5 5 5 5 5 5 5 5 5 5 5 5 5 5 5 5 5 5 5 5 5 5 5 5 5 5 5 5 5 5 5 5 5 5 5 5 5 5 5 5 5 5 5 5 5 5 5 5 5 5 5 5 5 5 5 5 5 5 5 5 5 5 5 5 5 5 5 5 5 5 5 5 5 5 5 5 5 5 5 5 5 5 5 5 5 5 5 5 5 5 5 5 5 5 5 5 5 5 5 5 5 5 5 5 5 5 5 5 5 5 5 5 5 5 5 5 5 5 5 5 5 5 5 5 5 5 5 5 5 5 5 5 5 5 5 5 5 5 5 5 5 5 5 5 5 5 5 5 5 5 5 5 5 5 5 5 5 5 5 5 5 5 5 5 5 5 5 5 5 5 5 5 5 5 5 5 5 5 5 5 5 5 5 5 5 5 5 5 5 5 5 5 5 5 5 5 5 5 5 5 5 5 5 5 5 5 5 5 5 5 5 5 5 5 5 5 5 5 5 5 5 5 5 5 5 5 5 5 5 5 5 5 5 5 5 5 5 5 5 5 5 5 5 5 5 5 5 5 5 5 5 5 5 5 5 5 5 5 5 5 5 5 5 5 5 5 5 5 5 5 5 5 5 5 5 5 5 5 5 5 5 5 5 5 5 5 5 5 5 5 5 5 5 5 5 5 5 5 5 5 5 5 5 5 5 5 5 5 5 5 5 5 5 5 5 5 5 5 5 5 5 5 5 5 5 5 5 5 5 5 5 5 5 5 5 5 5 5 5 5 5 5 5 5 5 5 5 5 5 5 5 5 5 5 5 5 5 5 5 5 5 5 5 5 5 5 5 5 5 5 5 5 5 5 5 5 5 5 5 5 5 5 5 5 5 5 5 5 5 5 5 5 5 5 5 5 5 5 5 5 5 5 5 5 5 5 5 5 5 5 5 5 5 5 5 5 5 5 5 5 5 5 5 5 5 5 5 5 5 5 5 5 5 5 5 5 5 5 5 5 5 5 5 5 5 5 5 5 5 5 5 5 5 5 5 5 5 5 5 5 5 5 5 5 5 5 5 5 5 5 5 5 5 5 5 5 5 5 5 5 5 5 5 5 5 5 5 5 5 5 5 5 5 5 5 5 5 5 5 5 5 5 5 5 5 5 5 5 5 5 5 5 5 5 5 5 5 5 5 5 5 5 5 5 5 5 5 5 5 5 5 5 5 5 5 5 5 5 5 5 5 5 5 5 5 5 5 5 5 5 5 5 5 5 5 5 5 5 5 5 5 5 5 5 5 5 5 5 5 5 5 5 5 5 5 5 5 5 5 5 5 5 5 5 5 5 5 5 5 5 5 5 5 5 5 5 5 5 5 5 5 5 5 5 5 5 5 5 5 5 5 5 5 5 5 5 5 5 5 5 5 5 5 5 5 5 5 5 5 5 5 5 5 5 5 5 5 5 5 5 5 5 5 5 5 5 5 5 5 5 5 5 5 5 5 5 5 5 5 5 5 5 5 5 5 5 5 5 5 5 5 5 5 5 5 5 5 5 5 5 5 5 5 5 5 5 5 5 5 5 5 5 5 5 5 5 5 5 5 5 5 5 5 5 5 5 5 5 5 5 5 5 5 5 5 5 5 5 5 5 5 5 </DataArray>
</Cells>
<PointData  Scalars="f_12"> 
<DataArray  type="Float64"  Name="f_12"  format="ascii">0.0000000000000000e+00  0.0000000000000000e+00  0.0000000000000000e+00  0.0000000000000000e+00  0.0000000000000000e+00  0.0000000000000000e+00  0.0000000000000000e+00  0.0000000000000000e+00  0.0000000000000000e+00  0.0000000000000000e+00  0.0000000000000000e+00  0.0000000000000000e+00  0.0000000000000000e+00  0.0000000000000000e+00  0.0000000000000000e+00  0.0000000000000000e+00  0.0000000000000000e+00  0.0000000000000000e+00  0.0000000000000000e+00  0.0000000000000000e+00  0.0000000000000000e+00  0.0000000000000000e+00  0.0000000000000000e+00  0.0000000000000000e+00  0.0000000000000000e+00  0.0000000000000000e+00  0.0000000000000000e+00  0.0000000000000000e+00  0.0000000000000000e+00  0.0000000000000000e+00  0.0000000000000000e+00  0.0000000000000000e+00  2.4540862572714893e-04  4.8774701859385027e-04  7.2458289461011178e-04  9.5344204054563346e-04  1.1718866528497975e-03  1.3775595448949889e-03  1.5682174437628047e-03  1.7417603786249259e-03  1.8962592624237160e-03  2.0299820810908741e-03  2.1414184323678659e-03  2.2293018613003032e-03  2.2926293225277940e-03  2.3306770921608972e-03  2.3430125254890162e-03  2.3295011929241028e-03  2.2903091088201390e-03  2.2258999783559947e-03  2.1370276077175079e-03  2.0247238337307099e-03  1.8902825142212022e-03  1.7352402671894759e-03  1.5613547498342067e-03  1.3705813335283111e-03  1.1650490859046196e-03  9.4703709428528701e-04  7.1895257255322328e-04  4.8331354249592462e-04  2.4274336389623245e-04  0.0000000000000000e+00  0.0000000000000000e+00  4.8774701859385033e-04  9.6965903254643212e-04  1.4407252331337802e-03  1.8959692097220556e-03  2.3305218927290546e-03  2.7396860698497461e-03  3.1189953245277843e-03  3.4642699612556604e-03  3.7716708868585948e-03  4.0377512838285778e-03  4.2595052297661924e-03  4.4344120398095909e-03  4.5604749490691940e-03  4.6362527646518431e-03  4.6608832736480576e-03  4.6340974686327578e-03  4.5562240164879614e-03  4.4281838158475263e-03  4.2514749262933223e-03  4.0281485715261654e-03  3.7607772854113481e-03  3.4524165576754954e-03  3.1065615302823487e-03  2.7271003980815682e-03  2.3182662048353555e-03  1.8845887636150616e-03  1.4308485965636851e-03  9.6203528589004588e-04  4.8331354249592484e-04  0.0000000000000000e+00  0.0000000000000000e+00  7.2458289461011188e-04  1.4407252331337806e-03  2.1408675918013691e-03  2.8175593385786498e-03  3.4635368906693032e-03  4.0718046858596131e-03  4.6357160263752351e-03  5.1490531428681928e-03  5.6061058498264238e-03  6.0017476547960672e-03  6.3315076783804257e-03  6.5916363954901325e-03  6.7791630617716281e-03  6.8919427473862560e-03  6.9286911509248558e-03  6.8890057831667026e-03  6.7733726553729041e-03  6.5831582318174311e-03  6.3205870573155741e-03  5.9887060924864906e-03  5.5913373314335863e-03  5.1330206969383198e-03  4.6189494798467524e-03  4.0549007028027172e-03  3.4471627544334135e-03  2.8024624854733463e-03  2.1278937049246625e-03  1.4308485965636858e-03  7.1895257255322382e-04  0.0000000000000000e+00  0.0000000000000000e+00  9.5344204054563324e-04  1.8959692097220554e-03  2.8175593385786489e-03  3.7083604900410936e-03  4.5587847126759050e-03  5.3596071778478993e-03  6.1020679958830818e-03  6.7779749981693727e-03  7.3798058326480518e-03  7.9008073573161846e-03  8.3350898811778810e-03  8.6777134792602097e-03  8.9247634859788982e-03  9.0734123838263486e-03  9.1219656523141585e-03  9.0698896998837996e-03  8.9178207232600316e-03  8.6675541634331967e-03  8.3220152849255245e-03  7.8852122226289213e-03  7.3621735503007681e-03  6.7588729699172012e-03  6.0821440610988285e-03  5.3395881438004127e-03  4.5394781929923005e-03  3.6906614089207987e-03  2.8024624854733476e-03  1.8845887636150624e-03  9.4703709428528777e-04  0.0000000000000000e+00  0.0000000000000000e+00  1.1718866528497970e-03  2.3305218927290538e-03  3.4635368906693002e-03  4.5587847126759033e-03  5.6044535078191970e-03  6.5891852122857975e-03  7.5021980769560811e-03  8.3334111884272831e-03  9.0735688043168186e-03  9.7143618234213670e-03  1.0248543221018785e-02  1.0670033934511488e-02  1.0974015571724635e-02  1.1157006476007876e-02  1.1216918123496601e-02  1.1153089521039439e-02  1.0966298164610744e-02  1.0658747133939004e-02  1.0234028953927613e-02  9.6970678579242249e-03  9.0540429576870477e-03  8.3122954885699492e-03  7.4802237037128435e-03  6.5671691082899459e-03  5.5832975468666085e-03  4.5394781929923005e-03  3.4471627544334156e-03  2.3182662048353581e-03  1.1650490859046209e-03  0.0000000000000000e+00  0.0000000000000000e+00  1.3775595448949870e-03  2.7396860698497426e-03  4.0718046858596087e-03  5.3596071778478959e-03  6.5891852122857957e-03  7.7471687811027394e-03  8.8208689128811361e-03  9.7984229249830669e-03  1.0668939755824577e-02  1.1422642201486810e-02  1.2051002272208915e-02  1.2546865480986328e-02  1.2904559754447806e-02  1.3119984856278598e-02  1.3190678739138187e-02  1.3115858060374855e-02  1.2896431147447394e-02  1.2534982894990183e-02  1.2035732316487637e-02  1.1404464654496297e-02  1.0648440974690232e-02  9.7762889459611629e-03  8.7978789790046918e-03  7.7241900240765139e-03  6.5671691082899433e-03  5.3395881438004118e-03  4.0549007028027190e-03  2.7271003980815708e-03  1.3705813335283129e-03  0.0000000000000000e+00  0.0000000000000000e+00  1.5682174437628023e-03  3.1189953245277778e-03  4.6357160263752291e-03  6.1020679958830775e-03  7.5021980769560785e-03  8.8208689128811395e-03  1.0043620834812762e-02  1.1156936591530253e-02  1.2148406265964209e-02  1.3006888808658032e-02  1.3722665877918112e-02  1.4287583199186223e-02  1.4695174512369182e-02  1.4940763403650012e-02  1.5021538918036698e-02  1.4936601783052105e-02  1.4686979271253750e-02  1.4275608092032668e-02  1.3707286117094557e-02  1.2988595089466879e-02  1.2127797629214581e-02  1.1134712733579161e-02  1.0020574504054995e-02  8.7978789790046866e-03  7.4802237037128383e-03  6.0821440610988250e-03  4.6189494798467533e-03  3.1065615302823513e-03  1.5613547498342080e-03  0.0000000000000000e+00  0.0000000000000000e+00  1.7417603786249239e-03  3.4642699612556578e-03  5.1490531428681910e-03  6.7779749981693666e-03  8.3334111884272744e-03  9.7984229249830652e-03  1.1156936591530251e-02  1.2393926398382831e-02  1.3495597244497601e-02  1.4449563884430253e-02  1.5245021635674720e-02  1.5872903309896318e-02  1.6326016880598624e-02  1.6599158647208068e-02  1.6689197318997265e-02  1.6595125478660901e-02  1.6318076214978584e-02  1.5861304228163724e-02  1.5230132283164298e-02  1.4431865382278340e-02  1.3475676322710253e-02  1.2372467289734150e-02  1.1134712733579161e-02  9.7762889459611594e-03  8.3122954885699422e-03  6.7588729699171977e-03  5.1330206969383190e-03  3.4524165576754959e-03  1.7352402671894761e-03  0.0000000000000000e+00  0.0000000000000000e+00  1.8962592624237140e-03  3.7716708868585922e-03  5.6061058498264186e-03  7.3798058326480431e-03  9.0735688043168065e-03  1.0668939755824570e-02  1.2148406265964209e-02  1.3495597244497609e-02  1.4695481867159509e-02  1.5734564509813611e-02  1.6601070523974835e-02  1.7285117076079375e-02  1.7778863074356929e-02  1.8076632468694783e-02  1.8175005926304267e-02  1.8072877011526031e-02  1.7771470444451092e-02  1.7274321661616063e-02  1.6587218614388635e-02  1.5718108371795863e-02  1.4676972506918476e-02  1.3475676322710272e-02  1.2127797629214598e-02  1.0648440974690242e-02  9.0540429576870564e-03  7.3621735503007759e-03  5.5913373314335950e-03  3.7607772854113541e-03  1.8902825142212050e-03  0.0000000000000000e+00  0.0000000000000000e+00  2.0299820810908711e-03  4.0377512838285726e-03  6.0017476547960602e-03  7.9008073573161742e-03  9.7143618234213549e-03  1.1422642201486805e-02  1.3006888808658027e-02  1.4449563884430262e-02  1.5734564509813611e-02  1.6847431248497535e-02  1.7775547016452235e-02  1.8508320008438408e-02  1.9037344286156960e-02  1.9356531904489365e-02  1.9462211214498374e-02  1.9353187183034404e-02  1.9030761115222110e-02  1.8498708930688876e-02  1.7763218978784023e-02  1.6832792126880245e-02  1.5718108371795884e-02  1.4431865382278378e-02  1.2988595089466912e-02  1.1404464654496323e-02  9.6970678579242440e-03  7.8852122226289387e-03  5.9887060924865053e-03  4.0281485715261758e-03  2.0247238337307160e-03  0.0000000000000000e+00  0.0000000000000000e+00  2.1414184323678624e-03  4.2595052297661855e-03  6.3315076783804171e-03  8.3350898811778689e-03  1.0248543221018770e-02  1.2051002272208903e-02  1.3722665877918093e-02  1.5245021635674708e-02  1.6601070523974831e-02  1.7775547016452235e-02  1.8755128912337278e-02  1.9528630386262000e-02  2.0087171515023965e-02  2.0424317817769131e-02  2.0536184144137958e-02  2.0421498507898136e-02  2.0081623092608369e-02  1.9520531516811039e-02  1.8744743382561938e-02  1.7763218978784048e-02  1.6587218614388676e-02  1.5230132283164350e-02  1.3707286117094614e-02  1.2035732316487678e-02  1.0234028953927644e-02  8.3220152849255505e-03  6.3205870573155958e-03  4.2514749262933371e-03  2.1370276077175153e-03  0.0000000000000000e+00  0.0000000000000000e+00  2.2293018613002988e-03  4.4344120398095805e-03  6.5916363954901204e-03  8.6777134792601907e-03  1.0670033934511467e-02  1.2546865480986305e-02  1.4287583199186202e-02  1.5872903309896300e-02  1.7285117076079350e-02  1.8508320008438380e-02  1.9528630386261979e-02  2.0334390342068995e-02  2.0916342495264906e-02  2.1267775403250793e-02  2.1384631923442993e-02  2.1265575890212472e-02  2.0912014204113160e-02  2.0328073367408640e-02  1.9520531516811032e-02  1.8498708930688893e-02  1.7274321661616104e-02  1.5861304228163779e-02  1.4275608092032731e-02  1.2534982894990223e-02  1.0658747133939024e-02  8.6675541634332210e-03  6.5831582318174476e-03  4.4281838158475402e-03  2.2258999783560020e-03  0.0000000000000000e+00  0.0000000000000000e+00  2.2926293225277888e-03  4.5604749490691827e-03  6.7791630617716125e-03  8.9247634859788740e-03  1.0974015571724607e-02  1.2904559754447778e-02  1.4695174512369158e-02  1.6326016880598603e-02  1.7778863074356901e-02  1.9037344286156922e-02  2.0087171515023931e-02  2.0916342495264903e-02  2.1515323514960910e-02  2.1877199199232353e-02  2.1997784176208061e-02  2.1875691887140634e-02  2.1512357540928569e-02  2.0912014204113136e-02  2.0081623092608331e-02  1.9030761115222110e-02  1.7771470444451123e-02  1.6318076214978643e-02  1.4686979271253802e-02  1.2896431147447427e-02  1.0966298164610765e-02  8.9178207232600490e-03  6.7733726553729163e-03  4.5562240164879718e-03  2.2903091088201447e-03  0.0000000000000000e+00  0.0000000000000000e+00  2.3306770921608924e-03  4.6362527646518310e-03  6.8919427473862335e-03  9.0734123838263209e-03  1.1157006476007841e-02  1.3119984856278568e-02  1.4940763403649984e-02  1.6599158647208036e-02  1.8076632468694759e-02  1.9356531904489334e-02  2.0424317817769100e-02  2.1267775403250769e-02  2.1877199199232346e-02  2.2245545565342244e-02  2.2368546435902102e-02  2.2244779520355987e-02  2.1875691887140624e-02  2.1265575890212437e-02  2.0421498507898091e-02  1.9353187183034394e-02  1.8072877011526052e-02  1.6595125478660950e-02  1.4936601783052134e-02  1.3115858060374878e-02  1.1153089521039451e-02  9.0698896998838117e-03  6.8890057831667078e-03  4.6340974686327639e-03  2.3295011929241071e-03  0.0000000000000000e+00  0.0000000000000000e+00  2.3430125254890089e-03  4.6608832736480402e-03  6.9286911509248332e-03  9.1219656523141290e-03  1.1216918123496573e-02  1.3190678739138158e-02  1.5021538918036663e-02  1.6689197318997220e-02  1.8175005926304218e-02  1.9462211214498325e-02  2.0536184144137916e-02  2.1384631923442962e-02  2.1997784176208030e-02  2.2368546435902092e-02  2.2492614736606430e-02  2.2368546435902099e-02  2.1997784176208034e-02  2.1384631923442948e-02  2.0536184144137923e-02  1.9462211214498360e-02  1.8175005926304270e-02  1.6689197318997297e-02  1.5021538918036727e-02  1.3190678739138205e-02  1.1216918123496605e-02  9.1219656523141672e-03  6.9286911509248601e-03  4.6608832736480619e-03  2.3430125254890193e-03  0.0000000000000000e+00  0.0000000000000000e+00  2.3295011929240950e-03  4.6340974686327422e-03  6.8890057831666809e-03  9.0698896998837771e-03  1.1153089521039411e-02  1.3115858060374826e-02  1.4936601783052061e-02  1.6595125478660856e-02  1.8072877011525969e-02  1.9353187183034345e-02  2.0421498507898071e-02  2.1265575890212426e-02  2.1875691887140607e-02  2.2244779520355962e-02  2.2368546435902085e-02  2.2245545565342230e-02  2.1877199199232322e-02  2.1267775403250738e-02  2.0424317817769086e-02  1.9356531904489344e-02  1.8076632468694790e-02  1.6599158647208095e-02  1.4940763403650033e-02  1.3119984856278608e-02  1.1157006476007880e-02  9.0734123838263521e-03  6.8919427473862543e-03  4.6362527646518440e-03  2.3306770921608998e-03  0.0000000000000000e+00  0.0000000000000000e+00  2.2903091088201303e-03  4.5562240164879458e-03  6.7733726553728824e-03  8.9178207232600074e-03  1.0966298164610715e-02  1.2896431147447360e-02  1.4686979271253710e-02  1.6318076214978536e-02  1.7771470444451026e-02  1.9030761115222040e-02  2.0081623092608296e-02  2.0912014204113108e-02  2.1512357540928524e-02  2.1875691887140603e-02  2.1997784176208020e-02  2.1877199199232315e-02  2.1515323514960858e-02  2.0916342495264847e-02  2.0087171515023906e-02  1.9037344286156929e-02  1.7778863074356926e-02  1.6326016880598645e-02  1.4695174512369192e-02  1.2904559754447806e-02  1.0974015571724635e-02  8.9247634859788965e-03  6.7791630617716273e-03  4.5604749490691914e-03  2.2926293225277940e-03  0.0000000000000000e+00  0.0000000000000000e+00  2.2258999783559873e-03  4.4281838158475133e-03  6.5831582318174120e-03  8.6675541634331707e-03  1.0658747133938962e-02  1.2534982894990145e-02  1.4275608092032627e-02  1.5861304228163668e-02  1.7274321661616004e-02  1.8498708930688817e-02  1.9520531516810980e-02  2.0328073367408599e-02  2.0912014204113101e-02  2.1265575890212406e-02  2.1384631923442921e-02  2.1267775403250720e-02  2.0916342495264834e-02  2.0334390342068926e-02  1.9528630386261930e-02  1.8508320008438352e-02  1.7285117076079361e-02  1.5872903309896328e-02  1.4287583199186224e-02  1.2546865480986321e-02  1.0670033934511481e-02  8.6777134792602011e-03  6.5916363954901264e-03  4.4344120398095849e-03  2.2293018613003010e-03  0.0000000000000000e+00  0.0000000000000000e+00  2.1370276077175010e-03  4.2514749262933093e-03  6.3205870573155559e-03  8.3220152849254984e-03  1.0234028953927585e-02  1.2035732316487599e-02  1.3707286117094514e-02  1.5230132283164246e-02  1.6587218614388576e-02  1.7763218978783964e-02  1.8744743382561879e-02  1.9520531516810984e-02  2.0081623092608285e-02  2.0421498507898050e-02  2.0536184144137878e-02  2.0424317817769055e-02  2.0087171515023882e-02  1.9528630386261913e-02  1.8755128912337219e-02  1.7775547016452193e-02  1.6601070523974821e-02  1.5245021635674727e-02  1.3722665877918108e-02  1.2051002272208910e-02  1.0248543221018779e-02  8.3350898811778724e-03  6.3315076783804171e-03  4.2595052297661863e-03  2.1414184323678641e-03  0.0000000000000000e+00  0.0000000000000000e+00  2.0247238337307038e-03  4.0281485715261533e-03  5.9887060924864715e-03  7.8852122226288953e-03  9.6970678579241954e-03  1.1404464654496261e-02  1.2988595089466830e-02  1.4431865382278282e-02  1.5718108371795800e-02  1.6832792126880179e-02  1.7763218978783982e-02  1.8498708930688834e-02  1.9030761115222061e-02  1.9353187183034342e-02  1.9462211214498305e-02  1.9356531904489296e-02  1.9037344286156888e-02  1.8508320008438325e-02  1.7775547016452176e-02  1.6847431248497503e-02  1.5734564509813604e-02  1.4449563884430279e-02  1.3006888808658043e-02  1.1422642201486810e-02  9.7143618234213584e-03  7.9008073573161794e-03  6.0017476547960611e-03  4.0377512838285735e-03  2.0299820810908711e-03  0.0000000000000000e+00  0.0000000000000000e+00  1.8902825142211946e-03  3.7607772854113320e-03  5.5913373314335655e-03  7.3621735503007386e-03  9.0540429576870130e-03  1.0648440974690190e-02  1.2127797629214529e-02  1.3475676322710194e-02  1.4676972506918405e-02  1.5718108371795814e-02  1.6587218614388607e-02  1.7274321661616032e-02  1.7771470444451067e-02  1.8072877011525997e-02  1.8175005926304211e-02  1.8076632468694724e-02  1.7778863074356870e-02  1.7285117076079309e-02  1.6601070523974783e-02  1.5734564509813580e-02  1.4695481867159505e-02  1.3495597244497623e-02  1.2148406265964223e-02  1.0668939755824579e-02  9.0735688043168134e-03  7.3798058326480483e-03  5.6061058498264212e-03  3.7716708868585948e-03  1.8962592624237151e-03  0.0000000000000000e+00  0.0000000000000000e+00  1.7352402671894673e-03  3.4524165576754785e-03  5.1330206969382938e-03  6.7588729699171683e-03  8.3122954885699110e-03  9.7762889459611178e-03  1.1134712733579105e-02  1.2372467289734082e-02  1.3475676322710198e-02  1.4431865382278303e-02  1.5230132283164275e-02  1.5861304228163706e-02  1.6318076214978574e-02  1.6595125478660877e-02  1.6689197318997224e-02  1.6599158647208023e-02  1.6326016880598579e-02  1.5872903309896269e-02  1.5245021635674677e-02  1.4449563884430239e-02  1.3495597244497603e-02  1.2393926398382858e-02  1.1156936591530263e-02  9.7984229249830686e-03  8.3334111884272831e-03  6.7779749981693735e-03  5.1490531428681971e-03  3.4642699612556617e-03  1.7417603786249256e-03  0.0000000000000000e+00  0.0000000000000000e+00  1.5613547498341989e-03  3.1065615302823335e-03  4.6189494798467273e-03  6.0821440610987938e-03  7.4802237037128062e-03  8.7978789790046519e-03  1.0020574504054941e-02  1.1134712733579097e-02  1.2127797629214527e-02  1.2988595089466839e-02  1.3707286117094536e-02  1.4275608092032651e-02  1.4686979271253718e-02  1.4936601783052063e-02  1.5021538918036653e-02  1.4940763403649963e-02  1.4695174512369132e-02  1.4287583199186164e-02  1.3722665877918056e-02  1.3006888808657998e-02  1.2148406265964190e-02  1.1156936591530258e-02  1.0043620834812762e-02  8.8208689128811326e-03  7.5021980769560759e-03  6.1020679958830783e-03  4.6357160263752325e-03  3.1189953245277791e-03  1.5682174437628026e-03  0.0000000000000000e+00  0.0000000000000000e+00  1.3705813335283046e-03  2.7271003980815557e-03  4.0549007028026973e-03  5.3395881438003849e-03  6.5671691082899129e-03  7.7241900240764758e-03  8.7978789790046415e-03  9.7762889459611056e-03  1.0648440974690181e-02  1.1404464654496257e-02  1.2035732316487602e-02  1.2534982894990155e-02  1.2896431147447360e-02  1.3115858060374812e-02  1.3190678739138139e-02  1.3119984856278544e-02  1.2904559754447750e-02  1.2546865480986271e-02  1.2051002272208868e-02  1.1422642201486775e-02  1.0668939755824553e-02  9.7984229249830634e-03  8.8208689128811326e-03  7.7471687811027324e-03  6.5891852122857905e-03  5.3596071778478941e-03  4.0718046858596087e-03  2.7396860698497409e-03  1.3775595448949863e-03  0.0000000000000000e+00  0.0000000000000000e+00  1.1650490859046138e-03  2.3182662048353451e-03  3.4471627544333965e-03  4.5394781929922771e-03  5.5832975468665799e-03  6.5671691082899112e-03  7.4802237037127984e-03  8.3122954885698971e-03  9.0540429576870043e-03  9.6970678579241867e-03  1.0234028953927585e-02  1.0658747133938971e-02  1.0966298164610712e-02  1.1153089521039402e-02  1.1216918123496558e-02  1.1157006476007827e-02  1.0974015571724588e-02  1.0670033934511441e-02  1.0248543221018742e-02  9.7143618234213306e-03  9.0735688043167926e-03  8.3334111884272744e-03  7.5021980769560768e-03  6.5891852122857931e-03  5.6044535078191918e-03  4.5587847126758990e-03  3.4635368906692980e-03  2.3305218927290503e-03  1.1718866528497957e-03  0.0000000000000000e+00  0.0000000000000000e+00  9.4703709428528246e-04  1.8845887636150522e-03  2.8024624854733329e-03  3.6906614089207805e-03  4.5394781929922797e-03  5.3395881438003867e-03  6.0821440610987921e-03  6.7588729699171604e-03  7.3621735503007360e-03  7.8852122226288953e-03  8.3220152849255054e-03  8.6675541634331811e-03  8.9178207232600108e-03  9.0698896998837736e-03  9.1219656523141273e-03  9.0734123838263139e-03  8.9247634859788618e-03  8.6777134792601716e-03  8.3350898811778481e-03  7.9008073573161620e-03  7.3798058326480379e-03  6.7779749981693709e-03  6.1020679958830792e-03  5.3596071778478941e-03  4.5587847126758990e-03  3.7083604900410884e-03  2.8175593385786463e-03  1.8959692097220533e-03  9.5344204054563237e-04  0.0000000000000000e+00  0.0000000000000000e+00  7.1895257255321992e-04  1.4308485965636782e-03  2.1278937049246526e-03  2.8024624854733338e-03  3.4471627544333978e-03  4.0549007028026990e-03  4.6189494798467273e-03  5.1330206969382930e-03  5.5913373314335647e-03  5.9887060924864741e-03  6.3205870573155602e-03  6.5831582318174190e-03  6.7733726553728894e-03  6.8890057831666801e-03  6.9286911509248324e-03  6.8919427473862309e-03  6.7791630617716030e-03  6.5916363954901065e-03  6.3315076783804023e-03  6.0017476547960524e-03  5.6061058498264160e-03  5.1490531428681936e-03  4.6357160263752334e-03  4.0718046858596087e-03  3.4635368906692980e-03  2.8175593385786455e-03  2.1408675918013664e-03  1.4407252331337787e-03  7.2458289461011112e-04  0.0000000000000000e+00  0.0000000000000000e+00  4.8331354249592234e-04  9.6203528589004111e-04  1.4308485965636786e-03  1.8845887636150531e-03  2.3182662048353460e-03  2.7271003980815570e-03  3.1065615302823348e-03  3.4524165576754781e-03  3.7607772854113342e-03  4.0281485715261550e-03  4.2514749262933136e-03  4.4281838158475211e-03  4.5562240164879536e-03  4.6340974686327457e-03  4.6608832736480428e-03  4.6362527646518284e-03  4.5604749490691775e-03  4.4344120398095736e-03  4.2595052297661785e-03  4.0377512838285692e-03  3.7716708868585913e-03  3.4642699612556617e-03  3.1189953245277817e-03  2.7396860698497426e-03  2.3305218927290525e-03  1.8959692097220533e-03  1.4407252331337785e-03  9.6965903254643093e-04  4.8774701859384978e-04  0.0000000000000000e+00  0.0000000000000000e+00  2.4274336389623131e-04  4.8331354249592234e-04  7.1895257255322014e-04  9.4703709428528289e-04  1.1650490859046148e-03  1.3705813335283059e-03  1.5613547498341995e-03  1.7352402671894666e-03  1.8902825142211946e-03  2.0247238337307047e-03  2.1370276077175040e-03  2.2258999783559916e-03  2.2903091088201355e-03  2.3295011929240985e-03  2.3430125254890110e-03  2.3306770921608928e-03  2.2926293225277875e-03  2.2293018613002958e-03  2.1414184323678602e-03  2.0299820810908711e-03  1.8962592624237147e-03  1.7417603786249267e-03  1.5682174437628043e-03  1.3775595448949874e-03  1.1718866528497966e-03  9.5344204054563248e-04  7.2458289461011112e-04  4.8774701859384957e-04  2.4540862572714866e-04  0.0000000000000000e+00  0.0000000000000000e+00  0.0000000000000000e+00  0.0000000000000000e+00  0.0000000000000000e+00  0.0000000000000000e+00  0.0000000000000000e+00  0.0000000000000000e+00  0.0000000000000000e+00  0.0000000000000000e+00  0.0000000000000000e+00  0.0000000000000000e+00  0.0000000000000000e+00  0.0000000000000000e+00  0.0000000000000000e+00  0.0000000000000000e+00  0.0000000000000000e+00  0.0000000000000000e+00  0.0000000000000000e+00  0.0000000000000000e+00  0.0000000000000000e+00  0.0000000000000000e+00  0.0000000000000000e+00  0.0000000000000000e+00  0.0000000000000000e+00  0.0000000000000000e+00  0.0000000000000000e+00  0.0000000000000000e+00  0.0000000000000000e+00  0.0000000000000000e+00  0.0000000000000000e+00  0.0000000000000000e+00  </DataArray> 
</PointData> 
</Piece>
</UnstructuredGrid>
</VTKFile>