<?xml version="1.0"?>
<VTKFile type="UnstructuredGrid"  version="0.1"  >
<UnstructuredGrid>
<Piece  NumberOfPoints="121" NumberOfCells="200">
<Points>
<DataArray  type="Float64"  NumberOfComponents="3"  format="ascii">0 0 0  0.1 0 0  0.2 0 0  0.3 0 0  0.4 0 0  0.5 0 0  0.6 0 0  0.7 0 0  0.8 0 0  0.9 0 0  1 0 0  0 0.1 0  0.1 0.1 0  0.2 0.1 0  0.3 0.1 0  0.4 0.1 0  0.5 0.1 0  0.6 0.1 0  0.7 0.1 0  0.8 0.1 0  0.9 0.1 0  1 0.1 0  0 0.2 0  0.1 0.2 0  0.2 0.2 0  0.3 0.2 0  0.4 0.2 0  0.5 0.2 0  0.6 0.2 0  0.7 0.2 0  0.8 0.2 0  0.9 0.2 0  1 0.2 0  0 0.3 0  0.1 0.3 0  0.2 0.3 0  0.3 0.3 0  0.4 0.3 0  0.5 0.3 0  0.6 0.3 0  0.7 0.3 0  0.8 0.3 0  0.9 0.3 0  1 0.3 0  0 0.4 0  0.1 0.4 0  0.2 0.4 0  0.3 0.4 0  0.4 0.4 0  0.5 0.4 0  0.6 0.4 0  0.7 0.4 0  0.8 0.4 0  0.9 0.4 0  1 0.4 0  0 0.5 0  0.1 0.5 0  0.2 0.5 0  0.3 0.5 0  0.4 0.5 0  0.5 0.5 0  0.6 0.5 0  0.7 0.5 0  0.8 0.5 0  0.9 0.5 0  1 0.5 0  0 0.6 0  0.1 0.6 0  0.2 0.6 0  0.3 0.6 0  0.4 0.6 0  0.5 0.6 0  0.6 0.6 0  0.7 0.6 0  0.8 0.6 0  0.9 0.6 0  1 0.6 0  0 0.7 0  0.1 0.7 0  0.2 0.7 0  0.3 0.7 0  0.4 0.7 0  0.5 0.7 0  0.6 0.7 0  0.7 0.7 0  0.8 0.7 0  0.9 0.7 0  1 0.7 0  0 0.8 0  0.1 0.8 0  0.2 0.8 0  0.3 0.8 0  0.4 0.8 0  0.5 0.8 0  0.6 0.8 0  0.7 0.8 0  0.8 0.8 0  0.9 0.8 0  1 0.8 0  0 0.9 0  0.1 0.9 0  0.2 0.9 0  0.3 0.9 0  0.4 0.9 0  0.5 0.9 0  0.6 0.9 0  0.7 0.9 0  0.8 0.9 0  0.9 0.9 0  1 0.9 0  0 1 0  0.1 1 0  0.2 1 0  0.3 1 0  0.4 1 0  0.5 1 0  0.6 1 0  0.7 1 0  0.8 1 0  0.9 1 0  1 1 0  </DataArray>
</Points>
<Cells>
<DataArray  type="UInt32"  Name="connectivity"  format="ascii">0 1 12  0 11 12  1 2 13  1 12 13  2 3 14  2 13 14  3 4 15  3 14 15  4 5 16  4 15 16  5 6 17  5 16 17  6 7 18  6 17 18  7 8 19  7 18 19  8 9 20  8 19 20  9 10 21  9 20 21  11 12 23  11 22 23  12 13 24  12 23 24  13 14 25  13 24 25  14 15 26  14 25 26  15 16 27  15 26 27  16 17 28  16 27 28  17 18 29  17 28 29  18 19 30  18 29 30  19 20 31  19 30 31  20 21 32  20 31 32  22 23 34  22 33 34  23 24 35  23 34 35  24 25 36  24 35 36  25 26 37  25 36 37  26 27 38  26 37 38  27 28 39  27 38 39  28 29 40  28 39 40  29 30 41  29 40 41  30 31 42  30 41 42  31 32 43  31 42 43  33 34 45  33 44 45  34 35 46  34 45 46  35 36 47  35 46 47  36 37 48  36 47 48  37 38 49  37 48 49  38 39 50  38 49 50  39 40 51  39 50 51  40 41 52  40 51 52  41 42 53  41 52 53  42 43 54  42 53 54  44 45 56  44 55 56  45 46 57  45 56 57  46 47 58  46 57 58  47 48 59  47 58 59  48 49 60  48 59 60  49 50 61  49 60 61  50 51 62  50 61 62  51 52 63  51 62 63  52 53 64  52 63 64  53 54 65  53 64 65  55 56 67  55 66 67  56 57 68  56 67 68  57 58 69  57 68 69  58 59 70  58 69 70  59 60 71  59 70 71  60 61 72  60 71 72  61 62 73  61 72 73  62 63 74  62 73 74  63 64 75  63 74 75  64 65 76  64 75 76  66 67 78  66 77 78  67 68 79  67 78 79  68 69 80  68 79 80  69 70 81  69 80 81  70 71 82  70 81 82  71 72 83  71 82 83  72 73 84  72 83 84  73 74 85  73 84 85  74 75 86  74 85 86  75 76 87  75 86 87  77 78 89  77 88 89  78 79 90  78 89 90  79 80 91  79 90 91  80 81 92  80 91 92  81 82 93  81 92 93  82 83 94  82 93 94  83 84 95  83 94 95  84 85 96  84 95 96  85 86 97  85 96 97  86 87 98  86 97 98  88 89 100  88 99 100  89 90 101  89 100 101  90 91 102  90 101 102  91 92 103  91 102 103  92 93 104  92 103 104  93 94 105  93 104 105  94 95 106  94 105 106  95 96 107  95 106 107  96 97 108  96 107 108  97 98 109  97 108 109  99 100 111  99 110 111  100 101 112  100 111 112  101 102 113  101 112 113  102 103 114  102 113 114  103 104 115  103 114 115  104 105 116  104 115 116  105 106 117  105 116 117  106 107 118  106 117 118  107 108 119  107 118 119  108 109 120  108 119 120  </DataArray>
<DataArray  type="UInt32"  Name="offsets"  format="ascii">3 6 9 12 15 18 21 24 27 30 33 36 39 42 45 48 51 54 57 60 63 66 69 72 75 78 81 84 87 90 93 96 99 102 105 108 111 114 117 120 123 126 129 132 135 138 141 144 147 150 153 156 159 162 165 168 171 174 177 180 183 186 189 192 195 198 201 204 207 210 213 216 219 222 225 228 231 234 237 240 243 246 249 252 255 258 261 264 267 270 273 276 279 282 285 288 291 294 297 300 303 306 309 312 315 318 321 324 327 330 333 336 339 342 345 348 351 354 357 360 363 366 369 372 375 378 381 384 387 390 393 396 399 402 405 408 411 414 417 420 423 426 429 432 435 438 441 444 447 450 453 456 459 462 465 468 471 474 477 480 483 486 489 492 495 498 501 504 507 510 513 516 519 522 525 528 531 534 537 540 543 546 549 552 555 558 561 564 567 570 573 576 579 582 585 588 591 594 597 600 </DataArray>
<DataArray  type="UInt8"  Name="types"  format="ascii">5 5 5 5 5 5 5 5 5 5 5 5 5 5 5 5 5 5 5 5 5 5 5 5 5 5 5 5 5 5 5 5 5 5 5 5 5 5 5 5 5 5 5 5 5 5 5 5 5 5 5 5 5 5 5 5 5 5 5 5 5 5 5 5 5 5 5 5 5 5 5 5 5 5 5 5 5 5 5 5 5 5 5 5 5 5 5 5 5 5 5 5 5 5 5 5 5 5 5 5 5 5 5 5 5 5 5 5 5 5 5 5 5 5 5 5 5 5 5 5 5 5 5 5 5 5 5 5 5 5 5 5 5 5 5 5 5 5 5 5 5 5 5 5 5 5 5 5 5 5 5 5 5 5 5 5 5 5 5 5 5 5 5 5 5 5 5 5 5 5 5 5 5 5 5 5 5 5 5 5 5 5 5 5 5 5 5 5 5 5 5 5 5 5 5 5 5 5 5 5 </DataArray>
</Cells>
<PointData  Vectors="f_34"> 
<DataArray  type="Float64"  Name="f_34"  NumberOfComponents="3" format="ascii">1.4921510023280054e-02 -1.1907764814724431e+00 0.0000000000000000e+00  8.3509253467087027e-02 -2.0244008946127212e+00 0.0000000000000000e+00  -6.5827796150986440e-01 -9.3572986559939764e-01 0.0000000000000000e+00  -8.1796721959617547e-01 7.3519446484584805e-02 0.0000000000000000e+00  -7.2628492011665058e-01 -1.0647022590756340e-03 0.0000000000000000e+00  -7.1284903990193016e-01 -2.7589554467152351e-03 0.0000000000000000e+00  -7.0465844625807361e-01 1.7488247901731926e-04 0.0000000000000000e+00  -7.0033660577925427e-01 -2.1507023238762649e-04 0.0000000000000000e+00  -6.9828072811466413e-01 -8.3630029257121327e-05 0.0000000000000000e+00  -6.9731204469485986e-01 -5.6263728887202195e-05 0.0000000000000000e+00  -6.9699885770980863e-01 -2.1993293260361600e-05 0.0000000000000000e+00  1.8524213954909875e-02 -1.2033233070552860e+00 0.0000000000000000e+00  -2.6663033539270736e-01 -1.4423536820807643e+00 0.0000000000000000e+00  -7.4498098288885028e-01 -8.1006251517219008e-01 0.0000000000000000e+00  -7.7304868357585454e-01 1.7197410249077830e-01 0.0000000000000000e+00  -7.0770149642624369e-01 -7.0389516129489460e-02 0.0000000000000000e+00  -7.1123707431419381e-01 -5.3620446505238013e-03 0.0000000000000000e+00  -7.0219730829513594e-01 -5.9241336927020717e-03 0.0000000000000000e+00  -6.9938414622654177e-01 -2.9585557357259575e-03 0.0000000000000000e+00  -6.9774526770196299e-01 -1.3845750256575218e-03 0.0000000000000000e+00  -6.9697473644936347e-01 -6.0550457863367676e-04 0.0000000000000000e+00  -6.9676704899426500e-01 -3.8265131008262175e-05 0.0000000000000000e+00  1.2365425770503285e-03 -9.1218453339682160e-01 0.0000000000000000e+00  -3.2383975620633060e-01 -1.0681758795144731e+00 0.0000000000000000e+00  -6.7939570472017385e-01 -5.1896541335785706e-01 0.0000000000000000e+00  -6.8530669043821058e-01 8.9303269194823259e-02 0.0000000000000000e+00  -6.9584234504577647e-01 -8.4006366748727107e-02 0.0000000000000000e+00  -7.0107247046624954e-01 -9.3575484739548767e-04 0.0000000000000000e+00  -6.9688155840531352e-01 -1.1355517126229685e-02 0.0000000000000000e+00  -6.9700686281445845e-01 -3.8833944331742721e-03 0.0000000000000000e+00  -6.9632635515508745e-01 -2.1969075565638160e-03 0.0000000000000000e+00  -6.9612128977574361e-01 -9.0811920770020045e-04 0.0000000000000000e+00  -6.9606044323449912e-01 -4.6030927171768899e-06 0.0000000000000000e+00  -2.0463288441892783e-04 -6.1633737107490882e-01 0.0000000000000000e+00  -3.2245114243348155e-01 -6.9318594066551220e-01 0.0000000000000000e+00  -6.4488701077847899e-01 -3.3973202043424916e-01 0.0000000000000000e+00  -6.6964147860361711e-01 5.1327505638891699e-02 0.0000000000000000e+00  -6.8497500559830449e-01 -5.4999232349209774e-02 0.0000000000000000e+00  -6.8923175631098477e-01 -2.5423896819175193e-03 0.0000000000000000e+00  -6.9218153318422249e-01 -1.1517808592216931e-02 0.0000000000000000e+00  -6.9414913076910811e-01 -3.0990540150420813e-03 0.0000000000000000e+00  -6.9468901534541749e-01 -2.2839410508571230e-03 0.0000000000000000e+00  -6.9510518160788159e-01 -8.2506634804693801e-04 0.0000000000000000e+00  -6.9520364845538152e-01 1.2605968238852190e-05 0.0000000000000000e+00  -2.3021432136737953e-04 -3.1594418487834702e-01 0.0000000000000000e+00  -3.1724825920367145e-01 -3.3366385943440141e-01 0.0000000000000000e+00  -6.3045584799534460e-01 -1.6797727199068749e-01 0.0000000000000000e+00  -6.5586167073003954e-01 3.5068475654421338e-02 0.0000000000000000e+00  -6.7245706036580277e-01 -3.2974294749244147e-02 0.0000000000000000e+00  -6.8262323903470967e-01 -1.4852633974870120e-03 0.0000000000000000e+00  -6.8881138107558937e-01 -6.7564036743735277e-03 0.0000000000000000e+00  -6.9184234026634883e-01 -1.5376125200429699e-03 0.0000000000000000e+00  -6.9346466911249927e-01 -1.4822408641197173e-03 0.0000000000000000e+00  -6.9429280119699854e-01 -4.1895129254436794e-04 0.0000000000000000e+00  -6.9451546902404460e-01 1.0583515038532051e-05 0.0000000000000000e+00  -1.5528227813618221e-04 -1.9898805458251071e-02 0.0000000000000000e+00  -3.1480224475997298e-01 2.0238481921513368e-02 0.0000000000000000e+00  -6.2548921403131241e-01 6.7296769964402957e-04 0.0000000000000000e+00  -6.5169289773691363e-01 1.9096780239712518e-02 0.0000000000000000e+00  -6.6972414025375004e-01 -9.4438909906465873e-03 0.0000000000000000e+00  -6.8095665383532988e-01 4.4007050600942503e-03 0.0000000000000000e+00  -6.8744438726568446e-01 -1.1045038839899469e-03 0.0000000000000000e+00  -6.9106342955498823e-01 6.1268552309106316e-04 0.0000000000000000e+00  -6.9305367301859899e-01 -9.4368310085312559e-05 0.0000000000000000e+00  -6.9398778874261013e-01 1.2104381182535917e-04 0.0000000000000000e+00  -6.9426063986311071e-01 7.7874734796331017e-06 0.0000000000000000e+00  7.7318994260432291e-04 2.7681831910948113e-01 0.0000000000000000e+00  -3.1613260262801873e-01 3.7434657683121048e-01 0.0000000000000000e+00  -6.2991197916425545e-01 1.6904006967581497e-01 0.0000000000000000e+00  -6.5622084690615234e-01 4.1173794882616932e-03 0.0000000000000000e+00  -6.7319433498973158e-01 1.4441829712128864e-02 0.0000000000000000e+00  -6.8328781671583882e-01 9.8970883980679328e-03 0.0000000000000000e+00  -6.8891439827532108e-01 4.1293695358283746e-03 0.0000000000000000e+00  -6.9198443408544241e-01 2.9040794958048698e-03 0.0000000000000000e+00  -6.9356947612114628e-01 1.2576704663339921e-03 0.0000000000000000e+00  -6.9431155980864534e-01 6.2008587685358392e-04 0.0000000000000000e+00  -6.9452720877216190e-01 8.8233021642336114e-06 0.0000000000000000e+00  -1.3846088021889223e-03 5.7047009479988298e-01 0.0000000000000000e+00  -3.2180267076078434e-01 7.3364330836791836e-01 0.0000000000000000e+00  -6.4389195615817996e-01 3.4244273035230910e-01 0.0000000000000000e+00  -6.6982306124276048e-01 -1.2747367017904297e-02 0.0000000000000000e+00  -6.8392106740356096e-01 3.5479790055182092e-02 0.0000000000000000e+00  -6.9002324793377878e-01 1.3445012573703809e-02 0.0000000000000000e+00  -6.9294413400080401e-01 7.8866001070438275e-03 0.0000000000000000e+00  -6.9424143931580895e-01 4.3427871779407635e-03 0.0000000000000000e+00  -6.9487026339870039e-01 2.0794314908868837e-03 0.0000000000000000e+00  -6.9514610398330001e-01 9.1773134213038454e-04 0.0000000000000000e+00  -6.9521444530722354e-01 -3.3319153903807552e-06 0.0000000000000000e+00  -8.3831123023793506e-03 8.5474603488548218e-01 0.0000000000000000e+00  -3.1255516453664561e-01 1.1211718864131435e+00 0.0000000000000000e+00  -6.6750876810658177e-01 5.1857823794096169e-01 0.0000000000000000e+00  -6.9956816921832010e-01 -3.7930434638322116e-02 0.0000000000000000e+00  -7.0050304510221928e-01 5.3501948486089884e-02 0.0000000000000000e+00  -7.0021517016633639e-01 1.0976574833470481e-02 0.0000000000000000e+00  -6.9819736023731560e-01 9.2131727609031065e-03 0.0000000000000000e+00  -6.9713940788351025e-01 4.1006778687767542e-03 0.0000000000000000e+00  -6.9649865127642219e-01 2.1300210662660046e-03 0.0000000000000000e+00  -6.9617757047157125e-01 8.7611005037776450e-04 0.0000000000000000e+00  -6.9606855189786976e-01 -2.3914972156884384e-05 0.0000000000000000e+00  -4.5923362992178536e-02 1.1573366731053378e+00 0.0000000000000000e+00  -2.4671268244941860e-01 1.4877770219490047e+00 0.0000000000000000e+00  -7.5808777243414749e-01 7.2148458370692647e-01 0.0000000000000000e+00  -7.3079626885506310e-01 -4.0768379515487632e-02 0.0000000000000000e+00  -7.2628045638093586e-01 3.8847714828681802e-02 0.0000000000000000e+00  -7.0865793791662302e-01 7.4851454267415782e-03 0.0000000000000000e+00  -7.0297466948757348e-01 5.7004086586090030e-03 0.0000000000000000e+00  -6.9953424156152266e-01 2.4894467097704188e-03 0.0000000000000000e+00  -6.9781672348949686e-01 1.2880241693217626e-03 0.0000000000000000e+00  -6.9700767362262184e-01 5.0956042498256319e-04 0.0000000000000000e+00  -6.9676250693845720e-01 -4.0749131787341591e-05 0.0000000000000000e+00  -2.1522179756914003e-02 1.3765180856175234e+00 0.0000000000000000e+00  1.8396819208814873e-02 1.5720246765600621e+00 0.0000000000000000e+00  -5.1861730523723515e-01 1.5750423981309514e+00 0.0000000000000000e+00  -8.7489940016382295e-01 -4.1716685849265284e-01 0.0000000000000000e+00  -7.2106184152989072e-01 9.5857496762336375e-02 0.0000000000000000e+00  -7.1432522258158526e-01 -2.2528072125077701e-02 0.0000000000000000e+00  -7.0486862618317270e-01 4.1587012817992895e-03 0.0000000000000000e+00  -7.0042240430486369e-01 -1.1293806723416593e-03 0.0000000000000000e+00  -6.9833220935053730e-01 9.3911165194067236e-05 0.0000000000000000e+00  -6.9732326276899448e-01 -9.7674918592389640e-05 0.0000000000000000e+00  -6.9704546357848174e-01 -4.9320490756409017e-05 0.0000000000000000e+00  </DataArray> 
</PointData> 
</Piece>
</UnstructuredGrid>
</VTKFile>