<?xml version="1.0"?>
<VTKFile type="UnstructuredGrid"  version="0.1"  >
<UnstructuredGrid>
<Piece  NumberOfPoints="121" NumberOfCells="200">
<Points>
<DataArray  type="Float64"  NumberOfComponents="3"  format="ascii">0 0 0  0.1 0 0  0.2 0 0  0.3 0 0  0.4 0 0  0.5 0 0  0.6 0 0  0.7 0 0  0.8 0 0  0.9 0 0  1 0 0  0 0.1 0  0.1 0.1 0  0.2 0.1 0  0.3 0.1 0  0.4 0.1 0  0.5 0.1 0  0.6 0.1 0  0.7 0.1 0  0.8 0.1 0  0.9 0.1 0  1 0.1 0  0 0.2 0  0.1 0.2 0  0.2 0.2 0  0.3 0.2 0  0.4 0.2 0  0.5 0.2 0  0.6 0.2 0  0.7 0.2 0  0.8 0.2 0  0.9 0.2 0  1 0.2 0  0 0.3 0  0.1 0.3 0  0.2 0.3 0  0.3 0.3 0  0.4 0.3 0  0.5 0.3 0  0.6 0.3 0  0.7 0.3 0  0.8 0.3 0  0.9 0.3 0  1 0.3 0  0 0.4 0  0.1 0.4 0  0.2 0.4 0  0.3 0.4 0  0.4 0.4 0  0.5 0.4 0  0.6 0.4 0  0.7 0.4 0  0.8 0.4 0  0.9 0.4 0  1 0.4 0  0 0.5 0  0.1 0.5 0  0.2 0.5 0  0.3 0.5 0  0.4 0.5 0  0.5 0.5 0  0.6 0.5 0  0.7 0.5 0  0.8 0.5 0  0.9 0.5 0  1 0.5 0  0 0.6 0  0.1 0.6 0  0.2 0.6 0  0.3 0.6 0  0.4 0.6 0  0.5 0.6 0  0.6 0.6 0  0.7 0.6 0  0.8 0.6 0  0.9 0.6 0  1 0.6 0  0 0.7 0  0.1 0.7 0  0.2 0.7 0  0.3 0.7 0  0.4 0.7 0  0.5 0.7 0  0.6 0.7 0  0.7 0.7 0  0.8 0.7 0  0.9 0.7 0  1 0.7 0  0 0.8 0  0.1 0.8 0  0.2 0.8 0  0.3 0.8 0  0.4 0.8 0  0.5 0.8 0  0.6 0.8 0  0.7 0.8 0  0.8 0.8 0  0.9 0.8 0  1 0.8 0  0 0.9 0  0.1 0.9 0  0.2 0.9 0  0.3 0.9 0  0.4 0.9 0  0.5 0.9 0  0.6 0.9 0  0.7 0.9 0  0.8 0.9 0  0.9 0.9 0  1 0.9 0  0 1 0  0.1 1 0  0.2 1 0  0.3 1 0  0.4 1 0  0.5 1 0  0.6 1 0  0.7 1 0  0.8 1 0  0.9 1 0  1 1 0  </DataArray>
</Points>
<Cells>
<DataArray  type="UInt32"  Name="connectivity"  format="ascii">0 1 12  0 11 12  1 2 13  1 12 13  2 3 14  2 13 14  3 4 15  3 14 15  4 5 16  4 15 16  5 6 17  5 16 17  6 7 18  6 17 18  7 8 19  7 18 19  8 9 20  8 19 20  9 10 21  9 20 21  11 12 23  11 22 23  12 13 24  12 23 24  13 14 25  13 24 25  14 15 26  14 25 26  15 16 27  15 26 27  16 17 28  16 27 28  17 18 29  17 28 29  18 19 30  18 29 30  19 20 31  19 30 31  20 21 32  20 31 32  22 23 34  22 33 34  23 24 35  23 34 35  24 25 36  24 35 36  25 26 37  25 36 37  26 27 38  26 37 38  27 28 39  27 38 39  28 29 40  28 39 40  29 30 41  29 40 41  30 31 42  30 41 42  31 32 43  31 42 43  33 34 45  33 44 45  34 35 46  34 45 46  35 36 47  35 46 47  36 37 48  36 47 48  37 38 49  37 48 49  38 39 50  38 49 50  39 40 51  39 50 51  40 41 52  40 51 52  41 42 53  41 52 53  42 43 54  42 53 54  44 45 56  44 55 56  45 46 57  45 56 57  46 47 58  46 57 58  47 48 59  47 58 59  48 49 60  48 59 60  49 50 61  49 60 61  50 51 62  50 61 62  51 52 63  51 62 63  52 53 64  52 63 64  53 54 65  53 64 65  55 56 67  55 66 67  56 57 68  56 67 68  57 58 69  57 68 69  58 59 70  58 69 70  59 60 71  59 70 71  60 61 72  60 71 72  61 62 73  61 72 73  62 63 74  62 73 74  63 64 75  63 74 75  64 65 76  64 75 76  66 67 78  66 77 78  67 68 79  67 78 79  68 69 80  68 79 80  69 70 81  69 80 81  70 71 82  70 81 82  71 72 83  71 82 83  72 73 84  72 83 84  73 74 85  73 84 85  74 75 86  74 85 86  75 76 87  75 86 87  77 78 89  77 88 89  78 79 90  78 89 90  79 80 91  79 90 91  80 81 92  80 91 92  81 82 93  81 92 93  82 83 94  82 93 94  83 84 95  83 94 95  84 85 96  84 95 96  85 86 97  85 96 97  86 87 98  86 97 98  88 89 100  88 99 100  89 90 101  89 100 101  90 91 102  90 101 102  91 92 103  91 102 103  92 93 104  92 103 104  93 94 105  93 104 105  94 95 106  94 105 106  95 96 107  95 106 107  96 97 108  96 107 108  97 98 109  97 108 109  99 100 111  99 110 111  100 101 112  100 111 112  101 102 113  101 112 113  102 103 114  102 113 114  103 104 115  103 114 115  104 105 116  104 115 116  105 106 117  105 116 117  106 107 118  106 117 118  107 108 119  107 118 119  108 109 120  108 119 120  </DataArray>
<DataArray  type="UInt32"  Name="offsets"  format="ascii">3 6 9 12 15 18 21 24 27 30 33 36 39 42 45 48 51 54 57 60 63 66 69 72 75 78 81 84 87 90 93 96 99 102 105 108 111 114 117 120 123 126 129 132 135 138 141 144 147 150 153 156 159 162 165 168 171 174 177 180 183 186 189 192 195 198 201 204 207 210 213 216 219 222 225 228 231 234 237 240 243 246 249 252 255 258 261 264 267 270 273 276 279 282 285 288 291 294 297 300 303 306 309 312 315 318 321 324 327 330 333 336 339 342 345 348 351 354 357 360 363 366 369 372 375 378 381 384 387 390 393 396 399 402 405 408 411 414 417 420 423 426 429 432 435 438 441 444 447 450 453 456 459 462 465 468 471 474 477 480 483 486 489 492 495 498 501 504 507 510 513 516 519 522 525 528 531 534 537 540 543 546 549 552 555 558 561 564 567 570 573 576 579 582 585 588 591 594 597 600 </DataArray>
<DataArray  type="UInt8"  Name="types"  format="ascii">5 5 5 5 5 5 5 5 5 5 5 5 5 5 5 5 5 5 5 5 5 5 5 5 5 5 5 5 5 5 5 5 5 5 5 5 5 5 5 5 5 5 5 5 5 5 5 5 5 5 5 5 5 5 5 5 5 5 5 5 5 5 5 5 5 5 5 5 5 5 5 5 5 5 5 5 5 5 5 5 5 5 5 5 5 5 5 5 5 5 5 5 5 5 5 5 5 5 5 5 5 5 5 5 5 5 5 5 5 5 5 5 5 5 5 5 5 5 5 5 5 5 5 5 5 5 5 5 5 5 5 5 5 5 5 5 5 5 5 5 5 5 5 5 5 5 5 5 5 5 5 5 5 5 5 5 5 5 5 5 5 5 5 5 5 5 5 5 5 5 5 5 5 5 5 5 5 5 5 5 5 5 5 5 5 5 5 5 5 5 5 5 5 5 5 5 5 5 5 5 </DataArray>
</Cells>
<PointData  Vectors="f_34"> 
<DataArray  type="Float64"  Name="f_34"  NumberOfComponents="3" format="ascii">-2.0537696622171538e-02 1.6389632204209479e+00 0.0000000000000000e+00  -1.1494062666414306e-01 2.7863487911306155e+00 0.0000000000000000e+00  9.0604188486679593e-01 1.2879216694559315e+00 0.0000000000000000e+00  1.1258352925902506e+00 -1.0119083694443115e-01 0.0000000000000000e+00  9.9964543315940546e-01 1.4654369400761687e-03 0.0000000000000000e+00  9.8115253054625384e-01 3.7973763962433804e-03 0.0000000000000000e+00  9.6987914553692056e-01 -2.4070508232482883e-04 0.0000000000000000e+00  9.6393064243871140e-01 2.9601877948822131e-04 0.0000000000000000e+00  9.6110096959046620e-01 1.1510686027889488e-04 0.0000000000000000e+00  9.5976769124479033e-01 7.7440379223014987e-05 0.0000000000000000e+00  9.5933662634083106e-01 3.0271171217875044e-05 0.0000000000000000e+00  -2.5496393178477426e-02 1.6562324443124765e+00 0.0000000000000000e+00  3.6698517308368633e-01 1.9852295309409906e+00 0.0000000000000000e+00  1.0253783559430598e+00 1.1149554003344091e+00 0.0000000000000000e+00  1.0640102317178466e+00 -2.3670204545756324e-01 0.0000000000000000e+00  9.7406754477147617e-01 9.6882857391344154e-02 0.0000000000000000e+00  9.7893385025486968e-01 7.3802213137416708e-03 0.0000000000000000e+00  9.6649167974094652e-01 8.1538705090882114e-03 0.0000000000000000e+00  9.6261969433037953e-01 4.0721026253596774e-03 0.0000000000000000e+00  9.6036397155930098e-01 1.9057040328487723e-03 0.0000000000000000e+00  9.5930342627406573e-01 8.3340555479561392e-04 0.0000000000000000e+00  9.5901756901575230e-01 5.2667434501907912e-05 0.0000000000000000e+00  -1.7019548469465230e-03 1.2555142999008178e+00 0.0000000000000000e+00  4.4572718557218649e-01 1.4702179684471131e+00 0.0000000000000000e+00  9.3510796482262171e-01 7.1429461229560254e-01 0.0000000000000000e+00  9.4324373869708700e-01 -1.2291540515872587e-01 0.0000000000000000e+00  9.5774482321927179e-01 1.1562484439741710e-01 0.0000000000000000e+00  9.6494347328980623e-01 1.2879560539464233e-03 0.0000000000000000e+00  9.5917517769884897e-01 1.5629528470141634e-02 0.0000000000000000e+00  9.5934764442215315e-01 5.3450338878780470e-03 0.0000000000000000e+00  9.5841100598304607e-01 3.0237838418034893e-03 0.0000000000000000e+00  9.5812875770241090e-01 1.2499188591100958e-03 0.0000000000000000e+00  9.5804500962310546e-01 6.3356135935797140e-06 0.0000000000000000e+00  2.8165300245126628e-04 8.4831561445823811e-01 0.0000000000000000e+00  4.4381592268071846e-01 9.5408859625681808e-01 0.0000000000000000e+00  8.8761082238219546e-01 4.6760101073084331e-01 0.0000000000000000e+00  9.2168242434760206e-01 -7.0646250784252518e-02 0.0000000000000000e+00  9.4278721368014828e-01 7.5699949045245532e-02 0.0000000000000000e+00  9.4864612840103157e-01 3.4992991929853668e-03 0.0000000000000000e+00  9.5270614795877695e-01 1.5852903509775799e-02 0.0000000000000000e+00  9.5541431370138263e-01 4.2654819168635458e-03 0.0000000000000000e+00  9.5615740107135250e-01 3.1435751698207972e-03 0.0000000000000000e+00  9.5673020479092241e-01 1.1356064046379049e-03 0.0000000000000000e+00  9.5686573277957676e-01 -1.7350626774102713e-05 0.0000000000000000e+00  3.1686282976503869e-04 4.3485986394455961e-01 0.0000000000000000e+00  4.3665476826888816e-01 4.5924890364014287e-01 0.0000000000000000e+00  8.6774803083611485e-01 2.3120088021805010e-01 0.0000000000000000e+00  9.0271614592284510e-01 -4.8267615869229084e-02 0.0000000000000000e+00  9.2555774018068182e-01 4.5385223133149244e-02 0.0000000000000000e+00  9.3955028470084645e-01 2.0442896874364644e-03 0.0000000000000000e+00  9.4806753152721945e-01 9.2993918648108988e-03 0.0000000000000000e+00  9.5223928895906929e-01 2.1163420732769746e-03 0.0000000000000000e+00  9.5447223305196416e-01 2.0401295271606935e-03 0.0000000000000000e+00  9.5561205908083602e-01 5.7663698461992569e-04 0.0000000000000000e+00  9.5591853505224345e-01 -1.4566958749397965e-05 0.0000000000000000e+00  2.1372772020183836e-04 2.7388356071707264e-02 0.0000000000000000e+00  4.3328811821136504e-01 -2.7855880614554324e-02 0.0000000000000000e+00  8.6091204564242296e-01 -9.2626057485334346e-04 0.0000000000000000e+00  8.9697832214455664e-01 -2.6284463061151588e-02 0.0000000000000000e+00  9.2179619834836257e-01 1.2998400818425782e-02 0.0000000000000000e+00  9.3725642696349543e-01 -6.0570508820385728e-03 0.0000000000000000e+00  9.4618602596186807e-01 1.5202191770166099e-03 0.0000000000000000e+00  9.5116721033828944e-01 -8.4328927691335834e-04 0.0000000000000000e+00  9.5390654545893971e-01 1.2988683586940392e-04 0.0000000000000000e+00  9.5519224545309778e-01 -1.6660251418298123e-04 0.0000000000000000e+00  9.5556779280232484e-01 -1.0718537711374250e-05 0.0000000000000000e+00  -1.0642046580891205e-03 -3.8100772967750907e-01 0.0000000000000000e+00  4.3511919872870236e-01 -5.1524386034075087e-01 0.0000000000000000e+00  8.6699945960989355e-01 -2.3266369573697884e-01 0.0000000000000000e+00  9.0321050951791115e-01 -5.6670866873622149e-03 0.0000000000000000e+00  9.2657251164347931e-01 -1.9877473314294722e-02 0.0000000000000000e+00  9.4046499740590195e-01 -1.3622173536410272e-02 0.0000000000000000e+00  9.4820932253842705e-01 -5.6835895720599881e-03 0.0000000000000000e+00  9.5243486432268454e-01 -3.9971225136401708e-03 0.0000000000000000e+00  9.5461648752380313e-01 -1.7310348917689313e-03 0.0000000000000000e+00  9.5563787809475587e-01 -8.5347499004593825e-04 0.0000000000000000e+00  9.5593469342930881e-01 -1.2144233576829401e-05 0.0000000000000000e+00  1.9057505222540810e-03 -7.8518472465203315e-01 0.0000000000000000e+00  4.4292337799448306e-01 -1.0097733857122595e+00 0.0000000000000000e+00  8.8624124719293351e-01 -4.7133198285370342e-01 0.0000000000000000e+00  9.2193235140919128e-01 1.7545245497053708e-02 0.0000000000000000e+00  9.4133659220360943e-01 -4.8833741574067856e-02 0.0000000000000000e+00  9.4973552316084620e-01 -1.8505472226950443e-02 0.0000000000000000e+00  9.5375577793526434e-01 -1.0854973801320725e-02 0.0000000000000000e+00  9.5554136551616542e-01 -5.9773337561700134e-03 0.0000000000000000e+00  9.5640686761501081e-01 -2.8620919089157319e-03 0.0000000000000000e+00  9.5678652960858401e-01 -1.2631488271560476e-03 0.0000000000000000e+00  9.5688059337126274e-01 4.5859881069364725e-06 0.0000000000000000e+00  1.1538364210276210e-02 -1.1764569890108021e+00 0.0000000000000000e+00  4.3019527761813392e-01 -1.5431607141996104e+00 0.0000000000000000e+00  9.1874700017788258e-01 -7.1376171105173669e-01 0.0000000000000000e+00  9.6287298024921431e-01 5.2206764471800893e-02 0.0000000000000000e+00  9.6415972651369719e-01 -7.3639114606233860e-02 0.0000000000000000e+00  9.6376350065659300e-01 -1.5107959149489477e-02 0.0000000000000000e+00  9.6098622355133612e-01 -1.2680844418280523e-02 0.0000000000000000e+00  9.5953007705884508e-01 -5.6440988802611333e-03 0.0000000000000000e+00  9.5864815124942038e-01 -2.9317224858283596e-03 0.0000000000000000e+00  9.5820622143461853e-01 -1.2058620336797303e-03 0.0000000000000000e+00  9.5805617024077239e-01 3.2916135307703072e-05 0.0000000000000000e+00  6.3208086549669848e-02 -1.5929372727604438e+00 0.0000000000000000e+00  3.3957087567432526e-01 -2.0477493947030529e+00 0.0000000000000000e+00  1.0434183041086253e+00 -9.9303833691288468e-01 0.0000000000000000e+00  1.0058547719998998e+00 5.6112860492024831e-02 0.0000000000000000e+00  9.9963928935427238e-01 -5.3469292341817229e-02 0.0000000000000000e+00  9.7538397354682349e-01 -1.0302418837463740e-02 0.0000000000000000e+00  9.6756162563189463e-01 -7.8459394170059434e-03 0.0000000000000000e+00  9.6282628283579674e-01 -3.4264294433054422e-03 0.0000000000000000e+00  9.6046232201337323e-01 -1.7728131797816735e-03 0.0000000000000000e+00  9.5934876040384676e-01 -7.0134975633536910e-04 0.0000000000000000e+00  9.5901131741225099e-01 5.6086368266094938e-05 0.0000000000000000e+00  2.9622739106547016e-02 -1.8946146062455484e+00 0.0000000000000000e+00  -2.5321049353189067e-02 -2.1637063433518122e+00 0.0000000000000000e+00  7.1381548257201033e-01 -2.1678598807630007e+00 0.0000000000000000e+00  1.2041957166165600e+00 5.7418092184904335e-01 0.0000000000000000e+00  9.9245648222339156e-01 -1.3193652548530513e-01 0.0000000000000000e+00  9.8318432169784142e-01 3.1007231176027796e-02 0.0000000000000000e+00  9.7016843338587289e-01 -5.7239612569110676e-03 0.0000000000000000e+00  9.6404873397816737e-01 1.5544591387385972e-03 0.0000000000000000e+00  9.6117182743276408e-01 -1.2925762990274021e-04 0.0000000000000000e+00  9.5978313159921147e-01 1.3443799203183876e-04 0.0000000000000000e+00  9.5940077381586819e-01 6.7883831788791789e-05 0.0000000000000000e+00  </DataArray> 
</PointData> 
</Piece>
</UnstructuredGrid>
</VTKFile>