<?xml version="1.0"?>
<VTKFile type="UnstructuredGrid"  version="0.1"  >
<UnstructuredGrid>
<Piece  NumberOfPoints="441" NumberOfCells="800">
<Points>
<DataArray  type="Float64"  NumberOfComponents="3"  format="ascii">0 0 0  0.05 0 0  0.1 0 0  0.15 0 0  0.2 0 0  0.25 0 0  0.3 0 0  0.35 0 0  0.4 0 0  0.45 0 0  0.5 0 0  0.55 0 0  0.6 0 0  0.65 0 0  0.7 0 0  0.75 0 0  0.8 0 0  0.85 0 0  0.9 0 0  0.95 0 0  1 0 0  0 0.05 0  0.05 0.05 0  0.1 0.05 0  0.15 0.05 0  0.2 0.05 0  0.25 0.05 0  0.3 0.05 0  0.35 0.05 0  0.4 0.05 0  0.45 0.05 0  0.5 0.05 0  0.55 0.05 0  0.6 0.05 0  0.65 0.05 0  0.7 0.05 0  0.75 0.05 0  0.8 0.05 0  0.85 0.05 0  0.9 0.05 0  0.95 0.05 0  1 0.05 0  0 0.1 0  0.05 0.1 0  0.1 0.1 0  0.15 0.1 0  0.2 0.1 0  0.25 0.1 0  0.3 0.1 0  0.35 0.1 0  0.4 0.1 0  0.45 0.1 0  0.5 0.1 0  0.55 0.1 0  0.6 0.1 0  0.65 0.1 0  0.7 0.1 0  0.75 0.1 0  0.8 0.1 0  0.85 0.1 0  0.9 0.1 0  0.95 0.1 0  1 0.1 0  0 0.15 0  0.05 0.15 0  0.1 0.15 0  0.15 0.15 0  0.2 0.15 0  0.25 0.15 0  0.3 0.15 0  0.35 0.15 0  0.4 0.15 0  0.45 0.15 0  0.5 0.15 0  0.55 0.15 0  0.6 0.15 0  0.65 0.15 0  0.7 0.15 0  0.75 0.15 0  0.8 0.15 0  0.85 0.15 0  0.9 0.15 0  0.95 0.15 0  1 0.15 0  0 0.2 0  0.05 0.2 0  0.1 0.2 0  0.15 0.2 0  0.2 0.2 0  0.25 0.2 0  0.3 0.2 0  0.35 0.2 0  0.4 0.2 0  0.45 0.2 0  0.5 0.2 0  0.55 0.2 0  0.6 0.2 0  0.65 0.2 0  0.7 0.2 0  0.75 0.2 0  0.8 0.2 0  0.85 0.2 0  0.9 0.2 0  0.95 0.2 0  1 0.2 0  0 0.25 0  0.05 0.25 0  0.1 0.25 0  0.15 0.25 0  0.2 0.25 0  0.25 0.25 0  0.3 0.25 0  0.35 0.25 0  0.4 0.25 0  0.45 0.25 0  0.5 0.25 0  0.55 0.25 0  0.6 0.25 0  0.65 0.25 0  0.7 0.25 0  0.75 0.25 0  0.8 0.25 0  0.85 0.25 0  0.9 0.25 0  0.95 0.25 0  1 0.25 0  0 0.3 0  0.05 0.3 0  0.1 0.3 0  0.15 0.3 0  0.2 0.3 0  0.25 0.3 0  0.3 0.3 0  0.35 0.3 0  0.4 0.3 0  0.45 0.3 0  0.5 0.3 0  0.55 0.3 0  0.6 0.3 0  0.65 0.3 0  0.7 0.3 0  0.75 0.3 0  0.8 0.3 0  0.85 0.3 0  0.9 0.3 0  0.95 0.3 0  1 0.3 0  0 0.35 0  0.05 0.35 0  0.1 0.35 0  0.15 0.35 0  0.2 0.35 0  0.25 0.35 0  0.3 0.35 0  0.35 0.35 0  0.4 0.35 0  0.45 0.35 0  0.5 0.35 0  0.55 0.35 0  0.6 0.35 0  0.65 0.35 0  0.7 0.35 0  0.75 0.35 0  0.8 0.35 0  0.85 0.35 0  0.9 0.35 0  0.95 0.35 0  1 0.35 0  0 0.4 0  0.05 0.4 0  0.1 0.4 0  0.15 0.4 0  0.2 0.4 0  0.25 0.4 0  0.3 0.4 0  0.35 0.4 0  0.4 0.4 0  0.45 0.4 0  0.5 0.4 0  0.55 0.4 0  0.6 0.4 0  0.65 0.4 0  0.7 0.4 0  0.75 0.4 0  0.8 0.4 0  0.85 0.4 0  0.9 0.4 0  0.95 0.4 0  1 0.4 0  0 0.45 0  0.05 0.45 0  0.1 0.45 0  0.15 0.45 0  0.2 0.45 0  0.25 0.45 0  0.3 0.45 0  0.35 0.45 0  0.4 0.45 0  0.45 0.45 0  0.5 0.45 0  0.55 0.45 0  0.6 0.45 0  0.65 0.45 0  0.7 0.45 0  0.75 0.45 0  0.8 0.45 0  0.85 0.45 0  0.9 0.45 0  0.95 0.45 0  1 0.45 0  0 0.5 0  0.05 0.5 0  0.1 0.5 0  0.15 0.5 0  0.2 0.5 0  0.25 0.5 0  0.3 0.5 0  0.35 0.5 0  0.4 0.5 0  0.45 0.5 0  0.5 0.5 0  0.55 0.5 0  0.6 0.5 0  0.65 0.5 0  0.7 0.5 0  0.75 0.5 0  0.8 0.5 0  0.85 0.5 0  0.9 0.5 0  0.95 0.5 0  1 0.5 0  0 0.55 0  0.05 0.55 0  0.1 0.55 0  0.15 0.55 0  0.2 0.55 0  0.25 0.55 0  0.3 0.55 0  0.35 0.55 0  0.4 0.55 0  0.45 0.55 0  0.5 0.55 0  0.55 0.55 0  0.6 0.55 0  0.65 0.55 0  0.7 0.55 0  0.75 0.55 0  0.8 0.55 0  0.85 0.55 0  0.9 0.55 0  0.95 0.55 0  1 0.55 0  0 0.6 0  0.05 0.6 0  0.1 0.6 0  0.15 0.6 0  0.2 0.6 0  0.25 0.6 0  0.3 0.6 0  0.35 0.6 0  0.4 0.6 0  0.45 0.6 0  0.5 0.6 0  0.55 0.6 0  0.6 0.6 0  0.65 0.6 0  0.7 0.6 0  0.75 0.6 0  0.8 0.6 0  0.85 0.6 0  0.9 0.6 0  0.95 0.6 0  1 0.6 0  0 0.65 0  0.05 0.65 0  0.1 0.65 0  0.15 0.65 0  0.2 0.65 0  0.25 0.65 0  0.3 0.65 0  0.35 0.65 0  0.4 0.65 0  0.45 0.65 0  0.5 0.65 0  0.55 0.65 0  0.6 0.65 0  0.65 0.65 0  0.7 0.65 0  0.75 0.65 0  0.8 0.65 0  0.85 0.65 0  0.9 0.65 0  0.95 0.65 0  1 0.65 0  0 0.7 0  0.05 0.7 0  0.1 0.7 0  0.15 0.7 0  0.2 0.7 0  0.25 0.7 0  0.3 0.7 0  0.35 0.7 0  0.4 0.7 0  0.45 0.7 0  0.5 0.7 0  0.55 0.7 0  0.6 0.7 0  0.65 0.7 0  0.7 0.7 0  0.75 0.7 0  0.8 0.7 0  0.85 0.7 0  0.9 0.7 0  0.95 0.7 0  1 0.7 0  0 0.75 0  0.05 0.75 0  0.1 0.75 0  0.15 0.75 0  0.2 0.75 0  0.25 0.75 0  0.3 0.75 0  0.35 0.75 0  0.4 0.75 0  0.45 0.75 0  0.5 0.75 0  0.55 0.75 0  0.6 0.75 0  0.65 0.75 0  0.7 0.75 0  0.75 0.75 0  0.8 0.75 0  0.85 0.75 0  0.9 0.75 0  0.95 0.75 0  1 0.75 0  0 0.8 0  0.05 0.8 0  0.1 0.8 0  0.15 0.8 0  0.2 0.8 0  0.25 0.8 0  0.3 0.8 0  0.35 0.8 0  0.4 0.8 0  0.45 0.8 0  0.5 0.8 0  0.55 0.8 0  0.6 0.8 0  0.65 0.8 0  0.7 0.8 0  0.75 0.8 0  0.8 0.8 0  0.85 0.8 0  0.9 0.8 0  0.95 0.8 0  1 0.8 0  0 0.85 0  0.05 0.85 0  0.1 0.85 0  0.15 0.85 0  0.2 0.85 0  0.25 0.85 0  0.3 0.85 0  0.35 0.85 0  0.4 0.85 0  0.45 0.85 0  0.5 0.85 0  0.55 0.85 0  0.6 0.85 0  0.65 0.85 0  0.7 0.85 0  0.75 0.85 0  0.8 0.85 0  0.85 0.85 0  0.9 0.85 0  0.95 0.85 0  1 0.85 0  0 0.9 0  0.05 0.9 0  0.1 0.9 0  0.15 0.9 0  0.2 0.9 0  0.25 0.9 0  0.3 0.9 0  0.35 0.9 0  0.4 0.9 0  0.45 0.9 0  0.5 0.9 0  0.55 0.9 0  0.6 0.9 0  0.65 0.9 0  0.7 0.9 0  0.75 0.9 0  0.8 0.9 0  0.85 0.9 0  0.9 0.9 0  0.95 0.9 0  1 0.9 0  0 0.95 0  0.05 0.95 0  0.1 0.95 0  0.15 0.95 0  0.2 0.95 0  0.25 0.95 0  0.3 0.95 0  0.35 0.95 0  0.4 0.95 0  0.45 0.95 0  0.5 0.95 0  0.55 0.95 0  0.6 0.95 0  0.65 0.95 0  0.7 0.95 0  0.75 0.95 0  0.8 0.95 0  0.85 0.95 0  0.9 0.95 0  0.95 0.95 0  1 0.95 0  0 1 0  0.05 1 0  0.1 1 0  0.15 1 0  0.2 1 0  0.25 1 0  0.3 1 0  0.35 1 0  0.4 1 0  0.45 1 0  0.5 1 0  0.55 1 0  0.6 1 0  0.65 1 0  0.7 1 0  0.75 1 0  0.8 1 0  0.85 1 0  0.9 1 0  0.95 1 0  1 1 0  </DataArray>
</Points>
<Cells>
<DataArray  type="UInt32"  Name="connectivity"  format="ascii">0 1 22  0 21 22  1 2 23  1 22 23  2 3 24  2 23 24  3 4 25  3 24 25  4 5 26  4 25 26  5 6 27  5 26 27  6 7 28  6 27 28  7 8 29  7 28 29  8 9 30  8 29 30  9 10 31  9 30 31  10 11 32  10 31 32  11 12 33  11 32 33  12 13 34  12 33 34  13 14 35  13 34 35  14 15 36  14 35 36  15 16 37  15 36 37  16 17 38  16 37 38  17 18 39  17 38 39  18 19 40  18 39 40  19 20 41  19 40 41  21 22 43  21 42 43  22 23 44  22 43 44  23 24 45  23 44 45  24 25 46  24 45 46  25 26 47  25 46 47  26 27 48  26 47 48  27 28 49  27 48 49  28 29 50  28 49 50  29 30 51  29 50 51  30 31 52  30 51 52  31 32 53  31 52 53  32 33 54  32 53 54  33 34 55  33 54 55  34 35 56  34 55 56  35 36 57  35 56 57  36 37 58  36 57 58  37 38 59  37 58 59  38 39 60  38 59 60  39 40 61  39 60 61  40 41 62  40 61 62  42 43 64  42 63 64  43 44 65  43 64 65  44 45 66  44 65 66  45 46 67  45 66 67  46 47 68  46 67 68  47 48 69  47 68 69  48 49 70  48 69 70  49 50 71  49 70 71  50 51 72  50 71 72  51 52 73  51 72 73  52 53 74  52 73 74  53 54 75  53 74 75  54 55 76  54 75 76  55 56 77  55 76 77  56 57 78  56 77 78  57 58 79  57 78 79  58 59 80  58 79 80  59 60 81  59 80 81  60 61 82  60 81 82  61 62 83  61 82 83  63 64 85  63 84 85  64 65 86  64 85 86  65 66 87  65 86 87  66 67 88  66 87 88  67 68 89  67 88 89  68 69 90  68 89 90  69 70 91  69 90 91  70 71 92  70 91 92  71 72 93  71 92 93  72 73 94  72 93 94  73 74 95  73 94 95  74 75 96  74 95 96  75 76 97  75 96 97  76 77 98  76 97 98  77 78 99  77 98 99  78 79 100  78 99 100  79 80 101  79 100 101  80 81 102  80 101 102  81 82 103  81 102 103  82 83 104  82 103 104  84 85 106  84 105 106  85 86 107  85 106 107  86 87 108  86 107 108  87 88 109  87 108 109  88 89 110  88 109 110  89 90 111  89 110 111  90 91 112  90 111 112  91 92 113  91 112 113  92 93 114  92 113 114  93 94 115  93 114 115  94 95 116  94 115 116  95 96 117  95 116 117  96 97 118  96 117 118  97 98 119  97 118 119  98 99 120  98 119 120  99 100 121  99 120 121  100 101 122  100 121 122  101 102 123  101 122 123  102 103 124  102 123 124  103 104 125  103 124 125  105 106 127  105 126 127  106 107 128  106 127 128  107 108 129  107 128 129  108 109 130  108 129 130  109 110 131  109 130 131  110 111 132  110 131 132  111 112 133  111 132 133  112 113 134  112 133 134  113 114 135  113 134 135  114 115 136  114 135 136  115 116 137  115 136 137  116 117 138  116 137 138  117 118 139  117 138 139  118 119 140  118 139 140  119 120 141  119 140 141  120 121 142  120 141 142  121 122 143  121 142 143  122 123 144  122 143 144  123 124 145  123 144 145  124 125 146  124 145 146  126 127 148  126 147 148  127 128 149  127 148 149  128 129 150  128 149 150  129 130 151  129 150 151  130 131 152  130 151 152  131 132 153  131 152 153  132 133 154  132 153 154  133 134 155  133 154 155  134 135 156  134 155 156  135 136 157  135 156 157  136 137 158  136 157 158  137 138 159  137 158 159  138 139 160  138 159 160  139 140 161  139 160 161  140 141 162  140 161 162  141 142 163  141 162 163  142 143 164  142 163 164  143 144 165  143 164 165  144 145 166  144 165 166  145 146 167  145 166 167  147 148 169  147 168 169  148 149 170  148 169 170  149 150 171  149 170 171  150 151 172  150 171 172  151 152 173  151 172 173  152 153 174  152 173 174  153 154 175  153 174 175  154 155 176  154 175 176  155 156 177  155 176 177  156 157 178  156 177 178  157 158 179  157 178 179  158 159 180  158 179 180  159 160 181  159 180 181  160 161 182  160 181 182  161 162 183  161 182 183  162 163 184  162 183 184  163 164 185  163 184 185  164 165 186  164 185 186  165 166 187  165 186 187  166 167 188  166 187 188  168 169 190  168 189 190  169 170 191  169 190 191  170 171 192  170 191 192  171 172 193  171 192 193  172 173 194  172 193 194  173 174 195  173 194 195  174 175 196  174 195 196  175 176 197  175 196 197  176 177 198  176 197 198  177 178 199  177 198 199  178 179 200  178 199 200  179 180 201  179 200 201  180 181 202  180 201 202  181 182 203  181 202 203  182 183 204  182 203 204  183 184 205  183 204 205  184 185 206  184 205 206  185 186 207  185 206 207  186 187 208  186 207 208  187 188 209  187 208 209  189 190 211  189 210 211  190 191 212  190 211 212  191 192 213  191 212 213  192 193 214  192 213 214  193 194 215  193 214 215  194 195 216  194 215 216  195 196 217  195 216 217  196 197 218  196 217 218  197 198 219  197 218 219  198 199 220  198 219 220  199 200 221  199 220 221  200 201 222  200 221 222  201 202 223  201 222 223  202 203 224  202 223 224  203 204 225  203 224 225  204 205 226  204 225 226  205 206 227  205 226 227  206 207 228  206 227 228  207 208 229  207 228 229  208 209 230  208 229 230  210 211 232  210 231 232  211 212 233  211 232 233  212 213 234  212 233 234  213 214 235  213 234 235  214 215 236  214 235 236  215 216 237  215 236 237  216 217 238  216 237 238  217 218 239  217 238 239  218 219 240  218 239 240  219 220 241  219 240 241  220 221 242  220 241 242  221 222 243  221 242 243  222 223 244  222 243 244  223 224 245  223 244 245  224 225 246  224 245 246  225 226 247  225 246 247  226 227 248  226 247 248  227 228 249  227 248 249  228 229 250  228 249 250  229 230 251  229 250 251  231 232 253  231 252 253  232 233 254  232 253 254  233 234 255  233 254 255  234 235 256  234 255 256  235 236 257  235 256 257  236 237 258  236 257 258  237 238 259  237 258 259  238 239 260  238 259 260  239 240 261  239 260 261  240 241 262  240 261 262  241 242 263  241 262 263  242 243 264  242 263 264  243 244 265  243 264 265  244 245 266  244 265 266  245 246 267  245 266 267  246 247 268  246 267 268  247 248 269  247 268 269  248 249 270  248 269 270  249 250 271  249 270 271  250 251 272  250 271 272  252 253 274  252 273 274  253 254 275  253 274 275  254 255 276  254 275 276  255 256 277  255 276 277  256 257 278  256 277 278  257 258 279  257 278 279  258 259 280  258 279 280  259 260 281  259 280 281  260 261 282  260 281 282  261 262 283  261 282 283  262 263 284  262 283 284  263 264 285  263 284 285  264 265 286  264 285 286  265 266 287  265 286 287  266 267 288  266 287 288  267 268 289  267 288 289  268 269 290  268 289 290  269 270 291  269 290 291  270 271 292  270 291 292  271 272 293  271 292 293  273 274 295  273 294 295  274 275 296  274 295 296  275 276 297  275 296 297  276 277 298  276 297 298  277 278 299  277 298 299  278 279 300  278 299 300  279 280 301  279 300 301  280 281 302  280 301 302  281 282 303  281 302 303  282 283 304  282 303 304  283 284 305  283 304 305  284 285 306  284 305 306  285 286 307  285 306 307  286 287 308  286 307 308  287 288 309  287 308 309  288 289 310  288 309 310  289 290 311  289 310 311  290 291 312  290 311 312  291 292 313  291 312 313  292 293 314  292 313 314  294 295 316  294 315 316  295 296 317  295 316 317  296 297 318  296 317 318  297 298 319  297 318 319  298 299 320  298 319 320  299 300 321  299 320 321  300 301 322  300 321 322  301 302 323  301 322 323  302 303 324  302 323 324  303 304 325  303 324 325  304 305 326  304 325 326  305 306 327  305 326 327  306 307 328  306 327 328  307 308 329  307 328 329  308 309 330  308 329 330  309 310 331  309 330 331  310 311 332  310 331 332  311 312 333  311 332 333  312 313 334  312 333 334  313 314 335  313 334 335  315 316 337  315 336 337  316 317 338  316 337 338  317 318 339  317 338 339  318 319 340  318 339 340  319 320 341  319 340 341  320 321 342  320 341 342  321 322 343  321 342 343  322 323 344  322 343 344  323 324 345  323 344 345  324 325 346  324 345 346  325 326 347  325 346 347  326 327 348  326 347 348  327 328 349  327 348 349  328 329 350  328 349 350  329 330 351  329 350 351  330 331 352  330 351 352  331 332 353  331 352 353  332 333 354  332 353 354  333 334 355  333 354 355  334 335 356  334 355 356  336 337 358  336 357 358  337 338 359  337 358 359  338 339 360  338 359 360  339 340 361  339 360 361  340 341 362  340 361 362  341 342 363  341 362 363  342 343 364  342 363 364  343 344 365  343 364 365  344 345 366  344 365 366  345 346 367  345 366 367  346 347 368  346 367 368  347 348 369  347 368 369  348 349 370  348 369 370  349 350 371  349 370 371  350 351 372  350 371 372  351 352 373  351 372 373  352 353 374  352 373 374  353 354 375  353 374 375  354 355 376  354 375 376  355 356 377  355 376 377  357 358 379  357 378 379  358 359 380  358 379 380  359 360 381  359 380 381  360 361 382  360 381 382  361 362 383  361 382 383  362 363 384  362 383 384  363 364 385  363 384 385  364 365 386  364 385 386  365 366 387  365 386 387  366 367 388  366 387 388  367 368 389  367 388 389  368 369 390  368 389 390  369 370 391  369 390 391  370 371 392  370 391 392  371 372 393  371 392 393  372 373 394  372 393 394  373 374 395  373 394 395  374 375 396  374 395 396  375 376 397  375 396 397  376 377 398  376 397 398  378 379 400  378 399 400  379 380 401  379 400 401  380 381 402  380 401 402  381 382 403  381 402 403  382 383 404  382 403 404  383 384 405  383 404 405  384 385 406  384 405 406  385 386 407  385 406 407  386 387 408  386 407 408  387 388 409  387 408 409  388 389 410  388 409 410  389 390 411  389 410 411  390 391 412  390 411 412  391 392 413  391 412 413  392 393 414  392 413 414  393 394 415  393 414 415  394 395 416  394 415 416  395 396 417  395 416 417  396 397 418  396 417 418  397 398 419  397 418 419  399 400 421  399 420 421  400 401 422  400 421 422  401 402 423  401 422 423  402 403 424  402 423 424  403 404 425  403 424 425  404 405 426  404 425 426  405 406 427  405 426 427  406 407 428  406 427 428  407 408 429  407 428 429  408 409 430  408 429 430  409 410 431  409 430 431  410 411 432  410 431 432  411 412 433  411 432 433  412 413 434  412 433 434  413 414 435  413 434 435  414 415 436  414 435 436  415 416 437  415 436 437  416 417 438  416 437 438  417 418 439  417 438 439  418 419 440  418 439 440  </DataArray>
<DataArray  type="UInt32"  Name="offsets"  format="ascii">3 6 9 12 15 18 21 24 27 30 33 36 39 42 45 48 51 54 57 60 63 66 69 72 75 78 81 84 87 90 93 96 99 102 105 108 111 114 117 120 123 126 129 132 135 138 141 144 147 150 153 156 159 162 165 168 171 174 177 180 183 186 189 192 195 198 201 204 207 210 213 216 219 222 225 228 231 234 237 240 243 246 249 252 255 258 261 264 267 270 273 276 279 282 285 288 291 294 297 300 303 306 309 312 315 318 321 324 327 330 333 336 339 342 345 348 351 354 357 360 363 366 369 372 375 378 381 384 387 390 393 396 399 402 405 408 411 414 417 420 423 426 429 432 435 438 441 444 447 450 453 456 459 462 465 468 471 474 477 480 483 486 489 492 495 498 501 504 507 510 513 516 519 522 525 528 531 534 537 540 543 546 549 552 555 558 561 564 567 570 573 576 579 582 585 588 591 594 597 600 603 606 609 612 615 618 621 624 627 630 633 636 639 642 645 648 651 654 657 660 663 666 669 672 675 678 681 684 687 690 693 696 699 702 705 708 711 714 717 720 723 726 729 732 735 738 741 744 747 750 753 756 759 762 765 768 771 774 777 780 783 786 789 792 795 798 801 804 807 810 813 816 819 822 825 828 831 834 837 840 843 846 849 852 855 858 861 864 867 870 873 876 879 882 885 888 891 894 897 900 903 906 909 912 915 918 921 924 927 930 933 936 939 942 945 948 951 954 957 960 963 966 969 972 975 978 981 984 987 990 993 996 999 1002 1005 1008 1011 1014 1017 1020 1023 1026 1029 1032 1035 1038 1041 1044 1047 1050 1053 1056 1059 1062 1065 1068 1071 1074 1077 1080 1083 1086 1089 1092 1095 1098 1101 1104 1107 1110 1113 1116 1119 1122 1125 1128 1131 1134 1137 1140 1143 1146 1149 1152 1155 1158 1161 1164 1167 1170 1173 1176 1179 1182 1185 1188 1191 1194 1197 1200 1203 1206 1209 1212 1215 1218 1221 1224 1227 1230 1233 1236 1239 1242 1245 1248 1251 1254 1257 1260 1263 1266 1269 1272 1275 1278 1281 1284 1287 1290 1293 1296 1299 1302 1305 1308 1311 1314 1317 1320 1323 1326 1329 1332 1335 1338 1341 1344 1347 1350 1353 1356 1359 1362 1365 1368 1371 1374 1377 1380 1383 1386 1389 1392 1395 1398 1401 1404 1407 1410 1413 1416 1419 1422 1425 1428 1431 1434 1437 1440 1443 1446 1449 1452 1455 1458 1461 1464 1467 1470 1473 1476 1479 1482 1485 1488 1491 1494 1497 1500 1503 1506 1509 1512 1515 1518 1521 1524 1527 1530 1533 1536 1539 1542 1545 1548 1551 1554 1557 1560 1563 1566 1569 1572 1575 1578 1581 1584 1587 1590 1593 1596 1599 1602 1605 1608 1611 1614 1617 1620 1623 1626 1629 1632 1635 1638 1641 1644 1647 1650 1653 1656 1659 1662 1665 1668 1671 1674 1677 1680 1683 1686 1689 1692 1695 1698 1701 1704 1707 1710 1713 1716 1719 1722 1725 1728 1731 1734 1737 1740 1743 1746 1749 1752 1755 1758 1761 1764 1767 1770 1773 1776 1779 1782 1785 1788 1791 1794 1797 1800 1803 1806 1809 1812 1815 1818 1821 1824 1827 1830 1833 1836 1839 1842 1845 1848 1851 1854 1857 1860 1863 1866 1869 1872 1875 1878 1881 1884 1887 1890 1893 1896 1899 1902 1905 1908 1911 1914 1917 1920 1923 1926 1929 1932 1935 1938 1941 1944 1947 1950 1953 1956 1959 1962 1965 1968 1971 1974 1977 1980 1983 1986 1989 1992 1995 1998 2001 2004 2007 2010 2013 2016 2019 2022 2025 2028 2031 2034 2037 2040 2043 2046 2049 2052 2055 2058 2061 2064 2067 2070 2073 2076 2079 2082 2085 2088 2091 2094 2097 2100 2103 2106 2109 2112 2115 2118 2121 2124 2127 2130 2133 2136 2139 2142 2145 2148 2151 2154 2157 2160 2163 2166 2169 2172 2175 2178 2181 2184 2187 2190 2193 2196 2199 2202 2205 2208 2211 2214 2217 2220 2223 2226 2229 2232 2235 2238 2241 2244 2247 2250 2253 2256 2259 2262 2265 2268 2271 2274 2277 2280 2283 2286 2289 2292 2295 2298 2301 2304 2307 2310 2313 2316 2319 2322 2325 2328 2331 2334 2337 2340 2343 2346 2349 2352 2355 2358 2361 2364 2367 2370 2373 2376 2379 2382 2385 2388 2391 2394 2397 2400 </DataArray>
<DataArray  type="UInt8"  Name="types"  format="ascii">5 5 5 5 5 5 5 5 5 5 5 5 5 5 5 5 5 5 5 5 5 5 5 5 5 5 5 5 5 5 5 5 5 5 5 5 5 5 5 5 5 5 5 5 5 5 5 5 5 5 5 5 5 5 5 5 5 5 5 5 5 5 5 5 5 5 5 5 5 5 5 5 5 5 5 5 5 5 5 5 5 5 5 5 5 5 5 5 5 5 5 5 5 5 5 5 5 5 5 5 5 5 5 5 5 5 5 5 5 5 5 5 5 5 5 5 5 5 5 5 5 5 5 5 5 5 5 5 5 5 5 5 5 5 5 5 5 5 5 5 5 5 5 5 5 5 5 5 5 5 5 5 5 5 5 5 5 5 5 5 5 5 5 5 5 5 5 5 5 5 5 5 5 5 5 5 5 5 5 5 5 5 5 5 5 5 5 5 5 5 5 5 5 5 5 5 5 5 5 5 5 5 5 5 5 5 5 5 5 5 5 5 5 5 5 5 5 5 5 5 5 5 5 5 5 5 5 5 5 5 5 5 5 5 5 5 5 5 5 5 5 5 5 5 5 5 5 5 5 5 5 5 5 5 5 5 5 5 5 5 5 5 5 5 5 5 5 5 5 5 5 5 5 5 5 5 5 5 5 5 5 5 5 5 5 5 5 5 5 5 5 5 5 5 5 5 5 5 5 5 5 5 5 5 5 5 5 5 5 5 5 5 5 5 5 5 5 5 5 5 5 5 5 5 5 5 5 5 5 5 5 5 5 5 5 5 5 5 5 5 5 5 5 5 5 5 5 5 5 5 5 5 5 5 5 5 5 5 5 5 5 5 5 5 5 5 5 5 5 5 5 5 5 5 5 5 5 5 5 5 5 5 5 5 5 5 5 5 5 5 5 5 5 5 5 5 5 5 5 5 5 5 5 5 5 5 5 5 5 5 5 5 5 5 5 5 5 5 5 5 5 5 5 5 5 5 5 5 5 5 5 5 5 5 5 5 5 5 5 5 5 5 5 5 5 5 5 5 5 5 5 5 5 5 5 5 5 5 5 5 5 5 5 5 5 5 5 5 5 5 5 5 5 5 5 5 5 5 5 5 5 5 5 5 5 5 5 5 5 5 5 5 5 5 5 5 5 5 5 5 5 5 5 5 5 5 5 5 5 5 5 5 5 5 5 5 5 5 5 5 5 5 5 5 5 5 5 5 5 5 5 5 5 5 5 5 5 5 5 5 5 5 5 5 5 5 5 5 5 5 5 5 5 5 5 5 5 5 5 5 5 5 5 5 5 5 5 5 5 5 5 5 5 5 5 5 5 5 5 5 5 5 5 5 5 5 5 5 5 5 5 5 5 5 5 5 5 5 5 5 5 5 5 5 5 5 5 5 5 5 5 5 5 5 5 5 5 5 5 5 5 5 5 5 5 5 5 5 5 5 5 5 5 5 5 5 5 5 5 5 5 5 5 5 5 5 5 5 5 5 5 5 5 5 5 5 5 5 5 5 5 5 5 5 5 5 5 5 5 5 5 5 5 5 5 5 5 5 5 5 5 5 5 5 5 5 5 5 5 5 5 5 5 5 5 5 5 5 5 5 5 5 5 5 5 5 5 5 5 5 5 5 5 5 5 5 5 5 5 5 5 5 5 5 5 5 5 5 5 5 5 5 5 5 5 5 5 5 5 5 5 5 5 5 5 5 5 5 5 5 5 5 5 5 5 5 5 5 5 5 5 5 5 5 5 5 5 5 5 5 5 5 5 5 5 5 5 5 5 5 5 5 5 5 5 5 5 5 5 5 5 5 5 5 5 5 5 5 5 5 </DataArray>
</Cells>
<PointData  Vectors="f_19102"> 
<DataArray  type="Float64"  Name="f_19102"  NumberOfComponents="3" format="ascii">8.1154000568817043e-03 -1.3548662018358062e+00 0.0000000000000000e+00  5.9968746050627266e-03 -1.4361848991745720e+00 0.0000000000000000e+00  7.8627502511683202e-05 -1.3941942052632499e+00 0.0000000000000000e+00  8.4418183817360104e-02 -2.4239048074441540e+00 0.0000000000000000e+00  -7.3414726989554013e-01 -1.1020419313588945e+00 0.0000000000000000e+00  -8.8975021185881964e-01 8.4399006033931037e-02 0.0000000000000000e+00  -7.7380151489120941e-01 -8.9987523144528510e-04 0.0000000000000000e+00  -7.4873005510325819e-01 -3.4314395605485751e-03 0.0000000000000000e+00  -7.3146683946065572e-01 8.5191761370696854e-05 0.0000000000000000e+00  -7.2026448058731274e-01 -3.5324983547693929e-04 0.0000000000000000e+00  -7.1297564169846994e-01 -1.7979775528556669e-04 0.0000000000000000e+00  -7.0796138524517505e-01 -1.1665695301340192e-04 0.0000000000000000e+00  -7.0447007088273361e-01 -8.1517883231354914e-05 0.0000000000000000e+00  -7.0200970620427627e-01 -5.6445652901171799e-05 0.0000000000000000e+00  -7.0026613806814164e-01 -4.0240696552287713e-05 0.0000000000000000e+00  -6.9903149719308844e-01 -2.9223861422845451e-05 0.0000000000000000e+00  -6.9816522011086757e-01 -2.1749994001811817e-05 0.0000000000000000e+00  -6.9757200524679708e-01 -1.6777210134032125e-05 0.0000000000000000e+00  -6.9718801394896746e-01 -1.3547814882271184e-05 0.0000000000000000e+00  -6.9697390569859918e-01 -1.2905209064584981e-05 0.0000000000000000e+00  -6.9689704067014946e-01 -4.9146747084335562e-06 0.0000000000000000e+00  4.6086952290705406e-03 -1.3294849856035107e+00 0.0000000000000000e+00  -6.7068547318976116e-02 -1.3705908164271843e+00 0.0000000000000000e+00  -1.5653039439816097e-01 -1.4406753430106671e+00 0.0000000000000000e+00  -3.6889915218127817e-01 -1.8040436461091505e+00 0.0000000000000000e+00  -8.1978093319000178e-01 -1.0206977535243476e+00 0.0000000000000000e+00  -8.3555213530383632e-01 1.9769941084243009e-01 0.0000000000000000e+00  -7.5195282108746309e-01 -9.3173019342063068e-02 0.0000000000000000e+00  -7.4585892206084770e-01 -1.4908509796224710e-02 0.0000000000000000e+00  -7.2784868810441672e-01 -1.3865176091482197e-02 0.0000000000000000e+00  -7.1849894404736503e-01 -9.0105410989580921e-03 0.0000000000000000e+00  -7.1183154065818266e-01 -5.9894403689632657e-03 0.0000000000000000e+00  -7.0720312496824167e-01 -4.1847387490998320e-03 0.0000000000000000e+00  -7.0395577444956081e-01 -2.9352626601051738e-03 0.0000000000000000e+00  -7.0165086788608899e-01 -2.0788833558844652e-03 0.0000000000000000e+00  -7.0001124300990314e-01 -1.4758712839711412e-03 0.0000000000000000e+00  -6.9884696275881053e-01 -1.0433290706792545e-03 0.0000000000000000e+00  -6.9802854258125624e-01 -7.2690342686859450e-04 0.0000000000000000e+00  -6.9746745638115504e-01 -4.8915485594163614e-04 0.0000000000000000e+00  -6.9710420148293628e-01 -3.0339374951832707e-04 0.0000000000000000e+00  -6.9690037405374616e-01 -1.4914973844132900e-04 0.0000000000000000e+00  -6.9683654055090116e-01 -1.1720345748256126e-05 0.0000000000000000e+00  2.7885370854868930e-03 -1.2328251432800603e+00 0.0000000000000000e+00  -1.1761708919914371e-01 -1.2682382469177533e+00 0.0000000000000000e+00  -2.6662709351754710e-01 -1.2726774668629643e+00 0.0000000000000000e+00  -4.7694286633736627e-01 -1.5286465926704169e+00 0.0000000000000000e+00  -7.4176947516063263e-01 -7.5186305757693384e-01 0.0000000000000000e+00  -7.3377417005190460e-01 1.0452924815197087e-01 0.0000000000000000e+00  -7.3515314096217421e-01 -1.2295064717306479e-01 0.0000000000000000e+00  -7.3136219564154603e-01 -1.7451023244851229e-02 0.0000000000000000e+00  -7.1934387975292369e-01 -2.6945812146119907e-02 0.0000000000000000e+00  -7.1374259142907204e-01 -1.5270303890850321e-02 0.0000000000000000e+00  -7.0861848373576863e-01 -1.0941165136808550e-02 0.0000000000000000e+00  -7.0508149261556607e-01 -7.6498200346059768e-03 0.0000000000000000e+00  -7.0249460503227124e-01 -5.4082610524360123e-03 0.0000000000000000e+00  -7.0062621692280413e-01 -3.8509093341710710e-03 0.0000000000000000e+00  -6.9928026516208519e-01 -2.7418051958887023e-03 0.0000000000000000e+00  -6.9831609430575725e-01 -1.9417940687151713e-03 0.0000000000000000e+00  -6.9763444417759080e-01 -1.3535050672465918e-03 0.0000000000000000e+00  -6.9716543886540816e-01 -9.0960865521298533e-04 0.0000000000000000e+00  -6.9686119437144856e-01 -5.6117906475528162e-04 0.0000000000000000e+00  -6.9669120197225420e-01 -2.7137379753222732e-04 0.0000000000000000e+00  -6.9663719505329647e-01 -8.8328759133031700e-06 0.0000000000000000e+00  1.4049048165131639e-03 -1.1019992823039129e+00 0.0000000000000000e+00  -1.4555369754680045e-01 -1.1225778187353788e+00 0.0000000000000000e+00  -3.0833868472601950e-01 -1.1062681256212197e+00 0.0000000000000000e+00  -4.9647121790359183e-01 -1.2792949161354858e+00 0.0000000000000000e+00  -6.9835593289752462e-01 -6.2786116487997756e-01 0.0000000000000000e+00  -7.1102224149981186e-01 6.3991359670104872e-02 0.0000000000000000e+00  -7.1731125404763962e-01 -1.0383403822557599e-01 0.0000000000000000e+00  -7.1313351936859870e-01 -2.6341379884378929e-02 0.0000000000000000e+00  -7.0983653772714761e-01 -3.3567308943981036e-02 0.0000000000000000e+00  -7.0708821224670870e-01 -1.8942978587645404e-02 0.0000000000000000e+00  -7.0411373984351144e-01 -1.4483999137398913e-02 0.0000000000000000e+00  -7.0200948224659387e-01 -1.0087203543376730e-02 0.0000000000000000e+00  -7.0033454784035154e-01 -7.2399867427208964e-03 0.0000000000000000e+00  -6.9909433625927919e-01 -5.1839708678555370e-03 0.0000000000000000e+00  -6.9817726730742713e-01 -3.7078665348437407e-03 0.0000000000000000e+00  -6.9750989211012704e-01 -2.6339712972876937e-03 0.0000000000000000e+00  -6.9703289928884271e-01 -1.8392294305297123e-03 0.0000000000000000e+00  -6.9670239136060963e-01 -1.2367382789807556e-03 0.0000000000000000e+00  -6.9648723042826710e-01 -7.6205036348248013e-04 0.0000000000000000e+00  -6.9636713372675585e-01 -3.6578653764994778e-04 0.0000000000000000e+00  -6.9632971512835273e-01 -6.1963592552207899e-06 0.0000000000000000e+00  4.9721991080640428e-04 -9.5125302482561258e-01 0.0000000000000000e+00  -1.5690784025538967e-01 -9.6403627257966806e-01 0.0000000000000000e+00  -3.2168752607404383e-01 -9.3903077763553344e-01 0.0000000000000000e+00  -4.9631048861542942e-01 -1.0707636259727353e+00 0.0000000000000000e+00  -6.7456816094310867e-01 -5.2488881075288707e-01 0.0000000000000000e+00  -6.8755187565325271e-01 5.1411274668348252e-02 0.0000000000000000e+00  -6.9524249069263155e-01 -9.3325208771332560e-02 0.0000000000000000e+00  -6.9861359933126188e-01 -3.1351008555151168e-02 0.0000000000000000e+00  -7.0006657336437450e-01 -3.3645866733999830e-02 0.0000000000000000e+00  -6.9972131058335019e-01 -2.0769590023517012e-02 0.0000000000000000e+00  -6.9906671357966410e-01 -1.6136464782122634e-02 0.0000000000000000e+00  -6.9840449984982933e-01 -1.1330017985972770e-02 0.0000000000000000e+00  -6.9775640264759353e-01 -8.2641759985648353e-03 0.0000000000000000e+00  -6.9723818216691236e-01 -5.9498923497529315e-03 0.0000000000000000e+00  -6.9682644088069767e-01 -4.2811468238534191e-03 0.0000000000000000e+00  -6.9651516972992955e-01 -3.0520696008760361e-03 0.0000000000000000e+00  -6.9628647497601104e-01 -2.1363173570885172e-03 0.0000000000000000e+00  -6.9612535760501404e-01 -1.4382896253056995e-03 0.0000000000000000e+00  -6.9601960542195429e-01 -8.8601747685983386e-04 0.0000000000000000e+00  -6.9596097059235151e-01 -4.2350941057903353e-04 0.0000000000000000e+00  -6.9594353923869900e-01 -2.8722521111822756e-06 0.0000000000000000e+00  1.0791911996341981e-04 -7.9346647384456148e-01 0.0000000000000000e+00  -1.6038087772291668e-01 -8.0138181052256874e-01 0.0000000000000000e+00  -3.2381376965155734e-01 -7.7692614211918265e-01 0.0000000000000000e+00  -4.9057739537945638e-01 -8.7848288372414973e-01 0.0000000000000000e+00  -6.5725868286418454e-01 -4.3071568638425523e-01 0.0000000000000000e+00  -6.7092624841789694e-01 4.0977611631106456e-02 0.0000000000000000e+00  -6.8098327575493589e-01 -8.1047949489287646e-02 0.0000000000000000e+00  -6.8718140645985293e-01 -2.9228486255277634e-02 0.0000000000000000e+00  -6.9079467265512251e-01 -3.1286733286208394e-02 0.0000000000000000e+00  -6.9284485837137710e-01 -2.0555457803830030e-02 0.0000000000000000e+00  -6.9406527340052981e-01 -1.5946892046816326e-02 0.0000000000000000e+00  -6.9471108145463845e-01 -1.1423040821226105e-02 0.0000000000000000e+00  -6.9506696135479396e-01 -8.4244906946473082e-03 0.0000000000000000e+00  -6.9526757330054256e-01 -6.1049307316086519e-03 0.0000000000000000e+00  -6.9537633379255503e-01 -4.4201880929833929e-03 0.0000000000000000e+00  -6.9543822807047384e-01 -3.1626300753674827e-03 0.0000000000000000e+00  -6.9547321371785420e-01 -2.2196679733365297e-03 0.0000000000000000e+00  -6.9549362510962054e-01 -1.4965763861928521e-03 0.0000000000000000e+00  -6.9550576719843216e-01 -9.2202424209844472e-04 0.0000000000000000e+00  -6.9551342395105720e-01 -4.3927375000918855e-04 0.0000000000000000e+00  -6.9551743153060841e-01 6.8435045116054144e-07 0.0000000000000000e+00  -4.2033484846405668e-05 -6.3383015686759769e-01 0.0000000000000000e+00  -1.6057366033550108e-01 -6.3858022626615774e-01 0.0000000000000000e+00  -3.2200982380081061e-01 -6.1855610081624968e-01 0.0000000000000000e+00  -4.8409552123848343e-01 -6.9471610114145244e-01 0.0000000000000000e+00  -6.4492980831072511e-01 -3.4148449647404283e-01 0.0000000000000000e+00  -6.5888253082665360e-01 3.3157215443903695e-02 0.0000000000000000e+00  -6.6977686978869111e-01 -6.6788381321043241e-02 0.0000000000000000e+00  -6.7757102819620763e-01 -2.5024887372625166e-02 0.0000000000000000e+00  -6.8310697500870332e-01 -2.7258005079093817e-02 0.0000000000000000e+00  -6.8692789456114678e-01 -1.8299273116334155e-02 0.0000000000000000e+00  -6.8952772513522553e-01 -1.4351142983492191e-02 0.0000000000000000e+00  -6.9130069815977058e-01 -1.0459675159881426e-02 0.0000000000000000e+00  -6.9252918671586783e-01 -7.7710003953844675e-03 0.0000000000000000e+00  -6.9337908136566173e-01 -5.6732203612077049e-03 0.0000000000000000e+00  -6.9397173456799655e-01 -4.1297045134074386e-03 0.0000000000000000e+00  -6.9438613168438834e-01 -2.9651031791079179e-03 0.0000000000000000e+00  -6.9467373114878939e-01 -2.0864404244708584e-03 0.0000000000000000e+00  -6.9486959755255417e-01 -1.4086570630295872e-03 0.0000000000000000e+00  -6.9499633552155771e-01 -8.6791927157411496e-04 0.0000000000000000e+00  -6.9506854378154392e-01 -4.1211136125781793e-04 0.0000000000000000e+00  -6.9509330253985568e-01 4.1280045041301571e-06 0.0000000000000000e+00  -7.7829040166890989e-05 -4.7452182915021845e-01 0.0000000000000000e+00  -1.5968457009897150e-01 -4.7686922409335353e-01 0.0000000000000000e+00  -3.1931994535504238e-01 -4.6295459268083294e-01 0.0000000000000000e+00  -4.7852738141741830e-01 -5.1570834979553382e-01 0.0000000000000000e+00  -6.3611397477561848e-01 -2.5462584819315182e-01 0.0000000000000000e+00  -6.5017888958792480e-01 2.6527679771229721e-02 0.0000000000000000e+00  -6.6163886228527602e-01 -5.1862052105651965e-02 0.0000000000000000e+00  -6.7048998834492257e-01 -1.9300490907477142e-02 0.0000000000000000e+00  -6.7719666252567268e-01 -2.1637259853608506e-02 0.0000000000000000e+00  -6.8215330021996601e-01 -1.4674177919640007e-02 0.0000000000000000e+00  -6.8578773708837848e-01 -1.1688689667708051e-02 0.0000000000000000e+00  -6.8843587941720641e-01 -8.5969177231821747e-03 0.0000000000000000e+00  -6.9035512087077144e-01 -6.4331879212720898e-03 0.0000000000000000e+00  -6.9174178963820043e-01 -4.7263735173213696e-03 0.0000000000000000e+00  -6.9274167850277790e-01 -3.4548729983143569e-03 0.0000000000000000e+00  -6.9345772198328859e-01 -2.4882579416479144e-03 0.0000000000000000e+00  -6.9396419052318992e-01 -1.7546112678350511e-03 0.0000000000000000e+00  -6.9431326921313141e-01 -1.1857953831972549e-03 0.0000000000000000e+00  -6.9454059653069034e-01 -7.3033777899294498e-04 0.0000000000000000e+00  -6.9466952646863933e-01 -3.4523769312645020e-04 0.0000000000000000e+00  -6.9471239810941099e-01 7.1303416768185118e-06 0.0000000000000000e+00  -6.5167646978393854e-05 -3.1611922381256924e-01 0.0000000000000000e+00  -1.5868096733543308e-01 -3.1638935593503970e-01 0.0000000000000000e+00  -3.1696860668881621e-01 -3.0926465565933342e-01 0.0000000000000000e+00  -4.7441008015754182e-01 -3.3942494526613681e-01 0.0000000000000000e+00  -6.3016459894157251e-01 -1.6910145877633970e-01 0.0000000000000000e+00  -6.4430284485751688e-01 2.0529937947208320e-02 0.0000000000000000e+00  -6.5608883869372348e-01 -3.6405888979835328e-02 0.0000000000000000e+00  -6.6553927969708726e-01 -1.2595205006890039e-02 0.0000000000000000e+00  -6.7297070393128033e-01 -1.5089302147853683e-02 0.0000000000000000e+00  -6.7869134644915530e-01 -1.0148135661342707e-02 0.0000000000000000e+00  -6.8303288668099893e-01 -8.2163541177124322e-03 0.0000000000000000e+00  -6.8628628018206295e-01 -6.0625586716473463e-03 0.0000000000000000e+00  -6.8870324005591288e-01 -4.5692328840015919e-03 0.0000000000000000e+00  -6.9048581103854634e-01 -3.3695774072488500e-03 0.0000000000000000e+00  -6.9179024321505822e-01 -2.4710289704520257e-03 0.0000000000000000e+00  -6.9273528090528536e-01 -1.7835985921662873e-03 0.0000000000000000e+00  -6.9340939370542443e-01 -1.2593692993377484e-03 0.0000000000000000e+00  -6.9387658053600576e-01 -8.5128942484249352e-04 0.0000000000000000e+00  -6.9418174490453166e-01 -5.2349164601941467e-04 0.0000000000000000e+00  -6.9435453889376531e-01 -2.4550327048112236e-04 0.0000000000000000e+00  -6.9441126787254837e-01 9.4256034458316853e-06 0.0000000000000000e+00  -3.3185953663916420e-05 -1.5853519804590452e-01 0.0000000000000000e+00  -1.5796220792756221e-01 -1.5685757217997787e-01 0.0000000000000000e+00  -3.1543008099862646e-01 -1.5678531145426111e-01 0.0000000000000000e+00  -4.7190150945716292e-01 -1.6467279342952626e-01 0.0000000000000000e+00  -6.2671217857135297e-01 -8.4302377323531852e-02 0.0000000000000000e+00  -6.4089755611387822e-01 1.4896688919384360e-02 0.0000000000000000e+00  -6.5285493163988695e-01 -2.0659931674134116e-02 0.0000000000000000e+00  -6.6263225055682073e-01 -5.3492751048012212e-03 0.0000000000000000e+00  -6.7046623038352404e-01 -7.9679417229286554e-03 0.0000000000000000e+00  -6.7661179129963067e-01 -5.0338699741564966e-03 0.0000000000000000e+00  -6.8135447910718105e-01 -4.2239323914256728e-03 0.0000000000000000e+00  -6.8496360343067164e-01 -3.0900473112749354e-03 0.0000000000000000e+00  -6.8767919250414578e-01 -2.3480348153715686e-03 0.0000000000000000e+00  -6.8970164324827121e-01 -1.7314638918695339e-03 0.0000000000000000e+00  -6.9119298017156017e-01 -1.2727787766507214e-03 0.0000000000000000e+00  -6.9227984784772689e-01 -9.1907137903899185e-04 0.0000000000000000e+00  -6.9305835022589901e-01 -6.4883461926739045e-04 0.0000000000000000e+00  -6.9359937545671979e-01 -4.3769480261488073e-04 0.0000000000000000e+00  -6.9395325239915229e-01 -2.6753914683622196e-04 0.0000000000000000e+00  -6.9415335671003375e-01 -1.2262531075992611e-04 0.0000000000000000e+00  -6.9421850855598433e-01 1.0817472702193501e-05 0.0000000000000000e+00  5.2732339883551895e-06 -1.4112323155664696e-03 0.0000000000000000e+00  -1.5768110280800762e-01 2.1758866596922125e-03 0.0000000000000000e+00  -3.1487296555561894e-01 -4.9021818186769789e-03 0.0000000000000000e+00  -4.7102765114228734e-01 9.3980100984812267e-03 0.0000000000000000e+00  -6.2556417686793497e-01 1.7633554482021242e-04 0.0000000000000000e+00  -6.3978776534173976e-01 9.4443783781009844e-03 0.0000000000000000e+00  -6.5179977636348096e-01 -4.7865452864123276e-03 0.0000000000000000e+00  -6.6168503470387829e-01 2.1570880427604533e-03 0.0000000000000000e+00  -6.6964753888814443e-01 -5.7399926533570919e-04 0.0000000000000000e+00  -6.7593009414181582e-01 3.5704220231400405e-04 0.0000000000000000e+00  -6.8080359463575868e-01 1.8353702673529086e-05 0.0000000000000000e+00  -6.8452884948124515e-01 1.0003352405719417e-04 0.0000000000000000e+00  -6.8734161234564028e-01 5.1780842300666825e-05 0.0000000000000000e+00  -6.8944247334584230e-01 4.7829918558508342e-05 0.0000000000000000e+00  -6.9099517056906856e-01 3.4152742161186661e-05 0.0000000000000000e+00  -6.9212860428341705e-01 2.6832694531035494e-05 0.0000000000000000e+00  -6.9294136043313326e-01 2.0499596468484882e-05 0.0000000000000000e+00  -6.9350653373330906e-01 1.6254507057963055e-05 0.0000000000000000e+00  -6.9387618862541323e-01 1.3345459623693694e-05 0.0000000000000000e+00  -6.9408483509838337e-01 1.1746170290743940e-05 0.0000000000000000e+00  -6.9415228097602877e-01 1.1191628722141462e-05 0.0000000000000000e+00  4.1545184186625210e-05 1.5570302099610997e-01 0.0000000000000000e+00  -1.5787840369676118e-01 1.6121408354324890e-01 0.0000000000000000e+00  -3.1533608568360205e-01 1.4695530741880097e-01 0.0000000000000000e+00  -4.7178259449378612e-01 1.8350412284825340e-01 0.0000000000000000e+00  -6.2665805169848798e-01 8.4662045227930749e-02 0.0000000000000000e+00  -6.4091939896551675e-01 4.0368752821744736e-03 0.0000000000000000e+00  -6.5287839839192296e-01 1.1075102540864563e-02 0.0000000000000000e+00  -6.6267292324629667e-01 9.6761344633909951e-03 0.0000000000000000e+00  -6.7051111244881323e-01 6.8178950108070367e-03 0.0000000000000000e+00  -6.7665740792939255e-01 5.7481845766068065e-03 0.0000000000000000e+00  -6.8139673382802712e-01 4.2584465632292869e-03 0.0000000000000000e+00  -6.8500045406778143e-01 3.2874539163636001e-03 0.0000000000000000e+00  -6.8770949285029825e-01 2.4482407336839269e-03 0.0000000000000000e+00  -6.8972569672612105e-01 1.8241829107703679e-03 0.0000000000000000e+00  -6.9121156789687122e-01 1.3385803811674789e-03 0.0000000000000000e+00  -6.9229379108619327e-01 9.7061590636149332e-04 0.0000000000000000e+00  -6.9306846376716957e-01 6.8808908871055736e-04 0.0000000000000000e+00  -6.9360635063174092e-01 4.6876943797400695e-04 0.0000000000000000e+00  -6.9395763811255229e-01 2.9300935834181314e-04 0.0000000000000000e+00  -6.9415537623120205e-01 1.4502466735078588e-04 0.0000000000000000e+00  -6.9421880108956868e-01 1.0517271880820860e-05 0.0000000000000000e+00  7.2973412016317298e-05 3.1325852623714784e-01 0.0000000000000000e+00  -1.5852154592673698e-01 3.2075594320960238e-01 0.0000000000000000e+00  -3.1677623399765686e-01 2.9934412691867834e-01 0.0000000000000000e+00  -4.7415041415629616e-01 3.5836670962777917e-01 0.0000000000000000e+00  -6.3004406628178344e-01 1.6948347506520409e-01 0.0000000000000000e+00  -6.4435138583789209e-01 -1.4524454220551280e-03 0.0000000000000000e+00  -6.5613916123507721e-01 2.6781334793338357e-02 0.0000000000000000e+00  -6.6562760767614360e-01 1.6964103253087080e-02 0.0000000000000000e+00  -6.7306882839685434e-01 1.3934846520568211e-02 0.0000000000000000e+00  -6.7878932068186293e-01 1.0861635644697078e-02 0.0000000000000000e+00  -6.8311968089518305e-01 8.2402532465004775e-03 0.0000000000000000e+00  -6.8636005313302650e-01 6.2510347580831422e-03 0.0000000000000000e+00  -6.8876358255052295e-01 4.6597315430477477e-03 0.0000000000000000e+00  -6.9053325650436770e-01 3.4532953046701675e-03 0.0000000000000000e+00  -6.9182649359483783e-01 2.5291859066992640e-03 0.0000000000000000e+00  -6.9276233724559066e-01 1.8288765481619248e-03 0.0000000000000000e+00  -6.9342893177859544e-01 1.2934642777794709e-03 0.0000000000000000e+00  -6.9389000642148158e-01 8.7814390527843876e-04 0.0000000000000000e+00  -6.9419017061758781e-01 5.4539026843439991e-04 0.0000000000000000e+00  -6.9435841393983322e-01 2.6470940571536117e-04 0.0000000000000000e+00  -6.9441182874319540e-01 8.8490980832313031e-06 0.0000000000000000e+00  6.4393266104169073e-05 4.7157794720515889e-01 0.0000000000000000e+00  -1.5948439387794419e-01 4.8124007633305832e-01 0.0000000000000000e+00  -3.1902110094514274e-01 4.5284117467829321e-01 0.0000000000000000e+00  -4.7806636547454823e-01 5.3485042999761911e-01 0.0000000000000000e+00  -6.3589353782434022e-01 2.5504297649721985e-01 0.0000000000000000e+00  -6.5026960543197776e-01 -7.1668824697526000e-03 0.0000000000000000e+00  -6.6173010770642449e-01 4.2157379150426173e-02 0.0000000000000000e+00  -6.7063783496724505e-01 2.3736934547048689e-02 0.0000000000000000e+00  -6.7734774946688114e-01 2.0466452604421505e-02 0.0000000000000000e+00  -6.8230579382110257e-01 1.5393942405993592e-02 0.0000000000000000e+00  -6.8592440972296198e-01 1.1694936270364357e-02 0.0000000000000000e+00  -6.8854800585661013e-01 8.7660806803122170e-03 0.0000000000000000e+00  -6.9044384454427843e-01 6.5061946568295611e-03 0.0000000000000000e+00  -6.9181085097708539e-01 4.7952777218416235e-03 0.0000000000000000e+00  -6.9279369230437804e-01 3.5000557956969955e-03 0.0000000000000000e+00  -6.9349611192260008e-01 2.5233044708123137e-03 0.0000000000000000e+00  -6.9399174198255609e-01 1.7804056613757128e-03 0.0000000000000000e+00  -6.9433209529177209e-01 1.2059025571208568e-03 0.0000000000000000e+00  -6.9455237298695516e-01 7.4658257929438891e-04 0.0000000000000000e+00  -6.9467493265801128e-01 3.5940715009195027e-04 0.0000000000000000e+00  -6.9471317852928094e-01 6.3259276924805183e-06 0.0000000000000000e+00  1.8627414504839886e-05 6.3074458040393167e-01 0.0000000000000000e+00  -1.6037113532261110e-01 6.4297276635237688e-01 0.0000000000000000e+00  -3.2157143506370539e-01 6.0802112252246887e-01 0.0000000000000000e+00  -4.8330979985030575e-01 7.1416138869949208e-01 0.0000000000000000e+00  -6.4453606286584786e-01 3.4195727820557154e-01 0.0000000000000000e+00  -6.5902889154506406e-01 -1.3300060876983944e-02 0.0000000000000000e+00  -6.6992582678384782e-01 5.6949640269309376e-02 0.0000000000000000e+00  -6.7785022806614337e-01 2.9615814074691622e-02 0.0000000000000000e+00  -6.8337323656842919e-01 2.6023316273869036e-02 0.0000000000000000e+00  -6.8714929007442282e-01 1.8991794618277918e-02 0.0000000000000000e+00  -6.8971080308769039e-01 1.4331004145356003e-02 0.0000000000000000e+00  -6.9145223056282346e-01 1.0603846841835751e-02 0.0000000000000000e+00  -6.9264391731685448e-01 7.8142464749836604e-03 0.0000000000000000e+00  -6.9346587950678240e-01 5.7213992621430029e-03 0.0000000000000000e+00  -6.9403637141540842e-01 4.1571072193916621e-03 0.0000000000000000e+00  -6.9443306248838799e-01 2.9862048902248332e-03 0.0000000000000000e+00  -6.9470713081677948e-01 2.1013142051396426e-03 0.0000000000000000e+00  -6.9489226719252828e-01 1.4199602256809436e-03 0.0000000000000000e+00  -6.9501045343728685e-01 8.7687377556537485e-04 0.0000000000000000e+00  -6.9507501047864662e-01 4.1982558367997824e-04 0.0000000000000000e+00  -6.9509423554217920e-01 3.1657635991692313e-06 0.0000000000000000e+00  -1.9401248195316875e-04 7.9019643982456578e-01 0.0000000000000000e+00  -1.6045071602861835e-01 8.0557538188858924e-01 0.0000000000000000e+00  -3.2335837733301298e-01 7.6542406497558846e-01 0.0000000000000000e+00  -4.8916255478687237e-01 8.9850151457650507e-01 0.0000000000000000e+00  -6.5649891245653769e-01 4.3132451270151412e-01 0.0000000000000000e+00  -6.7127546505158875e-01 -2.0213648597270852e-02 0.0000000000000000e+00  -6.8117505434069991e-01 7.0762627333021424e-02 0.0000000000000000e+00  -6.8745373922173070e-01 3.4035065014321200e-02 0.0000000000000000e+00  -6.9112815963535434e-01 3.0079911718814478e-02 0.0000000000000000e+00  -6.9318119550852553e-01 2.1232837574773487e-02 0.0000000000000000e+00  -6.9429679593906479e-01 1.5833448048968541e-02 0.0000000000000000e+00  -6.9489116235608817e-01 1.1541070499034779e-02 0.0000000000000000e+00  -6.9520367766880931e-01 8.4282944041971890e-03 0.0000000000000000e+00  -6.9536580024478523e-01 6.1242374418847192e-03 0.0000000000000000e+00  -6.9544856796262955e-01 4.4263196996544314e-03 0.0000000000000000e+00  -6.9548981873239568e-01 3.1667766470413836e-03 0.0000000000000000e+00  -6.9550952603301086e-01 2.2217444393142867e-03 0.0000000000000000e+00  -6.9551809469424164e-01 1.4977259965468948e-03 0.0000000000000000e+00  -6.9552092719917658e-01 9.2266846248796044e-04 0.0000000000000000e+00  -6.9552035049329664e-01 4.3968510754665684e-04 0.0000000000000000e+00  -6.9551842457081425e-01 -3.4536974738438425e-07 0.0000000000000000e+00  -6.7874353890563972e-04 9.4671620584209659e-01 0.0000000000000000e+00  -1.5754314134804748e-01 9.6806834200546721e-01 0.0000000000000000e+00  -3.2076255454309111e-01 9.2617954488170939e-01 0.0000000000000000e+00  -4.9331626630306785e-01 1.0914597153093304e+00 0.0000000000000000e+00  -6.7297388347134846e-01 5.2499749091510972e-01 0.0000000000000000e+00  -6.8816692981208294e-01 -2.8339766215063962e-02 0.0000000000000000e+00  -6.9614020354814810e-01 8.2824111800764766e-02 0.0000000000000000e+00  -6.9964195172633359e-01 3.6053587653675133e-02 0.0000000000000000e+00  -7.0044162112713215e-01 3.1939667613328560e-02 0.0000000000000000e+00  -7.0010893979920907e-01 2.1611383157211703e-02 0.0000000000000000e+00  -6.9937402751819233e-01 1.5889576132616441e-02 0.0000000000000000e+00  -6.9859508263336945e-01 1.1382872240068270e-02 0.0000000000000000e+00  -6.9790428064595234e-01 8.2307809727247879e-03 0.0000000000000000e+00  -6.9733990681024527e-01 5.9321126917301426e-03 0.0000000000000000e+00  -6.9689950851727434e-01 4.2637613013703744e-03 0.0000000000000000e+00  -6.9656664380121036e-01 3.0377933891597795e-03 0.0000000000000000e+00  -6.9632225776252743e-01 2.1247800969040769e-03 0.0000000000000000e+00  -6.9614929952397664e-01 1.4288631157204764e-03 0.0000000000000000e+00  -6.9603437160763593e-01 8.7809876612998693e-04 0.0000000000000000e+00  -6.9596769945889103e-01 4.1646286253948134e-04 0.0000000000000000e+00  -6.9594450891491000e-01 -3.8689487414418149e-06 0.0000000000000000e+00  -2.4902631467574902e-03 1.0958655093542178e+00 0.0000000000000000e+00  -1.4751402032436825e-01 1.1283636132004049e+00 0.0000000000000000e+00  -3.0879560006254947e-01 1.0864550089835205e+00 0.0000000000000000e+00  -4.9246241791048467e-01 1.3005605973324892e+00 0.0000000000000000e+00  -6.9547584882739888e-01 6.3059276860442026e-01 0.0000000000000000e+00  -7.1154792906758302e-01 -3.9634308286054146e-02 0.0000000000000000e+00  -7.1607499868706959e-01 9.1204608582711511e-02 0.0000000000000000e+00  -7.1420766597221330e-01 3.4461498024861280e-02 0.0000000000000000e+00  -7.1082595471980281e-01 3.0536516137986632e-02 0.0000000000000000e+00  -7.0735513894217050e-01 1.9658675199058839e-02 0.0000000000000000e+00  -7.0446549300426509e-01 1.4232675250777996e-02 0.0000000000000000e+00  -7.0219541364268823e-01 1.0013349118577817e-02 0.0000000000000000e+00  -7.0047239600039501e-01 7.1704439915601199e-03 0.0000000000000000e+00  -6.9918792701271393e-01 5.1272130822331910e-03 0.0000000000000000e+00  -6.9824255297835069e-01 3.6660570182835287e-03 0.0000000000000000e+00  -6.9755533752091448e-01 2.6017635839953065e-03 0.0000000000000000e+00  -6.9706415500438557e-01 1.8145879640956929e-03 0.0000000000000000e+00  -6.9672315869222701e-01 1.2173591482819866e-03 0.0000000000000000e+00  -6.9649993746376659e-01 7.4620680589073025e-04 0.0000000000000000e+00  -6.9637289986462203e-01 3.5190044143981741e-04 0.0000000000000000e+00  -6.9633052551219321e-01 -7.0579155469557904e-06 0.0000000000000000e+00  -5.3075229184623004e-03 1.2307270015052192e+00 0.0000000000000000e+00  -1.2093731915361310e-01 1.2696382468965925e+00 0.0000000000000000e+00  -2.7216754268171062e-01 1.2410138209134138e+00 0.0000000000000000e+00  -4.5723420850039975e-01 1.5604418027469396e+00 0.0000000000000000e+00  -7.2510174837379238e-01 7.5045002498208990e-01 0.0000000000000000e+00  -7.5048398402027772e-01 -6.1714494539381798e-02 0.0000000000000000e+00  -7.4015471632216534e-01 9.6335902021931208e-02 0.0000000000000000e+00  -7.3059044107518167e-01 2.5031743386918878e-02 0.0000000000000000e+00  -7.2091132542104586e-01 2.5516993594558956e-02 0.0000000000000000e+00  -7.1400117147454467e-01 1.4862231692234442e-02 0.0000000000000000e+00  -7.0891345214686097e-01 1.0825887099155281e-02 0.0000000000000000e+00  -7.0524756282722112e-01 7.4426411484654481e-03 0.0000000000000000e+00  -7.0260503110836892e-01 5.2987970549639527e-03 0.0000000000000000e+00  -7.0070076687884253e-01 3.7609590149200660e-03 0.0000000000000000e+00  -6.9933107605923195e-01 2.6784166375032480e-03 0.0000000000000000e+00  -6.9835102301046215e-01 1.8945010417351891e-03 0.0000000000000000e+00  -6.9765826531493180e-01 1.3180378926475130e-03 0.0000000000000000e+00  -6.9718112844319313e-01 8.8214858528477239e-04 0.0000000000000000e+00  -6.9687085681846406e-01 5.3888674657567056e-04 0.0000000000000000e+00  -6.9669565911415376e-01 2.5173445975604366e-04 0.0000000000000000e+00  -6.9663798303751834e-01 -9.5946400851034897e-06 0.0000000000000000e+00  -6.6825800537323550e-03 1.3302992134189058e+00 0.0000000000000000e+00  -7.3165973911558158e-02 1.3662082142340117e+00 0.0000000000000000e+00  -1.9227416656913654e-01 1.4124016117499425e+00 0.0000000000000000e+00  -3.3759661876270242e-01 1.8415704833153761e+00 0.0000000000000000e+00  -8.2926339400901872e-01 9.1931363605307048e-01 0.0000000000000000e+00  -7.9014894897906163e-01 -5.8933896785586123e-02 0.0000000000000000e+00  -7.7264488610025661e-01 6.3249602700783378e-02 0.0000000000000000e+00  -7.4301938328800365e-01 1.4429293945522016e-02 0.0000000000000000e+00  -7.2877186559199791e-01 1.4229002556236854e-02 0.0000000000000000e+00  -7.1871142330590054e-01 7.9700377644001119e-03 0.0000000000000000e+00  -7.1195622107398837e-01 5.7907102703570077e-03 0.0000000000000000e+00  -7.0728818769504431e-01 3.9231624003970783e-03 0.0000000000000000e+00  -7.0400805495722485e-01 2.7839808555949678e-03 0.0000000000000000e+00  -7.0168589912395585e-01 1.9665219846361579e-03 0.0000000000000000e+00  -7.0003492721827620e-01 1.3968584164566430e-03 0.0000000000000000e+00  -6.9886311686956426e-01 9.8557914521893095e-04 0.0000000000000000e+00  -6.9803951139318066e-01 6.8402074841971468e-04 0.0000000000000000e+00  -6.9747464919766200e-01 4.5622114950431267e-04 0.0000000000000000e+00  -6.9710870266191904e-01 2.7660423528795368e-04 0.0000000000000000e+00  -6.9690220859049279e-01 1.2678801547295185e-04 0.0000000000000000e+00  -6.9683534040839357e-01 -1.0662356464609472e-05 0.0000000000000000e+00  -1.8269996587958869e-03 1.3708992649168701e+00 0.0000000000000000e+00  -7.6414258836393538e-03 1.4006393710133695e+00 0.0000000000000000e+00  -1.8982484880651147e-02 1.5307501600320408e+00 0.0000000000000000e+00  2.2167160186321380e-02 1.8796142020359003e+00 0.0000000000000000e+00  -5.7032814991726222e-01 1.8743348681249343e+00 0.0000000000000000e+00  -9.5667308149129671e-01 -5.0800963657443066e-01 0.0000000000000000e+00  -7.6755861475644194e-01 1.2085695278127793e-01 0.0000000000000000e+00  -7.5050491811325570e-01 -2.9915868909104817e-02 0.0000000000000000e+00  -7.3171369320994395e-01 5.9682113724703273e-03 0.0000000000000000e+00  -7.2038586788092462e-01 -1.8522226498573625e-03 0.0000000000000000e+00  -7.1305503734023634e-01 1.6239180323967953e-04 0.0000000000000000e+00  -7.0800503868756914e-01 -2.2377745731533177e-04 0.0000000000000000e+00  -7.0449799673033087e-01 -6.7560415046016839e-05 0.0000000000000000e+00  -7.0202799312567954e-01 -6.8081351458484441e-05 0.0000000000000000e+00  -7.0027838221942385e-01 -4.2903543230551829e-05 0.0000000000000000e+00  -6.9903980796010023e-01 -3.2279087044020429e-05 0.0000000000000000e+00  -6.9817083329338891e-01 -2.3519566779039845e-05 0.0000000000000000e+00  -6.9757569440244793e-01 -1.8008785304263916e-05 0.0000000000000000e+00  -6.9719037648509818e-01 -1.4405464669209713e-05 0.0000000000000000e+00  -6.9697351548685638e-01 -1.1858728565586496e-05 0.0000000000000000e+00  -6.9690741260344780e-01 -1.4841753715915763e-05 0.0000000000000000e+00  </DataArray> 
</PointData> 
</Piece>
</UnstructuredGrid>
</VTKFile>