<?xml version="1.0"?>
<VTKFile type="UnstructuredGrid"  version="0.1"  >
<UnstructuredGrid>
<Piece  NumberOfPoints="121" NumberOfCells="200">
<Points>
<DataArray  type="Float64"  NumberOfComponents="3"  format="ascii">0 0 0  0.1 0 0  0.2 0 0  0.3 0 0  0.4 0 0  0.5 0 0  0.6 0 0  0.7 0 0  0.8 0 0  0.9 0 0  1 0 0  0 0.1 0  0.1 0.1 0  0.2 0.1 0  0.3 0.1 0  0.4 0.1 0  0.5 0.1 0  0.6 0.1 0  0.7 0.1 0  0.8 0.1 0  0.9 0.1 0  1 0.1 0  0 0.2 0  0.1 0.2 0  0.2 0.2 0  0.3 0.2 0  0.4 0.2 0  0.5 0.2 0  0.6 0.2 0  0.7 0.2 0  0.8 0.2 0  0.9 0.2 0  1 0.2 0  0 0.3 0  0.1 0.3 0  0.2 0.3 0  0.3 0.3 0  0.4 0.3 0  0.5 0.3 0  0.6 0.3 0  0.7 0.3 0  0.8 0.3 0  0.9 0.3 0  1 0.3 0  0 0.4 0  0.1 0.4 0  0.2 0.4 0  0.3 0.4 0  0.4 0.4 0  0.5 0.4 0  0.6 0.4 0  0.7 0.4 0  0.8 0.4 0  0.9 0.4 0  1 0.4 0  0 0.5 0  0.1 0.5 0  0.2 0.5 0  0.3 0.5 0  0.4 0.5 0  0.5 0.5 0  0.6 0.5 0  0.7 0.5 0  0.8 0.5 0  0.9 0.5 0  1 0.5 0  0 0.6 0  0.1 0.6 0  0.2 0.6 0  0.3 0.6 0  0.4 0.6 0  0.5 0.6 0  0.6 0.6 0  0.7 0.6 0  0.8 0.6 0  0.9 0.6 0  1 0.6 0  0 0.7 0  0.1 0.7 0  0.2 0.7 0  0.3 0.7 0  0.4 0.7 0  0.5 0.7 0  0.6 0.7 0  0.7 0.7 0  0.8 0.7 0  0.9 0.7 0  1 0.7 0  0 0.8 0  0.1 0.8 0  0.2 0.8 0  0.3 0.8 0  0.4 0.8 0  0.5 0.8 0  0.6 0.8 0  0.7 0.8 0  0.8 0.8 0  0.9 0.8 0  1 0.8 0  0 0.9 0  0.1 0.9 0  0.2 0.9 0  0.3 0.9 0  0.4 0.9 0  0.5 0.9 0  0.6 0.9 0  0.7 0.9 0  0.8 0.9 0  0.9 0.9 0  1 0.9 0  0 1 0  0.1 1 0  0.2 1 0  0.3 1 0  0.4 1 0  0.5 1 0  0.6 1 0  0.7 1 0  0.8 1 0  0.9 1 0  1 1 0  </DataArray>
</Points>
<Cells>
<DataArray  type="UInt32"  Name="connectivity"  format="ascii">0 1 12  0 11 12  1 2 13  1 12 13  2 3 14  2 13 14  3 4 15  3 14 15  4 5 16  4 15 16  5 6 17  5 16 17  6 7 18  6 17 18  7 8 19  7 18 19  8 9 20  8 19 20  9 10 21  9 20 21  11 12 23  11 22 23  12 13 24  12 23 24  13 14 25  13 24 25  14 15 26  14 25 26  15 16 27  15 26 27  16 17 28  16 27 28  17 18 29  17 28 29  18 19 30  18 29 30  19 20 31  19 30 31  20 21 32  20 31 32  22 23 34  22 33 34  23 24 35  23 34 35  24 25 36  24 35 36  25 26 37  25 36 37  26 27 38  26 37 38  27 28 39  27 38 39  28 29 40  28 39 40  29 30 41  29 40 41  30 31 42  30 41 42  31 32 43  31 42 43  33 34 45  33 44 45  34 35 46  34 45 46  35 36 47  35 46 47  36 37 48  36 47 48  37 38 49  37 48 49  38 39 50  38 49 50  39 40 51  39 50 51  40 41 52  40 51 52  41 42 53  41 52 53  42 43 54  42 53 54  44 45 56  44 55 56  45 46 57  45 56 57  46 47 58  46 57 58  47 48 59  47 58 59  48 49 60  48 59 60  49 50 61  49 60 61  50 51 62  50 61 62  51 52 63  51 62 63  52 53 64  52 63 64  53 54 65  53 64 65  55 56 67  55 66 67  56 57 68  56 67 68  57 58 69  57 68 69  58 59 70  58 69 70  59 60 71  59 70 71  60 61 72  60 71 72  61 62 73  61 72 73  62 63 74  62 73 74  63 64 75  63 74 75  64 65 76  64 75 76  66 67 78  66 77 78  67 68 79  67 78 79  68 69 80  68 79 80  69 70 81  69 80 81  70 71 82  70 81 82  71 72 83  71 82 83  72 73 84  72 83 84  73 74 85  73 84 85  74 75 86  74 85 86  75 76 87  75 86 87  77 78 89  77 88 89  78 79 90  78 89 90  79 80 91  79 90 91  80 81 92  80 91 92  81 82 93  81 92 93  82 83 94  82 93 94  83 84 95  83 94 95  84 85 96  84 95 96  85 86 97  85 96 97  86 87 98  86 97 98  88 89 100  88 99 100  89 90 101  89 100 101  90 91 102  90 101 102  91 92 103  91 102 103  92 93 104  92 103 104  93 94 105  93 104 105  94 95 106  94 105 106  95 96 107  95 106 107  96 97 108  96 107 108  97 98 109  97 108 109  99 100 111  99 110 111  100 101 112  100 111 112  101 102 113  101 112 113  102 103 114  102 113 114  103 104 115  103 114 115  104 105 116  104 115 116  105 106 117  105 116 117  106 107 118  106 117 118  107 108 119  107 118 119  108 109 120  108 119 120  </DataArray>
<DataArray  type="UInt32"  Name="offsets"  format="ascii">3 6 9 12 15 18 21 24 27 30 33 36 39 42 45 48 51 54 57 60 63 66 69 72 75 78 81 84 87 90 93 96 99 102 105 108 111 114 117 120 123 126 129 132 135 138 141 144 147 150 153 156 159 162 165 168 171 174 177 180 183 186 189 192 195 198 201 204 207 210 213 216 219 222 225 228 231 234 237 240 243 246 249 252 255 258 261 264 267 270 273 276 279 282 285 288 291 294 297 300 303 306 309 312 315 318 321 324 327 330 333 336 339 342 345 348 351 354 357 360 363 366 369 372 375 378 381 384 387 390 393 396 399 402 405 408 411 414 417 420 423 426 429 432 435 438 441 444 447 450 453 456 459 462 465 468 471 474 477 480 483 486 489 492 495 498 501 504 507 510 513 516 519 522 525 528 531 534 537 540 543 546 549 552 555 558 561 564 567 570 573 576 579 582 585 588 591 594 597 600 </DataArray>
<DataArray  type="UInt8"  Name="types"  format="ascii">5 5 5 5 5 5 5 5 5 5 5 5 5 5 5 5 5 5 5 5 5 5 5 5 5 5 5 5 5 5 5 5 5 5 5 5 5 5 5 5 5 5 5 5 5 5 5 5 5 5 5 5 5 5 5 5 5 5 5 5 5 5 5 5 5 5 5 5 5 5 5 5 5 5 5 5 5 5 5 5 5 5 5 5 5 5 5 5 5 5 5 5 5 5 5 5 5 5 5 5 5 5 5 5 5 5 5 5 5 5 5 5 5 5 5 5 5 5 5 5 5 5 5 5 5 5 5 5 5 5 5 5 5 5 5 5 5 5 5 5 5 5 5 5 5 5 5 5 5 5 5 5 5 5 5 5 5 5 5 5 5 5 5 5 5 5 5 5 5 5 5 5 5 5 5 5 5 5 5 5 5 5 5 5 5 5 5 5 5 5 5 5 5 5 5 5 5 5 5 5 </DataArray>
</Cells>
<PointData  Vectors="f_34"> 
<DataArray  type="Float64"  Name="f_34"  NumberOfComponents="3" format="ascii">-2.4143510381139811e-02 1.9267168200264284e+00 0.0000000000000000e+00  -1.3512081048487776e-01 3.2755494543390844e+00 0.0000000000000000e+00  1.0651161157679594e+00 1.5140427268281997e+00 0.0000000000000000e+00  1.3234987629898642e+00 -1.1895696324613741e-01 0.0000000000000000e+00  1.1751536862652450e+00 1.7227244430825504e-03 0.0000000000000000e+00  1.1534139754090564e+00 4.4640836862356566e-03 0.0000000000000000e+00  1.1401613165052604e+00 -2.8296579508478771e-04 0.0000000000000000e+00  1.1331684317165713e+00 3.4799094596676185e-04 0.0000000000000000e+00  1.1298419517785492e+00 1.3531622981450335e-04 0.0000000000000000e+00  1.1282745890809798e+00 9.1036625678082695e-05 0.0000000000000000e+00  1.1277678418943038e+00 3.5585896027242948e-05 0.0000000000000000e+00  -2.9972807793919417e-02 1.9470180102703820e+00 0.0000000000000000e+00  4.3141694509718681e-01 2.3337772814052431e+00 0.0000000000000000e+00  1.2054045512864673e+00 1.3107086825608356e+00 0.0000000000000000e+00  1.2508190449840977e+00 -2.7825994301483725e-01 0.0000000000000000e+00  1.1450850751068293e+00 1.1389262954917310e-01 0.0000000000000000e+00  1.1508057602994040e+00 8.6759704937434522e-03 0.0000000000000000e+00  1.1361791116302202e+00 9.5854496686884547e-03 0.0000000000000000e+00  1.1316273197873750e+00 4.7870437380176361e-03 0.0000000000000000e+00  1.1289755586311756e+00 2.2402894514901000e-03 0.0000000000000000e+00  1.1277288128750775e+00 9.7972698857442348e-04 0.0000000000000000e+00  1.1273927675136728e+00 6.1914282554919421e-05 0.0000000000000000e+00  -2.0007679182024183e-03 1.4759455790480254e+00 0.0000000000000000e+00  5.2398373245032437e-01 1.7283448790172347e+00 0.0000000000000000e+00  1.0992853420479312e+00 8.3970367779865163e-01 0.0000000000000000e+00  1.1088495178467308e+00 -1.4449572486370654e-01 0.0000000000000000e+00  1.1258965650955033e+00 1.3592515667082850e-01 0.0000000000000000e+00  1.1343590857912509e+00 1.5140831482216915e-03 0.0000000000000000e+00  1.1275780476327966e+00 1.8373612670068536e-02 0.0000000000000000e+00  1.1277807944257339e+00 6.2834641845988430e-03 0.0000000000000000e+00  1.1266797099032575e+00 3.5546710966626754e-03 0.0000000000000000e+00  1.1263479071495699e+00 1.4693677438932917e-03 0.0000000000000000e+00  1.1262494553777236e+00 7.4479604765758493e-06 0.0000000000000000e+00  3.3110296220606445e-04 9.9725481493596357e-01 0.0000000000000000e+00  5.2173690816860496e-01 1.1215984125203706e+00 0.0000000000000000e+00  1.0434491023429011e+00 5.4969795612928851e-01 0.0000000000000000e+00  1.0835026726573911e+00 -8.3049648681478419e-02 0.0000000000000000e+00  1.1083128405022096e+00 8.8990627296175337e-02 0.0000000000000000e+00  1.1152004078369602e+00 4.1136729179907005e-03 0.0000000000000000e+00  1.1199732470770867e+00 1.8636205778124033e-02 0.0000000000000000e+00  1.1231568868456159e+00 5.0143747293026307e-03 0.0000000000000000e+00  1.1240304384400812e+00 3.6954942485871597e-03 0.0000000000000000e+00  1.1247038095977333e+00 1.3349853941136585e-03 0.0000000000000000e+00  1.1248631323037321e+00 -2.0396885067253783e-05 0.0000000000000000e+00  3.7249459667334188e-04 5.1120842968104319e-01 0.0000000000000000e+00  5.1331846626327471e-01 5.3987946538233178e-01 0.0000000000000000e+00  1.0200989904626081e+00 2.7179293541841965e-01 0.0000000000000000e+00  1.0612064751594987e+00 -5.6741985542502371e-02 0.0000000000000000e+00  1.0880583796467125e+00 5.3353529659333328e-02 0.0000000000000000e+00  1.1045076022687061e+00 2.4032066593795195e-03 0.0000000000000000e+00  1.1145202264180614e+00 1.0932090786850156e-02 0.0000000000000000e+00  1.1194244214072218e+00 2.4879093189576012e-03 0.0000000000000000e+00  1.1220494046212239e+00 2.3983160976604077e-03 0.0000000000000000e+00  1.1233893504811299e+00 6.7787743096460852e-04 0.0000000000000000e+00  1.1237496345934597e+00 -1.7124487050597157e-05 0.0000000000000000e+00  2.5125200387689407e-04 3.2196943566970462e-02 0.0000000000000000e+00  5.0936073175640040e-01 -3.2746551629711351e-02 0.0000000000000000e+00  1.0120628078991241e+00 -1.0888846113576880e-03 0.0000000000000000e+00  1.0544612587652371e+00 -3.0899239503541405e-02 0.0000000000000000e+00  1.0836364220168726e+00 1.5280536608914239e-02 0.0000000000000000e+00  1.1018110107709644e+00 -7.1204903616962460e-03 0.0000000000000000e+00  1.1123083839712262e+00 1.7871248250011917e-03 0.0000000000000000e+00  1.1181641174020405e+00 -9.9134600077596799e-04 0.0000000000000000e+00  1.1213843989720524e+00 1.5269113317968290e-04 0.0000000000000000e+00  1.1228958299629335e+00 -1.9585300166442921e-04 0.0000000000000000e+00  1.1233373123497568e+00 -1.2600396779866675e-05 0.0000000000000000e+00  -1.2510476068921684e-03 -4.4790144902775547e-01 0.0000000000000000e+00  5.1151329600410023e-01 -6.0570548488507592e-01 0.0000000000000000e+00  1.0192189922084811e+00 -2.7351257819611813e-01 0.0000000000000000e+00  1.0617876344204000e+00 -6.6620599565891687e-03 0.0000000000000000e+00  1.0892513150472685e+00 -2.3367371333959854e-02 0.0000000000000000e+00  1.1055829115449394e+00 -1.6013825417738235e-02 0.0000000000000000e+00  1.1146869117486553e+00 -6.6814602610798367e-03 0.0000000000000000e+00  1.1196543340361065e+00 -4.6988993302441552e-03 0.0000000000000000e+00  1.1222189859234761e+00 -2.0349535611734223e-03 0.0000000000000000e+00  1.1234197025523385e+00 -1.0033200246966415e-03 0.0000000000000000e+00  1.1237686299049596e+00 -1.4276402797951647e-05 0.0000000000000000e+00  2.2403441030561986e-03 -9.2304000295158461e-01 0.0000000000000000e+00  5.2068765896144409e-01 -1.1870598085582116e+00 0.0000000000000000e+00  1.0418390701465945e+00 -5.5408397691034950e-01 0.0000000000000000e+00  1.0837964795392931e+00 2.0625673102037587e-02 0.0000000000000000e+00  1.1066075326810725e+00 -5.7407506222995557e-02 0.0000000000000000e+00  1.1164810681844475e+00 -2.1754487323417716e-02 0.0000000000000000e+00  1.1212071611181658e+00 -1.2760787028876928e-02 0.0000000000000000e+00  1.1233062452116283e+00 -7.0267772598144136e-03 0.0000000000000000e+00  1.1243237039506946e+00 -3.3645908295334469e-03 0.0000000000000000e+00  1.1247700233920437e+00 -1.4849205041045511e-03 0.0000000000000000e+00  1.1248806019770099e+00 5.3911523572189428e-06 0.0000000000000000e+00  1.3564160636754773e-02 -1.3830081361939173e+00 0.0000000000000000e+00  5.0572487957961210e-01 -1.8140942194473071e+00 0.0000000000000000e+00  1.0800518745850236e+00 -8.3907721481450881e-01 0.0000000000000000e+00  1.1319250752427832e+00 6.1372732452861768e-02 0.0000000000000000e+00  1.1334377361981940e+00 -8.6567971114839715e-02 0.0000000000000000e+00  1.1329719447674282e+00 -1.7760471160612690e-02 0.0000000000000000e+00  1.1297070597194283e+00 -1.4907226671362583e-02 0.0000000000000000e+00  1.1279952568525038e+00 -6.6350361685970673e-03 0.0000000000000000e+00  1.1269584908837122e+00 -3.4464464819738017e-03 0.0000000000000000e+00  1.1264389712283318e+00 -1.4175758393940290e-03 0.0000000000000000e+00  1.1262625754706772e+00 3.8695237790222200e-05 0.0000000000000000e+00  7.4305562199045327e-02 -1.8726100735111679e+00 0.0000000000000000e+00  3.9918950565881972e-01 -2.4072737891945941e+00 0.0000000000000000e+00  1.2266117822541491e+00 -1.1673865787968796e+00 0.0000000000000000e+00  1.1824532018591012e+00 6.5964623722314542e-02 0.0000000000000000e+00  1.1751464637891424e+00 -6.2856922978070440e-02 0.0000000000000000e+00  1.1466326299465146e+00 -1.2111219711203372e-02 0.0000000000000000e+00  1.1374369084611189e+00 -9.2234549593962784e-03 0.0000000000000000e+00  1.1318701791409240e+00 -4.0280093895920469e-03 0.0000000000000000e+00  1.1290911765240950e+00 -2.0840668842929716e-03 0.0000000000000000e+00  1.1277821063409006e+00 -8.2448608694248189e-04 0.0000000000000000e+00  1.1273854183130014e+00 6.5933480246960709e-05 0.0000000000000000e+00  3.4823618358671829e-02 -2.2272530486580950e+00 0.0000000000000000e+00  -2.9766678764749213e-02 -2.5435893578277464e+00 0.0000000000000000e+00  8.3914042702772762e-01 -2.5484721338980285e+00 0.0000000000000000e+00  1.4156169662019651e+00 6.7499015602113177e-01 0.0000000000000000e+00  1.1667025675859566e+00 -1.5510068783794351e-01 0.0000000000000000e+00  1.1558024891583412e+00 3.6451186399386083e-02 0.0000000000000000e+00  1.1405013947678155e+00 -6.7289200230093672e-03 0.0000000000000000e+00  1.1333072566471933e+00 1.8273763140843737e-03 0.0000000000000000e+00  1.1299252501679786e+00 -1.5195145720637912e-04 0.0000000000000000e+00  1.1282927403062115e+00 1.5804133813179024e-04 0.0000000000000000e+00  1.1278432517739099e+00 7.9802230383751348e-05 0.0000000000000000e+00  </DataArray> 
</PointData> 
</Piece>
</UnstructuredGrid>
</VTKFile>