<?xml version="1.0"?>
<VTKFile type="UnstructuredGrid"  version="0.1"  >
<UnstructuredGrid>
<Piece  NumberOfPoints="121" NumberOfCells="200">
<Points>
<DataArray  type="Float64"  NumberOfComponents="3"  format="ascii">0 0 0  0.1 0 0  0.2 0 0  0.3 0 0  0.4 0 0  0.5 0 0  0.6 0 0  0.7 0 0  0.8 0 0  0.9 0 0  1 0 0  0 0.1 0  0.1 0.1 0  0.2 0.1 0  0.3 0.1 0  0.4 0.1 0  0.5 0.1 0  0.6 0.1 0  0.7 0.1 0  0.8 0.1 0  0.9 0.1 0  1 0.1 0  0 0.2 0  0.1 0.2 0  0.2 0.2 0  0.3 0.2 0  0.4 0.2 0  0.5 0.2 0  0.6 0.2 0  0.7 0.2 0  0.8 0.2 0  0.9 0.2 0  1 0.2 0  0 0.3 0  0.1 0.3 0  0.2 0.3 0  0.3 0.3 0  0.4 0.3 0  0.5 0.3 0  0.6 0.3 0  0.7 0.3 0  0.8 0.3 0  0.9 0.3 0  1 0.3 0  0 0.4 0  0.1 0.4 0  0.2 0.4 0  0.3 0.4 0  0.4 0.4 0  0.5 0.4 0  0.6 0.4 0  0.7 0.4 0  0.8 0.4 0  0.9 0.4 0  1 0.4 0  0 0.5 0  0.1 0.5 0  0.2 0.5 0  0.3 0.5 0  0.4 0.5 0  0.5 0.5 0  0.6 0.5 0  0.7 0.5 0  0.8 0.5 0  0.9 0.5 0  1 0.5 0  0 0.6 0  0.1 0.6 0  0.2 0.6 0  0.3 0.6 0  0.4 0.6 0  0.5 0.6 0  0.6 0.6 0  0.7 0.6 0  0.8 0.6 0  0.9 0.6 0  1 0.6 0  0 0.7 0  0.1 0.7 0  0.2 0.7 0  0.3 0.7 0  0.4 0.7 0  0.5 0.7 0  0.6 0.7 0  0.7 0.7 0  0.8 0.7 0  0.9 0.7 0  1 0.7 0  0 0.8 0  0.1 0.8 0  0.2 0.8 0  0.3 0.8 0  0.4 0.8 0  0.5 0.8 0  0.6 0.8 0  0.7 0.8 0  0.8 0.8 0  0.9 0.8 0  1 0.8 0  0 0.9 0  0.1 0.9 0  0.2 0.9 0  0.3 0.9 0  0.4 0.9 0  0.5 0.9 0  0.6 0.9 0  0.7 0.9 0  0.8 0.9 0  0.9 0.9 0  1 0.9 0  0 1 0  0.1 1 0  0.2 1 0  0.3 1 0  0.4 1 0  0.5 1 0  0.6 1 0  0.7 1 0  0.8 1 0  0.9 1 0  1 1 0  </DataArray>
</Points>
<Cells>
<DataArray  type="UInt32"  Name="connectivity"  format="ascii">0 1 12  0 11 12  1 2 13  1 12 13  2 3 14  2 13 14  3 4 15  3 14 15  4 5 16  4 15 16  5 6 17  5 16 17  6 7 18  6 17 18  7 8 19  7 18 19  8 9 20  8 19 20  9 10 21  9 20 21  11 12 23  11 22 23  12 13 24  12 23 24  13 14 25  13 24 25  14 15 26  14 25 26  15 16 27  15 26 27  16 17 28  16 27 28  17 18 29  17 28 29  18 19 30  18 29 30  19 20 31  19 30 31  20 21 32  20 31 32  22 23 34  22 33 34  23 24 35  23 34 35  24 25 36  24 35 36  25 26 37  25 36 37  26 27 38  26 37 38  27 28 39  27 38 39  28 29 40  28 39 40  29 30 41  29 40 41  30 31 42  30 41 42  31 32 43  31 42 43  33 34 45  33 44 45  34 35 46  34 45 46  35 36 47  35 46 47  36 37 48  36 47 48  37 38 49  37 48 49  38 39 50  38 49 50  39 40 51  39 50 51  40 41 52  40 51 52  41 42 53  41 52 53  42 43 54  42 53 54  44 45 56  44 55 56  45 46 57  45 56 57  46 47 58  46 57 58  47 48 59  47 58 59  48 49 60  48 59 60  49 50 61  49 60 61  50 51 62  50 61 62  51 52 63  51 62 63  52 53 64  52 63 64  53 54 65  53 64 65  55 56 67  55 66 67  56 57 68  56 67 68  57 58 69  57 68 69  58 59 70  58 69 70  59 60 71  59 70 71  60 61 72  60 71 72  61 62 73  61 72 73  62 63 74  62 73 74  63 64 75  63 74 75  64 65 76  64 75 76  66 67 78  66 77 78  67 68 79  67 78 79  68 69 80  68 79 80  69 70 81  69 80 81  70 71 82  70 81 82  71 72 83  71 82 83  72 73 84  72 83 84  73 74 85  73 84 85  74 75 86  74 85 86  75 76 87  75 86 87  77 78 89  77 88 89  78 79 90  78 89 90  79 80 91  79 90 91  80 81 92  80 91 92  81 82 93  81 92 93  82 83 94  82 93 94  83 84 95  83 94 95  84 85 96  84 95 96  85 86 97  85 96 97  86 87 98  86 97 98  88 89 100  88 99 100  89 90 101  89 100 101  90 91 102  90 101 102  91 92 103  91 102 103  92 93 104  92 103 104  93 94 105  93 104 105  94 95 106  94 105 106  95 96 107  95 106 107  96 97 108  96 107 108  97 98 109  97 108 109  99 100 111  99 110 111  100 101 112  100 111 112  101 102 113  101 112 113  102 103 114  102 113 114  103 104 115  103 114 115  104 105 116  104 115 116  105 106 117  105 116 117  106 107 118  106 117 118  107 108 119  107 118 119  108 109 120  108 119 120  </DataArray>
<DataArray  type="UInt32"  Name="offsets"  format="ascii">3 6 9 12 15 18 21 24 27 30 33 36 39 42 45 48 51 54 57 60 63 66 69 72 75 78 81 84 87 90 93 96 99 102 105 108 111 114 117 120 123 126 129 132 135 138 141 144 147 150 153 156 159 162 165 168 171 174 177 180 183 186 189 192 195 198 201 204 207 210 213 216 219 222 225 228 231 234 237 240 243 246 249 252 255 258 261 264 267 270 273 276 279 282 285 288 291 294 297 300 303 306 309 312 315 318 321 324 327 330 333 336 339 342 345 348 351 354 357 360 363 366 369 372 375 378 381 384 387 390 393 396 399 402 405 408 411 414 417 420 423 426 429 432 435 438 441 444 447 450 453 456 459 462 465 468 471 474 477 480 483 486 489 492 495 498 501 504 507 510 513 516 519 522 525 528 531 534 537 540 543 546 549 552 555 558 561 564 567 570 573 576 579 582 585 588 591 594 597 600 </DataArray>
<DataArray  type="UInt8"  Name="types"  format="ascii">5 5 5 5 5 5 5 5 5 5 5 5 5 5 5 5 5 5 5 5 5 5 5 5 5 5 5 5 5 5 5 5 5 5 5 5 5 5 5 5 5 5 5 5 5 5 5 5 5 5 5 5 5 5 5 5 5 5 5 5 5 5 5 5 5 5 5 5 5 5 5 5 5 5 5 5 5 5 5 5 5 5 5 5 5 5 5 5 5 5 5 5 5 5 5 5 5 5 5 5 5 5 5 5 5 5 5 5 5 5 5 5 5 5 5 5 5 5 5 5 5 5 5 5 5 5 5 5 5 5 5 5 5 5 5 5 5 5 5 5 5 5 5 5 5 5 5 5 5 5 5 5 5 5 5 5 5 5 5 5 5 5 5 5 5 5 5 5 5 5 5 5 5 5 5 5 5 5 5 5 5 5 5 5 5 5 5 5 5 5 5 5 5 5 5 5 5 5 5 5 </DataArray>
</Cells>
<PointData  Vectors="f_34"> 
<DataArray  type="Float64"  Name="f_34"  NumberOfComponents="3" format="ascii">2.1303732891630383e-16 -1.7000949672885515e-14 0.0000000000000000e+00  1.1922780114523447e-15 -2.8902769128004252e-14 0.0000000000000000e+00  -9.3983637303285630e-15 -1.3359599051536547e-14 0.0000000000000000e+00  -1.1678278628100784e-14 1.0496515753462696e-15 0.0000000000000000e+00  -1.0369312433690826e-14 -1.5200963241025475e-17 0.0000000000000000e+00  -1.0177485733302156e-14 -3.9390148721569122e-17 0.0000000000000000e+00  -1.0060547019364725e-14 2.4968314966652952e-18 0.0000000000000000e+00  -9.9988432541175258e-15 -3.0705999437098464e-18 0.0000000000000000e+00  -9.9694910849631050e-15 -1.1940023510884041e-18 0.0000000000000000e+00  -9.9556610015467302e-15 -8.0328830653115264e-19 0.0000000000000000e+00  -9.9511895694568045e-15 -3.1400256704307126e-19 0.0000000000000000e+00  2.6447384045390108e-16 -1.7180083165700728e-14 0.0000000000000000e+00  -3.8067336597635898e-15 -2.0592766771169773e-14 0.0000000000000000e+00  -1.0636239793457189e-14 -1.1565421610698968e-14 0.0000000000000000e+00  -1.1036967868152871e-14 2.4553080338554082e-15 0.0000000000000000e+00  -1.0103993244215557e-14 -1.0049649450050098e-15 0.0000000000000000e+00  -1.0154471384045215e-14 -7.6554964483853869e-17 0.0000000000000000e+00  -1.0025408869344987e-14 -8.4580020123111341e-17 0.0000000000000000e+00  -9.9852448020377031e-15 -4.2239881245645309e-17 0.0000000000000000e+00  -9.9618462114962528e-15 -1.9767849546738468e-17 0.0000000000000000e+00  -9.9508451854845906e-15 -8.6449077792506170e-18 0.0000000000000000e+00  -9.9478799909019578e-15 -5.4631878998892885e-19 0.0000000000000000e+00  1.7654361207072860e-17 -1.3023437719804183e-14 0.0000000000000000e+00  -4.6235237956123280e-15 -1.5250556802196980e-14 0.0000000000000000e+00  -9.6998658972839073e-15 -7.4093711219046602e-15 0.0000000000000000e+00  -9.7842582011907008e-15 1.2750003118368500e-15 0.0000000000000000e+00  -9.9346778110343942e-15 -1.1993753953983560e-15 0.0000000000000000e+00  -1.0009349338764259e-14 -1.3359955721523609e-17 0.0000000000000000e+00  -9.9495148642511574e-15 -1.6212494802876102e-16 0.0000000000000000e+00  -9.9513038599080519e-15 -5.5443984950672286e-17 0.0000000000000000e+00  -9.9415881184157285e-15 -3.1365680617875544e-17 0.0000000000000000e+00  -9.9386603597238715e-15 -1.2965396266444552e-17 0.0000000000000000e+00  -9.9377916417051858e-15 -6.5719258774123034e-20 0.0000000000000000e+00  -2.9215838770243999e-18 -8.7995696843174621e-15 0.0000000000000000e+00  -4.6036982840787806e-15 -9.8967518040277015e-15 0.0000000000000000e+00  -9.2071784969967396e-15 -4.8504207729467247e-15 0.0000000000000000e+00  -9.5606028954647214e-15 7.3281287779761981e-16 0.0000000000000000e+00  -9.7795226715944657e-15 -7.8523484110136121e-16 0.0000000000000000e+00  -9.8402971374680112e-15 -3.6298196767959393e-17 0.0000000000000000e+00  -9.8824116811699352e-15 -1.6444201515979381e-16 0.0000000000000000e+00  -9.9105034582898330e-15 -4.4245802770734495e-17 0.0000000000000000e+00  -9.9182114964092981e-15 -3.2608274907677319e-17 0.0000000000000000e+00  -9.9241531838660893e-15 -1.1779634279156962e-17 0.0000000000000000e+00  -9.9255590143848420e-15 1.7997788414814306e-19 0.0000000000000000e+00  -3.2868150761201116e-18 -4.5107971732156664e-15 0.0000000000000000e+00  -4.5294156984548614e-15 -4.7637844466751764e-15 0.0000000000000000e+00  -9.0011419519233050e-15 -2.3982444999006079e-15 0.0000000000000000e+00  -9.3638658723493134e-15 5.0067951373073717e-16 0.0000000000000000e+00  -9.6008015092126370e-15 -4.7078048168838503e-16 0.0000000000000000e+00  -9.7459460385217224e-15 -2.1205397204720535e-17 0.0000000000000000e+00  -9.8342953576782393e-15 -9.6462502094156011e-17 0.0000000000000000e+00  -9.8775689572700666e-15 -2.1952795907837995e-17 0.0000000000000000e+00  -9.9007312648025584e-15 -2.1162243902221538e-17 0.0000000000000000e+00  -9.9125546692031508e-15 -5.9814498780633046e-18 0.0000000000000000e+00  -9.9157337414975846e-15 1.5110292256908676e-19 0.0000000000000000e+00  -2.2169955796123865e-18 -2.8409915329193147e-16 0.0000000000000000e+00  -4.4944934698893034e-15 2.8894878086425783e-16 0.0000000000000000e+00  -8.9302323434619890e-15 9.6080920064837755e-18 0.0000000000000000e+00  -9.3043474816550446e-15 2.7264848174365124e-16 0.0000000000000000e+00  -9.5617830720769303e-15 -1.3483228628235707e-16 0.0000000000000000e+00  -9.7221518743430825e-15 6.2829730361636496e-17 0.0000000000000000e+00  -9.8147785186014024e-15 -1.5769218856264270e-17 0.0000000000000000e+00  -9.8664482960800542e-15 8.7474315334628935e-18 0.0000000000000000e+00  -9.8948633928577790e-15 -1.3473148953682305e-18 0.0000000000000000e+00  -9.9081999464928691e-15 1.7281662722644266e-18 0.0000000000000000e+00  -9.9120954955232194e-15 1.1118328825217539e-19 0.0000000000000000e+00  1.1038984651034913e-17 3.9521895040232239e-15 0.0000000000000000e+00  -4.5134872504295738e-15 5.3446195922972353e-15 0.0000000000000000e+00  -8.9933770298158569e-15 2.4134182711653392e-15 0.0000000000000000e+00  -9.3689939011513678e-15 5.8784635532568681e-17 0.0000000000000000e+00  -9.6113277238058251e-15 2.0618883891347233e-16 0.0000000000000000e+00  -9.7554343445861999e-15 1.4130267466788045e-16 0.0000000000000000e+00  -9.8357661544695352e-15 5.8955819796308412e-17 0.0000000000000000e+00  -9.8795976586299627e-15 4.1462113270157310e-17 0.0000000000000000e+00  -9.9022276150471987e-15 1.7956008231512191e-17 0.0000000000000000e+00  -9.9128224895853419e-15 8.8530878375392912e-18 0.0000000000000000e+00  -9.9159013521871451e-15 1.2597201775842076e-19 0.0000000000000000e+00  -1.9768331780869379e-17 8.1447135734377208e-15 0.0000000000000000e+00  -4.5944399266596338e-15 1.0474369587808168e-14 0.0000000000000000e+00  -9.1929719067720124e-15 4.8891221107811368e-15 0.0000000000000000e+00  -9.5631953864633122e-15 -1.8199666226628485e-16 0.0000000000000000e+00  -9.7644753890137690e-15 5.0655193020510449e-16 0.0000000000000000e+00  -9.8515974188012342e-15 1.9195708487137995e-16 0.0000000000000000e+00  -9.8932994827892309e-15 1.1259853851350755e-16 0.0000000000000000e+00  -9.9118213655388156e-15 6.2002825384126185e-17 0.0000000000000000e+00  -9.9207992104598569e-15 2.9688451758041685e-17 0.0000000000000000e+00  -9.9247374406562495e-15 1.3102630597394907e-17 0.0000000000000000e+00  -9.9257131631591137e-15 -4.7570410462283155e-20 0.0000000000000000e+00  -1.1968734063226971e-16 1.2203376996678451e-14 0.0000000000000000e+00  -4.4624114642551090e-15 1.6007191200143882e-14 0.0000000000000000e+00  -9.5301537688728761e-15 7.4038433424434172e-15 0.0000000000000000e+00  -9.9878721344300834e-15 -5.4154026418073755e-16 0.0000000000000000e+00  -1.0001219541017173e-14 7.6385782534819694e-16 0.0000000000000000e+00  -9.9971094940241512e-15 1.5671471449768037e-16 0.0000000000000000e+00  -9.9683008254062489e-15 1.3153827680741669e-16 0.0000000000000000e+00  -9.9531962318883468e-15 5.8546183231277382e-17 0.0000000000000000e+00  -9.9440480239759535e-15 3.0410729060598718e-17 0.0000000000000000e+00  -9.9394638902706377e-15 1.2508395241325722e-17 0.0000000000000000e+00  -9.9379074106847244e-15 -3.4143875392091880e-19 0.0000000000000000e+00  -6.5565687195491364e-16 1.6523522961856504e-14 0.0000000000000000e+00  -3.5223654172264535e-15 2.1241284714788717e-14 0.0000000000000000e+00  -1.0823368001731131e-14 1.0300777088070214e-14 0.0000000000000000e+00  -1.0433721845576237e-14 -5.8205816051292650e-16 0.0000000000000000e+00  -1.0369248704059458e-14 5.5463645359569272e-16 0.0000000000000000e+00  -1.0117648547201474e-14 1.0686689120438974e-16 0.0000000000000000e+00  -1.0036507407749066e-14 8.1385853875835785e-17 0.0000000000000000e+00  -9.9873877426112231e-15 3.5542319557604366e-17 0.0000000000000000e+00  -9.9628663998074856e-15 1.8389374009997979e-17 0.0000000000000000e+00  -9.9513154359754283e-15 7.2750942559147905e-18 0.0000000000000000e+00  -9.9478151430792823e-15 -5.8178335694438037e-19 0.0000000000000000e+00  -3.0727638695521093e-16 1.9652819031547006e-14 0.0000000000000000e+00  2.6265500064587457e-16 2.2444105024382116e-14 0.0000000000000000e+00  -7.4044011139044118e-15 2.2487189627875500e-14 0.0000000000000000e+00  -1.2491110550512732e-14 -5.9559731627043136e-15 0.0000000000000000e+00  -1.0294741514989769e-14 1.3685763059496504e-15 0.0000000000000000e+00  -1.0198561483315027e-14 -3.2163770983449156e-16 0.0000000000000000e+00  -1.0063547799430891e-14 5.9374594893747403e-17 0.0000000000000000e+00  -1.0000068216516955e-14 -1.6124389648877927e-17 0.0000000000000000e+00  -9.9702260926775763e-15 1.3407881479263539e-18 0.0000000000000000e+00  -9.9558211641941880e-15 -1.3945239943400755e-18 0.0000000000000000e+00  -9.9518549705964341e-15 -7.0415833218434642e-19 0.0000000000000000e+00  </DataArray> 
</PointData> 
</Piece>
</UnstructuredGrid>
</VTKFile>