<?xml version="1.0"?>
<VTKFile type="UnstructuredGrid"  version="0.1"  >
<UnstructuredGrid>
<Piece  NumberOfPoints="121" NumberOfCells="200">
<Points>
<DataArray  type="Float64"  NumberOfComponents="3"  format="ascii">0 0 0  0.1 0 0  0.2 0 0  0.3 0 0  0.4 0 0  0.5 0 0  0.6 0 0  0.7 0 0  0.8 0 0  0.9 0 0  1 0 0  0 0.1 0  0.1 0.1 0  0.2 0.1 0  0.3 0.1 0  0.4 0.1 0  0.5 0.1 0  0.6 0.1 0  0.7 0.1 0  0.8 0.1 0  0.9 0.1 0  1 0.1 0  0 0.2 0  0.1 0.2 0  0.2 0.2 0  0.3 0.2 0  0.4 0.2 0  0.5 0.2 0  0.6 0.2 0  0.7 0.2 0  0.8 0.2 0  0.9 0.2 0  1 0.2 0  0 0.3 0  0.1 0.3 0  0.2 0.3 0  0.3 0.3 0  0.4 0.3 0  0.5 0.3 0  0.6 0.3 0  0.7 0.3 0  0.8 0.3 0  0.9 0.3 0  1 0.3 0  0 0.4 0  0.1 0.4 0  0.2 0.4 0  0.3 0.4 0  0.4 0.4 0  0.5 0.4 0  0.6 0.4 0  0.7 0.4 0  0.8 0.4 0  0.9 0.4 0  1 0.4 0  0 0.5 0  0.1 0.5 0  0.2 0.5 0  0.3 0.5 0  0.4 0.5 0  0.5 0.5 0  0.6 0.5 0  0.7 0.5 0  0.8 0.5 0  0.9 0.5 0  1 0.5 0  0 0.6 0  0.1 0.6 0  0.2 0.6 0  0.3 0.6 0  0.4 0.6 0  0.5 0.6 0  0.6 0.6 0  0.7 0.6 0  0.8 0.6 0  0.9 0.6 0  1 0.6 0  0 0.7 0  0.1 0.7 0  0.2 0.7 0  0.3 0.7 0  0.4 0.7 0  0.5 0.7 0  0.6 0.7 0  0.7 0.7 0  0.8 0.7 0  0.9 0.7 0  1 0.7 0  0 0.8 0  0.1 0.8 0  0.2 0.8 0  0.3 0.8 0  0.4 0.8 0  0.5 0.8 0  0.6 0.8 0  0.7 0.8 0  0.8 0.8 0  0.9 0.8 0  1 0.8 0  0 0.9 0  0.1 0.9 0  0.2 0.9 0  0.3 0.9 0  0.4 0.9 0  0.5 0.9 0  0.6 0.9 0  0.7 0.9 0  0.8 0.9 0  0.9 0.9 0  1 0.9 0  0 1 0  0.1 1 0  0.2 1 0  0.3 1 0  0.4 1 0  0.5 1 0  0.6 1 0  0.7 1 0  0.8 1 0  0.9 1 0  1 1 0  </DataArray>
</Points>
<Cells>
<DataArray  type="UInt32"  Name="connectivity"  format="ascii">0 1 12  0 11 12  1 2 13  1 12 13  2 3 14  2 13 14  3 4 15  3 14 15  4 5 16  4 15 16  5 6 17  5 16 17  6 7 18  6 17 18  7 8 19  7 18 19  8 9 20  8 19 20  9 10 21  9 20 21  11 12 23  11 22 23  12 13 24  12 23 24  13 14 25  13 24 25  14 15 26  14 25 26  15 16 27  15 26 27  16 17 28  16 27 28  17 18 29  17 28 29  18 19 30  18 29 30  19 20 31  19 30 31  20 21 32  20 31 32  22 23 34  22 33 34  23 24 35  23 34 35  24 25 36  24 35 36  25 26 37  25 36 37  26 27 38  26 37 38  27 28 39  27 38 39  28 29 40  28 39 40  29 30 41  29 40 41  30 31 42  30 41 42  31 32 43  31 42 43  33 34 45  33 44 45  34 35 46  34 45 46  35 36 47  35 46 47  36 37 48  36 47 48  37 38 49  37 48 49  38 39 50  38 49 50  39 40 51  39 50 51  40 41 52  40 51 52  41 42 53  41 52 53  42 43 54  42 53 54  44 45 56  44 55 56  45 46 57  45 56 57  46 47 58  46 57 58  47 48 59  47 58 59  48 49 60  48 59 60  49 50 61  49 60 61  50 51 62  50 61 62  51 52 63  51 62 63  52 53 64  52 63 64  53 54 65  53 64 65  55 56 67  55 66 67  56 57 68  56 67 68  57 58 69  57 68 69  58 59 70  58 69 70  59 60 71  59 70 71  60 61 72  60 71 72  61 62 73  61 72 73  62 63 74  62 73 74  63 64 75  63 74 75  64 65 76  64 75 76  66 67 78  66 77 78  67 68 79  67 78 79  68 69 80  68 79 80  69 70 81  69 80 81  70 71 82  70 81 82  71 72 83  71 82 83  72 73 84  72 83 84  73 74 85  73 84 85  74 75 86  74 85 86  75 76 87  75 86 87  77 78 89  77 88 89  78 79 90  78 89 90  79 80 91  79 90 91  80 81 92  80 91 92  81 82 93  81 92 93  82 83 94  82 93 94  83 84 95  83 94 95  84 85 96  84 95 96  85 86 97  85 96 97  86 87 98  86 97 98  88 89 100  88 99 100  89 90 101  89 100 101  90 91 102  90 101 102  91 92 103  91 102 103  92 93 104  92 103 104  93 94 105  93 104 105  94 95 106  94 105 106  95 96 107  95 106 107  96 97 108  96 107 108  97 98 109  97 108 109  99 100 111  99 110 111  100 101 112  100 111 112  101 102 113  101 112 113  102 103 114  102 113 114  103 104 115  103 114 115  104 105 116  104 115 116  105 106 117  105 116 117  106 107 118  106 117 118  107 108 119  107 118 119  108 109 120  108 119 120  </DataArray>
<DataArray  type="UInt32"  Name="offsets"  format="ascii">3 6 9 12 15 18 21 24 27 30 33 36 39 42 45 48 51 54 57 60 63 66 69 72 75 78 81 84 87 90 93 96 99 102 105 108 111 114 117 120 123 126 129 132 135 138 141 144 147 150 153 156 159 162 165 168 171 174 177 180 183 186 189 192 195 198 201 204 207 210 213 216 219 222 225 228 231 234 237 240 243 246 249 252 255 258 261 264 267 270 273 276 279 282 285 288 291 294 297 300 303 306 309 312 315 318 321 324 327 330 333 336 339 342 345 348 351 354 357 360 363 366 369 372 375 378 381 384 387 390 393 396 399 402 405 408 411 414 417 420 423 426 429 432 435 438 441 444 447 450 453 456 459 462 465 468 471 474 477 480 483 486 489 492 495 498 501 504 507 510 513 516 519 522 525 528 531 534 537 540 543 546 549 552 555 558 561 564 567 570 573 576 579 582 585 588 591 594 597 600 </DataArray>
<DataArray  type="UInt8"  Name="types"  format="ascii">5 5 5 5 5 5 5 5 5 5 5 5 5 5 5 5 5 5 5 5 5 5 5 5 5 5 5 5 5 5 5 5 5 5 5 5 5 5 5 5 5 5 5 5 5 5 5 5 5 5 5 5 5 5 5 5 5 5 5 5 5 5 5 5 5 5 5 5 5 5 5 5 5 5 5 5 5 5 5 5 5 5 5 5 5 5 5 5 5 5 5 5 5 5 5 5 5 5 5 5 5 5 5 5 5 5 5 5 5 5 5 5 5 5 5 5 5 5 5 5 5 5 5 5 5 5 5 5 5 5 5 5 5 5 5 5 5 5 5 5 5 5 5 5 5 5 5 5 5 5 5 5 5 5 5 5 5 5 5 5 5 5 5 5 5 5 5 5 5 5 5 5 5 5 5 5 5 5 5 5 5 5 5 5 5 5 5 5 5 5 5 5 5 5 5 5 5 5 5 5 </DataArray>
</Cells>
<PointData  Vectors="f_34"> 
<DataArray  type="Float64"  Name="f_34"  NumberOfComponents="3" format="ascii">-2.0537696622166982e-02 1.6389632204205420e+00 0.0000000000000000e+00  -1.1494062666411443e-01 2.7863487911299254e+00 0.0000000000000000e+00  9.0604188486657211e-01 1.2879216694556124e+00 0.0000000000000000e+00  1.1258352925899722e+00 -1.0119083694440528e-01 0.0000000000000000e+00  9.9964543315915844e-01 1.4654369400780472e-03 0.0000000000000000e+00  9.8115253054601137e-01 3.7973763962416613e-03 0.0000000000000000e+00  9.6987914553667942e-01 -2.4070508232489069e-04 0.0000000000000000e+00  9.6393064243847404e-01 2.9601877948782747e-04 0.0000000000000000e+00  9.6110096959022939e-01 1.1510686027976717e-04 0.0000000000000000e+00  9.5976769124455252e-01 7.7440379220307192e-05 0.0000000000000000e+00  9.5933662634059425e-01 3.0271171213307744e-05 0.0000000000000000e+00  -2.5496393178471983e-02 1.6562324443120680e+00 0.0000000000000000e+00  3.6698517308359735e-01 1.9852295309404995e+00 0.0000000000000000e+00  1.0253783559428042e+00 1.1149554003341338e+00 0.0000000000000000e+00  1.0640102317175830e+00 -2.3670204545750423e-01 0.0000000000000000e+00  9.7406754477123647e-01 9.6882857391318161e-02 0.0000000000000000e+00  9.7893385025462665e-01 7.3802213137405068e-03 0.0000000000000000e+00  9.6649167974070771e-01 8.1538705090874464e-03 0.0000000000000000e+00  9.6261969433014283e-01 4.0721026253587242e-03 0.0000000000000000e+00  9.6036397155906239e-01 1.9057040328475411e-03 0.0000000000000000e+00  9.5930342627382925e-01 8.3340555479337233e-04 0.0000000000000000e+00  9.5901756901550883e-01 5.2667434509309415e-05 0.0000000000000000e+00  -1.7019548469444814e-03 1.2555142999005067e+00 0.0000000000000000e+00  4.4572718557207747e-01 1.4702179684467496e+00 0.0000000000000000e+00  9.3510796482238823e-01 7.1429461229542524e-01 0.0000000000000000e+00  9.4324373869685529e-01 -1.2291540515869551e-01 0.0000000000000000e+00  9.5774482321903398e-01 1.1562484439739038e-01 0.0000000000000000e+00  9.6494347328956931e-01 1.2879560539470344e-03 0.0000000000000000e+00  9.5917517769861160e-01 1.5629528470139667e-02 0.0000000000000000e+00  9.5934764442191411e-01 5.3450338878785310e-03 0.0000000000000000e+00  9.5841100598280693e-01 3.0237838418052413e-03 0.0000000000000000e+00  9.5812875770217620e-01 1.2499188591064097e-03 0.0000000000000000e+00  9.5804500962286443e-01 6.3356135947232111e-06 0.0000000000000000e+00  2.8165300245014413e-04 8.4831561445802650e-01 0.0000000000000000e+00  4.4381592268061065e-01 9.5408859625657916e-01 0.0000000000000000e+00  8.8761082238197719e-01 4.6760101073072757e-01 0.0000000000000000e+00  9.2168242434737446e-01 -7.0646250784234713e-02 0.0000000000000000e+00  9.4278721367991314e-01 7.5699949045228490e-02 0.0000000000000000e+00  9.4864612840079743e-01 3.4992991929808435e-03 0.0000000000000000e+00  9.5270614795854347e-01 1.5852903509769142e-02 0.0000000000000000e+00  9.5541431370114671e-01 4.2654819168598717e-03 0.0000000000000000e+00  9.5615740107111469e-01 3.1435751698222101e-03 0.0000000000000000e+00  9.5673020479068527e-01 1.1356064046395044e-03 0.0000000000000000e+00  9.5686573277933951e-01 -1.7350626772808508e-05 0.0000000000000000e+00  3.1686282976613645e-04 4.3485986394445225e-01 0.0000000000000000e+00  4.3665476826877803e-01 4.5924890364003357e-01 0.0000000000000000e+00  8.6774803083590035e-01 2.3120088021799573e-01 0.0000000000000000e+00  9.0271614592262084e-01 -4.8267615869217212e-02 0.0000000000000000e+00  9.2555774018045467e-01 4.5385223133134978e-02 0.0000000000000000e+00  9.3955028470061197e-01 2.0442896874383757e-03 0.0000000000000000e+00  9.4806753152698608e-01 9.2993918648095787e-03 0.0000000000000000e+00  9.5223928895883092e-01 2.1163420732769225e-03 0.0000000000000000e+00  9.5447223305172779e-01 2.0401295271567613e-03 0.0000000000000000e+00  9.5561205908060165e-01 5.7663698461595729e-04 0.0000000000000000e+00  9.5591853505200342e-01 -1.4566958752652352e-05 0.0000000000000000e+00  2.1372772019954357e-04 2.7388356071700634e-02 0.0000000000000000e+00  4.3328811821126045e-01 -2.7855880614548963e-02 0.0000000000000000e+00  8.6091204564220936e-01 -9.2626057485304628e-04 0.0000000000000000e+00  8.9697832214433404e-01 -2.6284463061145836e-02 0.0000000000000000e+00  9.2179619834813376e-01 1.2998400818422410e-02 0.0000000000000000e+00  9.3725642696326295e-01 -6.0570508820387723e-03 0.0000000000000000e+00  9.4618602596163581e-01 1.5202191770125023e-03 0.0000000000000000e+00  9.5116721033805529e-01 -8.4328927691679429e-04 0.0000000000000000e+00  9.5390654545870190e-01 1.2988683587336026e-04 0.0000000000000000e+00  9.5519224545286430e-01 -1.6660251418111236e-04 0.0000000000000000e+00  9.5556779280208670e-01 -1.0718537709128172e-05 0.0000000000000000e+00  -1.0642046580905597e-03 -3.8100772967741547e-01 0.0000000000000000e+00  4.3511919872859572e-01 -5.1524386034062519e-01 0.0000000000000000e+00  8.6699945960967884e-01 -2.3266369573692103e-01 0.0000000000000000e+00  9.0321050951768733e-01 -5.6670866873609555e-03 0.0000000000000000e+00  9.2657251164324972e-01 -1.9877473314290274e-02 0.0000000000000000e+00  9.4046499740566813e-01 -1.3622173536405116e-02 0.0000000000000000e+00  9.4820932253819279e-01 -5.6835895720547024e-03 0.0000000000000000e+00  9.5243486432244828e-01 -3.9971225136355305e-03 0.0000000000000000e+00  9.5461648752357053e-01 -1.7310348917703058e-03 0.0000000000000000e+00  9.5563787809451839e-01 -8.5347499004683846e-04 0.0000000000000000e+00  9.5593469342906889e-01 -1.2144233577671606e-05 0.0000000000000000e+00  1.9057505222548716e-03 -7.8518472465184153e-01 0.0000000000000000e+00  4.4292337799437276e-01 -1.0097733857120099e+00 0.0000000000000000e+00  8.8624124719271558e-01 -4.7133198285358707e-01 0.0000000000000000e+00  9.2193235140896279e-01 1.7545245497049420e-02 0.0000000000000000e+00  9.4133659220337618e-01 -4.8833741574054707e-02 0.0000000000000000e+00  9.4973552316061116e-01 -1.8505472226946179e-02 0.0000000000000000e+00  9.5375577793502964e-01 -1.0854973801319345e-02 0.0000000000000000e+00  9.5554136551593127e-01 -5.9773337561719493e-03 0.0000000000000000e+00  9.5640686761477178e-01 -2.8620919089117438e-03 0.0000000000000000e+00  9.5678652960834598e-01 -1.2631488271551243e-03 0.0000000000000000e+00  9.5688059337103015e-01 4.5859881070663226e-06 0.0000000000000000e+00  1.1538364210272864e-02 -1.1764569890105108e+00 0.0000000000000000e+00  4.3019527761802612e-01 -1.5431607141992281e+00 0.0000000000000000e+00  9.1874700017765631e-01 -7.1376171105155994e-01 0.0000000000000000e+00  9.6287298024897516e-01 5.2206764471787716e-02 0.0000000000000000e+00  9.6415972651345905e-01 -7.3639114606216832e-02 0.0000000000000000e+00  9.6376350065635186e-01 -1.5107959149485551e-02 0.0000000000000000e+00  9.6098622355109908e-01 -1.2680844418279748e-02 0.0000000000000000e+00  9.5953007705860971e-01 -5.6440988802621377e-03 0.0000000000000000e+00  9.5864815124918501e-01 -2.9317224858325364e-03 0.0000000000000000e+00  9.5820622143437972e-01 -1.2058620336812076e-03 0.0000000000000000e+00  9.5805617024053780e-01 3.2916135307719972e-05 0.0000000000000000e+00  6.3208086549653417e-02 -1.5929372727600482e+00 0.0000000000000000e+00  3.3957087567424077e-01 -2.0477493947025458e+00 0.0000000000000000e+00  1.0434183041083678e+00 -9.9303833691263887e-01 0.0000000000000000e+00  1.0058547719996507e+00 5.6112860492011078e-02 0.0000000000000000e+00  9.9963928935402546e-01 -5.3469292341804392e-02 0.0000000000000000e+00  9.7538397354658302e-01 -1.0302418837461047e-02 0.0000000000000000e+00  9.6756162563165438e-01 -7.8459394170033222e-03 0.0000000000000000e+00  9.6282628283555705e-01 -3.4264294433052132e-03 0.0000000000000000e+00  9.6046232201313475e-01 -1.7728131797787763e-03 0.0000000000000000e+00  9.5934876040361028e-01 -7.0134975633164779e-04 0.0000000000000000e+00  9.5901131741201928e-01 5.6086368265492826e-05 0.0000000000000000e+00  2.9622739106539866e-02 -1.8946146062450788e+00 0.0000000000000000e+00  -2.5321049353182190e-02 -2.1637063433512771e+00 0.0000000000000000e+00  7.1381548257183303e-01 -2.1678598807624629e+00 0.0000000000000000e+00  1.2041957166162620e+00 5.7418092184890146e-01 0.0000000000000000e+00  9.9245648222314387e-01 -1.3193652548527185e-01 0.0000000000000000e+00  9.8318432169759917e-01 3.1007231176020784e-02 0.0000000000000000e+00  9.7016843338563197e-01 -5.7239612569103017e-03 0.0000000000000000e+00  9.6404873397792967e-01 1.5544591387411150e-03 0.0000000000000000e+00  9.6117182743253071e-01 -1.2925762990803627e-04 0.0000000000000000e+00  9.5978313159897488e-01 1.3443799203596821e-04 0.0000000000000000e+00  9.5940077381562505e-01 6.7883831787159509e-05 0.0000000000000000e+00  </DataArray> 
</PointData> 
</Piece>
</UnstructuredGrid>
</VTKFile>