<?xml version="1.0"?>
<VTKFile type="UnstructuredGrid"  version="0.1"  >
<UnstructuredGrid>
<Piece  NumberOfPoints="121" NumberOfCells="200">
<Points>
<DataArray  type="Float64"  NumberOfComponents="3"  format="ascii">0 0 0  0.1 0 0  0.2 0 0  0.3 0 0  0.4 0 0  0.5 0 0  0.6 0 0  0.7 0 0  0.8 0 0  0.9 0 0  1 0 0  0 0.1 0  0.1 0.1 0  0.2 0.1 0  0.3 0.1 0  0.4 0.1 0  0.5 0.1 0  0.6 0.1 0  0.7 0.1 0  0.8 0.1 0  0.9 0.1 0  1 0.1 0  0 0.2 0  0.1 0.2 0  0.2 0.2 0  0.3 0.2 0  0.4 0.2 0  0.5 0.2 0  0.6 0.2 0  0.7 0.2 0  0.8 0.2 0  0.9 0.2 0  1 0.2 0  0 0.3 0  0.1 0.3 0  0.2 0.3 0  0.3 0.3 0  0.4 0.3 0  0.5 0.3 0  0.6 0.3 0  0.7 0.3 0  0.8 0.3 0  0.9 0.3 0  1 0.3 0  0 0.4 0  0.1 0.4 0  0.2 0.4 0  0.3 0.4 0  0.4 0.4 0  0.5 0.4 0  0.6 0.4 0  0.7 0.4 0  0.8 0.4 0  0.9 0.4 0  1 0.4 0  0 0.5 0  0.1 0.5 0  0.2 0.5 0  0.3 0.5 0  0.4 0.5 0  0.5 0.5 0  0.6 0.5 0  0.7 0.5 0  0.8 0.5 0  0.9 0.5 0  1 0.5 0  0 0.6 0  0.1 0.6 0  0.2 0.6 0  0.3 0.6 0  0.4 0.6 0  0.5 0.6 0  0.6 0.6 0  0.7 0.6 0  0.8 0.6 0  0.9 0.6 0  1 0.6 0  0 0.7 0  0.1 0.7 0  0.2 0.7 0  0.3 0.7 0  0.4 0.7 0  0.5 0.7 0  0.6 0.7 0  0.7 0.7 0  0.8 0.7 0  0.9 0.7 0  1 0.7 0  0 0.8 0  0.1 0.8 0  0.2 0.8 0  0.3 0.8 0  0.4 0.8 0  0.5 0.8 0  0.6 0.8 0  0.7 0.8 0  0.8 0.8 0  0.9 0.8 0  1 0.8 0  0 0.9 0  0.1 0.9 0  0.2 0.9 0  0.3 0.9 0  0.4 0.9 0  0.5 0.9 0  0.6 0.9 0  0.7 0.9 0  0.8 0.9 0  0.9 0.9 0  1 0.9 0  0 1 0  0.1 1 0  0.2 1 0  0.3 1 0  0.4 1 0  0.5 1 0  0.6 1 0  0.7 1 0  0.8 1 0  0.9 1 0  1 1 0  </DataArray>
</Points>
<Cells>
<DataArray  type="UInt32"  Name="connectivity"  format="ascii">0 1 12  0 11 12  1 2 13  1 12 13  2 3 14  2 13 14  3 4 15  3 14 15  4 5 16  4 15 16  5 6 17  5 16 17  6 7 18  6 17 18  7 8 19  7 18 19  8 9 20  8 19 20  9 10 21  9 20 21  11 12 23  11 22 23  12 13 24  12 23 24  13 14 25  13 24 25  14 15 26  14 25 26  15 16 27  15 26 27  16 17 28  16 27 28  17 18 29  17 28 29  18 19 30  18 29 30  19 20 31  19 30 31  20 21 32  20 31 32  22 23 34  22 33 34  23 24 35  23 34 35  24 25 36  24 35 36  25 26 37  25 36 37  26 27 38  26 37 38  27 28 39  27 38 39  28 29 40  28 39 40  29 30 41  29 40 41  30 31 42  30 41 42  31 32 43  31 42 43  33 34 45  33 44 45  34 35 46  34 45 46  35 36 47  35 46 47  36 37 48  36 47 48  37 38 49  37 48 49  38 39 50  38 49 50  39 40 51  39 50 51  40 41 52  40 51 52  41 42 53  41 52 53  42 43 54  42 53 54  44 45 56  44 55 56  45 46 57  45 56 57  46 47 58  46 57 58  47 48 59  47 58 59  48 49 60  48 59 60  49 50 61  49 60 61  50 51 62  50 61 62  51 52 63  51 62 63  52 53 64  52 63 64  53 54 65  53 64 65  55 56 67  55 66 67  56 57 68  56 67 68  57 58 69  57 68 69  58 59 70  58 69 70  59 60 71  59 70 71  60 61 72  60 71 72  61 62 73  61 72 73  62 63 74  62 73 74  63 64 75  63 74 75  64 65 76  64 75 76  66 67 78  66 77 78  67 68 79  67 78 79  68 69 80  68 79 80  69 70 81  69 80 81  70 71 82  70 81 82  71 72 83  71 82 83  72 73 84  72 83 84  73 74 85  73 84 85  74 75 86  74 85 86  75 76 87  75 86 87  77 78 89  77 88 89  78 79 90  78 89 90  79 80 91  79 90 91  80 81 92  80 91 92  81 82 93  81 92 93  82 83 94  82 93 94  83 84 95  83 94 95  84 85 96  84 95 96  85 86 97  85 96 97  86 87 98  86 97 98  88 89 100  88 99 100  89 90 101  89 100 101  90 91 102  90 101 102  91 92 103  91 102 103  92 93 104  92 103 104  93 94 105  93 104 105  94 95 106  94 105 106  95 96 107  95 106 107  96 97 108  96 107 108  97 98 109  97 108 109  99 100 111  99 110 111  100 101 112  100 111 112  101 102 113  101 112 113  102 103 114  102 113 114  103 104 115  103 114 115  104 105 116  104 115 116  105 106 117  105 116 117  106 107 118  106 117 118  107 108 119  107 118 119  108 109 120  108 119 120  </DataArray>
<DataArray  type="UInt32"  Name="offsets"  format="ascii">3 6 9 12 15 18 21 24 27 30 33 36 39 42 45 48 51 54 57 60 63 66 69 72 75 78 81 84 87 90 93 96 99 102 105 108 111 114 117 120 123 126 129 132 135 138 141 144 147 150 153 156 159 162 165 168 171 174 177 180 183 186 189 192 195 198 201 204 207 210 213 216 219 222 225 228 231 234 237 240 243 246 249 252 255 258 261 264 267 270 273 276 279 282 285 288 291 294 297 300 303 306 309 312 315 318 321 324 327 330 333 336 339 342 345 348 351 354 357 360 363 366 369 372 375 378 381 384 387 390 393 396 399 402 405 408 411 414 417 420 423 426 429 432 435 438 441 444 447 450 453 456 459 462 465 468 471 474 477 480 483 486 489 492 495 498 501 504 507 510 513 516 519 522 525 528 531 534 537 540 543 546 549 552 555 558 561 564 567 570 573 576 579 582 585 588 591 594 597 600 </DataArray>
<DataArray  type="UInt8"  Name="types"  format="ascii">5 5 5 5 5 5 5 5 5 5 5 5 5 5 5 5 5 5 5 5 5 5 5 5 5 5 5 5 5 5 5 5 5 5 5 5 5 5 5 5 5 5 5 5 5 5 5 5 5 5 5 5 5 5 5 5 5 5 5 5 5 5 5 5 5 5 5 5 5 5 5 5 5 5 5 5 5 5 5 5 5 5 5 5 5 5 5 5 5 5 5 5 5 5 5 5 5 5 5 5 5 5 5 5 5 5 5 5 5 5 5 5 5 5 5 5 5 5 5 5 5 5 5 5 5 5 5 5 5 5 5 5 5 5 5 5 5 5 5 5 5 5 5 5 5 5 5 5 5 5 5 5 5 5 5 5 5 5 5 5 5 5 5 5 5 5 5 5 5 5 5 5 5 5 5 5 5 5 5 5 5 5 5 5 5 5 5 5 5 5 5 5 5 5 5 5 5 5 5 5 </DataArray>
</Cells>
<PointData  Vectors="f_34"> 
<DataArray  type="Float64"  Name="f_34"  NumberOfComponents="3" format="ascii">-1.4921510023273256e-02 1.1907764814718906e+00 0.0000000000000000e+00  -8.3509253467048503e-02 2.0244008946117802e+00 0.0000000000000000e+00  6.5827796150955920e-01 9.3572986559896232e-01 0.0000000000000000e+00  8.1796721959579588e-01 -7.3519446484550569e-02 0.0000000000000000e+00  7.2628492011631152e-01 1.0647022590764006e-03 0.0000000000000000e+00  7.1284903990160198e-01 2.7589554467132345e-03 0.0000000000000000e+00  7.0465844625774676e-01 -1.7488247901611189e-04 0.0000000000000000e+00  7.0033660577892876e-01 2.1507023238780777e-04 0.0000000000000000e+00  6.9828072811434028e-01 8.3630029256442426e-05 0.0000000000000000e+00  6.9731204469453467e-01 5.6263728888864331e-05 0.0000000000000000e+00  6.9699885770947911e-01 2.1993293263303559e-05 0.0000000000000000e+00  -1.8524213954901673e-02 1.2033233070547258e+00 0.0000000000000000e+00  2.6663033539258424e-01 1.4423536820800940e+00 0.0000000000000000e+00  7.4498098288850456e-01 8.1006251517181482e-01 0.0000000000000000e+00  7.7304868357549528e-01 -1.7197410249069819e-01 0.0000000000000000e+00  7.0770149642591462e-01 7.0389516129456570e-02 0.0000000000000000e+00  7.1123707431386352e-01 5.3620446505217786e-03 0.0000000000000000e+00  7.0219730829480886e-01 5.9241336926986682e-03 0.0000000000000000e+00  6.9938414622621836e-01 2.9585557357232430e-03 0.0000000000000000e+00  6.9774526770164114e-01 1.3845750256542479e-03 0.0000000000000000e+00  6.9697473644904051e-01 6.0550457863399487e-04 0.0000000000000000e+00  6.9676704899393882e-01 3.8265131005897178e-05 0.0000000000000000e+00  -1.2365425770506117e-03 9.1218453339639771e-01 0.0000000000000000e+00  3.2383975620618038e-01 1.0681758795139775e+00 0.0000000000000000e+00  6.7939570471985899e-01 5.1896541335761559e-01 0.0000000000000000e+00  6.8530669043789316e-01 -8.9303269194782348e-02 0.0000000000000000e+00  6.9584234504545328e-01 8.4006366748688902e-02 0.0000000000000000e+00  7.0107247046592480e-01 9.3575484739501984e-04 0.0000000000000000e+00  6.9688155840499177e-01 1.1355517126223199e-02 0.0000000000000000e+00  6.9700686281413404e-01 3.8833944331741364e-03 0.0000000000000000e+00  6.9632635515476027e-01 2.1969075565659111e-03 0.0000000000000000e+00  6.9612128977542309e-01 9.0811920769861925e-04 0.0000000000000000e+00  6.9606044323416694e-01 4.6030927229845975e-06 0.0000000000000000e+00  2.0463288441886548e-04 6.1633737107462161e-01 0.0000000000000000e+00  3.2245114243333245e-01 6.9318594066519112e-01 0.0000000000000000e+00  6.4488701077818000e-01 3.3973202043409212e-01 0.0000000000000000e+00  6.6964147860330581e-01 -5.1327505638868211e-02 0.0000000000000000e+00  6.8497500559798730e-01 5.4999232349184385e-02 0.0000000000000000e+00  6.8923175631066369e-01 2.5423896819170969e-03 0.0000000000000000e+00  6.9218153318389974e-01 1.1517808592212291e-02 0.0000000000000000e+00  6.9414913076878459e-01 3.0990540150383603e-03 0.0000000000000000e+00  6.9468901534509497e-01 2.2839410508556958e-03 0.0000000000000000e+00  6.9510518160756363e-01 8.2506634804201996e-04 0.0000000000000000e+00  6.9520364845505245e-01 -1.2605968238461294e-05 0.0000000000000000e+00  2.3021432136736825e-04 3.1594418487820325e-01 0.0000000000000000e+00  3.1724825920352318e-01 3.3366385943424925e-01 0.0000000000000000e+00  6.3045584799505217e-01 1.6797727199060955e-01 0.0000000000000000e+00  6.5586167072973489e-01 -3.5068475654404775e-02 0.0000000000000000e+00  6.7245706036549269e-01 3.2974294749227605e-02 0.0000000000000000e+00  6.8262323903439270e-01 1.4852633974847197e-03 0.0000000000000000e+00  6.8881138107526907e-01 6.7564036743706654e-03 0.0000000000000000e+00  6.9184234026602520e-01 1.5376125200433277e-03 0.0000000000000000e+00  6.9346466911217686e-01 1.4822408641177393e-03 0.0000000000000000e+00  6.9429280119667725e-01 4.1895129254679384e-04 0.0000000000000000e+00  6.9451546902371653e-01 -1.0583515035166166e-05 0.0000000000000000e+00  1.5528227813514341e-04 1.9898805458239795e-02 0.0000000000000000e+00  3.1480224475982721e-01 -2.0238481921507848e-02 0.0000000000000000e+00  6.2548921403102098e-01 -6.7296769964446466e-04 0.0000000000000000e+00  6.5169289773661121e-01 -1.9096780239704264e-02 0.0000000000000000e+00  6.6972414025343763e-01 9.4438909906420787e-03 0.0000000000000000e+00  6.8095665383501480e-01 -4.4007050600923083e-03 0.0000000000000000e+00  6.8744438726536372e-01 1.1045038839890924e-03 0.0000000000000000e+00  6.9106342955466693e-01 -6.1268552309038163e-04 0.0000000000000000e+00  6.9305367301827525e-01 9.4368310088546273e-05 0.0000000000000000e+00  6.9398778874229217e-01 -1.2104381182805365e-04 0.0000000000000000e+00  6.9426063986278241e-01 -7.7874734822827308e-06 0.0000000000000000e+00  -7.7318994260371608e-04 -2.7681831910935306e-01 0.0000000000000000e+00  3.1613260262787141e-01 -3.7434657683103623e-01 0.0000000000000000e+00  6.2991197916396291e-01 -1.6904006967573593e-01 0.0000000000000000e+00  6.5622084690584792e-01 -4.1173794882593973e-03 0.0000000000000000e+00  6.7319433498941794e-01 -1.4441829712121540e-02 0.0000000000000000e+00  6.8328781671552252e-01 -9.8970883980646421e-03 0.0000000000000000e+00  6.8891439827500156e-01 -4.1293695358274795e-03 0.0000000000000000e+00  6.9198443408512278e-01 -2.9040794958034703e-03 0.0000000000000000e+00  6.9356947612082331e-01 -1.2576704663342490e-03 0.0000000000000000e+00  6.9431155980832027e-01 -6.2008587685688488e-04 0.0000000000000000e+00  6.9452720877183771e-01 -8.8233021655977156e-06 0.0000000000000000e+00  1.3846088021875079e-03 -5.7047009479961697e-01 0.0000000000000000e+00  3.2180267076063623e-01 -7.3364330836757752e-01 0.0000000000000000e+00  6.4389195615787953e-01 -3.4244273035214812e-01 0.0000000000000000e+00  6.6982306124244917e-01 1.2747367017898021e-02 0.0000000000000000e+00  6.8392106740324377e-01 -3.5479790055166355e-02 0.0000000000000000e+00  6.9002324793345582e-01 -1.3445012573695299e-02 0.0000000000000000e+00  6.9294413400048405e-01 -7.8866001070399139e-03 0.0000000000000000e+00  6.9424143931548721e-01 -4.3427871779366523e-03 0.0000000000000000e+00  6.9487026339837665e-01 -2.0794314908861638e-03 0.0000000000000000e+00  6.9514610398297483e-01 -9.1773134212899394e-04 0.0000000000000000e+00  6.9521444530690701e-01 3.3319153924815240e-06 0.0000000000000000e+00  8.3831123023739903e-03 -8.5474603488508538e-01 0.0000000000000000e+00  3.1255516453650178e-01 -1.1211718864126241e+00 0.0000000000000000e+00  6.6750876810627180e-01 -5.1857823794072222e-01 0.0000000000000000e+00  6.9956816921799503e-01 3.7930434638304901e-02 0.0000000000000000e+00  7.0050304510189398e-01 -5.3501948486065001e-02 0.0000000000000000e+00  7.0021517016601176e-01 -1.0976574833465411e-02 0.0000000000000000e+00  6.9819736023698931e-01 -9.2131727608976005e-03 0.0000000000000000e+00  6.9713940788319129e-01 -4.1006778687776007e-03 0.0000000000000000e+00  6.9649865127609567e-01 -2.1300210662641983e-03 0.0000000000000000e+00  6.9617757047124951e-01 -8.7611005037498927e-04 0.0000000000000000e+00  6.9606855189754491e-01 2.3914972157235702e-05 0.0000000000000000e+00  4.5923362992157622e-02 -1.1573366731048005e+00 0.0000000000000000e+00  2.4671268244930358e-01 -1.4877770219483140e+00 0.0000000000000000e+00  7.5808777243379544e-01 -7.2148458370659185e-01 0.0000000000000000e+00  7.3079626885472393e-01 4.0768379515469126e-02 0.0000000000000000e+00  7.2628045638059913e-01 -3.8847714828663941e-02 0.0000000000000000e+00  7.0865793791629450e-01 -7.4851454267375970e-03 0.0000000000000000e+00  7.0297466948724729e-01 -5.7004086586070531e-03 0.0000000000000000e+00  6.9953424156119715e-01 -2.4894467097685878e-03 0.0000000000000000e+00  6.9781672348917312e-01 -1.2880241693213519e-03 0.0000000000000000e+00  6.9700767362229865e-01 -5.0956042498465071e-04 0.0000000000000000e+00  6.9676250693812936e-01 4.0749131786273950e-05 0.0000000000000000e+00  2.1522179756904014e-02 -1.3765180856168846e+00 0.0000000000000000e+00  -1.8396819208806363e-02 -1.5720246765593324e+00 0.0000000000000000e+00  5.1861730523699412e-01 -1.5750423981302193e+00 0.0000000000000000e+00  8.7489940016341639e-01 4.1716685849245910e-01 0.0000000000000000e+00  7.2106184152955566e-01 -9.5857496762293840e-02 0.0000000000000000e+00  7.1432522258125386e-01 2.2528072125066776e-02 0.0000000000000000e+00  7.0486862618284474e-01 -4.1587012817983979e-03 0.0000000000000000e+00  7.0042240430453639e-01 1.1293806723417404e-03 0.0000000000000000e+00  6.9833220935021478e-01 -9.3911165198565401e-05 0.0000000000000000e+00  6.9732326276866829e-01 9.7674918594460697e-05 0.0000000000000000e+00  6.9704546357815811e-01 4.9320490757386926e-05 0.0000000000000000e+00  </DataArray> 
</PointData> 
</Piece>
</UnstructuredGrid>
</VTKFile>