<?xml version="1.0"?>
<VTKFile type="UnstructuredGrid"  version="0.1"  >
<UnstructuredGrid>
<Piece  NumberOfPoints="121" NumberOfCells="200">
<Points>
<DataArray  type="Float64"  NumberOfComponents="3"  format="ascii">0 0 0  0.1 0 0  0.2 0 0  0.3 0 0  0.4 0 0  0.5 0 0  0.6 0 0  0.7 0 0  0.8 0 0  0.9 0 0  1 0 0  0 0.1 0  0.1 0.1 0  0.2 0.1 0  0.3 0.1 0  0.4 0.1 0  0.5 0.1 0  0.6 0.1 0  0.7 0.1 0  0.8 0.1 0  0.9 0.1 0  1 0.1 0  0 0.2 0  0.1 0.2 0  0.2 0.2 0  0.3 0.2 0  0.4 0.2 0  0.5 0.2 0  0.6 0.2 0  0.7 0.2 0  0.8 0.2 0  0.9 0.2 0  1 0.2 0  0 0.3 0  0.1 0.3 0  0.2 0.3 0  0.3 0.3 0  0.4 0.3 0  0.5 0.3 0  0.6 0.3 0  0.7 0.3 0  0.8 0.3 0  0.9 0.3 0  1 0.3 0  0 0.4 0  0.1 0.4 0  0.2 0.4 0  0.3 0.4 0  0.4 0.4 0  0.5 0.4 0  0.6 0.4 0  0.7 0.4 0  0.8 0.4 0  0.9 0.4 0  1 0.4 0  0 0.5 0  0.1 0.5 0  0.2 0.5 0  0.3 0.5 0  0.4 0.5 0  0.5 0.5 0  0.6 0.5 0  0.7 0.5 0  0.8 0.5 0  0.9 0.5 0  1 0.5 0  0 0.6 0  0.1 0.6 0  0.2 0.6 0  0.3 0.6 0  0.4 0.6 0  0.5 0.6 0  0.6 0.6 0  0.7 0.6 0  0.8 0.6 0  0.9 0.6 0  1 0.6 0  0 0.7 0  0.1 0.7 0  0.2 0.7 0  0.3 0.7 0  0.4 0.7 0  0.5 0.7 0  0.6 0.7 0  0.7 0.7 0  0.8 0.7 0  0.9 0.7 0  1 0.7 0  0 0.8 0  0.1 0.8 0  0.2 0.8 0  0.3 0.8 0  0.4 0.8 0  0.5 0.8 0  0.6 0.8 0  0.7 0.8 0  0.8 0.8 0  0.9 0.8 0  1 0.8 0  0 0.9 0  0.1 0.9 0  0.2 0.9 0  0.3 0.9 0  0.4 0.9 0  0.5 0.9 0  0.6 0.9 0  0.7 0.9 0  0.8 0.9 0  0.9 0.9 0  1 0.9 0  0 1 0  0.1 1 0  0.2 1 0  0.3 1 0  0.4 1 0  0.5 1 0  0.6 1 0  0.7 1 0  0.8 1 0  0.9 1 0  1 1 0  </DataArray>
</Points>
<Cells>
<DataArray  type="UInt32"  Name="connectivity"  format="ascii">0 1 12  0 11 12  1 2 13  1 12 13  2 3 14  2 13 14  3 4 15  3 14 15  4 5 16  4 15 16  5 6 17  5 16 17  6 7 18  6 17 18  7 8 19  7 18 19  8 9 20  8 19 20  9 10 21  9 20 21  11 12 23  11 22 23  12 13 24  12 23 24  13 14 25  13 24 25  14 15 26  14 25 26  15 16 27  15 26 27  16 17 28  16 27 28  17 18 29  17 28 29  18 19 30  18 29 30  19 20 31  19 30 31  20 21 32  20 31 32  22 23 34  22 33 34  23 24 35  23 34 35  24 25 36  24 35 36  25 26 37  25 36 37  26 27 38  26 37 38  27 28 39  27 38 39  28 29 40  28 39 40  29 30 41  29 40 41  30 31 42  30 41 42  31 32 43  31 42 43  33 34 45  33 44 45  34 35 46  34 45 46  35 36 47  35 46 47  36 37 48  36 47 48  37 38 49  37 48 49  38 39 50  38 49 50  39 40 51  39 50 51  40 41 52  40 51 52  41 42 53  41 52 53  42 43 54  42 53 54  44 45 56  44 55 56  45 46 57  45 56 57  46 47 58  46 57 58  47 48 59  47 58 59  48 49 60  48 59 60  49 50 61  49 60 61  50 51 62  50 61 62  51 52 63  51 62 63  52 53 64  52 63 64  53 54 65  53 64 65  55 56 67  55 66 67  56 57 68  56 67 68  57 58 69  57 68 69  58 59 70  58 69 70  59 60 71  59 70 71  60 61 72  60 71 72  61 62 73  61 72 73  62 63 74  62 73 74  63 64 75  63 74 75  64 65 76  64 75 76  66 67 78  66 77 78  67 68 79  67 78 79  68 69 80  68 79 80  69 70 81  69 80 81  70 71 82  70 81 82  71 72 83  71 82 83  72 73 84  72 83 84  73 74 85  73 84 85  74 75 86  74 85 86  75 76 87  75 86 87  77 78 89  77 88 89  78 79 90  78 89 90  79 80 91  79 90 91  80 81 92  80 91 92  81 82 93  81 92 93  82 83 94  82 93 94  83 84 95  83 94 95  84 85 96  84 95 96  85 86 97  85 96 97  86 87 98  86 97 98  88 89 100  88 99 100  89 90 101  89 100 101  90 91 102  90 101 102  91 92 103  91 102 103  92 93 104  92 103 104  93 94 105  93 104 105  94 95 106  94 105 106  95 96 107  95 106 107  96 97 108  96 107 108  97 98 109  97 108 109  99 100 111  99 110 111  100 101 112  100 111 112  101 102 113  101 112 113  102 103 114  102 113 114  103 104 115  103 114 115  104 105 116  104 115 116  105 106 117  105 116 117  106 107 118  106 117 118  107 108 119  107 118 119  108 109 120  108 119 120  </DataArray>
<DataArray  type="UInt32"  Name="offsets"  format="ascii">3 6 9 12 15 18 21 24 27 30 33 36 39 42 45 48 51 54 57 60 63 66 69 72 75 78 81 84 87 90 93 96 99 102 105 108 111 114 117 120 123 126 129 132 135 138 141 144 147 150 153 156 159 162 165 168 171 174 177 180 183 186 189 192 195 198 201 204 207 210 213 216 219 222 225 228 231 234 237 240 243 246 249 252 255 258 261 264 267 270 273 276 279 282 285 288 291 294 297 300 303 306 309 312 315 318 321 324 327 330 333 336 339 342 345 348 351 354 357 360 363 366 369 372 375 378 381 384 387 390 393 396 399 402 405 408 411 414 417 420 423 426 429 432 435 438 441 444 447 450 453 456 459 462 465 468 471 474 477 480 483 486 489 492 495 498 501 504 507 510 513 516 519 522 525 528 531 534 537 540 543 546 549 552 555 558 561 564 567 570 573 576 579 582 585 588 591 594 597 600 </DataArray>
<DataArray  type="UInt8"  Name="types"  format="ascii">5 5 5 5 5 5 5 5 5 5 5 5 5 5 5 5 5 5 5 5 5 5 5 5 5 5 5 5 5 5 5 5 5 5 5 5 5 5 5 5 5 5 5 5 5 5 5 5 5 5 5 5 5 5 5 5 5 5 5 5 5 5 5 5 5 5 5 5 5 5 5 5 5 5 5 5 5 5 5 5 5 5 5 5 5 5 5 5 5 5 5 5 5 5 5 5 5 5 5 5 5 5 5 5 5 5 5 5 5 5 5 5 5 5 5 5 5 5 5 5 5 5 5 5 5 5 5 5 5 5 5 5 5 5 5 5 5 5 5 5 5 5 5 5 5 5 5 5 5 5 5 5 5 5 5 5 5 5 5 5 5 5 5 5 5 5 5 5 5 5 5 5 5 5 5 5 5 5 5 5 5 5 5 5 5 5 5 5 5 5 5 5 5 5 5 5 5 5 5 5 </DataArray>
</Cells>
<PointData  Vectors="f_34"> 
<DataArray  type="Float64"  Name="f_34"  NumberOfComponents="3" format="ascii">-2.0537696622172478e-02 1.6389632204209417e+00 0.0000000000000000e+00  -1.1494062666414293e-01 2.7863487911306049e+00 0.0000000000000000e+00  9.0604188486679282e-01 1.2879216694559266e+00 0.0000000000000000e+00  1.1258352925902462e+00 -1.0119083694443019e-01 0.0000000000000000e+00  9.9964543315940357e-01 1.4654369400750910e-03 0.0000000000000000e+00  9.8115253054624885e-01 3.7973763962431319e-03 0.0000000000000000e+00  9.6987914553691590e-01 -2.4070508232334247e-04 0.0000000000000000e+00  9.6393064243870619e-01 2.9601877948958068e-04 0.0000000000000000e+00  9.6110096959046376e-01 1.1510686027782840e-04 0.0000000000000000e+00  9.5976769124479011e-01 7.7440379221873769e-05 0.0000000000000000e+00  9.5933662634082240e-01 3.0271171215051182e-05 0.0000000000000000e+00  -2.5496393178478169e-02 1.6562324443124703e+00 0.0000000000000000e+00  3.6698517308368667e-01 1.9852295309409824e+00 0.0000000000000000e+00  1.0253783559430545e+00 1.1149554003344058e+00 0.0000000000000000e+00  1.0640102317178424e+00 -2.3670204545756271e-01 0.0000000000000000e+00  9.7406754477147328e-01 9.6882857391342933e-02 0.0000000000000000e+00  9.7893385025486512e-01 7.3802213137417949e-03 0.0000000000000000e+00  9.6649167974094152e-01 8.1538705090894031e-03 0.0000000000000000e+00  9.6261969433037797e-01 4.0721026253584666e-03 0.0000000000000000e+00  9.6036397155929942e-01 1.9057040328497663e-03 0.0000000000000000e+00  9.5930342627406351e-01 8.3340555479493390e-04 0.0000000000000000e+00  9.5901756901574298e-01 5.2667434505736203e-05 0.0000000000000000e+00  -1.7019548469449028e-03 1.2555142999008133e+00 0.0000000000000000e+00  4.4572718557218477e-01 1.4702179684471079e+00 0.0000000000000000e+00  9.3510796482261771e-01 7.1429461229559787e-01 0.0000000000000000e+00  9.4324373869708378e-01 -1.2291540515872483e-01 0.0000000000000000e+00  9.5774482321926679e-01 1.1562484439741749e-01 0.0000000000000000e+00  9.6494347328980390e-01 1.2879560539463450e-03 0.0000000000000000e+00  9.5917517769884597e-01 1.5629528470141214e-02 0.0000000000000000e+00  9.5934764442215059e-01 5.3450338878781919e-03 0.0000000000000000e+00  9.5841100598303730e-01 3.0237838418050167e-03 0.0000000000000000e+00  9.5812875770241024e-01 1.2499188591075263e-03 0.0000000000000000e+00  9.5804500962309791e-01 6.3356136000205111e-06 0.0000000000000000e+00  2.8165300244956950e-04 8.4831561445823445e-01 0.0000000000000000e+00  4.4381592268071657e-01 9.5408859625681319e-01 0.0000000000000000e+00  8.8761082238219391e-01 4.6760101073084015e-01 0.0000000000000000e+00  9.2168242434759839e-01 -7.0646250784251741e-02 0.0000000000000000e+00  9.4278721368014429e-01 7.5699949045244713e-02 0.0000000000000000e+00  9.4864612840102847e-01 3.4992991929841265e-03 0.0000000000000000e+00  9.5270614795877628e-01 1.5852903509774939e-02 0.0000000000000000e+00  9.5541431370137520e-01 4.2654819168638676e-03 0.0000000000000000e+00  9.5615740107134917e-01 3.1435751698203878e-03 0.0000000000000000e+00  9.5673020479092230e-01 1.1356064046414139e-03 0.0000000000000000e+00  9.5686573277957609e-01 -1.7350626777509917e-05 0.0000000000000000e+00  3.1686282976621055e-04 4.3485986394455745e-01 0.0000000000000000e+00  4.3665476826888289e-01 4.5924890364014465e-01 0.0000000000000000e+00  8.6774803083610974e-01 2.3120088021805107e-01 0.0000000000000000e+00  9.0271614592284100e-01 -4.8267615869228862e-02 0.0000000000000000e+00  9.2555774018067816e-01 4.5385223133147919e-02 0.0000000000000000e+00  9.3955028470084279e-01 2.0442896874372607e-03 0.0000000000000000e+00  9.4806753152721490e-01 9.2993918648114800e-03 0.0000000000000000e+00  9.5223928895906451e-01 2.1163420732768770e-03 0.0000000000000000e+00  9.5447223305196127e-01 2.0401295271620799e-03 0.0000000000000000e+00  9.5561205908083524e-01 5.7663698461769960e-04 0.0000000000000000e+00  9.5591853505223356e-01 -1.4566958750597345e-05 0.0000000000000000e+00  2.1372772019892449e-04 2.7388356071706046e-02 0.0000000000000000e+00  4.3328811821136498e-01 -2.7855880614555822e-02 0.0000000000000000e+00  8.6091204564241830e-01 -9.2626057485180270e-04 0.0000000000000000e+00  8.9697832214455386e-01 -2.6284463061152407e-02 0.0000000000000000e+00  9.2179619834835758e-01 1.2998400818426877e-02 0.0000000000000000e+00  9.3725642696349287e-01 -6.0570508820389675e-03 0.0000000000000000e+00  9.4618602596186530e-01 1.5202191770166973e-03 0.0000000000000000e+00  9.5116721033828622e-01 -8.4328927691292260e-04 0.0000000000000000e+00  9.5390654545893794e-01 1.2988683586775892e-04 0.0000000000000000e+00  9.5519224545309389e-01 -1.6660251418465166e-04 0.0000000000000000e+00  9.5556779280232362e-01 -1.0718537709257641e-05 0.0000000000000000e+00  -1.0642046580909119e-03 -3.8100772967750868e-01 0.0000000000000000e+00  4.3511919872870147e-01 -5.1524386034074932e-01 0.0000000000000000e+00  8.6699945960989044e-01 -2.3266369573697643e-01 0.0000000000000000e+00  9.0321050951790793e-01 -5.6670866873619087e-03 0.0000000000000000e+00  9.2657251164347565e-01 -1.9877473314295461e-02 0.0000000000000000e+00  9.4046499740589695e-01 -1.3622173536408315e-02 0.0000000000000000e+00  9.4820932253842627e-01 -5.6835895720589386e-03 0.0000000000000000e+00  9.5243486432268032e-01 -3.9971225136389062e-03 0.0000000000000000e+00  9.5461648752379757e-01 -1.7310348917654430e-03 0.0000000000000000e+00  9.5563787809475131e-01 -8.5347499004331221e-04 0.0000000000000000e+00  9.5593469342930626e-01 -1.2144233576095966e-05 0.0000000000000000e+00  1.9057505222552376e-03 -7.8518472465202849e-01 0.0000000000000000e+00  4.4292337799448073e-01 -1.0097733857122551e+00 0.0000000000000000e+00  8.8624124719293118e-01 -4.7133198285369982e-01 0.0000000000000000e+00  9.2193235140918695e-01 1.7545245497053285e-02 0.0000000000000000e+00  9.4133659220360633e-01 -4.8833741574067120e-02 0.0000000000000000e+00  9.4973552316084309e-01 -1.8505472226949777e-02 0.0000000000000000e+00  9.5375577793525967e-01 -1.0854973801320994e-02 0.0000000000000000e+00  9.5554136551616364e-01 -5.9773337561702554e-03 0.0000000000000000e+00  9.5640686761500748e-01 -2.8620919089139031e-03 0.0000000000000000e+00  9.5678652960858102e-01 -1.2631488271579907e-03 0.0000000000000000e+00  9.5688059337126197e-01 4.5859881066496671e-06 0.0000000000000000e+00  1.1538364210272975e-02 -1.1764569890107963e+00 0.0000000000000000e+00  4.3019527761813126e-01 -1.5431607141996051e+00 0.0000000000000000e+00  9.1874700017788102e-01 -7.1376171105173625e-01 0.0000000000000000e+00  9.6287298024921109e-01 5.2206764471799720e-02 0.0000000000000000e+00  9.6415972651369375e-01 -7.3639114606232972e-02 0.0000000000000000e+00  9.6376350065658789e-01 -1.5107959149488568e-02 0.0000000000000000e+00  9.6098622355133423e-01 -1.2680844418281384e-02 0.0000000000000000e+00  9.5953007705884619e-01 -5.6440988802609823e-03 0.0000000000000000e+00  9.5864815124941238e-01 -2.9317224858261262e-03 0.0000000000000000e+00  9.5820622143461565e-01 -1.2058620336797858e-03 0.0000000000000000e+00  9.5805617024076617e-01 3.2916135311025305e-05 0.0000000000000000e+00  6.3208086549669917e-02 -1.5929372727604363e+00 0.0000000000000000e+00  3.3957087567432404e-01 -2.0477493947030458e+00 0.0000000000000000e+00  1.0434183041086211e+00 -9.9303833691287968e-01 0.0000000000000000e+00  1.0058547719998960e+00 5.6112860492024588e-02 0.0000000000000000e+00  9.9963928935426938e-01 -5.3469292341816743e-02 0.0000000000000000e+00  9.7538397354682072e-01 -1.0302418837463374e-02 0.0000000000000000e+00  9.6756162563189374e-01 -7.8459394170065123e-03 0.0000000000000000e+00  9.6282628283579053e-01 -3.4264294433058312e-03 0.0000000000000000e+00  9.6046232201336990e-01 -1.7728131797837986e-03 0.0000000000000000e+00  9.5934876040384420e-01 -7.0134975633500318e-04 0.0000000000000000e+00  9.5901131741224477e-01 5.6086368265991173e-05 0.0000000000000000e+00  2.9622739106546829e-02 -1.8946146062455409e+00 0.0000000000000000e+00  -2.5321049353188955e-02 -2.1637063433518038e+00 0.0000000000000000e+00  7.1381548257200744e-01 -2.1678598807629923e+00 0.0000000000000000e+00  1.2041957166165560e+00 5.7418092184904157e-01 0.0000000000000000e+00  9.9245648222338756e-01 -1.3193652548530374e-01 0.0000000000000000e+00  9.8318432169783587e-01 3.1007231176027248e-02 0.0000000000000000e+00  9.7016843338587078e-01 -5.7239612569102965e-03 0.0000000000000000e+00  9.6404873397816160e-01 1.5544591387375310e-03 0.0000000000000000e+00  9.6117182743276597e-01 -1.2925762990704024e-04 0.0000000000000000e+00  9.5978313159920614e-01 1.3443799203560696e-04 0.0000000000000000e+00  9.5940077381586009e-01 6.7883831786952562e-05 0.0000000000000000e+00  </DataArray> 
</PointData> 
</Piece>
</UnstructuredGrid>
</VTKFile>