<?xml version="1.0"?>
<VTKFile type="UnstructuredGrid"  version="0.1"  >
<UnstructuredGrid>
<Piece  NumberOfPoints="121" NumberOfCells="200">
<Points>
<DataArray  type="Float64"  NumberOfComponents="3"  format="ascii">0 0 0  0.1 0 0  0.2 0 0  0.3 0 0  0.4 0 0  0.5 0 0  0.6 0 0  0.7 0 0  0.8 0 0  0.9 0 0  1 0 0  0 0.1 0  0.1 0.1 0  0.2 0.1 0  0.3 0.1 0  0.4 0.1 0  0.5 0.1 0  0.6 0.1 0  0.7 0.1 0  0.8 0.1 0  0.9 0.1 0  1 0.1 0  0 0.2 0  0.1 0.2 0  0.2 0.2 0  0.3 0.2 0  0.4 0.2 0  0.5 0.2 0  0.6 0.2 0  0.7 0.2 0  0.8 0.2 0  0.9 0.2 0  1 0.2 0  0 0.3 0  0.1 0.3 0  0.2 0.3 0  0.3 0.3 0  0.4 0.3 0  0.5 0.3 0  0.6 0.3 0  0.7 0.3 0  0.8 0.3 0  0.9 0.3 0  1 0.3 0  0 0.4 0  0.1 0.4 0  0.2 0.4 0  0.3 0.4 0  0.4 0.4 0  0.5 0.4 0  0.6 0.4 0  0.7 0.4 0  0.8 0.4 0  0.9 0.4 0  1 0.4 0  0 0.5 0  0.1 0.5 0  0.2 0.5 0  0.3 0.5 0  0.4 0.5 0  0.5 0.5 0  0.6 0.5 0  0.7 0.5 0  0.8 0.5 0  0.9 0.5 0  1 0.5 0  0 0.6 0  0.1 0.6 0  0.2 0.6 0  0.3 0.6 0  0.4 0.6 0  0.5 0.6 0  0.6 0.6 0  0.7 0.6 0  0.8 0.6 0  0.9 0.6 0  1 0.6 0  0 0.7 0  0.1 0.7 0  0.2 0.7 0  0.3 0.7 0  0.4 0.7 0  0.5 0.7 0  0.6 0.7 0  0.7 0.7 0  0.8 0.7 0  0.9 0.7 0  1 0.7 0  0 0.8 0  0.1 0.8 0  0.2 0.8 0  0.3 0.8 0  0.4 0.8 0  0.5 0.8 0  0.6 0.8 0  0.7 0.8 0  0.8 0.8 0  0.9 0.8 0  1 0.8 0  0 0.9 0  0.1 0.9 0  0.2 0.9 0  0.3 0.9 0  0.4 0.9 0  0.5 0.9 0  0.6 0.9 0  0.7 0.9 0  0.8 0.9 0  0.9 0.9 0  1 0.9 0  0 1 0  0.1 1 0  0.2 1 0  0.3 1 0  0.4 1 0  0.5 1 0  0.6 1 0  0.7 1 0  0.8 1 0  0.9 1 0  1 1 0  </DataArray>
</Points>
<Cells>
<DataArray  type="UInt32"  Name="connectivity"  format="ascii">0 1 12  0 11 12  1 2 13  1 12 13  2 3 14  2 13 14  3 4 15  3 14 15  4 5 16  4 15 16  5 6 17  5 16 17  6 7 18  6 17 18  7 8 19  7 18 19  8 9 20  8 19 20  9 10 21  9 20 21  11 12 23  11 22 23  12 13 24  12 23 24  13 14 25  13 24 25  14 15 26  14 25 26  15 16 27  15 26 27  16 17 28  16 27 28  17 18 29  17 28 29  18 19 30  18 29 30  19 20 31  19 30 31  20 21 32  20 31 32  22 23 34  22 33 34  23 24 35  23 34 35  24 25 36  24 35 36  25 26 37  25 36 37  26 27 38  26 37 38  27 28 39  27 38 39  28 29 40  28 39 40  29 30 41  29 40 41  30 31 42  30 41 42  31 32 43  31 42 43  33 34 45  33 44 45  34 35 46  34 45 46  35 36 47  35 46 47  36 37 48  36 47 48  37 38 49  37 48 49  38 39 50  38 49 50  39 40 51  39 50 51  40 41 52  40 51 52  41 42 53  41 52 53  42 43 54  42 53 54  44 45 56  44 55 56  45 46 57  45 56 57  46 47 58  46 57 58  47 48 59  47 58 59  48 49 60  48 59 60  49 50 61  49 60 61  50 51 62  50 61 62  51 52 63  51 62 63  52 53 64  52 63 64  53 54 65  53 64 65  55 56 67  55 66 67  56 57 68  56 67 68  57 58 69  57 68 69  58 59 70  58 69 70  59 60 71  59 70 71  60 61 72  60 71 72  61 62 73  61 72 73  62 63 74  62 73 74  63 64 75  63 74 75  64 65 76  64 75 76  66 67 78  66 77 78  67 68 79  67 78 79  68 69 80  68 79 80  69 70 81  69 80 81  70 71 82  70 81 82  71 72 83  71 82 83  72 73 84  72 83 84  73 74 85  73 84 85  74 75 86  74 85 86  75 76 87  75 86 87  77 78 89  77 88 89  78 79 90  78 89 90  79 80 91  79 90 91  80 81 92  80 91 92  81 82 93  81 92 93  82 83 94  82 93 94  83 84 95  83 94 95  84 85 96  84 95 96  85 86 97  85 96 97  86 87 98  86 97 98  88 89 100  88 99 100  89 90 101  89 100 101  90 91 102  90 101 102  91 92 103  91 102 103  92 93 104  92 103 104  93 94 105  93 104 105  94 95 106  94 105 106  95 96 107  95 106 107  96 97 108  96 107 108  97 98 109  97 108 109  99 100 111  99 110 111  100 101 112  100 111 112  101 102 113  101 112 113  102 103 114  102 113 114  103 104 115  103 114 115  104 105 116  104 115 116  105 106 117  105 116 117  106 107 118  106 117 118  107 108 119  107 118 119  108 109 120  108 119 120  </DataArray>
<DataArray  type="UInt32"  Name="offsets"  format="ascii">3 6 9 12 15 18 21 24 27 30 33 36 39 42 45 48 51 54 57 60 63 66 69 72 75 78 81 84 87 90 93 96 99 102 105 108 111 114 117 120 123 126 129 132 135 138 141 144 147 150 153 156 159 162 165 168 171 174 177 180 183 186 189 192 195 198 201 204 207 210 213 216 219 222 225 228 231 234 237 240 243 246 249 252 255 258 261 264 267 270 273 276 279 282 285 288 291 294 297 300 303 306 309 312 315 318 321 324 327 330 333 336 339 342 345 348 351 354 357 360 363 366 369 372 375 378 381 384 387 390 393 396 399 402 405 408 411 414 417 420 423 426 429 432 435 438 441 444 447 450 453 456 459 462 465 468 471 474 477 480 483 486 489 492 495 498 501 504 507 510 513 516 519 522 525 528 531 534 537 540 543 546 549 552 555 558 561 564 567 570 573 576 579 582 585 588 591 594 597 600 </DataArray>
<DataArray  type="UInt8"  Name="types"  format="ascii">5 5 5 5 5 5 5 5 5 5 5 5 5 5 5 5 5 5 5 5 5 5 5 5 5 5 5 5 5 5 5 5 5 5 5 5 5 5 5 5 5 5 5 5 5 5 5 5 5 5 5 5 5 5 5 5 5 5 5 5 5 5 5 5 5 5 5 5 5 5 5 5 5 5 5 5 5 5 5 5 5 5 5 5 5 5 5 5 5 5 5 5 5 5 5 5 5 5 5 5 5 5 5 5 5 5 5 5 5 5 5 5 5 5 5 5 5 5 5 5 5 5 5 5 5 5 5 5 5 5 5 5 5 5 5 5 5 5 5 5 5 5 5 5 5 5 5 5 5 5 5 5 5 5 5 5 5 5 5 5 5 5 5 5 5 5 5 5 5 5 5 5 5 5 5 5 5 5 5 5 5 5 5 5 5 5 5 5 5 5 5 5 5 5 5 5 5 5 5 5 </DataArray>
</Cells>
<PointData  Vectors="f_34"> 
<DataArray  type="Float64"  Name="f_34"  NumberOfComponents="3" format="ascii">-1.4921510023279256e-02 1.1907764814724486e+00 0.0000000000000000e+00  -8.3509253467087249e-02 2.0244008946127274e+00 0.0000000000000000e+00  6.5827796150986717e-01 9.3572986559940163e-01 0.0000000000000000e+00  8.1796721959617957e-01 -7.3519446484585957e-02 0.0000000000000000e+00  7.2628492011665224e-01 1.0647022590764578e-03 0.0000000000000000e+00  7.1284903990193593e-01 2.7589554467145308e-03 0.0000000000000000e+00  7.0465844625807428e-01 -1.7488247901585894e-04 0.0000000000000000e+00  7.0033660577925716e-01 2.1507023238832352e-04 0.0000000000000000e+00  6.9828072811466624e-01 8.3630029255389300e-05 0.0000000000000000e+00  6.9731204469486563e-01 5.6263728886740122e-05 0.0000000000000000e+00  6.9699885770980285e-01 2.1993293265342652e-05 0.0000000000000000e+00  -1.8524213954909101e-02 1.2033233070552902e+00 0.0000000000000000e+00  2.6663033539270670e-01 1.4423536820807716e+00 0.0000000000000000e+00  7.4498098288885450e-01 8.1006251517219352e-01 0.0000000000000000e+00  7.7304868357585721e-01 -1.7197410249077819e-01 0.0000000000000000e+00  7.0770149642624702e-01 7.0389516129489738e-02 0.0000000000000000e+00  7.1123707431419680e-01 5.3620446505256748e-03 0.0000000000000000e+00  7.0219730829513649e-01 5.9241336927020154e-03 0.0000000000000000e+00  6.9938414622654654e-01 2.9585557357251521e-03 0.0000000000000000e+00  6.9774526770196788e-01 1.3845750256568541e-03 0.0000000000000000e+00  6.9697473644936681e-01 6.0550457863276137e-04 0.0000000000000000e+00  6.9676704899426634e-01 3.8265131005423469e-05 0.0000000000000000e+00  -1.2365425770511078e-03 9.1218453339682404e-01 0.0000000000000000e+00  3.2383975620633243e-01 1.0681758795144769e+00 0.0000000000000000e+00  6.7939570472017685e-01 5.1896541335785840e-01 0.0000000000000000e+00  6.8530669043821424e-01 -8.9303269194824064e-02 0.0000000000000000e+00  6.9584234504577902e-01 8.4006366748727412e-02 0.0000000000000000e+00  7.0107247046625465e-01 9.3575484739298999e-04 0.0000000000000000e+00  6.9688155840531563e-01 1.1355517126228738e-02 0.0000000000000000e+00  6.9700686281446134e-01 3.8833944331747275e-03 0.0000000000000000e+00  6.9632635515508634e-01 2.1969075565660494e-03 0.0000000000000000e+00  6.9612128977574772e-01 9.0811920769769692e-04 0.0000000000000000e+00  6.9606044323449723e-01 4.6030927219906256e-06 0.0000000000000000e+00  2.0463288442010961e-04 6.1633737107491038e-01 0.0000000000000000e+00  3.2245114243348294e-01 6.9318594066551653e-01 0.0000000000000000e+00  6.4488701077848176e-01 3.3973202043425027e-01 0.0000000000000000e+00  6.6964147860361944e-01 -5.1327505638892164e-02 0.0000000000000000e+00  6.8497500559830804e-01 5.4999232349209837e-02 0.0000000000000000e+00  6.8923175631098565e-01 2.5423896819189149e-03 0.0000000000000000e+00  6.9218153318422415e-01 1.1517808592217299e-02 0.0000000000000000e+00  6.9414913076911244e-01 3.0990540150401978e-03 0.0000000000000000e+00  6.9468901534541816e-01 2.2839410508580828e-03 0.0000000000000000e+00  6.9510518160788770e-01 8.2506634804498406e-04 0.0000000000000000e+00  6.9520364845538174e-01 -1.2605968238814436e-05 0.0000000000000000e+00  2.3021432136668385e-04 3.1594418487835035e-01 0.0000000000000000e+00  3.1724825920367372e-01 3.3366385943440324e-01 0.0000000000000000e+00  6.3045584799534682e-01 1.6797727199068915e-01 0.0000000000000000e+00  6.5586167073004242e-01 -3.5068475654421498e-02 0.0000000000000000e+00  6.7245706036580566e-01 3.2974294749245264e-02 0.0000000000000000e+00  6.8262323903471178e-01 1.4852633974857133e-03 0.0000000000000000e+00  6.8881138107559192e-01 6.7564036743726335e-03 0.0000000000000000e+00  6.9184234026634917e-01 1.5376125200442011e-03 0.0000000000000000e+00  6.9346466911250126e-01 1.4822408641174242e-03 0.0000000000000000e+00  6.9429280119700398e-01 4.1895129254427232e-04 0.0000000000000000e+00  6.9451546902404360e-01 -1.0583515037618169e-05 0.0000000000000000e+00  1.5528227813890277e-04 1.9898805458248216e-02 0.0000000000000000e+00  3.1480224475997409e-01 -2.0238481921513948e-02 0.0000000000000000e+00  6.2548921403131463e-01 -6.7296769964541952e-04 0.0000000000000000e+00  6.5169289773691630e-01 -1.9096780239713045e-02 0.0000000000000000e+00  6.6972414025375304e-01 9.4438909906455586e-03 0.0000000000000000e+00  6.8095665383533277e-01 -4.4007050600945357e-03 0.0000000000000000e+00  6.8744438726568557e-01 1.1045038839922116e-03 0.0000000000000000e+00  6.9106342955499267e-01 -6.1268552309138094e-04 0.0000000000000000e+00  6.9305367301859966e-01 9.4368310086349923e-05 0.0000000000000000e+00  6.9398778874261513e-01 -1.2104381182580287e-04 0.0000000000000000e+00  6.9426063986311237e-01 -7.7874734814252286e-06 0.0000000000000000e+00  -7.7318994260709662e-04 -2.7681831910947985e-01 0.0000000000000000e+00  3.1613260262802212e-01 -3.7434657683121286e-01 0.0000000000000000e+00  6.2991197916425634e-01 -1.6904006967581497e-01 0.0000000000000000e+00  6.5622084690615601e-01 -4.1173794882615111e-03 0.0000000000000000e+00  6.7319433498973313e-01 -1.4441829712127737e-02 0.0000000000000000e+00  6.8328781671584171e-01 -9.8970883980684741e-03 0.0000000000000000e+00  6.8891439827532475e-01 -4.1293695358289896e-03 0.0000000000000000e+00  6.9198443408544508e-01 -2.9040794958049812e-03 0.0000000000000000e+00  6.9356947612114761e-01 -1.2576704663336505e-03 0.0000000000000000e+00  6.9431155980864867e-01 -6.2008587685647625e-04 0.0000000000000000e+00  6.9452720877216501e-01 -8.8233021658985732e-06 0.0000000000000000e+00  1.3846088021888007e-03 -5.7047009479988586e-01 0.0000000000000000e+00  3.2180267076078606e-01 -7.3364330836792058e-01 0.0000000000000000e+00  6.4389195615818251e-01 -3.4244273035231088e-01 0.0000000000000000e+00  6.6982306124276370e-01 1.2747367017903771e-02 0.0000000000000000e+00  6.8392106740356340e-01 -3.5479790055183168e-02 0.0000000000000000e+00  6.9002324793378078e-01 -1.3445012573704110e-02 0.0000000000000000e+00  6.9294413400080757e-01 -7.8866001070440443e-03 0.0000000000000000e+00  6.9424143931581084e-01 -4.3427871779425174e-03 0.0000000000000000e+00  6.9487026339870372e-01 -2.0794314908881306e-03 0.0000000000000000e+00  6.9514610398330046e-01 -9.1773134212890612e-04 0.0000000000000000e+00  6.9521444530723064e-01 3.3319153944016630e-06 0.0000000000000000e+00  8.3831123023787538e-03 -8.5474603488548617e-01 0.0000000000000000e+00  3.1255516453664739e-01 -1.1211718864131484e+00 0.0000000000000000e+00  6.6750876810658399e-01 -5.1857823794096336e-01 0.0000000000000000e+00  6.9956816921832288e-01 3.7930434638322873e-02 0.0000000000000000e+00  7.0050304510222139e-01 -5.3501948486090078e-02 0.0000000000000000e+00  7.0021517016633994e-01 -1.0976574833470996e-02 0.0000000000000000e+00  6.9819736023731638e-01 -9.2131727609016823e-03 0.0000000000000000e+00  6.9713940788351236e-01 -4.1006778687760256e-03 0.0000000000000000e+00  6.9649865127642652e-01 -2.1300210662673533e-03 0.0000000000000000e+00  6.9617757047157691e-01 -8.7611005037703071e-04 0.0000000000000000e+00  6.9606855189787420e-01 2.3914972154644998e-05 0.0000000000000000e+00  4.5923362992179084e-02 -1.1573366731053427e+00 0.0000000000000000e+00  2.4671268244941952e-01 -1.4877770219490094e+00 0.0000000000000000e+00  7.5808777243415049e-01 -7.2148458370693014e-01 0.0000000000000000e+00  7.3079626885506610e-01 4.0768379515487729e-02 0.0000000000000000e+00  7.2628045638093830e-01 -3.8847714828682191e-02 0.0000000000000000e+00  7.0865793791662712e-01 -7.4851454267412009e-03 0.0000000000000000e+00  7.0297466948757625e-01 -5.7004086586090108e-03 0.0000000000000000e+00  6.9953424156152488e-01 -2.4894467097708989e-03 0.0000000000000000e+00  6.9781672348950008e-01 -1.2880241693225482e-03 0.0000000000000000e+00  6.9700767362262639e-01 -5.0956042498286676e-04 0.0000000000000000e+00  6.9676250693845643e-01 4.0749131785670984e-05 0.0000000000000000e+00  2.1522179756914034e-02 -1.3765180856175290e+00 0.0000000000000000e+00  -1.8396819208815089e-02 -1.5720246765600685e+00 0.0000000000000000e+00  5.1861730523723704e-01 -1.5750423981309580e+00 0.0000000000000000e+00  8.7489940016382617e-01 4.1716685849265500e-01 0.0000000000000000e+00  7.2106184152989372e-01 -9.5857496762337069e-02 0.0000000000000000e+00  7.1432522258158704e-01 2.2528072125079859e-02 0.0000000000000000e+00  7.0486862618317592e-01 -4.1587012818011656e-03 0.0000000000000000e+00  7.0042240430486724e-01 1.1293806723417263e-03 0.0000000000000000e+00  6.9833220935053897e-01 -9.3911165193835488e-05 0.0000000000000000e+00  6.9732326276899437e-01 9.7674918593835966e-05 0.0000000000000000e+00  6.9704546357848840e-01 4.9320490751898404e-05 0.0000000000000000e+00  </DataArray> 
</PointData> 
</Piece>
</UnstructuredGrid>
</VTKFile>