<?xml version="1.0"?>
<VTKFile type="UnstructuredGrid"  version="0.1"  >
<UnstructuredGrid>
<Piece  NumberOfPoints="121" NumberOfCells="200">
<Points>
<DataArray  type="Float64"  NumberOfComponents="3"  format="ascii">0 0 0  0.1 0 0  0.2 0 0  0.3 0 0  0.4 0 0  0.5 0 0  0.6 0 0  0.7 0 0  0.8 0 0  0.9 0 0  1 0 0  0 0.1 0  0.1 0.1 0  0.2 0.1 0  0.3 0.1 0  0.4 0.1 0  0.5 0.1 0  0.6 0.1 0  0.7 0.1 0  0.8 0.1 0  0.9 0.1 0  1 0.1 0  0 0.2 0  0.1 0.2 0  0.2 0.2 0  0.3 0.2 0  0.4 0.2 0  0.5 0.2 0  0.6 0.2 0  0.7 0.2 0  0.8 0.2 0  0.9 0.2 0  1 0.2 0  0 0.3 0  0.1 0.3 0  0.2 0.3 0  0.3 0.3 0  0.4 0.3 0  0.5 0.3 0  0.6 0.3 0  0.7 0.3 0  0.8 0.3 0  0.9 0.3 0  1 0.3 0  0 0.4 0  0.1 0.4 0  0.2 0.4 0  0.3 0.4 0  0.4 0.4 0  0.5 0.4 0  0.6 0.4 0  0.7 0.4 0  0.8 0.4 0  0.9 0.4 0  1 0.4 0  0 0.5 0  0.1 0.5 0  0.2 0.5 0  0.3 0.5 0  0.4 0.5 0  0.5 0.5 0  0.6 0.5 0  0.7 0.5 0  0.8 0.5 0  0.9 0.5 0  1 0.5 0  0 0.6 0  0.1 0.6 0  0.2 0.6 0  0.3 0.6 0  0.4 0.6 0  0.5 0.6 0  0.6 0.6 0  0.7 0.6 0  0.8 0.6 0  0.9 0.6 0  1 0.6 0  0 0.7 0  0.1 0.7 0  0.2 0.7 0  0.3 0.7 0  0.4 0.7 0  0.5 0.7 0  0.6 0.7 0  0.7 0.7 0  0.8 0.7 0  0.9 0.7 0  1 0.7 0  0 0.8 0  0.1 0.8 0  0.2 0.8 0  0.3 0.8 0  0.4 0.8 0  0.5 0.8 0  0.6 0.8 0  0.7 0.8 0  0.8 0.8 0  0.9 0.8 0  1 0.8 0  0 0.9 0  0.1 0.9 0  0.2 0.9 0  0.3 0.9 0  0.4 0.9 0  0.5 0.9 0  0.6 0.9 0  0.7 0.9 0  0.8 0.9 0  0.9 0.9 0  1 0.9 0  0 1 0  0.1 1 0  0.2 1 0  0.3 1 0  0.4 1 0  0.5 1 0  0.6 1 0  0.7 1 0  0.8 1 0  0.9 1 0  1 1 0  </DataArray>
</Points>
<Cells>
<DataArray  type="UInt32"  Name="connectivity"  format="ascii">0 1 12  0 11 12  1 2 13  1 12 13  2 3 14  2 13 14  3 4 15  3 14 15  4 5 16  4 15 16  5 6 17  5 16 17  6 7 18  6 17 18  7 8 19  7 18 19  8 9 20  8 19 20  9 10 21  9 20 21  11 12 23  11 22 23  12 13 24  12 23 24  13 14 25  13 24 25  14 15 26  14 25 26  15 16 27  15 26 27  16 17 28  16 27 28  17 18 29  17 28 29  18 19 30  18 29 30  19 20 31  19 30 31  20 21 32  20 31 32  22 23 34  22 33 34  23 24 35  23 34 35  24 25 36  24 35 36  25 26 37  25 36 37  26 27 38  26 37 38  27 28 39  27 38 39  28 29 40  28 39 40  29 30 41  29 40 41  30 31 42  30 41 42  31 32 43  31 42 43  33 34 45  33 44 45  34 35 46  34 45 46  35 36 47  35 46 47  36 37 48  36 47 48  37 38 49  37 48 49  38 39 50  38 49 50  39 40 51  39 50 51  40 41 52  40 51 52  41 42 53  41 52 53  42 43 54  42 53 54  44 45 56  44 55 56  45 46 57  45 56 57  46 47 58  46 57 58  47 48 59  47 58 59  48 49 60  48 59 60  49 50 61  49 60 61  50 51 62  50 61 62  51 52 63  51 62 63  52 53 64  52 63 64  53 54 65  53 64 65  55 56 67  55 66 67  56 57 68  56 67 68  57 58 69  57 68 69  58 59 70  58 69 70  59 60 71  59 70 71  60 61 72  60 71 72  61 62 73  61 72 73  62 63 74  62 73 74  63 64 75  63 74 75  64 65 76  64 75 76  66 67 78  66 77 78  67 68 79  67 78 79  68 69 80  68 79 80  69 70 81  69 80 81  70 71 82  70 81 82  71 72 83  71 82 83  72 73 84  72 83 84  73 74 85  73 84 85  74 75 86  74 85 86  75 76 87  75 86 87  77 78 89  77 88 89  78 79 90  78 89 90  79 80 91  79 90 91  80 81 92  80 91 92  81 82 93  81 92 93  82 83 94  82 93 94  83 84 95  83 94 95  84 85 96  84 95 96  85 86 97  85 96 97  86 87 98  86 97 98  88 89 100  88 99 100  89 90 101  89 100 101  90 91 102  90 101 102  91 92 103  91 102 103  92 93 104  92 103 104  93 94 105  93 104 105  94 95 106  94 105 106  95 96 107  95 106 107  96 97 108  96 107 108  97 98 109  97 108 109  99 100 111  99 110 111  100 101 112  100 111 112  101 102 113  101 112 113  102 103 114  102 113 114  103 104 115  103 114 115  104 105 116  104 115 116  105 106 117  105 116 117  106 107 118  106 117 118  107 108 119  107 118 119  108 109 120  108 119 120  </DataArray>
<DataArray  type="UInt32"  Name="offsets"  format="ascii">3 6 9 12 15 18 21 24 27 30 33 36 39 42 45 48 51 54 57 60 63 66 69 72 75 78 81 84 87 90 93 96 99 102 105 108 111 114 117 120 123 126 129 132 135 138 141 144 147 150 153 156 159 162 165 168 171 174 177 180 183 186 189 192 195 198 201 204 207 210 213 216 219 222 225 228 231 234 237 240 243 246 249 252 255 258 261 264 267 270 273 276 279 282 285 288 291 294 297 300 303 306 309 312 315 318 321 324 327 330 333 336 339 342 345 348 351 354 357 360 363 366 369 372 375 378 381 384 387 390 393 396 399 402 405 408 411 414 417 420 423 426 429 432 435 438 441 444 447 450 453 456 459 462 465 468 471 474 477 480 483 486 489 492 495 498 501 504 507 510 513 516 519 522 525 528 531 534 537 540 543 546 549 552 555 558 561 564 567 570 573 576 579 582 585 588 591 594 597 600 </DataArray>
<DataArray  type="UInt8"  Name="types"  format="ascii">5 5 5 5 5 5 5 5 5 5 5 5 5 5 5 5 5 5 5 5 5 5 5 5 5 5 5 5 5 5 5 5 5 5 5 5 5 5 5 5 5 5 5 5 5 5 5 5 5 5 5 5 5 5 5 5 5 5 5 5 5 5 5 5 5 5 5 5 5 5 5 5 5 5 5 5 5 5 5 5 5 5 5 5 5 5 5 5 5 5 5 5 5 5 5 5 5 5 5 5 5 5 5 5 5 5 5 5 5 5 5 5 5 5 5 5 5 5 5 5 5 5 5 5 5 5 5 5 5 5 5 5 5 5 5 5 5 5 5 5 5 5 5 5 5 5 5 5 5 5 5 5 5 5 5 5 5 5 5 5 5 5 5 5 5 5 5 5 5 5 5 5 5 5 5 5 5 5 5 5 5 5 5 5 5 5 5 5 5 5 5 5 5 5 5 5 5 5 5 5 </DataArray>
</Cells>
<PointData  Vectors="f_34"> 
<DataArray  type="Float64"  Name="f_34"  NumberOfComponents="3" format="ascii">7.8447020590358390e-03 -6.2602824388980527e-01 0.0000000000000000e+00  4.3903412697489548e-02 -1.0642905336996948e+00 0.0000000000000000e+00  -3.4607720478809129e-01 -4.9194230288464963e-01 0.0000000000000000e+00  -4.3003081603528481e-01 3.8651460362723510e-02 0.0000000000000000e+00  -3.8183057876827531e-01 -5.5974710273940659e-04 0.0000000000000000e+00  -3.7476691852069227e-01 -1.4504687152891295e-03 0.0000000000000000e+00  -3.7046086861539074e-01 9.1941160183455373e-05 0.0000000000000000e+00  -3.6818874261406032e-01 -1.1306911245556993e-04 0.0000000000000000e+00  -3.6710790376307212e-01 -4.3966908287826548e-05 0.0000000000000000e+00  -3.6659863675148957e-01 -2.9579592762929649e-05 0.0000000000000000e+00  -3.6643398460953142e-01 -1.1562558527559326e-05 0.0000000000000000e+00  9.7387556036472381e-03 -6.3262450045703678e-01 0.0000000000000000e+00  -1.4017586275070312e-01 -7.5829020534943370e-01 0.0000000000000000e+00  -3.9165968064175355e-01 -4.2587506698749045e-01 0.0000000000000000e+00  -4.0641574413855847e-01 9.0412136158164486e-02 0.0000000000000000e+00  -3.7206069476453729e-01 -3.7005958596283493e-02 0.0000000000000000e+00  -3.7391945805955279e-01 -2.8189936973532295e-03 0.0000000000000000e+00  -3.6916697181705693e-01 -3.1145013946065939e-03 0.0000000000000000e+00  -3.6768800499416393e-01 -1.5554047972100239e-03 0.0000000000000000e+00  -3.6682639556480945e-01 -7.2791416805078235e-04 0.0000000000000000e+00  -3.6642130331245726e-01 -3.1833259551931865e-04 0.0000000000000000e+00  -3.6631211555571153e-01 -2.0117169878508749e-05 0.0000000000000000e+00  6.5008890421504263e-04 -4.7956378920057458e-01 0.0000000000000000e+00  -1.7025263517874023e-01 -5.6157329307596637e-01 0.0000000000000000e+00  -3.5717945941149354e-01 -2.7283626391598648e-01 0.0000000000000000e+00  -3.6028704850675713e-01 4.6949507029668408e-02 0.0000000000000000e+00  -3.6582596992049532e-01 -4.4164760615895277e-02 0.0000000000000000e+00  -3.6857560957432328e-01 -4.9195543659171436e-04 0.0000000000000000e+00  -3.6637231671573395e-01 -5.9699486474593562e-03 0.0000000000000000e+00  -3.6643819314210763e-01 -2.0416212741494991e-03 0.0000000000000000e+00  -3.6608042909353683e-01 -1.1549826529370509e-03 0.0000000000000000e+00  -3.6597261984360252e-01 -4.7742652100023122e-04 0.0000000000000000e+00  -3.6594063092379692e-01 -2.4199890569725275e-06 0.0000000000000000e+00  -1.0758187390206573e-04 -3.2402773153578884e-01 0.0000000000000000e+00  -1.6952259771563635e-01 -3.6442941549142116e-01 0.0000000000000000e+00  -3.3903716536774720e-01 -1.7860769292537382e-01 0.0000000000000000e+00  -3.5205135926737380e-01 2.6984466621834870e-02 0.0000000000000000e+00  -3.6011267146699921e-01 -2.8914807588647923e-02 0.0000000000000000e+00  -3.6235057775319102e-01 -1.3366133549144532e-03 0.0000000000000000e+00  -3.6390136722926048e-01 -6.0552703203619190e-03 0.0000000000000000e+00  -3.6493579449576813e-01 -1.6292691138438038e-03 0.0000000000000000e+00  -3.6521962861448487e-01 -1.2007388686817396e-03 0.0000000000000000e+00  -3.6543842016647837e-01 -4.3376304873046350e-04 0.0000000000000000e+00  -3.6549018725171567e-01 6.6273497028788273e-06 0.0000000000000000e+00  -1.2103083119963546e-04 -1.6610168768366307e-01 0.0000000000000000e+00  -1.6678728012900107e-01 -1.7541747189440840e-01 0.0000000000000000e+00  -3.3145025410859807e-01 -8.8310878014401031e-02 0.0000000000000000e+00  -3.4480688554921052e-01 1.8436588706121554e-02 0.0000000000000000e+00  -3.5353159819847041e-01 -1.7335612649864038e-02 0.0000000000000000e+00  -3.5887627461607674e-01 -7.8084917775129872e-04 0.0000000000000000e+00  -3.6212957341317870e-01 -3.5520516176543644e-03 0.0000000000000000e+00  -3.6372304295932367e-01 -8.0837074016920022e-04 0.0000000000000000e+00  -3.6457595170783380e-01 -7.7926013792133694e-04 0.0000000000000000e+00  -3.6501132650960072e-01 -2.2025572895425081e-04 0.0000000000000000e+00  -3.6512838991393887e-01 5.5640831278912694e-06 0.0000000000000000e+00  -8.1636724776828291e-05 -1.0461421123407517e-02 0.0000000000000000e+00  -1.6550133423525704e-01 1.0639999608200803e-02 0.0000000000000000e+00  -3.2883914011119869e-01 3.5380005715498163e-04 0.0000000000000000e+00  -3.4261523188736182e-01 1.0039771513318300e-02 0.0000000000000000e+00  -3.5209481706862789e-01 -4.9649473132443809e-03 0.0000000000000000e+00  -3.5800009892576584e-01 2.3135875653522080e-03 0.0000000000000000e+00  -3.6141090223723726e-01 -5.8067205526996055e-04 0.0000000000000000e+00  -3.6331354536479787e-01 3.2210784143232288e-04 0.0000000000000000e+00  -3.6435987827431393e-01 -4.9612356609857738e-05 0.0000000000000000e+00  -3.6485097197274513e-01 6.3636497807334239e-05 0.0000000000000000e+00  -3.6499441829576218e-01 4.0941170962589309e-06 0.0000000000000000e+00  4.0649000840411401e-04 1.4553200276037392e-01 0.0000000000000000e+00  -1.6620074475674204e-01 1.9680564215546098e-01 0.0000000000000000e+00  -3.3116432534318158e-01 8.8869623823360500e-02 0.0000000000000000e+00  -3.4499571563972509e-01 2.1646344973800099e-03 0.0000000000000000e+00  -3.5391920640644497e-01 7.5925191955922853e-03 0.0000000000000000e+00  -3.5922566377946630e-01 5.2032072902580039e-03 0.0000000000000000e+00  -3.6218373276016158e-01 2.1709380384221382e-03 0.0000000000000000e+00  -3.6379774610086302e-01 1.5267649430127325e-03 0.0000000000000000e+00  -3.6463105201304646e-01 6.6119649294410314e-04 0.0000000000000000e+00  -3.6502118849535947e-01 3.2599843765090042e-04 0.0000000000000000e+00  -3.6513456186478083e-01 4.6386844595343285e-06 0.0000000000000000e+00  -7.2793192542394995e-04 2.9991387736984459e-01 0.0000000000000000e+00  -1.6918167598197156e-01 3.8569911240701832e-01 0.0000000000000000e+00  -3.3851403419559711e-01 1.8003279746522827e-01 0.0000000000000000e+00  -3.5214682291019272e-01 -6.7016874389131120e-03 0.0000000000000000e+00  -3.5955858336777236e-01 1.8652829483464438e-02 0.0000000000000000e+00  -3.6276668952427460e-01 7.0684614128288022e-03 0.0000000000000000e+00  -3.6430229020466603e-01 4.1462310451153700e-03 0.0000000000000000e+00  -3.6498432397068192e-01 2.2831383327559453e-03 0.0000000000000000e+00  -3.6531491635510627e-01 1.0932218302800850e-03 0.0000000000000000e+00  -3.6545993433241308e-01 4.8247991912283807e-04 0.0000000000000000e+00  -3.6549586349265206e-01 -1.7516915866583425e-06 0.0000000000000000e+00  -4.4072629537498138e-03 4.4936658349975667e-01 0.0000000000000000e+00  -1.6431997425042649e-01 5.8943494272067720e-01 0.0000000000000000e+00  -3.5093012700593978e-01 2.7263271375347758e-01 0.0000000000000000e+00  -3.6778475160628682e-01 -1.9941209585566916e-02 0.0000000000000000e+00  -3.6827624494442263e-01 2.8127638878132220e-02 0.0000000000000000e+00  -3.6812490013422949e-01 5.7707268944588875e-03 0.0000000000000000e+00  -3.6706407467619934e-01 4.8436515617349589e-03 0.0000000000000000e+00  -3.6650787620866654e-01 2.1558539363947253e-03 0.0000000000000000e+00  -3.6617101052502271e-01 1.1198183440058421e-03 0.0000000000000000e+00  -3.6600220835640879e-01 4.6059831112305180e-04 0.0000000000000000e+00  -3.6594489390041590e-01 -1.2572844907986588e-05 0.0000000000000000e+00  -2.4143340698128742e-02 6.0844789624791595e-01 0.0000000000000000e+00  -1.2970453291802489e-01 7.8217066833452797e-01 0.0000000000000000e+00  -3.9855032768571391e-01 3.7930689256904571e-01 0.0000000000000000e+00  -3.8420233515767782e-01 -2.1433205501972152e-02 0.0000000000000000e+00  -3.8182823204353517e-01 2.0423452320169330e-02 0.0000000000000000e+00  -3.7256352581295099e-01 3.9351738295735411e-03 0.0000000000000000e+00  -3.6957565478127524e-01 2.9968821836235090e-03 0.0000000000000000e+00  -3.6776691478154794e-01 1.3087795872878717e-03 0.0000000000000000e+00  -3.6686396209545635e-01 6.7715437897313913e-04 0.0000000000000000e+00  -3.6643861940918410e-01 2.6789176891685057e-04 0.0000000000000000e+00  -3.6630972765566194e-01 -2.1423086372626002e-05 0.0000000000000000e+00  -1.1314879498829986e-02 7.2367838400378748e-01 0.0000000000000000e+00  9.6717802221047752e-03 8.2646228148662682e-01 0.0000000000000000e+00  -2.7265325264659479e-01 8.2804879160415623e-01 0.0000000000000000e+00  -4.5996183464048124e-01 -2.1931759645458343e-01 0.0000000000000000e+00  -3.7908464385417290e-01 5.0395268377818825e-02 0.0000000000000000e+00  -3.7554299368255678e-01 -1.1843708412216743e-02 0.0000000000000000e+00  -3.7057136674115920e-01 2.1863586498529716e-03 0.0000000000000000e+00  -3.6823384956834843e-01 -5.9375055687557233e-04 0.0000000000000000e+00  -3.6713496905046000e-01 4.9372021317886530e-05 0.0000000000000000e+00  -3.6660453444207997e-01 -5.1350743578140834e-05 0.0000000000000000e+00  -3.6645848676470183e-01 -2.5929316455185033e-05 0.0000000000000000e+00  </DataArray> 
</PointData> 
</Piece>
</UnstructuredGrid>
</VTKFile>