<?xml version="1.0"?>
<VTKFile type="UnstructuredGrid"  version="0.1"  >
<UnstructuredGrid>
<Piece  NumberOfPoints="121" NumberOfCells="200">
<Points>
<DataArray  type="Float64"  NumberOfComponents="3"  format="ascii">0 0 0  0.1 0 0  0.2 0 0  0.3 0 0  0.4 0 0  0.5 0 0  0.6 0 0  0.7 0 0  0.8 0 0  0.9 0 0  1 0 0  0 0.1 0  0.1 0.1 0  0.2 0.1 0  0.3 0.1 0  0.4 0.1 0  0.5 0.1 0  0.6 0.1 0  0.7 0.1 0  0.8 0.1 0  0.9 0.1 0  1 0.1 0  0 0.2 0  0.1 0.2 0  0.2 0.2 0  0.3 0.2 0  0.4 0.2 0  0.5 0.2 0  0.6 0.2 0  0.7 0.2 0  0.8 0.2 0  0.9 0.2 0  1 0.2 0  0 0.3 0  0.1 0.3 0  0.2 0.3 0  0.3 0.3 0  0.4 0.3 0  0.5 0.3 0  0.6 0.3 0  0.7 0.3 0  0.8 0.3 0  0.9 0.3 0  1 0.3 0  0 0.4 0  0.1 0.4 0  0.2 0.4 0  0.3 0.4 0  0.4 0.4 0  0.5 0.4 0  0.6 0.4 0  0.7 0.4 0  0.8 0.4 0  0.9 0.4 0  1 0.4 0  0 0.5 0  0.1 0.5 0  0.2 0.5 0  0.3 0.5 0  0.4 0.5 0  0.5 0.5 0  0.6 0.5 0  0.7 0.5 0  0.8 0.5 0  0.9 0.5 0  1 0.5 0  0 0.6 0  0.1 0.6 0  0.2 0.6 0  0.3 0.6 0  0.4 0.6 0  0.5 0.6 0  0.6 0.6 0  0.7 0.6 0  0.8 0.6 0  0.9 0.6 0  1 0.6 0  0 0.7 0  0.1 0.7 0  0.2 0.7 0  0.3 0.7 0  0.4 0.7 0  0.5 0.7 0  0.6 0.7 0  0.7 0.7 0  0.8 0.7 0  0.9 0.7 0  1 0.7 0  0 0.8 0  0.1 0.8 0  0.2 0.8 0  0.3 0.8 0  0.4 0.8 0  0.5 0.8 0  0.6 0.8 0  0.7 0.8 0  0.8 0.8 0  0.9 0.8 0  1 0.8 0  0 0.9 0  0.1 0.9 0  0.2 0.9 0  0.3 0.9 0  0.4 0.9 0  0.5 0.9 0  0.6 0.9 0  0.7 0.9 0  0.8 0.9 0  0.9 0.9 0  1 0.9 0  0 1 0  0.1 1 0  0.2 1 0  0.3 1 0  0.4 1 0  0.5 1 0  0.6 1 0  0.7 1 0  0.8 1 0  0.9 1 0  1 1 0  </DataArray>
</Points>
<Cells>
<DataArray  type="UInt32"  Name="connectivity"  format="ascii">0 1 12  0 11 12  1 2 13  1 12 13  2 3 14  2 13 14  3 4 15  3 14 15  4 5 16  4 15 16  5 6 17  5 16 17  6 7 18  6 17 18  7 8 19  7 18 19  8 9 20  8 19 20  9 10 21  9 20 21  11 12 23  11 22 23  12 13 24  12 23 24  13 14 25  13 24 25  14 15 26  14 25 26  15 16 27  15 26 27  16 17 28  16 27 28  17 18 29  17 28 29  18 19 30  18 29 30  19 20 31  19 30 31  20 21 32  20 31 32  22 23 34  22 33 34  23 24 35  23 34 35  24 25 36  24 35 36  25 26 37  25 36 37  26 27 38  26 37 38  27 28 39  27 38 39  28 29 40  28 39 40  29 30 41  29 40 41  30 31 42  30 41 42  31 32 43  31 42 43  33 34 45  33 44 45  34 35 46  34 45 46  35 36 47  35 46 47  36 37 48  36 47 48  37 38 49  37 48 49  38 39 50  38 49 50  39 40 51  39 50 51  40 41 52  40 51 52  41 42 53  41 52 53  42 43 54  42 53 54  44 45 56  44 55 56  45 46 57  45 56 57  46 47 58  46 57 58  47 48 59  47 58 59  48 49 60  48 59 60  49 50 61  49 60 61  50 51 62  50 61 62  51 52 63  51 62 63  52 53 64  52 63 64  53 54 65  53 64 65  55 56 67  55 66 67  56 57 68  56 67 68  57 58 69  57 68 69  58 59 70  58 69 70  59 60 71  59 70 71  60 61 72  60 71 72  61 62 73  61 72 73  62 63 74  62 73 74  63 64 75  63 74 75  64 65 76  64 75 76  66 67 78  66 77 78  67 68 79  67 78 79  68 69 80  68 79 80  69 70 81  69 80 81  70 71 82  70 81 82  71 72 83  71 82 83  72 73 84  72 83 84  73 74 85  73 84 85  74 75 86  74 85 86  75 76 87  75 86 87  77 78 89  77 88 89  78 79 90  78 89 90  79 80 91  79 90 91  80 81 92  80 91 92  81 82 93  81 92 93  82 83 94  82 93 94  83 84 95  83 94 95  84 85 96  84 95 96  85 86 97  85 96 97  86 87 98  86 97 98  88 89 100  88 99 100  89 90 101  89 100 101  90 91 102  90 101 102  91 92 103  91 102 103  92 93 104  92 103 104  93 94 105  93 104 105  94 95 106  94 105 106  95 96 107  95 106 107  96 97 108  96 107 108  97 98 109  97 108 109  99 100 111  99 110 111  100 101 112  100 111 112  101 102 113  101 112 113  102 103 114  102 113 114  103 104 115  103 114 115  104 105 116  104 115 116  105 106 117  105 116 117  106 107 118  106 117 118  107 108 119  107 118 119  108 109 120  108 119 120  </DataArray>
<DataArray  type="UInt32"  Name="offsets"  format="ascii">3 6 9 12 15 18 21 24 27 30 33 36 39 42 45 48 51 54 57 60 63 66 69 72 75 78 81 84 87 90 93 96 99 102 105 108 111 114 117 120 123 126 129 132 135 138 141 144 147 150 153 156 159 162 165 168 171 174 177 180 183 186 189 192 195 198 201 204 207 210 213 216 219 222 225 228 231 234 237 240 243 246 249 252 255 258 261 264 267 270 273 276 279 282 285 288 291 294 297 300 303 306 309 312 315 318 321 324 327 330 333 336 339 342 345 348 351 354 357 360 363 366 369 372 375 378 381 384 387 390 393 396 399 402 405 408 411 414 417 420 423 426 429 432 435 438 441 444 447 450 453 456 459 462 465 468 471 474 477 480 483 486 489 492 495 498 501 504 507 510 513 516 519 522 525 528 531 534 537 540 543 546 549 552 555 558 561 564 567 570 573 576 579 582 585 588 591 594 597 600 </DataArray>
<DataArray  type="UInt8"  Name="types"  format="ascii">5 5 5 5 5 5 5 5 5 5 5 5 5 5 5 5 5 5 5 5 5 5 5 5 5 5 5 5 5 5 5 5 5 5 5 5 5 5 5 5 5 5 5 5 5 5 5 5 5 5 5 5 5 5 5 5 5 5 5 5 5 5 5 5 5 5 5 5 5 5 5 5 5 5 5 5 5 5 5 5 5 5 5 5 5 5 5 5 5 5 5 5 5 5 5 5 5 5 5 5 5 5 5 5 5 5 5 5 5 5 5 5 5 5 5 5 5 5 5 5 5 5 5 5 5 5 5 5 5 5 5 5 5 5 5 5 5 5 5 5 5 5 5 5 5 5 5 5 5 5 5 5 5 5 5 5 5 5 5 5 5 5 5 5 5 5 5 5 5 5 5 5 5 5 5 5 5 5 5 5 5 5 5 5 5 5 5 5 5 5 5 5 5 5 5 5 5 5 5 5 </DataArray>
</Cells>
<PointData  Vectors="f_34"> 
<DataArray  type="Float64"  Name="f_34"  NumberOfComponents="3" format="ascii">2.0537696622175406e-02 -1.6389632204211582e+00 0.0000000000000000e+00  1.1494062666415741e-01 -2.7863487911309726e+00 0.0000000000000000e+00  -9.0604188486691184e-01 -1.2879216694560955e+00 0.0000000000000000e+00  -1.1258352925903945e+00 1.0119083694444306e-01 0.0000000000000000e+00  -9.9964543315953569e-01 -1.4654369400768368e-03 0.0000000000000000e+00  -9.8115253054637741e-01 -3.7973763962446997e-03 0.0000000000000000e+00  -9.6987914553704513e-01 2.4070508232700708e-04 0.0000000000000000e+00  -9.6393064243883719e-01 -2.9601877948700570e-04 0.0000000000000000e+00  -9.6110096959059144e-01 -1.1510686027849591e-04 0.0000000000000000e+00  -9.5976769124491679e-01 -7.7440379219544388e-05 0.0000000000000000e+00  -9.5933662634094363e-01 -3.0271171222429876e-05 0.0000000000000000e+00  2.5496393178481638e-02 -1.6562324443126897e+00 0.0000000000000000e+00  -3.6698517308373535e-01 -1.9852295309412447e+00 0.0000000000000000e+00  -1.0253783559431895e+00 -1.1149554003345530e+00 0.0000000000000000e+00  -1.0640102317179836e+00 2.3670204545759368e-01 0.0000000000000000e+00  -9.7406754477159974e-01 -9.6882857391356991e-02 0.0000000000000000e+00  -9.7893385025499646e-01 -7.3802213137396915e-03 0.0000000000000000e+00  -9.6649167974106986e-01 -8.1538705090919098e-03 0.0000000000000000e+00  -9.6261969433050443e-01 -4.0721026253613532e-03 0.0000000000000000e+00  -9.6036397155942199e-01 -1.9057040328498108e-03 0.0000000000000000e+00  -9.5930342627419096e-01 -8.3340555479219337e-04 0.0000000000000000e+00  -9.5901756901587409e-01 -5.2667434503670290e-05 0.0000000000000000e+00  1.7019548469446501e-03 -1.2555142999009778e+00 0.0000000000000000e+00  -4.4572718557224339e-01 -1.4702179684473038e+00 0.0000000000000000e+00  -9.3510796482274006e-01 -7.1429461229569335e-01 0.0000000000000000e+00  -9.4324373869720912e-01 1.2291540515874122e-01 0.0000000000000000e+00  -9.5774482321939325e-01 -1.1562484439743302e-01 0.0000000000000000e+00  -9.6494347328993046e-01 -1.2879560539475385e-03 0.0000000000000000e+00  -9.5917517769897054e-01 -1.5629528470142848e-02 0.0000000000000000e+00  -9.5934764442227838e-01 -5.3450338878761692e-03 0.0000000000000000e+00  -9.5841100598316487e-01 -3.0237838418046862e-03 0.0000000000000000e+00  -9.5812875770253636e-01 -1.2499188591089821e-03 0.0000000000000000e+00  -9.5804500962322658e-01 -6.3356135974134639e-06 0.0000000000000000e+00  -2.8165300245158070e-04 -8.4831561445834647e-01 0.0000000000000000e+00  -4.4381592268077502e-01 -9.5408859625693776e-01 0.0000000000000000e+00  -8.8761082238231115e-01 -4.6760101073090171e-01 0.0000000000000000e+00  -9.2168242434772107e-01 7.0646250784261400e-02 0.0000000000000000e+00  -9.4278721368026708e-01 -7.5699949045256038e-02 0.0000000000000000e+00  -9.4864612840115281e-01 -3.4992991929842596e-03 0.0000000000000000e+00  -9.5270614795890096e-01 -1.5852903509779064e-02 0.0000000000000000e+00  -9.5541431370150320e-01 -4.2654819168653517e-03 0.0000000000000000e+00  -9.5615740107147773e-01 -3.1435751698222943e-03 0.0000000000000000e+00  -9.5673020479104609e-01 -1.1356064046391292e-03 0.0000000000000000e+00  -9.5686573277969889e-01 1.7350626773515235e-05 0.0000000000000000e+00  -3.1686282976433575e-04 -4.3485986394461817e-01 0.0000000000000000e+00  -4.3665476826894289e-01 -4.5924890364020537e-01 0.0000000000000000e+00  -8.6774803083622465e-01 -2.3120088021808172e-01 0.0000000000000000e+00  -9.0271614592295968e-01 4.8267615869235621e-02 0.0000000000000000e+00  -9.2555774018080217e-01 -4.5385223133152221e-02 0.0000000000000000e+00  -9.3955028470096646e-01 -2.0442896874391173e-03 0.0000000000000000e+00  -9.4806753152734125e-01 -9.2993918648151038e-03 0.0000000000000000e+00  -9.5223928895918653e-01 -2.1163420732803347e-03 0.0000000000000000e+00  -9.5447223305209050e-01 -2.0401295271594310e-03 0.0000000000000000e+00  -9.5561205908095548e-01 -5.7663698461984784e-04 0.0000000000000000e+00  -9.5591853505236490e-01 1.4566958751056492e-05 0.0000000000000000e+00  -2.1372772019978561e-04 -2.7388356071707698e-02 0.0000000000000000e+00  -4.3328811821142327e-01 2.7855880614559989e-02 0.0000000000000000e+00  -8.6091204564252966e-01 9.2626057485140122e-04 0.0000000000000000e+00  -8.9697832214467255e-01 2.6284463061155144e-02 0.0000000000000000e+00  -9.2179619834847826e-01 -1.2998400818428660e-02 0.0000000000000000e+00  -9.3725642696361822e-01 6.0570508820428836e-03 0.0000000000000000e+00  -9.4618602596199142e-01 -1.5202191770128379e-03 0.0000000000000000e+00  -9.5116721033841234e-01 8.4328927691376221e-04 0.0000000000000000e+00  -9.5390654545906006e-01 -1.2988683586976439e-04 0.0000000000000000e+00  -9.5519224545322057e-01 1.6660251418494369e-04 0.0000000000000000e+00  -9.5556779280245163e-01 1.0718537708743989e-05 0.0000000000000000e+00  1.0642046580907085e-03 3.8100772967755586e-01 0.0000000000000000e+00  -4.3511919872876131e-01 5.1524386034081870e-01 0.0000000000000000e+00  -8.6699945961000457e-01 2.3266369573700860e-01 0.0000000000000000e+00  -9.0321050951802750e-01 5.6670866873637761e-03 0.0000000000000000e+00  -9.2657251164359866e-01 1.9877473314297432e-02 0.0000000000000000e+00  -9.4046499740602130e-01 1.3622173536408174e-02 0.0000000000000000e+00  -9.4820932253854950e-01 5.6835895720574259e-03 0.0000000000000000e+00  -9.5243486432280766e-01 3.9971225136425977e-03 0.0000000000000000e+00  -9.5461648752392225e-01 1.7310348917706387e-03 0.0000000000000000e+00  -9.5563787809487888e-01 8.5347499004649369e-04 0.0000000000000000e+00  -9.5593469342943160e-01 1.2144233577990392e-05 0.0000000000000000e+00  -1.9057505222543967e-03 7.8518472465213485e-01 0.0000000000000000e+00  -4.4292337799454040e-01 1.0097733857123898e+00 0.0000000000000000e+00  -8.8624124719305020e-01 4.7133198285376315e-01 0.0000000000000000e+00  -9.2193235140930829e-01 -1.7545245497056383e-02 0.0000000000000000e+00  -9.4133659220372967e-01 4.8833741574073011e-02 0.0000000000000000e+00  -9.4973552316096888e-01 1.8505472226954232e-02 0.0000000000000000e+00  -9.5375577793538402e-01 1.0854973801325340e-02 0.0000000000000000e+00  -9.5554136551628654e-01 5.9773337561725322e-03 0.0000000000000000e+00  -9.5640686761513483e-01 2.8620919089160680e-03 0.0000000000000000e+00  -9.5678652960870947e-01 1.2631488271553930e-03 0.0000000000000000e+00  -9.5688059337138287e-01 -4.5859881089063323e-06 0.0000000000000000e+00  -1.1538364210277348e-02 1.1764569890109520e+00 0.0000000000000000e+00  -4.3019527761818849e-01 1.5431607141998069e+00 0.0000000000000000e+00  -9.1874700017800170e-01 7.1376171105182895e-01 0.0000000000000000e+00  -9.6287298024933643e-01 -5.2206764471806562e-02 0.0000000000000000e+00  -9.6415972651381998e-01 7.3639114606244005e-02 0.0000000000000000e+00  -9.6376350065671668e-01 1.5107959149492711e-02 0.0000000000000000e+00  -9.6098622355145924e-01 1.2680844418283217e-02 0.0000000000000000e+00  -9.5953007705896998e-01 5.6440988802642497e-03 0.0000000000000000e+00  -9.5864815124954461e-01 2.9317224858329063e-03 0.0000000000000000e+00  -9.5820622143474088e-01 1.2058620336810536e-03 0.0000000000000000e+00  -9.5805617024089262e-01 -3.2916135309428539e-05 0.0000000000000000e+00  -6.3208086549677689e-02 1.5929372727606472e+00 0.0000000000000000e+00  -3.3957087567436894e-01 2.0477493947033167e+00 0.0000000000000000e+00  -1.0434183041087595e+00 9.9303833691301269e-01 0.0000000000000000e+00  -1.0058547720000284e+00 -5.6112860492032193e-02 0.0000000000000000e+00  -9.9963928935440161e-01 5.3469292341823876e-02 0.0000000000000000e+00  -9.7538397354694817e-01 1.0302418837463580e-02 0.0000000000000000e+00  -9.6756162563201797e-01 7.8459394170083338e-03 0.0000000000000000e+00  -9.6282628283591787e-01 3.4264294433071587e-03 0.0000000000000000e+00  -9.6046232201349657e-01 1.7728131797822273e-03 0.0000000000000000e+00  -9.5934876040397421e-01 7.0134975633503126e-04 0.0000000000000000e+00  -9.5901131741238010e-01 -5.6086368261771343e-05 0.0000000000000000e+00  -2.9622739106550586e-02 1.8946146062457918e+00 0.0000000000000000e+00  2.5321049353192210e-02 2.1637063433520902e+00 0.0000000000000000e+00  -7.1381548257210115e-01 2.1678598807632761e+00 0.0000000000000000e+00  -1.2041957166167139e+00 -5.7418092184911729e-01 0.0000000000000000e+00  -9.9245648222351857e-01 1.3193652548532178e-01 0.0000000000000000e+00  -9.8318432169796510e-01 -3.1007231176032376e-02 0.0000000000000000e+00  -9.7016843338599623e-01 5.7239612569113894e-03 0.0000000000000000e+00  -9.6404873397828716e-01 -1.5544591387407847e-03 0.0000000000000000e+00  -9.6117182743289387e-01 1.2925762990955271e-04 0.0000000000000000e+00  -9.5978313159933570e-01 -1.3443799203509600e-04 0.0000000000000000e+00  -9.5940077381598610e-01 -6.7883831785373733e-05 0.0000000000000000e+00  </DataArray> 
</PointData> 
</Piece>
</UnstructuredGrid>
</VTKFile>