<?xml version="1.0"?>
<VTKFile type="UnstructuredGrid"  version="0.1"  >
<UnstructuredGrid>
<Piece  NumberOfPoints="121" NumberOfCells="200">
<Points>
<DataArray  type="Float64"  NumberOfComponents="3"  format="ascii">0 0 0  0.1 0 0  0.2 0 0  0.3 0 0  0.4 0 0  0.5 0 0  0.6 0 0  0.7 0 0  0.8 0 0  0.9 0 0  1 0 0  0 0.1 0  0.1 0.1 0  0.2 0.1 0  0.3 0.1 0  0.4 0.1 0  0.5 0.1 0  0.6 0.1 0  0.7 0.1 0  0.8 0.1 0  0.9 0.1 0  1 0.1 0  0 0.2 0  0.1 0.2 0  0.2 0.2 0  0.3 0.2 0  0.4 0.2 0  0.5 0.2 0  0.6 0.2 0  0.7 0.2 0  0.8 0.2 0  0.9 0.2 0  1 0.2 0  0 0.3 0  0.1 0.3 0  0.2 0.3 0  0.3 0.3 0  0.4 0.3 0  0.5 0.3 0  0.6 0.3 0  0.7 0.3 0  0.8 0.3 0  0.9 0.3 0  1 0.3 0  0 0.4 0  0.1 0.4 0  0.2 0.4 0  0.3 0.4 0  0.4 0.4 0  0.5 0.4 0  0.6 0.4 0  0.7 0.4 0  0.8 0.4 0  0.9 0.4 0  1 0.4 0  0 0.5 0  0.1 0.5 0  0.2 0.5 0  0.3 0.5 0  0.4 0.5 0  0.5 0.5 0  0.6 0.5 0  0.7 0.5 0  0.8 0.5 0  0.9 0.5 0  1 0.5 0  0 0.6 0  0.1 0.6 0  0.2 0.6 0  0.3 0.6 0  0.4 0.6 0  0.5 0.6 0  0.6 0.6 0  0.7 0.6 0  0.8 0.6 0  0.9 0.6 0  1 0.6 0  0 0.7 0  0.1 0.7 0  0.2 0.7 0  0.3 0.7 0  0.4 0.7 0  0.5 0.7 0  0.6 0.7 0  0.7 0.7 0  0.8 0.7 0  0.9 0.7 0  1 0.7 0  0 0.8 0  0.1 0.8 0  0.2 0.8 0  0.3 0.8 0  0.4 0.8 0  0.5 0.8 0  0.6 0.8 0  0.7 0.8 0  0.8 0.8 0  0.9 0.8 0  1 0.8 0  0 0.9 0  0.1 0.9 0  0.2 0.9 0  0.3 0.9 0  0.4 0.9 0  0.5 0.9 0  0.6 0.9 0  0.7 0.9 0  0.8 0.9 0  0.9 0.9 0  1 0.9 0  0 1 0  0.1 1 0  0.2 1 0  0.3 1 0  0.4 1 0  0.5 1 0  0.6 1 0  0.7 1 0  0.8 1 0  0.9 1 0  1 1 0  </DataArray>
</Points>
<Cells>
<DataArray  type="UInt32"  Name="connectivity"  format="ascii">0 1 12  0 11 12  1 2 13  1 12 13  2 3 14  2 13 14  3 4 15  3 14 15  4 5 16  4 15 16  5 6 17  5 16 17  6 7 18  6 17 18  7 8 19  7 18 19  8 9 20  8 19 20  9 10 21  9 20 21  11 12 23  11 22 23  12 13 24  12 23 24  13 14 25  13 24 25  14 15 26  14 25 26  15 16 27  15 26 27  16 17 28  16 27 28  17 18 29  17 28 29  18 19 30  18 29 30  19 20 31  19 30 31  20 21 32  20 31 32  22 23 34  22 33 34  23 24 35  23 34 35  24 25 36  24 35 36  25 26 37  25 36 37  26 27 38  26 37 38  27 28 39  27 38 39  28 29 40  28 39 40  29 30 41  29 40 41  30 31 42  30 41 42  31 32 43  31 42 43  33 34 45  33 44 45  34 35 46  34 45 46  35 36 47  35 46 47  36 37 48  36 47 48  37 38 49  37 48 49  38 39 50  38 49 50  39 40 51  39 50 51  40 41 52  40 51 52  41 42 53  41 52 53  42 43 54  42 53 54  44 45 56  44 55 56  45 46 57  45 56 57  46 47 58  46 57 58  47 48 59  47 58 59  48 49 60  48 59 60  49 50 61  49 60 61  50 51 62  50 61 62  51 52 63  51 62 63  52 53 64  52 63 64  53 54 65  53 64 65  55 56 67  55 66 67  56 57 68  56 67 68  57 58 69  57 68 69  58 59 70  58 69 70  59 60 71  59 70 71  60 61 72  60 71 72  61 62 73  61 72 73  62 63 74  62 73 74  63 64 75  63 74 75  64 65 76  64 75 76  66 67 78  66 77 78  67 68 79  67 78 79  68 69 80  68 79 80  69 70 81  69 80 81  70 71 82  70 81 82  71 72 83  71 82 83  72 73 84  72 83 84  73 74 85  73 84 85  74 75 86  74 85 86  75 76 87  75 86 87  77 78 89  77 88 89  78 79 90  78 89 90  79 80 91  79 90 91  80 81 92  80 91 92  81 82 93  81 92 93  82 83 94  82 93 94  83 84 95  83 94 95  84 85 96  84 95 96  85 86 97  85 96 97  86 87 98  86 97 98  88 89 100  88 99 100  89 90 101  89 100 101  90 91 102  90 101 102  91 92 103  91 102 103  92 93 104  92 103 104  93 94 105  93 104 105  94 95 106  94 105 106  95 96 107  95 106 107  96 97 108  96 107 108  97 98 109  97 108 109  99 100 111  99 110 111  100 101 112  100 111 112  101 102 113  101 112 113  102 103 114  102 113 114  103 104 115  103 114 115  104 105 116  104 115 116  105 106 117  105 116 117  106 107 118  106 117 118  107 108 119  107 118 119  108 109 120  108 119 120  </DataArray>
<DataArray  type="UInt32"  Name="offsets"  format="ascii">3 6 9 12 15 18 21 24 27 30 33 36 39 42 45 48 51 54 57 60 63 66 69 72 75 78 81 84 87 90 93 96 99 102 105 108 111 114 117 120 123 126 129 132 135 138 141 144 147 150 153 156 159 162 165 168 171 174 177 180 183 186 189 192 195 198 201 204 207 210 213 216 219 222 225 228 231 234 237 240 243 246 249 252 255 258 261 264 267 270 273 276 279 282 285 288 291 294 297 300 303 306 309 312 315 318 321 324 327 330 333 336 339 342 345 348 351 354 357 360 363 366 369 372 375 378 381 384 387 390 393 396 399 402 405 408 411 414 417 420 423 426 429 432 435 438 441 444 447 450 453 456 459 462 465 468 471 474 477 480 483 486 489 492 495 498 501 504 507 510 513 516 519 522 525 528 531 534 537 540 543 546 549 552 555 558 561 564 567 570 573 576 579 582 585 588 591 594 597 600 </DataArray>
<DataArray  type="UInt8"  Name="types"  format="ascii">5 5 5 5 5 5 5 5 5 5 5 5 5 5 5 5 5 5 5 5 5 5 5 5 5 5 5 5 5 5 5 5 5 5 5 5 5 5 5 5 5 5 5 5 5 5 5 5 5 5 5 5 5 5 5 5 5 5 5 5 5 5 5 5 5 5 5 5 5 5 5 5 5 5 5 5 5 5 5 5 5 5 5 5 5 5 5 5 5 5 5 5 5 5 5 5 5 5 5 5 5 5 5 5 5 5 5 5 5 5 5 5 5 5 5 5 5 5 5 5 5 5 5 5 5 5 5 5 5 5 5 5 5 5 5 5 5 5 5 5 5 5 5 5 5 5 5 5 5 5 5 5 5 5 5 5 5 5 5 5 5 5 5 5 5 5 5 5 5 5 5 5 5 5 5 5 5 5 5 5 5 5 5 5 5 5 5 5 5 5 5 5 5 5 5 5 5 5 5 5 </DataArray>
</Cells>
<PointData  Vectors="f_34"> 
<DataArray  type="Float64"  Name="f_34"  NumberOfComponents="3" format="ascii">-1.4921510023279924e-02 1.1907764814724568e+00 0.0000000000000000e+00  -8.3509253467088013e-02 2.0244008946127430e+00 0.0000000000000000e+00  6.5827796150987228e-01 9.3572986559940807e-01 0.0000000000000000e+00  8.1796721959618424e-01 -7.3519446484586012e-02 0.0000000000000000e+00  7.2628492011665791e-01 1.0647022590759140e-03 0.0000000000000000e+00  7.1284903990194093e-01 2.7589554467141882e-03 0.0000000000000000e+00  7.0465844625808272e-01 -1.7488247901578018e-04 0.0000000000000000e+00  7.0033660577926093e-01 2.1507023238865404e-04 0.0000000000000000e+00  6.9828072811467079e-01 8.3630029259939182e-05 0.0000000000000000e+00  6.9731204469486674e-01 5.6263728890008395e-05 0.0000000000000000e+00  6.9699885770980963e-01 2.1993293262914300e-05 0.0000000000000000e+00  -1.8524213954909864e-02 1.2033233070552991e+00 0.0000000000000000e+00  2.6663033539271030e-01 1.4423536820807796e+00 0.0000000000000000e+00  7.4498098288885894e-01 8.1006251517219963e-01 0.0000000000000000e+00  7.7304868357586232e-01 -1.7197410249077913e-01 0.0000000000000000e+00  7.0770149642625246e-01 7.0389516129490751e-02 0.0000000000000000e+00  7.1123707431420236e-01 5.3620446505246800e-03 0.0000000000000000e+00  7.0219730829514349e-01 5.9241336927013189e-03 0.0000000000000000e+00  6.9938414622654854e-01 2.9585557357263204e-03 0.0000000000000000e+00  6.9774526770197187e-01 1.3845750256551550e-03 0.0000000000000000e+00  6.9697473644936969e-01 6.0550457863307492e-04 0.0000000000000000e+00  6.9676704899427133e-01 3.8265131005901664e-05 0.0000000000000000e+00  -1.2365425770506340e-03 9.1218453339683381e-01 0.0000000000000000e+00  3.2383975620633376e-01 1.0681758795144847e+00 0.0000000000000000e+00  6.7939570472018151e-01 5.1896541335786228e-01 0.0000000000000000e+00  6.8530669043821935e-01 -8.9303269194824564e-02 0.0000000000000000e+00  6.9584234504578446e-01 8.4006366748727662e-02 0.0000000000000000e+00  7.0107247046625831e-01 9.3575484739323242e-04 0.0000000000000000e+00  6.9688155840532207e-01 1.1355517126227092e-02 0.0000000000000000e+00  6.9700686281446655e-01 3.8833944331739881e-03 0.0000000000000000e+00  6.9632635515508989e-01 2.1969075565663157e-03 0.0000000000000000e+00  6.9612128977575161e-01 9.0811920769867313e-04 0.0000000000000000e+00  6.9606044323450278e-01 4.6030927217881245e-06 0.0000000000000000e+00  2.0463288442126699e-04 6.1633737107491315e-01 0.0000000000000000e+00  3.2245114243348333e-01 6.9318594066552119e-01 0.0000000000000000e+00  6.4488701077848543e-01 3.3973202043425332e-01 0.0000000000000000e+00  6.6964147860362455e-01 -5.1327505638892629e-02 0.0000000000000000e+00  6.8497500559831193e-01 5.4999232349210184e-02 0.0000000000000000e+00  6.8923175631099154e-01 2.5423896819182310e-03 0.0000000000000000e+00  6.9218153318422837e-01 1.1517808592218921e-02 0.0000000000000000e+00  6.9414913076911655e-01 3.0990540150399736e-03 0.0000000000000000e+00  6.9468901534542593e-01 2.2839410508559560e-03 0.0000000000000000e+00  6.9510518160789003e-01 8.2506634804709999e-04 0.0000000000000000e+00  6.9520364845538762e-01 -1.2605968238806413e-05 0.0000000000000000e+00  2.3021432136707641e-04 3.1594418487835274e-01 0.0000000000000000e+00  3.1724825920367367e-01 3.3366385943440641e-01 0.0000000000000000e+00  6.3045584799535237e-01 1.6797727199068965e-01 0.0000000000000000e+00  6.5586167073004620e-01 -3.5068475654421803e-02 0.0000000000000000e+00  6.7245706036581088e-01 3.2974294749244855e-02 0.0000000000000000e+00  6.8262323903471689e-01 1.4852633974870562e-03 0.0000000000000000e+00  6.8881138107559792e-01 6.7564036743719995e-03 0.0000000000000000e+00  6.9184234026635605e-01 1.5376125200425802e-03 0.0000000000000000e+00  6.9346466911250693e-01 1.4822408641193858e-03 0.0000000000000000e+00  6.9429280119700609e-01 4.1895129254699589e-04 0.0000000000000000e+00  6.9451546902404493e-01 -1.0583515034395742e-05 0.0000000000000000e+00  1.5528227813541866e-04 1.9898805458248878e-02 0.0000000000000000e+00  3.1480224475997698e-01 -2.0238481921516401e-02 0.0000000000000000e+00  6.2548921403131885e-01 -6.7296769964486072e-04 0.0000000000000000e+00  6.5169289773692118e-01 -1.9096780239712854e-02 0.0000000000000000e+00  6.6972414025375726e-01 9.4438909906460564e-03 0.0000000000000000e+00  6.8095665383533821e-01 -4.4007050600949416e-03 0.0000000000000000e+00  6.8744438726569090e-01 1.1045038839904904e-03 0.0000000000000000e+00  6.9106342955499367e-01 -6.1268552308863552e-04 0.0000000000000000e+00  6.9305367301860943e-01 9.4368310085528789e-05 0.0000000000000000e+00  6.9398778874262046e-01 -1.2104381182865718e-04 0.0000000000000000e+00  6.9426063986311037e-01 -7.7874734823211506e-06 0.0000000000000000e+00  -7.7318994260419573e-04 -2.7681831910948446e-01 0.0000000000000000e+00  3.1613260262802351e-01 -3.7434657683121569e-01 0.0000000000000000e+00  6.2991197916425989e-01 -1.6904006967581597e-01 0.0000000000000000e+00  6.5622084690616045e-01 -4.1173794882618797e-03 0.0000000000000000e+00  6.7319433498973746e-01 -1.4441829712127955e-02 0.0000000000000000e+00  6.8328781671584615e-01 -9.8970883980691437e-03 0.0000000000000000e+00  6.8891439827533074e-01 -4.1293695358304442e-03 0.0000000000000000e+00  6.9198443408545007e-01 -2.9040794958067593e-03 0.0000000000000000e+00  6.9356947612115483e-01 -1.2576704663345927e-03 0.0000000000000000e+00  6.9431155980865056e-01 -6.2008587685472504e-04 0.0000000000000000e+00  6.9452720877216700e-01 -8.8233021634836619e-06 0.0000000000000000e+00  1.3846088021868741e-03 -5.7047009479988853e-01 0.0000000000000000e+00  3.2180267076078750e-01 -7.3364330836792624e-01 0.0000000000000000e+00  6.4389195615818673e-01 -3.4244273035231376e-01 0.0000000000000000e+00  6.6982306124276858e-01 1.2747367017903815e-02 0.0000000000000000e+00  6.8392106740356851e-01 -3.5479790055182717e-02 0.0000000000000000e+00  6.9002324793378467e-01 -1.3445012573701823e-02 0.0000000000000000e+00  6.9294413400081201e-01 -7.8866001070449897e-03 0.0000000000000000e+00  6.9424143931581794e-01 -4.3427871779411487e-03 0.0000000000000000e+00  6.9487026339871050e-01 -2.0794314908874605e-03 0.0000000000000000e+00  6.9514610398330523e-01 -9.1773134213044797e-04 0.0000000000000000e+00  6.9521444530723220e-01 3.3319153922662506e-06 0.0000000000000000e+00  8.3831123023791285e-03 -8.5474603488549239e-01 0.0000000000000000e+00  3.1255516453664950e-01 -1.1211718864131555e+00 0.0000000000000000e+00  6.6750876810658932e-01 -5.1857823794096669e-01 0.0000000000000000e+00  6.9956816921832776e-01 3.7930434638322935e-02 0.0000000000000000e+00  7.0050304510222738e-01 -5.3501948486090696e-02 0.0000000000000000e+00  7.0021517016634505e-01 -1.0976574833472105e-02 0.0000000000000000e+00  6.9819736023732104e-01 -9.2131727609006345e-03 0.0000000000000000e+00  6.9713940788352069e-01 -4.1006778687754175e-03 0.0000000000000000e+00  6.9649865127642896e-01 -2.1300210662669270e-03 0.0000000000000000e+00  6.9617757047157758e-01 -8.7611005038043381e-04 0.0000000000000000e+00  6.9606855189788086e-01 2.3914972154261336e-05 0.0000000000000000e+00  4.5923362992179591e-02 -1.1573366731053516e+00 0.0000000000000000e+00  2.4671268244942038e-01 -1.4877770219490198e+00 0.0000000000000000e+00  7.5808777243415626e-01 -7.2148458370693513e-01 0.0000000000000000e+00  7.3079626885507121e-01 4.0768379515488180e-02 0.0000000000000000e+00  7.2628045638094341e-01 -3.8847714828681566e-02 0.0000000000000000e+00  7.0865793791663056e-01 -7.4851454267410526e-03 0.0000000000000000e+00  7.0297466948758125e-01 -5.7004086586098625e-03 0.0000000000000000e+00  6.9953424156153188e-01 -2.4894467097722442e-03 0.0000000000000000e+00  6.9781672348950297e-01 -1.2880241693218448e-03 0.0000000000000000e+00  6.9700767362262817e-01 -5.0956042498093992e-04 0.0000000000000000e+00  6.9676250693846675e-01 4.0749131790006268e-05 0.0000000000000000e+00  2.1522179756913673e-02 -1.3765180856175376e+00 0.0000000000000000e+00  -1.8396819208814710e-02 -1.5720246765600789e+00 0.0000000000000000e+00  5.1861730523724070e-01 -1.5750423981309680e+00 0.0000000000000000e+00  8.7489940016383150e-01 4.1716685849265794e-01 0.0000000000000000e+00  7.2106184152989994e-01 -9.5857496762339442e-02 0.0000000000000000e+00  7.1432522258159270e-01 2.2528072125079002e-02 0.0000000000000000e+00  7.0486862618317947e-01 -4.1587012817981090e-03 0.0000000000000000e+00  7.0042240430487068e-01 1.1293806723432045e-03 0.0000000000000000e+00  6.9833220935054230e-01 -9.3911165195963492e-05 0.0000000000000000e+00  6.9732326276900158e-01 9.7674918594194309e-05 0.0000000000000000e+00  6.9704546357848618e-01 4.9320490755497697e-05 0.0000000000000000e+00  </DataArray> 
</PointData> 
</Piece>
</UnstructuredGrid>
</VTKFile>