<?xml version="1.0"?>
<VTKFile type="UnstructuredGrid"  version="0.1"  >
<UnstructuredGrid>
<Piece  NumberOfPoints="121" NumberOfCells="200">
<Points>
<DataArray  type="Float64"  NumberOfComponents="3"  format="ascii">0 0 0  0.1 0 0  0.2 0 0  0.3 0 0  0.4 0 0  0.5 0 0  0.6 0 0  0.7 0 0  0.8 0 0  0.9 0 0  1 0 0  0 0.1 0  0.1 0.1 0  0.2 0.1 0  0.3 0.1 0  0.4 0.1 0  0.5 0.1 0  0.6 0.1 0  0.7 0.1 0  0.8 0.1 0  0.9 0.1 0  1 0.1 0  0 0.2 0  0.1 0.2 0  0.2 0.2 0  0.3 0.2 0  0.4 0.2 0  0.5 0.2 0  0.6 0.2 0  0.7 0.2 0  0.8 0.2 0  0.9 0.2 0  1 0.2 0  0 0.3 0  0.1 0.3 0  0.2 0.3 0  0.3 0.3 0  0.4 0.3 0  0.5 0.3 0  0.6 0.3 0  0.7 0.3 0  0.8 0.3 0  0.9 0.3 0  1 0.3 0  0 0.4 0  0.1 0.4 0  0.2 0.4 0  0.3 0.4 0  0.4 0.4 0  0.5 0.4 0  0.6 0.4 0  0.7 0.4 0  0.8 0.4 0  0.9 0.4 0  1 0.4 0  0 0.5 0  0.1 0.5 0  0.2 0.5 0  0.3 0.5 0  0.4 0.5 0  0.5 0.5 0  0.6 0.5 0  0.7 0.5 0  0.8 0.5 0  0.9 0.5 0  1 0.5 0  0 0.6 0  0.1 0.6 0  0.2 0.6 0  0.3 0.6 0  0.4 0.6 0  0.5 0.6 0  0.6 0.6 0  0.7 0.6 0  0.8 0.6 0  0.9 0.6 0  1 0.6 0  0 0.7 0  0.1 0.7 0  0.2 0.7 0  0.3 0.7 0  0.4 0.7 0  0.5 0.7 0  0.6 0.7 0  0.7 0.7 0  0.8 0.7 0  0.9 0.7 0  1 0.7 0  0 0.8 0  0.1 0.8 0  0.2 0.8 0  0.3 0.8 0  0.4 0.8 0  0.5 0.8 0  0.6 0.8 0  0.7 0.8 0  0.8 0.8 0  0.9 0.8 0  1 0.8 0  0 0.9 0  0.1 0.9 0  0.2 0.9 0  0.3 0.9 0  0.4 0.9 0  0.5 0.9 0  0.6 0.9 0  0.7 0.9 0  0.8 0.9 0  0.9 0.9 0  1 0.9 0  0 1 0  0.1 1 0  0.2 1 0  0.3 1 0  0.4 1 0  0.5 1 0  0.6 1 0  0.7 1 0  0.8 1 0  0.9 1 0  1 1 0  </DataArray>
</Points>
<Cells>
<DataArray  type="UInt32"  Name="connectivity"  format="ascii">0 1 12  0 11 12  1 2 13  1 12 13  2 3 14  2 13 14  3 4 15  3 14 15  4 5 16  4 15 16  5 6 17  5 16 17  6 7 18  6 17 18  7 8 19  7 18 19  8 9 20  8 19 20  9 10 21  9 20 21  11 12 23  11 22 23  12 13 24  12 23 24  13 14 25  13 24 25  14 15 26  14 25 26  15 16 27  15 26 27  16 17 28  16 27 28  17 18 29  17 28 29  18 19 30  18 29 30  19 20 31  19 30 31  20 21 32  20 31 32  22 23 34  22 33 34  23 24 35  23 34 35  24 25 36  24 35 36  25 26 37  25 36 37  26 27 38  26 37 38  27 28 39  27 38 39  28 29 40  28 39 40  29 30 41  29 40 41  30 31 42  30 41 42  31 32 43  31 42 43  33 34 45  33 44 45  34 35 46  34 45 46  35 36 47  35 46 47  36 37 48  36 47 48  37 38 49  37 48 49  38 39 50  38 49 50  39 40 51  39 50 51  40 41 52  40 51 52  41 42 53  41 52 53  42 43 54  42 53 54  44 45 56  44 55 56  45 46 57  45 56 57  46 47 58  46 57 58  47 48 59  47 58 59  48 49 60  48 59 60  49 50 61  49 60 61  50 51 62  50 61 62  51 52 63  51 62 63  52 53 64  52 63 64  53 54 65  53 64 65  55 56 67  55 66 67  56 57 68  56 67 68  57 58 69  57 68 69  58 59 70  58 69 70  59 60 71  59 70 71  60 61 72  60 71 72  61 62 73  61 72 73  62 63 74  62 73 74  63 64 75  63 74 75  64 65 76  64 75 76  66 67 78  66 77 78  67 68 79  67 78 79  68 69 80  68 79 80  69 70 81  69 80 81  70 71 82  70 81 82  71 72 83  71 82 83  72 73 84  72 83 84  73 74 85  73 84 85  74 75 86  74 85 86  75 76 87  75 86 87  77 78 89  77 88 89  78 79 90  78 89 90  79 80 91  79 90 91  80 81 92  80 91 92  81 82 93  81 92 93  82 83 94  82 93 94  83 84 95  83 94 95  84 85 96  84 95 96  85 86 97  85 96 97  86 87 98  86 97 98  88 89 100  88 99 100  89 90 101  89 100 101  90 91 102  90 101 102  91 92 103  91 102 103  92 93 104  92 103 104  93 94 105  93 104 105  94 95 106  94 105 106  95 96 107  95 106 107  96 97 108  96 107 108  97 98 109  97 108 109  99 100 111  99 110 111  100 101 112  100 111 112  101 102 113  101 112 113  102 103 114  102 113 114  103 104 115  103 114 115  104 105 116  104 115 116  105 106 117  105 116 117  106 107 118  106 117 118  107 108 119  107 118 119  108 109 120  108 119 120  </DataArray>
<DataArray  type="UInt32"  Name="offsets"  format="ascii">3 6 9 12 15 18 21 24 27 30 33 36 39 42 45 48 51 54 57 60 63 66 69 72 75 78 81 84 87 90 93 96 99 102 105 108 111 114 117 120 123 126 129 132 135 138 141 144 147 150 153 156 159 162 165 168 171 174 177 180 183 186 189 192 195 198 201 204 207 210 213 216 219 222 225 228 231 234 237 240 243 246 249 252 255 258 261 264 267 270 273 276 279 282 285 288 291 294 297 300 303 306 309 312 315 318 321 324 327 330 333 336 339 342 345 348 351 354 357 360 363 366 369 372 375 378 381 384 387 390 393 396 399 402 405 408 411 414 417 420 423 426 429 432 435 438 441 444 447 450 453 456 459 462 465 468 471 474 477 480 483 486 489 492 495 498 501 504 507 510 513 516 519 522 525 528 531 534 537 540 543 546 549 552 555 558 561 564 567 570 573 576 579 582 585 588 591 594 597 600 </DataArray>
<DataArray  type="UInt8"  Name="types"  format="ascii">5 5 5 5 5 5 5 5 5 5 5 5 5 5 5 5 5 5 5 5 5 5 5 5 5 5 5 5 5 5 5 5 5 5 5 5 5 5 5 5 5 5 5 5 5 5 5 5 5 5 5 5 5 5 5 5 5 5 5 5 5 5 5 5 5 5 5 5 5 5 5 5 5 5 5 5 5 5 5 5 5 5 5 5 5 5 5 5 5 5 5 5 5 5 5 5 5 5 5 5 5 5 5 5 5 5 5 5 5 5 5 5 5 5 5 5 5 5 5 5 5 5 5 5 5 5 5 5 5 5 5 5 5 5 5 5 5 5 5 5 5 5 5 5 5 5 5 5 5 5 5 5 5 5 5 5 5 5 5 5 5 5 5 5 5 5 5 5 5 5 5 5 5 5 5 5 5 5 5 5 5 5 5 5 5 5 5 5 5 5 5 5 5 5 5 5 5 5 5 5 </DataArray>
</Cells>
<PointData  Vectors="f_34"> 
<DataArray  type="Float64"  Name="f_34"  NumberOfComponents="3" format="ascii">1.4921510023286233e-02 -1.1907764814729536e+00 0.0000000000000000e+00  8.3509253467122790e-02 -2.0244008946135872e+00 0.0000000000000000e+00  -6.5827796151014739e-01 -9.3572986559979887e-01 0.0000000000000000e+00  -8.1796721959652652e-01 7.3519446484616030e-02 0.0000000000000000e+00  -7.2628492011696189e-01 -1.0647022590766820e-03 0.0000000000000000e+00  -7.1284903990223680e-01 -2.7589554467175891e-03 0.0000000000000000e+00  -7.0465844625837692e-01 1.7488247901570073e-04 0.0000000000000000e+00  -7.0033660577955403e-01 -2.1507023238787545e-04 0.0000000000000000e+00  -6.9828072811496067e-01 -8.3630029258099033e-05 0.0000000000000000e+00  -6.9731204469515740e-01 -5.6263728889941839e-05 0.0000000000000000e+00  -6.9699885771010395e-01 -2.1993293264698486e-05 0.0000000000000000e+00  1.8524213954917827e-02 -1.2033233070558005e+00 0.0000000000000000e+00  -2.6663033539282177e-01 -1.4423536820813831e+00 0.0000000000000000e+00  -7.4498098288917081e-01 -8.1006251517253858e-01 0.0000000000000000e+00  -7.7304868357618628e-01 1.7197410249085174e-01 0.0000000000000000e+00  -7.0770149642654701e-01 -7.0389516129519811e-02 0.0000000000000000e+00  -7.1123707431450034e-01 -5.3620446505257746e-03 0.0000000000000000e+00  -7.0219730829543459e-01 -5.9241336927048707e-03 0.0000000000000000e+00  -6.9938414622684242e-01 -2.9585557357275092e-03 0.0000000000000000e+00  -6.9774526770226142e-01 -1.3845750256571828e-03 0.0000000000000000e+00  -6.9697473644966212e-01 -6.0550457863421398e-04 0.0000000000000000e+00  -6.9676704899456077e-01 -3.8265131008321047e-05 0.0000000000000000e+00  1.2365425770514101e-03 -9.1218453339721384e-01 0.0000000000000000e+00  -3.2383975620647076e-01 -1.0681758795149323e+00 0.0000000000000000e+00  -6.7939570472046629e-01 -5.1896541335807889e-01 0.0000000000000000e+00  -6.8530669043850523e-01 8.9303269194862367e-02 0.0000000000000000e+00  -6.9584234504607456e-01 -8.4006366748763300e-02 0.0000000000000000e+00  -7.0107247046655030e-01 -9.3575484739522497e-04 0.0000000000000000e+00  -6.9688155840561394e-01 -1.1355517126232327e-02 0.0000000000000000e+00  -6.9700686281475721e-01 -3.8833944331755276e-03 0.0000000000000000e+00  -6.9632635515538255e-01 -2.1969075565675717e-03 0.0000000000000000e+00  -6.9612128977604326e-01 -9.0811920770052744e-04 0.0000000000000000e+00  -6.9606044323479110e-01 -4.6030927214762284e-06 0.0000000000000000e+00  -2.0463288442058123e-04 -6.1633737107517383e-01 0.0000000000000000e+00  -3.2245114243361844e-01 -6.9318594066581007e-01 0.0000000000000000e+00  -6.4488701077875477e-01 -3.3973202043439443e-01 0.0000000000000000e+00  -6.6964147860390422e-01 5.1327505638913466e-02 0.0000000000000000e+00  -6.8497500559859881e-01 -5.4999232349232922e-02 0.0000000000000000e+00  -6.8923175631127986e-01 -2.5423896819189661e-03 0.0000000000000000e+00  -6.9218153318451914e-01 -1.1517808592221930e-02 0.0000000000000000e+00  -6.9414913076940588e-01 -3.0990540150417720e-03 0.0000000000000000e+00  -6.9468901534571414e-01 -2.2839410508582810e-03 0.0000000000000000e+00  -6.9510518160818224e-01 -8.2506634804432031e-04 0.0000000000000000e+00  -6.9520364845567428e-01 1.2605968239049215e-05 0.0000000000000000e+00  -2.3021432136948922e-04 -3.1594418487848125e-01 0.0000000000000000e+00  -3.1724825920380662e-01 -3.3366385943454419e-01 0.0000000000000000e+00  -6.3045584799561516e-01 -1.6797727199075985e-01 0.0000000000000000e+00  -6.5586167073032076e-01 3.5068475654436930e-02 0.0000000000000000e+00  -6.7245706036609210e-01 -3.2974294749258053e-02 0.0000000000000000e+00  -6.8262323903500111e-01 -1.4852633974871089e-03 0.0000000000000000e+00  -6.8881138107588546e-01 -6.7564036743752234e-03 0.0000000000000000e+00  -6.9184234026664371e-01 -1.5376125200417267e-03 0.0000000000000000e+00  -6.9346466911279647e-01 -1.4822408641186951e-03 0.0000000000000000e+00  -6.9429280119729664e-01 -4.1895129254634705e-04 0.0000000000000000e+00  -6.9451546902433503e-01 1.0583515035216412e-05 0.0000000000000000e+00  -1.5528227813778358e-04 -1.9898805458259027e-02 0.0000000000000000e+00  -3.1480224476010615e-01 2.0238481921522614e-02 0.0000000000000000e+00  -6.2548921403158164e-01 6.7296769964560546e-04 0.0000000000000000e+00  -6.5169289773719286e-01 1.9096780239721257e-02 0.0000000000000000e+00  -6.6972414025403659e-01 -9.4438909906504592e-03 0.0000000000000000e+00  -6.8095665383562143e-01 4.4007050600961281e-03 0.0000000000000000e+00  -6.8744438726597967e-01 -1.1045038839904303e-03 0.0000000000000000e+00  -6.9106342955528210e-01 6.1268552308965489e-04 0.0000000000000000e+00  -6.9305367301889909e-01 -9.4368310086369547e-05 0.0000000000000000e+00  -6.9398778874290790e-01 1.2104381182667926e-04 0.0000000000000000e+00  -6.9426063986340569e-01 7.7874734836200586e-06 0.0000000000000000e+00  7.7318994260541383e-04 2.7681831910960009e-01 0.0000000000000000e+00  -3.1613260262815379e-01 3.7434657683137212e-01 0.0000000000000000e+00  -6.2991197916452402e-01 1.6904006967588650e-01 0.0000000000000000e+00  -6.5622084690643478e-01 4.1173794882632528e-03 0.0000000000000000e+00  -6.7319433499001868e-01 1.4441829712133623e-02 0.0000000000000000e+00  -6.8328781671613215e-01 9.8970883980736332e-03 0.0000000000000000e+00  -6.8891439827561696e-01 4.1293695358323194e-03 0.0000000000000000e+00  -6.9198443408574084e-01 2.9040794958082924e-03 0.0000000000000000e+00  -6.9356947612144093e-01 1.2576704663335740e-03 0.0000000000000000e+00  -6.9431155980894110e-01 6.2008587686057355e-04 0.0000000000000000e+00  -6.9452720877245933e-01 8.8233021627087911e-06 0.0000000000000000e+00  -1.3846088021853753e-03 5.7047009480012456e-01 0.0000000000000000e+00  -3.2180267076092317e-01 7.3364330836823255e-01 0.0000000000000000e+00  -6.4389195615845585e-01 3.4244273035245576e-01 0.0000000000000000e+00  -6.6982306124304836e-01 -1.2747367017909024e-02 0.0000000000000000e+00  -6.8392106740385394e-01 3.5479790055198059e-02 0.0000000000000000e+00  -6.9002324793407199e-01 1.3445012573708242e-02 0.0000000000000000e+00  -6.9294413400110133e-01 7.8866001070471946e-03 0.0000000000000000e+00  -6.9424143931610816e-01 4.3427871779427403e-03 0.0000000000000000e+00  -6.9487026339900004e-01 2.0794314908887824e-03 0.0000000000000000e+00  -6.9514610398359422e-01 9.1773134212859951e-04 0.0000000000000000e+00  -6.9521444530752941e-01 -3.3319153933261005e-06 0.0000000000000000e+00  -8.3831123023824991e-03 8.5474603488584988e-01 0.0000000000000000e+00  -3.1255516453678067e-01 1.1211718864136235e+00 0.0000000000000000e+00  -6.6750876810686777e-01 5.1857823794118418e-01 0.0000000000000000e+00  -6.9956816921862019e-01 -3.7930434638338832e-02 0.0000000000000000e+00  -7.0050304510251937e-01 5.3501948486113553e-02 0.0000000000000000e+00  -7.0021517016663637e-01 1.0976574833475949e-02 0.0000000000000000e+00  -6.9819736023761347e-01 9.2131727609068344e-03 0.0000000000000000e+00  -6.9713940788381157e-01 4.1006778687782087e-03 0.0000000000000000e+00  -6.9649865127671839e-01 2.1300210662672323e-03 0.0000000000000000e+00  -6.9617757047186812e-01 8.7611005037860009e-04 0.0000000000000000e+00  -6.9606855189817340e-01 -2.3914972155127563e-05 0.0000000000000000e+00  -4.5923362992198534e-02 1.1573366731058337e+00 0.0000000000000000e+00  -2.4671268244952377e-01 1.4877770219496422e+00 0.0000000000000000e+00  -7.5808777243447145e-01 7.2148458370723623e-01 0.0000000000000000e+00  -7.3079626885537585e-01 -4.0768379515505285e-02 0.0000000000000000e+00  -7.2628045638124672e-01 3.8847714828698018e-02 0.0000000000000000e+00  -7.0865793791692833e-01 7.4851454267452463e-03 0.0000000000000000e+00  -7.0297466948787446e-01 5.7004086586107004e-03 0.0000000000000000e+00  -6.9953424156182398e-01 2.4894467097724485e-03 0.0000000000000000e+00  -6.9781672348979595e-01 1.2880241693217398e-03 0.0000000000000000e+00  -6.9700767362292004e-01 5.0956042497977917e-04 0.0000000000000000e+00  -6.9676250693875486e-01 -4.0749131791187798e-05 0.0000000000000000e+00  -2.1522179756923620e-02 1.3765180856181138e+00 0.0000000000000000e+00  1.8396819208822451e-02 1.5720246765607357e+00 0.0000000000000000e+00  -5.1861730523745708e-01 1.5750423981316259e+00 0.0000000000000000e+00  -8.7489940016419820e-01 -4.1716685849283142e-01 0.0000000000000000e+00  -7.2106184153020025e-01 9.5857496762379008e-02 0.0000000000000000e+00  -7.1432522258189002e-01 -2.2528072125087093e-02 0.0000000000000000e+00  -7.0486862618347601e-01 4.1587012818022377e-03 0.0000000000000000e+00  -7.0042240430516467e-01 -1.1293806723425535e-03 0.0000000000000000e+00  -6.9833220935083684e-01 9.3911165195467049e-05 0.0000000000000000e+00  -6.9732326276929091e-01 -9.7674918592435990e-05 0.0000000000000000e+00  -6.9704546357877950e-01 -4.9320490753026082e-05 0.0000000000000000e+00  </DataArray> 
</PointData> 
</Piece>
</UnstructuredGrid>
</VTKFile>