<?xml version="1.0"?>
<VTKFile type="UnstructuredGrid"  version="0.1"  >
<UnstructuredGrid>
<Piece  NumberOfPoints="121" NumberOfCells="200">
<Points>
<DataArray  type="Float64"  NumberOfComponents="3"  format="ascii">0 0 0  0.1 0 0  0.2 0 0  0.3 0 0  0.4 0 0  0.5 0 0  0.6 0 0  0.7 0 0  0.8 0 0  0.9 0 0  1 0 0  0 0.1 0  0.1 0.1 0  0.2 0.1 0  0.3 0.1 0  0.4 0.1 0  0.5 0.1 0  0.6 0.1 0  0.7 0.1 0  0.8 0.1 0  0.9 0.1 0  1 0.1 0  0 0.2 0  0.1 0.2 0  0.2 0.2 0  0.3 0.2 0  0.4 0.2 0  0.5 0.2 0  0.6 0.2 0  0.7 0.2 0  0.8 0.2 0  0.9 0.2 0  1 0.2 0  0 0.3 0  0.1 0.3 0  0.2 0.3 0  0.3 0.3 0  0.4 0.3 0  0.5 0.3 0  0.6 0.3 0  0.7 0.3 0  0.8 0.3 0  0.9 0.3 0  1 0.3 0  0 0.4 0  0.1 0.4 0  0.2 0.4 0  0.3 0.4 0  0.4 0.4 0  0.5 0.4 0  0.6 0.4 0  0.7 0.4 0  0.8 0.4 0  0.9 0.4 0  1 0.4 0  0 0.5 0  0.1 0.5 0  0.2 0.5 0  0.3 0.5 0  0.4 0.5 0  0.5 0.5 0  0.6 0.5 0  0.7 0.5 0  0.8 0.5 0  0.9 0.5 0  1 0.5 0  0 0.6 0  0.1 0.6 0  0.2 0.6 0  0.3 0.6 0  0.4 0.6 0  0.5 0.6 0  0.6 0.6 0  0.7 0.6 0  0.8 0.6 0  0.9 0.6 0  1 0.6 0  0 0.7 0  0.1 0.7 0  0.2 0.7 0  0.3 0.7 0  0.4 0.7 0  0.5 0.7 0  0.6 0.7 0  0.7 0.7 0  0.8 0.7 0  0.9 0.7 0  1 0.7 0  0 0.8 0  0.1 0.8 0  0.2 0.8 0  0.3 0.8 0  0.4 0.8 0  0.5 0.8 0  0.6 0.8 0  0.7 0.8 0  0.8 0.8 0  0.9 0.8 0  1 0.8 0  0 0.9 0  0.1 0.9 0  0.2 0.9 0  0.3 0.9 0  0.4 0.9 0  0.5 0.9 0  0.6 0.9 0  0.7 0.9 0  0.8 0.9 0  0.9 0.9 0  1 0.9 0  0 1 0  0.1 1 0  0.2 1 0  0.3 1 0  0.4 1 0  0.5 1 0  0.6 1 0  0.7 1 0  0.8 1 0  0.9 1 0  1 1 0  </DataArray>
</Points>
<Cells>
<DataArray  type="UInt32"  Name="connectivity"  format="ascii">0 1 12  0 11 12  1 2 13  1 12 13  2 3 14  2 13 14  3 4 15  3 14 15  4 5 16  4 15 16  5 6 17  5 16 17  6 7 18  6 17 18  7 8 19  7 18 19  8 9 20  8 19 20  9 10 21  9 20 21  11 12 23  11 22 23  12 13 24  12 23 24  13 14 25  13 24 25  14 15 26  14 25 26  15 16 27  15 26 27  16 17 28  16 27 28  17 18 29  17 28 29  18 19 30  18 29 30  19 20 31  19 30 31  20 21 32  20 31 32  22 23 34  22 33 34  23 24 35  23 34 35  24 25 36  24 35 36  25 26 37  25 36 37  26 27 38  26 37 38  27 28 39  27 38 39  28 29 40  28 39 40  29 30 41  29 40 41  30 31 42  30 41 42  31 32 43  31 42 43  33 34 45  33 44 45  34 35 46  34 45 46  35 36 47  35 46 47  36 37 48  36 47 48  37 38 49  37 48 49  38 39 50  38 49 50  39 40 51  39 50 51  40 41 52  40 51 52  41 42 53  41 52 53  42 43 54  42 53 54  44 45 56  44 55 56  45 46 57  45 56 57  46 47 58  46 57 58  47 48 59  47 58 59  48 49 60  48 59 60  49 50 61  49 60 61  50 51 62  50 61 62  51 52 63  51 62 63  52 53 64  52 63 64  53 54 65  53 64 65  55 56 67  55 66 67  56 57 68  56 67 68  57 58 69  57 68 69  58 59 70  58 69 70  59 60 71  59 70 71  60 61 72  60 71 72  61 62 73  61 72 73  62 63 74  62 73 74  63 64 75  63 74 75  64 65 76  64 75 76  66 67 78  66 77 78  67 68 79  67 78 79  68 69 80  68 79 80  69 70 81  69 80 81  70 71 82  70 81 82  71 72 83  71 82 83  72 73 84  72 83 84  73 74 85  73 84 85  74 75 86  74 85 86  75 76 87  75 86 87  77 78 89  77 88 89  78 79 90  78 89 90  79 80 91  79 90 91  80 81 92  80 91 92  81 82 93  81 92 93  82 83 94  82 93 94  83 84 95  83 94 95  84 85 96  84 95 96  85 86 97  85 96 97  86 87 98  86 97 98  88 89 100  88 99 100  89 90 101  89 100 101  90 91 102  90 101 102  91 92 103  91 102 103  92 93 104  92 103 104  93 94 105  93 104 105  94 95 106  94 105 106  95 96 107  95 106 107  96 97 108  96 107 108  97 98 109  97 108 109  99 100 111  99 110 111  100 101 112  100 111 112  101 102 113  101 112 113  102 103 114  102 113 114  103 104 115  103 114 115  104 105 116  104 115 116  105 106 117  105 116 117  106 107 118  106 117 118  107 108 119  107 118 119  108 109 120  108 119 120  </DataArray>
<DataArray  type="UInt32"  Name="offsets"  format="ascii">3 6 9 12 15 18 21 24 27 30 33 36 39 42 45 48 51 54 57 60 63 66 69 72 75 78 81 84 87 90 93 96 99 102 105 108 111 114 117 120 123 126 129 132 135 138 141 144 147 150 153 156 159 162 165 168 171 174 177 180 183 186 189 192 195 198 201 204 207 210 213 216 219 222 225 228 231 234 237 240 243 246 249 252 255 258 261 264 267 270 273 276 279 282 285 288 291 294 297 300 303 306 309 312 315 318 321 324 327 330 333 336 339 342 345 348 351 354 357 360 363 366 369 372 375 378 381 384 387 390 393 396 399 402 405 408 411 414 417 420 423 426 429 432 435 438 441 444 447 450 453 456 459 462 465 468 471 474 477 480 483 486 489 492 495 498 501 504 507 510 513 516 519 522 525 528 531 534 537 540 543 546 549 552 555 558 561 564 567 570 573 576 579 582 585 588 591 594 597 600 </DataArray>
<DataArray  type="UInt8"  Name="types"  format="ascii">5 5 5 5 5 5 5 5 5 5 5 5 5 5 5 5 5 5 5 5 5 5 5 5 5 5 5 5 5 5 5 5 5 5 5 5 5 5 5 5 5 5 5 5 5 5 5 5 5 5 5 5 5 5 5 5 5 5 5 5 5 5 5 5 5 5 5 5 5 5 5 5 5 5 5 5 5 5 5 5 5 5 5 5 5 5 5 5 5 5 5 5 5 5 5 5 5 5 5 5 5 5 5 5 5 5 5 5 5 5 5 5 5 5 5 5 5 5 5 5 5 5 5 5 5 5 5 5 5 5 5 5 5 5 5 5 5 5 5 5 5 5 5 5 5 5 5 5 5 5 5 5 5 5 5 5 5 5 5 5 5 5 5 5 5 5 5 5 5 5 5 5 5 5 5 5 5 5 5 5 5 5 5 5 5 5 5 5 5 5 5 5 5 5 5 5 5 5 5 5 </DataArray>
</Cells>
<PointData  Vectors="f_34"> 
<DataArray  type="Float64"  Name="f_34"  NumberOfComponents="3" format="ascii">4.8919763534433764e-15 -3.9039282086807808e-13 0.0000000000000000e+00  2.7378280925812775e-14 -6.6369431048761329e-13 0.0000000000000000e+00  -2.1581463381889198e-13 -3.0677648365220042e-13 0.0000000000000000e+00  -2.6816832143082501e-13 2.4103149960004557e-14 0.0000000000000000e+00  -2.3811052966689590e-13 -3.4905973100144767e-16 0.0000000000000000e+00  -2.3370561299321024e-13 -9.0451601644107540e-16 0.0000000000000000e+00  -2.3102034921200556e-13 5.7334743644876009e-17 0.0000000000000000e+00  -2.2960344560152906e-13 -7.0510188950070140e-17 0.0000000000000000e+00  -2.2892943171787614e-13 -2.7417876938492999e-17 0.0000000000000000e+00  -2.2861185150137959e-13 -1.8445910022378890e-17 0.0000000000000000e+00  -2.2850917400273959e-13 -7.2104411939218628e-18 0.0000000000000000e+00  6.0731130088147618e-15 -3.9450626340615043e-13 0.0000000000000000e+00  -8.7414028058606128e-14 -4.7287171975440079e-13 0.0000000000000000e+00  -2.4423998284163430e-13 -2.6557678565041464e-13 0.0000000000000000e+00  -2.5344190193977712e-13 5.6381240335392285e-14 0.0000000000000000e+00  -2.3201800490782965e-13 -2.3077010831915946e-14 0.0000000000000000e+00  -2.3317713447290891e-13 -1.7579317103662094e-15 0.0000000000000000e+00  -2.3021347184513847e-13 -1.9422110693972273e-15 0.0000000000000000e+00  -2.2929118433559725e-13 -9.6995442665940195e-16 0.0000000000000000e+00  -2.2875388248237469e-13 -4.5392914487257463e-16 0.0000000000000000e+00  -2.2850126591331118e-13 -1.9851302421496686e-16 0.0000000000000000e+00  -2.2843317614775176e-13 -1.2545118807654784e-17 0.0000000000000000e+00  4.0539711044749448e-16 -2.9905721072410850e-13 0.0000000000000000e+00  -1.0616998059811445e-13 -3.5019854798546890e-13 0.0000000000000000e+00  -2.2273802831862781e-13 -1.7014139496878380e-13 0.0000000000000000e+00  -2.2467592886039954e-13 2.9277833175373594e-14 0.0000000000000000e+00  -2.2813001448094637e-13 -2.7541258159013541e-14 0.0000000000000000e+00  -2.2984469683163259e-13 -3.0678467386548729e-16 0.0000000000000000e+00  -2.2847071774577108e-13 -3.7228753106060995e-15 0.0000000000000000e+00  -2.2851179845446349e-13 -1.2731602705448198e-15 0.0000000000000000e+00  -2.2828869587484436e-13 -7.2025014898938121e-16 0.0000000000000000e+00  -2.2822146574967158e-13 -2.9772440478451257e-16 0.0000000000000000e+00  -2.2820151737711858e-13 -1.5091113907351592e-18 0.0000000000000000e+00  -6.7088332893862129e-17 -2.0206452566380877e-13 0.0000000000000000e+00  -1.0571472736099198e-13 -2.2725911955187048e-13 0.0000000000000000e+00  -2.1142444715374443e-13 -1.1138021606921250e-13 0.0000000000000000e+00  -2.1954013189702600e-13 1.6827582696049990e-14 0.0000000000000000e+00  -2.2456718689051298e-13 -1.8031348281112133e-14 0.0000000000000000e+00  -2.2596275099873305e-13 -8.3351552126913471e-16 0.0000000000000000e+00  -2.2692982729927468e-13 -3.7760821249798099e-15 0.0000000000000000e+00  -2.2757489879963462e-13 -1.0160164042356959e-15 0.0000000000000000e+00  -2.2775189848510726e-13 -7.4878384265512181e-16 0.0000000000000000e+00  -2.2788833745890487e-13 -2.7049575132638958e-16 0.0000000000000000e+00  -2.2792061954622551e-13 4.1328322965294430e-18 0.0000000000000000e+00  -7.5475137208850886e-17 -1.0358143907831040e-13 0.0000000000000000e+00  -1.0400897628819537e-13 -1.0939078604009201e-13 0.0000000000000000e+00  -2.0669322980525691e-13 -5.5070890359776288e-14 0.0000000000000000e+00  -2.1502245947866070e-13 1.1497104072247112e-14 0.0000000000000000e+00  -2.2046321269650999e-13 -1.0810532575664129e-14 0.0000000000000000e+00  -2.2379616663854237e-13 -4.8693955288732643e-16 0.0000000000000000e+00  -2.2582493212464382e-13 -2.2150685123540802e-15 0.0000000000000000e+00  -2.2681862382650824e-13 -5.0410206990251362e-16 0.0000000000000000e+00  -2.2735049991281017e-13 -4.8594862356884646e-16 0.0000000000000000e+00  -2.2762200075746882e-13 -1.3735203831067597e-16 0.0000000000000000e+00  -2.2769500179709635e-13 3.4697765312475875e-18 0.0000000000000000e+00  -5.0908871258387376e-17 -6.5237690831323167e-15 0.0000000000000000e+00  -1.0320705712585315e-13 6.6351310849350184e-15 0.0000000000000000e+00  -2.0506493240972856e-13 2.2063062439123575e-16 0.0000000000000000e+00  -2.1365573862578257e-13 6.2608273032573835e-15 0.0000000000000000e+00  -2.1956723229351107e-13 -3.0961538972035280e-15 0.0000000000000000e+00  -2.2324978122757263e-13 1.4427591482945710e-15 0.0000000000000000e+00  -2.2537676693339063e-13 -3.6210858514519137e-16 0.0000000000000000e+00  -2.2656326007475222e-13 2.0086727726417572e-16 0.0000000000000000e+00  -2.2721575596467284e-13 -3.0938393013256790e-17 0.0000000000000000e+00  -2.2752200325640799e-13 3.9683883485564643e-17 0.0000000000000000e+00  -2.2761145675189129e-13 2.5531019364391597e-18 0.0000000000000000e+00  2.5348821332564325e-16 9.0754130726095452e-14 0.0000000000000000e+00  -1.0364321132351463e-13 1.2272850395124884e-13 0.0000000000000000e+00  -2.0651492389272294e-13 5.5419325681403737e-14 0.0000000000000000e+00  -2.1514021440812332e-13 1.3498716325158296e-15 0.0000000000000000e+00  -2.2070492617059024e-13 4.7347144720580671e-15 0.0000000000000000e+00  -2.2401404661825211e-13 3.2447334308495941e-15 0.0000000000000000e+00  -2.2585870603253242e-13 1.3538025369005339e-15 0.0000000000000000e+00  -2.2686520889745020e-13 9.5209454001838620e-16 0.0000000000000000e+00  -2.2738486060466806e-13 4.1232383130927857e-16 0.0000000000000000e+00  -2.2762815071711920e-13 2.0329346305793421e-16 0.0000000000000000e+00  -2.2769885064149419e-13 2.8926955433293796e-18 0.0000000000000000e+00  -4.5394021841569494e-16 1.8702706426853467e-13 0.0000000000000000e+00  -1.0550212769220832e-13 2.4052295718049843e-13 0.0000000000000000e+00  -2.1109822121110927e-13 1.1226891492070364e-13 0.0000000000000000e+00  -2.1959966326989018e-13 -4.1791895004564129e-15 0.0000000000000000e+00  -2.2422165612863737e-13 1.1631952376421334e-14 0.0000000000000000e+00  -2.2622223936798001e-13 4.4079106926634162e-15 0.0000000000000000e+00  -2.2717984389652414e-13 2.5856003294928819e-15 0.0000000000000000e+00  -2.2760516190484225e-13 1.4237709286384427e-15 0.0000000000000000e+00  -2.2781132016490977e-13 6.8173594134728770e-16 0.0000000000000000e+00  -2.2790175374804287e-13 3.0087571683484516e-16 0.0000000000000000e+00  -2.2792415926465104e-13 -1.0923593714122497e-18 0.0000000000000000e+00  -2.7483804981879646e-15 2.8022615568635594e-13 0.0000000000000000e+00  -1.0247035800494321e-13 3.6757314426766347e-13 0.0000000000000000e+00  -2.1884092857886559e-13 1.7001446056461638e-13 0.0000000000000000e+00  -2.2935151577141455e-13 -1.2435389517348123e-14 0.0000000000000000e+00  -2.2965801227949600e-13 1.7540467851360510e-14 0.0000000000000000e+00  -2.2956363326712497e-13 3.5986401137262370e-15 0.0000000000000000e+00  -2.2890209978672555e-13 3.0205135550092896e-15 0.0000000000000000e+00  -2.2855525299375316e-13 1.3443960521315217e-15 0.0000000000000000e+00  -2.2834518268818014e-13 6.9832159561914959e-16 0.0000000000000000e+00  -2.2823991722225794e-13 2.8723028988146510e-16 0.0000000000000000e+00  -2.2820417578028498e-13 -7.8404583787098550e-18 0.0000000000000000e+00  -1.5055849272482071e-14 3.7942967092277511e-13 0.0000000000000000e+00  -8.0884079878922071e-14 4.8776363780982267e-13 0.0000000000000000e+00  -2.4853700803714876e-13 2.3653675247086777e-13 0.0000000000000000e+00  -2.3958956304327777e-13 -1.3365802003068848e-14 0.0000000000000000e+00  -2.3810906624331897e-13 1.2736117325305709e-14 0.0000000000000000e+00  -2.3233157164116207e-13 2.4539845077723192e-15 0.0000000000000000e+00  -2.3046832759134372e-13 1.8688634273189035e-15 0.0000000000000000e+00  -2.2934039268169259e-13 8.1615831228686501e-16 0.0000000000000000e+00  -2.2877730906737678e-13 4.2227521002596102e-16 0.0000000000000000e+00  -2.2851206427570740e-13 1.6705799518729408e-16 0.0000000000000000e+00  -2.2843168704714732e-13 -1.3359491688515643e-17 0.0000000000000000e+00  -7.0559879181873752e-15 4.5128769906141857e-13 0.0000000000000000e+00  6.0313469888557362e-15 5.1538400153623854e-13 0.0000000000000000e+00  -1.7002726867111888e-13 5.1637335332054367e-13 0.0000000000000000e+00  -2.8683338151203519e-13 -1.3676701647503095e-13 0.0000000000000000e+00  -2.3639815760141776e-13 3.1426618802654954e-14 0.0000000000000000e+00  -2.3418957545752972e-13 -7.3857669868939729e-15 0.0000000000000000e+00  -2.3108925612705155e-13 1.3634188697964812e-15 0.0000000000000000e+00  -2.2963157441408148e-13 -3.7026437234024933e-16 0.0000000000000000e+00  -2.2894630970061067e-13 3.0788519308048573e-17 0.0000000000000000e+00  -2.2861552931638053e-13 -3.2022455591247602e-17 0.0000000000000000e+00  -2.2852445360963784e-13 -1.6169588342218153e-17 0.0000000000000000e+00  </DataArray> 
</PointData> 
</Piece>
</UnstructuredGrid>
</VTKFile>