<?xml version="1.0"?>
<VTKFile type="UnstructuredGrid"  version="0.1"  >
<UnstructuredGrid>
<Piece  NumberOfPoints="121" NumberOfCells="200">
<Points>
<DataArray  type="Float64"  NumberOfComponents="3"  format="ascii">0 0 0  0.1 0 0  0.2 0 0  0.3 0 0  0.4 0 0  0.5 0 0  0.6 0 0  0.7 0 0  0.8 0 0  0.9 0 0  1 0 0  0 0.1 0  0.1 0.1 0  0.2 0.1 0  0.3 0.1 0  0.4 0.1 0  0.5 0.1 0  0.6 0.1 0  0.7 0.1 0  0.8 0.1 0  0.9 0.1 0  1 0.1 0  0 0.2 0  0.1 0.2 0  0.2 0.2 0  0.3 0.2 0  0.4 0.2 0  0.5 0.2 0  0.6 0.2 0  0.7 0.2 0  0.8 0.2 0  0.9 0.2 0  1 0.2 0  0 0.3 0  0.1 0.3 0  0.2 0.3 0  0.3 0.3 0  0.4 0.3 0  0.5 0.3 0  0.6 0.3 0  0.7 0.3 0  0.8 0.3 0  0.9 0.3 0  1 0.3 0  0 0.4 0  0.1 0.4 0  0.2 0.4 0  0.3 0.4 0  0.4 0.4 0  0.5 0.4 0  0.6 0.4 0  0.7 0.4 0  0.8 0.4 0  0.9 0.4 0  1 0.4 0  0 0.5 0  0.1 0.5 0  0.2 0.5 0  0.3 0.5 0  0.4 0.5 0  0.5 0.5 0  0.6 0.5 0  0.7 0.5 0  0.8 0.5 0  0.9 0.5 0  1 0.5 0  0 0.6 0  0.1 0.6 0  0.2 0.6 0  0.3 0.6 0  0.4 0.6 0  0.5 0.6 0  0.6 0.6 0  0.7 0.6 0  0.8 0.6 0  0.9 0.6 0  1 0.6 0  0 0.7 0  0.1 0.7 0  0.2 0.7 0  0.3 0.7 0  0.4 0.7 0  0.5 0.7 0  0.6 0.7 0  0.7 0.7 0  0.8 0.7 0  0.9 0.7 0  1 0.7 0  0 0.8 0  0.1 0.8 0  0.2 0.8 0  0.3 0.8 0  0.4 0.8 0  0.5 0.8 0  0.6 0.8 0  0.7 0.8 0  0.8 0.8 0  0.9 0.8 0  1 0.8 0  0 0.9 0  0.1 0.9 0  0.2 0.9 0  0.3 0.9 0  0.4 0.9 0  0.5 0.9 0  0.6 0.9 0  0.7 0.9 0  0.8 0.9 0  0.9 0.9 0  1 0.9 0  0 1 0  0.1 1 0  0.2 1 0  0.3 1 0  0.4 1 0  0.5 1 0  0.6 1 0  0.7 1 0  0.8 1 0  0.9 1 0  1 1 0  </DataArray>
</Points>
<Cells>
<DataArray  type="UInt32"  Name="connectivity"  format="ascii">0 1 12  0 11 12  1 2 13  1 12 13  2 3 14  2 13 14  3 4 15  3 14 15  4 5 16  4 15 16  5 6 17  5 16 17  6 7 18  6 17 18  7 8 19  7 18 19  8 9 20  8 19 20  9 10 21  9 20 21  11 12 23  11 22 23  12 13 24  12 23 24  13 14 25  13 24 25  14 15 26  14 25 26  15 16 27  15 26 27  16 17 28  16 27 28  17 18 29  17 28 29  18 19 30  18 29 30  19 20 31  19 30 31  20 21 32  20 31 32  22 23 34  22 33 34  23 24 35  23 34 35  24 25 36  24 35 36  25 26 37  25 36 37  26 27 38  26 37 38  27 28 39  27 38 39  28 29 40  28 39 40  29 30 41  29 40 41  30 31 42  30 41 42  31 32 43  31 42 43  33 34 45  33 44 45  34 35 46  34 45 46  35 36 47  35 46 47  36 37 48  36 47 48  37 38 49  37 48 49  38 39 50  38 49 50  39 40 51  39 50 51  40 41 52  40 51 52  41 42 53  41 52 53  42 43 54  42 53 54  44 45 56  44 55 56  45 46 57  45 56 57  46 47 58  46 57 58  47 48 59  47 58 59  48 49 60  48 59 60  49 50 61  49 60 61  50 51 62  50 61 62  51 52 63  51 62 63  52 53 64  52 63 64  53 54 65  53 64 65  55 56 67  55 66 67  56 57 68  56 67 68  57 58 69  57 68 69  58 59 70  58 69 70  59 60 71  59 70 71  60 61 72  60 71 72  61 62 73  61 72 73  62 63 74  62 73 74  63 64 75  63 74 75  64 65 76  64 75 76  66 67 78  66 77 78  67 68 79  67 78 79  68 69 80  68 79 80  69 70 81  69 80 81  70 71 82  70 81 82  71 72 83  71 82 83  72 73 84  72 83 84  73 74 85  73 84 85  74 75 86  74 85 86  75 76 87  75 86 87  77 78 89  77 88 89  78 79 90  78 89 90  79 80 91  79 90 91  80 81 92  80 91 92  81 82 93  81 92 93  82 83 94  82 93 94  83 84 95  83 94 95  84 85 96  84 95 96  85 86 97  85 96 97  86 87 98  86 97 98  88 89 100  88 99 100  89 90 101  89 100 101  90 91 102  90 101 102  91 92 103  91 102 103  92 93 104  92 103 104  93 94 105  93 104 105  94 95 106  94 105 106  95 96 107  95 106 107  96 97 108  96 107 108  97 98 109  97 108 109  99 100 111  99 110 111  100 101 112  100 111 112  101 102 113  101 112 113  102 103 114  102 113 114  103 104 115  103 114 115  104 105 116  104 115 116  105 106 117  105 116 117  106 107 118  106 117 118  107 108 119  107 118 119  108 109 120  108 119 120  </DataArray>
<DataArray  type="UInt32"  Name="offsets"  format="ascii">3 6 9 12 15 18 21 24 27 30 33 36 39 42 45 48 51 54 57 60 63 66 69 72 75 78 81 84 87 90 93 96 99 102 105 108 111 114 117 120 123 126 129 132 135 138 141 144 147 150 153 156 159 162 165 168 171 174 177 180 183 186 189 192 195 198 201 204 207 210 213 216 219 222 225 228 231 234 237 240 243 246 249 252 255 258 261 264 267 270 273 276 279 282 285 288 291 294 297 300 303 306 309 312 315 318 321 324 327 330 333 336 339 342 345 348 351 354 357 360 363 366 369 372 375 378 381 384 387 390 393 396 399 402 405 408 411 414 417 420 423 426 429 432 435 438 441 444 447 450 453 456 459 462 465 468 471 474 477 480 483 486 489 492 495 498 501 504 507 510 513 516 519 522 525 528 531 534 537 540 543 546 549 552 555 558 561 564 567 570 573 576 579 582 585 588 591 594 597 600 </DataArray>
<DataArray  type="UInt8"  Name="types"  format="ascii">5 5 5 5 5 5 5 5 5 5 5 5 5 5 5 5 5 5 5 5 5 5 5 5 5 5 5 5 5 5 5 5 5 5 5 5 5 5 5 5 5 5 5 5 5 5 5 5 5 5 5 5 5 5 5 5 5 5 5 5 5 5 5 5 5 5 5 5 5 5 5 5 5 5 5 5 5 5 5 5 5 5 5 5 5 5 5 5 5 5 5 5 5 5 5 5 5 5 5 5 5 5 5 5 5 5 5 5 5 5 5 5 5 5 5 5 5 5 5 5 5 5 5 5 5 5 5 5 5 5 5 5 5 5 5 5 5 5 5 5 5 5 5 5 5 5 5 5 5 5 5 5 5 5 5 5 5 5 5 5 5 5 5 5 5 5 5 5 5 5 5 5 5 5 5 5 5 5 5 5 5 5 5 5 5 5 5 5 5 5 5 5 5 5 5 5 5 5 5 5 </DataArray>
</Cells>
<PointData  Vectors="f_34"> 
<DataArray  type="Float64"  Name="f_34"  NumberOfComponents="3" format="ascii">-2.4143510381139776e-02 1.9267168200264313e+00 0.0000000000000000e+00  -1.3512081048487753e-01 3.2755494543390897e+00 0.0000000000000000e+00  1.0651161157679605e+00 1.5140427268282035e+00 0.0000000000000000e+00  1.3234987629898678e+00 -1.1895696324613769e-01 0.0000000000000000e+00  1.1751536862652481e+00 1.7227244430835201e-03 0.0000000000000000e+00  1.1534139754090591e+00 4.4640836862343833e-03 0.0000000000000000e+00  1.1401613165052613e+00 -2.8296579508470552e-04 0.0000000000000000e+00  1.1331684317165736e+00 3.4799094597101583e-04 0.0000000000000000e+00  1.1298419517785536e+00 1.3531622981903264e-04 0.0000000000000000e+00  1.1282745890809771e+00 9.1036625675624565e-05 0.0000000000000000e+00  1.1277678418943198e+00 3.5585896029059102e-05 0.0000000000000000e+00  -2.9972807793921207e-02 1.9470180102703869e+00 0.0000000000000000e+00  4.3141694509718725e-01 2.3337772814052462e+00 0.0000000000000000e+00  1.2054045512864704e+00 1.3107086825608376e+00 0.0000000000000000e+00  1.2508190449840999e+00 -2.7825994301483808e-01 0.0000000000000000e+00  1.1450850751068313e+00 1.1389262954917337e-01 0.0000000000000000e+00  1.1508057602994053e+00 8.6759704937441704e-03 0.0000000000000000e+00  1.1361791116302198e+00 9.5854496686911001e-03 0.0000000000000000e+00  1.1316273197873774e+00 4.7870437380159196e-03 0.0000000000000000e+00  1.1289755586311816e+00 2.2402894514850420e-03 0.0000000000000000e+00  1.1277288128750742e+00 9.7972698857646851e-04 0.0000000000000000e+00  1.1273927675136814e+00 6.1914282553005086e-05 0.0000000000000000e+00  -2.0007679182035081e-03 1.4759455790480267e+00 0.0000000000000000e+00  5.2398373245032637e-01 1.7283448790172373e+00 0.0000000000000000e+00  1.0992853420479349e+00 8.3970367779865485e-01 0.0000000000000000e+00  1.1088495178467324e+00 -1.4449572486370596e-01 0.0000000000000000e+00  1.1258965650955057e+00 1.3592515667082836e-01 0.0000000000000000e+00  1.1343590857912538e+00 1.5140831482202055e-03 0.0000000000000000e+00  1.1275780476327995e+00 1.8373612670067725e-02 0.0000000000000000e+00  1.1277807944257341e+00 6.2834641845998596e-03 0.0000000000000000e+00  1.1266797099032584e+00 3.5546710966641091e-03 0.0000000000000000e+00  1.1263479071495741e+00 1.4693677438939292e-03 0.0000000000000000e+00  1.1262494553777338e+00 7.4479604752293430e-06 0.0000000000000000e+00  3.3110296220386894e-04 9.9725481493596779e-01 0.0000000000000000e+00  5.2173690816860718e-01 1.1215984125203751e+00 0.0000000000000000e+00  1.0434491023429047e+00 5.4969795612928996e-01 0.0000000000000000e+00  1.0835026726573931e+00 -8.3049648681479959e-02 0.0000000000000000e+00  1.1083128405022105e+00 8.8990627296175420e-02 0.0000000000000000e+00  1.1152004078369608e+00 4.1136729179915539e-03 0.0000000000000000e+00  1.1199732470770902e+00 1.8636205778124762e-02 0.0000000000000000e+00  1.1231568868456177e+00 5.0143747293042405e-03 0.0000000000000000e+00  1.1240304384400859e+00 3.6954942485875912e-03 0.0000000000000000e+00  1.1247038095977318e+00 1.3349853941133042e-03 0.0000000000000000e+00  1.1248631323037315e+00 -2.0396885066324974e-05 0.0000000000000000e+00  3.7249459667717725e-04 5.1120842968104607e-01 0.0000000000000000e+00  5.1331846626327871e-01 5.3987946538232867e-01 0.0000000000000000e+00  1.0200989904626081e+00 2.7179293541842076e-01 0.0000000000000000e+00  1.0612064751594998e+00 -5.6741985542501622e-02 0.0000000000000000e+00  1.0880583796467143e+00 5.3353529659332634e-02 0.0000000000000000e+00  1.1045076022687086e+00 2.4032066593794453e-03 0.0000000000000000e+00  1.1145202264180671e+00 1.0932090786848057e-02 0.0000000000000000e+00  1.1194244214072198e+00 2.4879093189577755e-03 0.0000000000000000e+00  1.1220494046212266e+00 2.3983160976589154e-03 0.0000000000000000e+00  1.1233893504811252e+00 6.7787743096883811e-04 0.0000000000000000e+00  1.1237496345934759e+00 -1.7124487055391496e-05 0.0000000000000000e+00  2.5125200388032601e-04 3.2196943566968027e-02 0.0000000000000000e+00  5.0936073175639573e-01 -3.2746551629711504e-02 0.0000000000000000e+00  1.0120628078991254e+00 -1.0888846113582702e-03 0.0000000000000000e+00  1.0544612587652404e+00 -3.0899239503543015e-02 0.0000000000000000e+00  1.0836364220168739e+00 1.5280536608915540e-02 0.0000000000000000e+00  1.1018110107709671e+00 -7.1204903616966485e-03 0.0000000000000000e+00  1.1123083839712249e+00 1.7871248250006687e-03 0.0000000000000000e+00  1.1181641174020418e+00 -9.9134600077709556e-04 0.0000000000000000e+00  1.1213843989720571e+00 1.5269113318096023e-04 0.0000000000000000e+00  1.1228958299629348e+00 -1.9585300166445447e-04 0.0000000000000000e+00  1.1233373123497610e+00 -1.2600396781244813e-05 0.0000000000000000e+00  -1.2510476068929139e-03 -4.4790144902775608e-01 0.0000000000000000e+00  5.1151329600409989e-01 -6.0570548488507514e-01 0.0000000000000000e+00  1.0192189922084829e+00 -2.7351257819611896e-01 0.0000000000000000e+00  1.0617876344204020e+00 -6.6620599565880810e-03 0.0000000000000000e+00  1.0892513150472709e+00 -2.3367371333960583e-02 0.0000000000000000e+00  1.1055829115449398e+00 -1.6013825417739137e-02 0.0000000000000000e+00  1.1146869117486575e+00 -6.6814602610777239e-03 0.0000000000000000e+00  1.1196543340361143e+00 -4.6988993302401645e-03 0.0000000000000000e+00  1.1222189859234757e+00 -2.0349535611699212e-03 0.0000000000000000e+00  1.1234197025523389e+00 -1.0033200246956388e-03 0.0000000000000000e+00  1.1237686299049603e+00 -1.4276402798478518e-05 0.0000000000000000e+00  2.2403441030611621e-03 -9.2304000295158972e-01 0.0000000000000000e+00  5.2068765896144364e-01 -1.1870598085582142e+00 0.0000000000000000e+00  1.0418390701465974e+00 -5.5408397691035149e-01 0.0000000000000000e+00  1.0837964795392940e+00 2.0625673102037733e-02 0.0000000000000000e+00  1.1066075326810751e+00 -5.7407506222997805e-02 0.0000000000000000e+00  1.1164810681844506e+00 -2.1754487323419908e-02 0.0000000000000000e+00  1.1212071611181698e+00 -1.2760787028875913e-02 0.0000000000000000e+00  1.1233062452116340e+00 -7.0267772598159670e-03 0.0000000000000000e+00  1.1243237039506953e+00 -3.3645908295363331e-03 0.0000000000000000e+00  1.1247700233920463e+00 -1.4849205041055366e-03 0.0000000000000000e+00  1.1248806019770097e+00 5.3911523590631876e-06 0.0000000000000000e+00  1.3564160636757215e-02 -1.3830081361939204e+00 0.0000000000000000e+00  5.0572487957961310e-01 -1.8140942194473091e+00 0.0000000000000000e+00  1.0800518745850245e+00 -8.3907721481450970e-01 0.0000000000000000e+00  1.1319250752427843e+00 6.1372732452861831e-02 0.0000000000000000e+00  1.1334377361981953e+00 -8.6567971114839409e-02 0.0000000000000000e+00  1.1329719447674313e+00 -1.7760471160610532e-02 0.0000000000000000e+00  1.1297070597194332e+00 -1.4907226671363237e-02 0.0000000000000000e+00  1.1279952568525071e+00 -6.6350361685946491e-03 0.0000000000000000e+00  1.1269584908837125e+00 -3.4464464819697238e-03 0.0000000000000000e+00  1.1264389712283343e+00 -1.4175758393935897e-03 0.0000000000000000e+00  1.1262625754706772e+00 3.8695237787790199e-05 0.0000000000000000e+00  7.4305562199045092e-02 -1.8726100735111706e+00 0.0000000000000000e+00  3.9918950565882172e-01 -2.4072737891945981e+00 0.0000000000000000e+00  1.2266117822541500e+00 -1.1673865787968822e+00 0.0000000000000000e+00  1.1824532018591034e+00 6.5964623722314819e-02 0.0000000000000000e+00  1.1751464637891456e+00 -6.2856922978070717e-02 0.0000000000000000e+00  1.1466326299465193e+00 -1.2111219711202714e-02 0.0000000000000000e+00  1.1374369084611202e+00 -9.2234549593944795e-03 0.0000000000000000e+00  1.1318701791409294e+00 -4.0280093895942084e-03 0.0000000000000000e+00  1.1290911765240970e+00 -2.0840668842973067e-03 0.0000000000000000e+00  1.1277821063409006e+00 -8.2448608694415124e-04 0.0000000000000000e+00  1.1273854183130001e+00 6.5933480243778061e-05 0.0000000000000000e+00  3.4823618358672953e-02 -2.2272530486581004e+00 0.0000000000000000e+00  -2.9766678764749907e-02 -2.5435893578277509e+00 0.0000000000000000e+00  8.3914042702772840e-01 -2.5484721338980330e+00 0.0000000000000000e+00  1.4156169662019684e+00 6.7499015602113266e-01 0.0000000000000000e+00  1.1667025675859584e+00 -1.5510068783794403e-01 0.0000000000000000e+00  1.1558024891583463e+00 3.6451186399384571e-02 0.0000000000000000e+00  1.1405013947678169e+00 -6.7289200230104800e-03 0.0000000000000000e+00  1.1333072566471982e+00 1.8273763140864625e-03 0.0000000000000000e+00  1.1299252501679742e+00 -1.5195145720729695e-04 0.0000000000000000e+00  1.1282927403062128e+00 1.5804133812821966e-04 0.0000000000000000e+00  1.1278432517739163e+00 7.9802230388494841e-05 0.0000000000000000e+00  </DataArray> 
</PointData> 
</Piece>
</UnstructuredGrid>
</VTKFile>