<?xml version="1.0"?>
<VTKFile type="UnstructuredGrid"  version="0.1"  >
<UnstructuredGrid>
<Piece  NumberOfPoints="121" NumberOfCells="200">
<Points>
<DataArray  type="Float64"  NumberOfComponents="3"  format="ascii">0 0 0  0.1 0 0  0.2 0 0  0.3 0 0  0.4 0 0  0.5 0 0  0.6 0 0  0.7 0 0  0.8 0 0  0.9 0 0  1 0 0  0 0.1 0  0.1 0.1 0  0.2 0.1 0  0.3 0.1 0  0.4 0.1 0  0.5 0.1 0  0.6 0.1 0  0.7 0.1 0  0.8 0.1 0  0.9 0.1 0  1 0.1 0  0 0.2 0  0.1 0.2 0  0.2 0.2 0  0.3 0.2 0  0.4 0.2 0  0.5 0.2 0  0.6 0.2 0  0.7 0.2 0  0.8 0.2 0  0.9 0.2 0  1 0.2 0  0 0.3 0  0.1 0.3 0  0.2 0.3 0  0.3 0.3 0  0.4 0.3 0  0.5 0.3 0  0.6 0.3 0  0.7 0.3 0  0.8 0.3 0  0.9 0.3 0  1 0.3 0  0 0.4 0  0.1 0.4 0  0.2 0.4 0  0.3 0.4 0  0.4 0.4 0  0.5 0.4 0  0.6 0.4 0  0.7 0.4 0  0.8 0.4 0  0.9 0.4 0  1 0.4 0  0 0.5 0  0.1 0.5 0  0.2 0.5 0  0.3 0.5 0  0.4 0.5 0  0.5 0.5 0  0.6 0.5 0  0.7 0.5 0  0.8 0.5 0  0.9 0.5 0  1 0.5 0  0 0.6 0  0.1 0.6 0  0.2 0.6 0  0.3 0.6 0  0.4 0.6 0  0.5 0.6 0  0.6 0.6 0  0.7 0.6 0  0.8 0.6 0  0.9 0.6 0  1 0.6 0  0 0.7 0  0.1 0.7 0  0.2 0.7 0  0.3 0.7 0  0.4 0.7 0  0.5 0.7 0  0.6 0.7 0  0.7 0.7 0  0.8 0.7 0  0.9 0.7 0  1 0.7 0  0 0.8 0  0.1 0.8 0  0.2 0.8 0  0.3 0.8 0  0.4 0.8 0  0.5 0.8 0  0.6 0.8 0  0.7 0.8 0  0.8 0.8 0  0.9 0.8 0  1 0.8 0  0 0.9 0  0.1 0.9 0  0.2 0.9 0  0.3 0.9 0  0.4 0.9 0  0.5 0.9 0  0.6 0.9 0  0.7 0.9 0  0.8 0.9 0  0.9 0.9 0  1 0.9 0  0 1 0  0.1 1 0  0.2 1 0  0.3 1 0  0.4 1 0  0.5 1 0  0.6 1 0  0.7 1 0  0.8 1 0  0.9 1 0  1 1 0  </DataArray>
</Points>
<Cells>
<DataArray  type="UInt32"  Name="connectivity"  format="ascii">0 1 12  0 11 12  1 2 13  1 12 13  2 3 14  2 13 14  3 4 15  3 14 15  4 5 16  4 15 16  5 6 17  5 16 17  6 7 18  6 17 18  7 8 19  7 18 19  8 9 20  8 19 20  9 10 21  9 20 21  11 12 23  11 22 23  12 13 24  12 23 24  13 14 25  13 24 25  14 15 26  14 25 26  15 16 27  15 26 27  16 17 28  16 27 28  17 18 29  17 28 29  18 19 30  18 29 30  19 20 31  19 30 31  20 21 32  20 31 32  22 23 34  22 33 34  23 24 35  23 34 35  24 25 36  24 35 36  25 26 37  25 36 37  26 27 38  26 37 38  27 28 39  27 38 39  28 29 40  28 39 40  29 30 41  29 40 41  30 31 42  30 41 42  31 32 43  31 42 43  33 34 45  33 44 45  34 35 46  34 45 46  35 36 47  35 46 47  36 37 48  36 47 48  37 38 49  37 48 49  38 39 50  38 49 50  39 40 51  39 50 51  40 41 52  40 51 52  41 42 53  41 52 53  42 43 54  42 53 54  44 45 56  44 55 56  45 46 57  45 56 57  46 47 58  46 57 58  47 48 59  47 58 59  48 49 60  48 59 60  49 50 61  49 60 61  50 51 62  50 61 62  51 52 63  51 62 63  52 53 64  52 63 64  53 54 65  53 64 65  55 56 67  55 66 67  56 57 68  56 67 68  57 58 69  57 68 69  58 59 70  58 69 70  59 60 71  59 70 71  60 61 72  60 71 72  61 62 73  61 72 73  62 63 74  62 73 74  63 64 75  63 74 75  64 65 76  64 75 76  66 67 78  66 77 78  67 68 79  67 78 79  68 69 80  68 79 80  69 70 81  69 80 81  70 71 82  70 81 82  71 72 83  71 82 83  72 73 84  72 83 84  73 74 85  73 84 85  74 75 86  74 85 86  75 76 87  75 86 87  77 78 89  77 88 89  78 79 90  78 89 90  79 80 91  79 90 91  80 81 92  80 91 92  81 82 93  81 92 93  82 83 94  82 93 94  83 84 95  83 94 95  84 85 96  84 95 96  85 86 97  85 96 97  86 87 98  86 97 98  88 89 100  88 99 100  89 90 101  89 100 101  90 91 102  90 101 102  91 92 103  91 102 103  92 93 104  92 103 104  93 94 105  93 104 105  94 95 106  94 105 106  95 96 107  95 106 107  96 97 108  96 107 108  97 98 109  97 108 109  99 100 111  99 110 111  100 101 112  100 111 112  101 102 113  101 112 113  102 103 114  102 113 114  103 104 115  103 114 115  104 105 116  104 115 116  105 106 117  105 116 117  106 107 118  106 117 118  107 108 119  107 118 119  108 109 120  108 119 120  </DataArray>
<DataArray  type="UInt32"  Name="offsets"  format="ascii">3 6 9 12 15 18 21 24 27 30 33 36 39 42 45 48 51 54 57 60 63 66 69 72 75 78 81 84 87 90 93 96 99 102 105 108 111 114 117 120 123 126 129 132 135 138 141 144 147 150 153 156 159 162 165 168 171 174 177 180 183 186 189 192 195 198 201 204 207 210 213 216 219 222 225 228 231 234 237 240 243 246 249 252 255 258 261 264 267 270 273 276 279 282 285 288 291 294 297 300 303 306 309 312 315 318 321 324 327 330 333 336 339 342 345 348 351 354 357 360 363 366 369 372 375 378 381 384 387 390 393 396 399 402 405 408 411 414 417 420 423 426 429 432 435 438 441 444 447 450 453 456 459 462 465 468 471 474 477 480 483 486 489 492 495 498 501 504 507 510 513 516 519 522 525 528 531 534 537 540 543 546 549 552 555 558 561 564 567 570 573 576 579 582 585 588 591 594 597 600 </DataArray>
<DataArray  type="UInt8"  Name="types"  format="ascii">5 5 5 5 5 5 5 5 5 5 5 5 5 5 5 5 5 5 5 5 5 5 5 5 5 5 5 5 5 5 5 5 5 5 5 5 5 5 5 5 5 5 5 5 5 5 5 5 5 5 5 5 5 5 5 5 5 5 5 5 5 5 5 5 5 5 5 5 5 5 5 5 5 5 5 5 5 5 5 5 5 5 5 5 5 5 5 5 5 5 5 5 5 5 5 5 5 5 5 5 5 5 5 5 5 5 5 5 5 5 5 5 5 5 5 5 5 5 5 5 5 5 5 5 5 5 5 5 5 5 5 5 5 5 5 5 5 5 5 5 5 5 5 5 5 5 5 5 5 5 5 5 5 5 5 5 5 5 5 5 5 5 5 5 5 5 5 5 5 5 5 5 5 5 5 5 5 5 5 5 5 5 5 5 5 5 5 5 5 5 5 5 5 5 5 5 5 5 5 5 </DataArray>
</Cells>
<PointData  Vectors="f_34"> 
<DataArray  type="Float64"  Name="f_34"  NumberOfComponents="3" format="ascii">-7.8447020590311726e-03 6.2602824388942924e-01 0.0000000000000000e+00  -4.3903412697463007e-02 1.0642905336990558e+00 0.0000000000000000e+00  3.4607720478788329e-01 4.9194230288435437e-01 0.0000000000000000e+00  4.3003081603502730e-01 -3.8651460362700313e-02 0.0000000000000000e+00  3.8183057876804621e-01 5.5974710273967612e-04 0.0000000000000000e+00  3.7476691852046673e-01 1.4504687152891696e-03 0.0000000000000000e+00  3.7046086861516891e-01 -9.1941160183072081e-05 0.0000000000000000e+00  3.6818874261383799e-01 1.1306911245666564e-04 0.0000000000000000e+00  3.6710790376285274e-01 4.3966908286074898e-05 0.0000000000000000e+00  3.6659863675126919e-01 2.9579592759679268e-05 0.0000000000000000e+00  3.6643398460931442e-01 1.1562558527817119e-05 0.0000000000000000e+00  -9.7387556036414025e-03 6.3262450045665752e-01 0.0000000000000000e+00  1.4017586275061877e-01 7.5829020534897840e-01 0.0000000000000000e+00  3.9165968064151896e-01 4.2587506698723487e-01 0.0000000000000000e+00  4.0641574413831405e-01 -9.0412136158110445e-02 0.0000000000000000e+00  3.7206069476431458e-01 3.7005958596260498e-02 0.0000000000000000e+00  3.7391945805932925e-01 2.8189936973504418e-03 0.0000000000000000e+00  3.6916697181683522e-01 3.1145013946043097e-03 0.0000000000000000e+00  3.6768800499394427e-01 1.5554047972082406e-03 0.0000000000000000e+00  3.6682639556458868e-01 7.2791416805101697e-04 0.0000000000000000e+00  3.6642130331223677e-01 3.1833259552042058e-04 0.0000000000000000e+00  3.6631211555549464e-01 2.0117169879763245e-05 0.0000000000000000e+00  -6.5008890421435655e-04 4.7956378920028719e-01 0.0000000000000000e+00  1.7025263517863801e-01 5.6157329307563020e-01 0.0000000000000000e+00  3.5717945941127927e-01 2.7283626391582322e-01 0.0000000000000000e+00  3.6028704850654031e-01 -4.6949507029640083e-02 0.0000000000000000e+00  3.6582596992027616e-01 4.4164760615869249e-02 0.0000000000000000e+00  3.6857560957410146e-01 4.9195543659214089e-04 0.0000000000000000e+00  3.6637231671551462e-01 5.9699486474561053e-03 0.0000000000000000e+00  3.6643819314188653e-01 2.0416212741498148e-03 0.0000000000000000e+00  3.6608042909331728e-01 1.1549826529356631e-03 0.0000000000000000e+00  3.6597261984338325e-01 4.7742652099765944e-04 0.0000000000000000e+00  3.6594063092357876e-01 2.4199890557049948e-06 0.0000000000000000e+00  1.0758187390077688e-04 3.2402773153559450e-01 0.0000000000000000e+00  1.6952259771553407e-01 3.6442941549120339e-01 0.0000000000000000e+00  3.3903716536754458e-01 1.7860769292526743e-01 0.0000000000000000e+00  3.5205135926716274e-01 -2.6984466621818866e-02 0.0000000000000000e+00  3.6011267146678411e-01 2.8914807588630798e-02 0.0000000000000000e+00  3.6235057775297291e-01 1.3366133549141993e-03 0.0000000000000000e+00  3.6390136722904332e-01 6.0552703203571676e-03 0.0000000000000000e+00  3.6493579449554797e-01 1.6292691138429858e-03 0.0000000000000000e+00  3.6521962861426577e-01 1.2007388686803976e-03 0.0000000000000000e+00  3.6543842016625860e-01 4.3376304873117083e-04 0.0000000000000000e+00  3.6549018725149940e-01 -6.6273497002500233e-06 0.0000000000000000e+00  1.2103083119935153e-04 1.6610168768356384e-01 0.0000000000000000e+00  1.6678728012890270e-01 1.7541747189430154e-01 0.0000000000000000e+00  3.3145025410839812e-01 8.8310878014348074e-02 0.0000000000000000e+00  3.4480688554900346e-01 -1.8436588706110531e-02 0.0000000000000000e+00  3.5353159819825863e-01 1.7335612649852953e-02 0.0000000000000000e+00  3.5887627461586113e-01 7.8084917774982724e-04 0.0000000000000000e+00  3.6212957341296170e-01 3.5520516176525199e-03 0.0000000000000000e+00  3.6372304295910579e-01 8.0837074016923568e-04 0.0000000000000000e+00  3.6457595170761448e-01 7.7926013792127091e-04 0.0000000000000000e+00  3.6501132650938284e-01 2.2025572895337191e-04 0.0000000000000000e+00  3.6512838991372171e-01 -5.5640831297858339e-06 0.0000000000000000e+00  8.1636724776156940e-05 1.0461421123401241e-02 0.0000000000000000e+00  1.6550133423515789e-01 -1.0639999608194457e-02 0.0000000000000000e+00  3.2883914011100157e-01 -3.5380005715438163e-04 0.0000000000000000e+00  3.4261523188715653e-01 -1.0039771513312505e-02 0.0000000000000000e+00  3.5209481706841678e-01 4.9649473132416149e-03 0.0000000000000000e+00  3.5800009892555079e-01 -2.3135875653505079e-03 0.0000000000000000e+00  3.6141090223702066e-01 5.8067205526908592e-04 0.0000000000000000e+00  3.6331354536458110e-01 -3.2210784143365173e-04 0.0000000000000000e+00  3.6435987827409511e-01 4.9612356610678086e-05 0.0000000000000000e+00  3.6485097197252470e-01 -6.3636497806141440e-05 0.0000000000000000e+00  3.6499441829554474e-01 -4.0941170955038620e-06 0.0000000000000000e+00  -4.0649000840372023e-04 -1.4553200276028594e-01 0.0000000000000000e+00  1.6620074475664240e-01 -1.9680564215534138e-01 0.0000000000000000e+00  3.3116432534298296e-01 -8.8869623823306446e-02 0.0000000000000000e+00  3.4499571563951770e-01 -2.1646344973788602e-03 0.0000000000000000e+00  3.5391920640623220e-01 -7.5925191955877594e-03 0.0000000000000000e+00  3.5922566377925069e-01 -5.2032072902551208e-03 0.0000000000000000e+00  3.6218373275994364e-01 -2.1709380384199455e-03 0.0000000000000000e+00  3.6379774610064519e-01 -1.5267649430108043e-03 0.0000000000000000e+00  3.6463105201282808e-01 -6.6119649294405804e-04 0.0000000000000000e+00  3.6502118849514176e-01 -3.2599843765033538e-04 0.0000000000000000e+00  3.6513456186456034e-01 -4.6386844596520813e-06 0.0000000000000000e+00  7.2793192542335169e-04 -2.9991387736966502e-01 0.0000000000000000e+00  1.6918167598186976e-01 -3.8569911240678778e-01 0.0000000000000000e+00  3.3851403419539433e-01 -1.8003279746512091e-01 0.0000000000000000e+00  3.5214682290998162e-01 6.7016874389088394e-03 0.0000000000000000e+00  3.5955858336755692e-01 -1.8652829483452919e-02 0.0000000000000000e+00  3.6276668952405766e-01 -7.0684614128237264e-03 0.0000000000000000e+00  3.6430229020444699e-01 -4.1462310451122076e-03 0.0000000000000000e+00  3.6498432397046299e-01 -2.2831383327544422e-03 0.0000000000000000e+00  3.6531491635488933e-01 -1.0932218302806642e-03 0.0000000000000000e+00  3.6545993433219498e-01 -4.8247991912229196e-04 0.0000000000000000e+00  3.6549586349243096e-01 1.7516915853143341e-06 0.0000000000000000e+00  4.4072629537463661e-03 -4.4936658349948672e-01 0.0000000000000000e+00  1.6431997425032849e-01 -5.8943494272032415e-01 0.0000000000000000e+00  3.5093012700572934e-01 -2.7263271375331422e-01 0.0000000000000000e+00  3.6778475160606589e-01 1.9941209585555331e-02 0.0000000000000000e+00  3.6827624494420197e-01 -2.8127638878115112e-02 0.0000000000000000e+00  3.6812490013400839e-01 -5.7707268944559862e-03 0.0000000000000000e+00  3.6706407467597923e-01 -4.8436515617325581e-03 0.0000000000000000e+00  3.6650787620844666e-01 -2.1558539363923193e-03 0.0000000000000000e+00  3.6617101052480167e-01 -1.1198183440035581e-03 0.0000000000000000e+00  3.6600220835619091e-01 -4.6059831112301591e-04 0.0000000000000000e+00  3.6594489390019325e-01 1.2572844908394677e-05 0.0000000000000000e+00  2.4143340698114295e-02 -6.0844789624755158e-01 0.0000000000000000e+00  1.2970453291794762e-01 -7.8217066833405891e-01 0.0000000000000000e+00  3.9855032768547449e-01 -3.7930689256881772e-01 0.0000000000000000e+00  3.8420233515744801e-01 2.1433205501959204e-02 0.0000000000000000e+00  3.8182823204330596e-01 -2.0423452320157139e-02 0.0000000000000000e+00  3.7256352581272756e-01 -3.9351738295713744e-03 0.0000000000000000e+00  3.6957565478105370e-01 -2.9968821836213757e-03 0.0000000000000000e+00  3.6776691478132734e-01 -1.3087795872886328e-03 0.0000000000000000e+00  3.6686396209523647e-01 -6.7715437897378271e-04 0.0000000000000000e+00  3.6643861940896483e-01 -2.6789176891754793e-04 0.0000000000000000e+00  3.6630972765543890e-01 2.1423086372208205e-05 0.0000000000000000e+00  1.1314879498823047e-02 -7.2367838400335305e-01 0.0000000000000000e+00  -9.6717802220989361e-03 -8.2646228148613110e-01 0.0000000000000000e+00  2.7265325264643109e-01 -8.2804879160366029e-01 0.0000000000000000e+00  4.5996183464020551e-01 2.1931759645445204e-01 0.0000000000000000e+00  3.7908464385394547e-01 -5.0395268377788918e-02 0.0000000000000000e+00  3.7554299368233118e-01 1.1843708412210444e-02 0.0000000000000000e+00  3.7057136674093655e-01 -2.1863586498515972e-03 0.0000000000000000e+00  3.6823384956812522e-01 5.9375055687481003e-04 0.0000000000000000e+00  3.6713496905024279e-01 -4.9372021318056655e-05 0.0000000000000000e+00  3.6660453444185798e-01 5.1350743578477459e-05 0.0000000000000000e+00  3.6645848676448545e-01 2.5929316454166205e-05 0.0000000000000000e+00  </DataArray> 
</PointData> 
</Piece>
</UnstructuredGrid>
</VTKFile>