<?xml version="1.0"?>
<VTKFile type="UnstructuredGrid"  version="0.1"  >
<UnstructuredGrid>
<Piece  NumberOfPoints="121" NumberOfCells="200">
<Points>
<DataArray  type="Float64"  NumberOfComponents="3"  format="ascii">0 0 0  0.1 0 0  0.2 0 0  0.3 0 0  0.4 0 0  0.5 0 0  0.6 0 0  0.7 0 0  0.8 0 0  0.9 0 0  1 0 0  0 0.1 0  0.1 0.1 0  0.2 0.1 0  0.3 0.1 0  0.4 0.1 0  0.5 0.1 0  0.6 0.1 0  0.7 0.1 0  0.8 0.1 0  0.9 0.1 0  1 0.1 0  0 0.2 0  0.1 0.2 0  0.2 0.2 0  0.3 0.2 0  0.4 0.2 0  0.5 0.2 0  0.6 0.2 0  0.7 0.2 0  0.8 0.2 0  0.9 0.2 0  1 0.2 0  0 0.3 0  0.1 0.3 0  0.2 0.3 0  0.3 0.3 0  0.4 0.3 0  0.5 0.3 0  0.6 0.3 0  0.7 0.3 0  0.8 0.3 0  0.9 0.3 0  1 0.3 0  0 0.4 0  0.1 0.4 0  0.2 0.4 0  0.3 0.4 0  0.4 0.4 0  0.5 0.4 0  0.6 0.4 0  0.7 0.4 0  0.8 0.4 0  0.9 0.4 0  1 0.4 0  0 0.5 0  0.1 0.5 0  0.2 0.5 0  0.3 0.5 0  0.4 0.5 0  0.5 0.5 0  0.6 0.5 0  0.7 0.5 0  0.8 0.5 0  0.9 0.5 0  1 0.5 0  0 0.6 0  0.1 0.6 0  0.2 0.6 0  0.3 0.6 0  0.4 0.6 0  0.5 0.6 0  0.6 0.6 0  0.7 0.6 0  0.8 0.6 0  0.9 0.6 0  1 0.6 0  0 0.7 0  0.1 0.7 0  0.2 0.7 0  0.3 0.7 0  0.4 0.7 0  0.5 0.7 0  0.6 0.7 0  0.7 0.7 0  0.8 0.7 0  0.9 0.7 0  1 0.7 0  0 0.8 0  0.1 0.8 0  0.2 0.8 0  0.3 0.8 0  0.4 0.8 0  0.5 0.8 0  0.6 0.8 0  0.7 0.8 0  0.8 0.8 0  0.9 0.8 0  1 0.8 0  0 0.9 0  0.1 0.9 0  0.2 0.9 0  0.3 0.9 0  0.4 0.9 0  0.5 0.9 0  0.6 0.9 0  0.7 0.9 0  0.8 0.9 0  0.9 0.9 0  1 0.9 0  0 1 0  0.1 1 0  0.2 1 0  0.3 1 0  0.4 1 0  0.5 1 0  0.6 1 0  0.7 1 0  0.8 1 0  0.9 1 0  1 1 0  </DataArray>
</Points>
<Cells>
<DataArray  type="UInt32"  Name="connectivity"  format="ascii">0 1 12  0 11 12  1 2 13  1 12 13  2 3 14  2 13 14  3 4 15  3 14 15  4 5 16  4 15 16  5 6 17  5 16 17  6 7 18  6 17 18  7 8 19  7 18 19  8 9 20  8 19 20  9 10 21  9 20 21  11 12 23  11 22 23  12 13 24  12 23 24  13 14 25  13 24 25  14 15 26  14 25 26  15 16 27  15 26 27  16 17 28  16 27 28  17 18 29  17 28 29  18 19 30  18 29 30  19 20 31  19 30 31  20 21 32  20 31 32  22 23 34  22 33 34  23 24 35  23 34 35  24 25 36  24 35 36  25 26 37  25 36 37  26 27 38  26 37 38  27 28 39  27 38 39  28 29 40  28 39 40  29 30 41  29 40 41  30 31 42  30 41 42  31 32 43  31 42 43  33 34 45  33 44 45  34 35 46  34 45 46  35 36 47  35 46 47  36 37 48  36 47 48  37 38 49  37 48 49  38 39 50  38 49 50  39 40 51  39 50 51  40 41 52  40 51 52  41 42 53  41 52 53  42 43 54  42 53 54  44 45 56  44 55 56  45 46 57  45 56 57  46 47 58  46 57 58  47 48 59  47 58 59  48 49 60  48 59 60  49 50 61  49 60 61  50 51 62  50 61 62  51 52 63  51 62 63  52 53 64  52 63 64  53 54 65  53 64 65  55 56 67  55 66 67  56 57 68  56 67 68  57 58 69  57 68 69  58 59 70  58 69 70  59 60 71  59 70 71  60 61 72  60 71 72  61 62 73  61 72 73  62 63 74  62 73 74  63 64 75  63 74 75  64 65 76  64 75 76  66 67 78  66 77 78  67 68 79  67 78 79  68 69 80  68 79 80  69 70 81  69 80 81  70 71 82  70 81 82  71 72 83  71 82 83  72 73 84  72 83 84  73 74 85  73 84 85  74 75 86  74 85 86  75 76 87  75 86 87  77 78 89  77 88 89  78 79 90  78 89 90  79 80 91  79 90 91  80 81 92  80 91 92  81 82 93  81 92 93  82 83 94  82 93 94  83 84 95  83 94 95  84 85 96  84 95 96  85 86 97  85 96 97  86 87 98  86 97 98  88 89 100  88 99 100  89 90 101  89 100 101  90 91 102  90 101 102  91 92 103  91 102 103  92 93 104  92 103 104  93 94 105  93 104 105  94 95 106  94 105 106  95 96 107  95 106 107  96 97 108  96 107 108  97 98 109  97 108 109  99 100 111  99 110 111  100 101 112  100 111 112  101 102 113  101 112 113  102 103 114  102 113 114  103 104 115  103 114 115  104 105 116  104 115 116  105 106 117  105 116 117  106 107 118  106 117 118  107 108 119  107 118 119  108 109 120  108 119 120  </DataArray>
<DataArray  type="UInt32"  Name="offsets"  format="ascii">3 6 9 12 15 18 21 24 27 30 33 36 39 42 45 48 51 54 57 60 63 66 69 72 75 78 81 84 87 90 93 96 99 102 105 108 111 114 117 120 123 126 129 132 135 138 141 144 147 150 153 156 159 162 165 168 171 174 177 180 183 186 189 192 195 198 201 204 207 210 213 216 219 222 225 228 231 234 237 240 243 246 249 252 255 258 261 264 267 270 273 276 279 282 285 288 291 294 297 300 303 306 309 312 315 318 321 324 327 330 333 336 339 342 345 348 351 354 357 360 363 366 369 372 375 378 381 384 387 390 393 396 399 402 405 408 411 414 417 420 423 426 429 432 435 438 441 444 447 450 453 456 459 462 465 468 471 474 477 480 483 486 489 492 495 498 501 504 507 510 513 516 519 522 525 528 531 534 537 540 543 546 549 552 555 558 561 564 567 570 573 576 579 582 585 588 591 594 597 600 </DataArray>
<DataArray  type="UInt8"  Name="types"  format="ascii">5 5 5 5 5 5 5 5 5 5 5 5 5 5 5 5 5 5 5 5 5 5 5 5 5 5 5 5 5 5 5 5 5 5 5 5 5 5 5 5 5 5 5 5 5 5 5 5 5 5 5 5 5 5 5 5 5 5 5 5 5 5 5 5 5 5 5 5 5 5 5 5 5 5 5 5 5 5 5 5 5 5 5 5 5 5 5 5 5 5 5 5 5 5 5 5 5 5 5 5 5 5 5 5 5 5 5 5 5 5 5 5 5 5 5 5 5 5 5 5 5 5 5 5 5 5 5 5 5 5 5 5 5 5 5 5 5 5 5 5 5 5 5 5 5 5 5 5 5 5 5 5 5 5 5 5 5 5 5 5 5 5 5 5 5 5 5 5 5 5 5 5 5 5 5 5 5 5 5 5 5 5 5 5 5 5 5 5 5 5 5 5 5 5 5 5 5 5 5 5 </DataArray>
</Cells>
<PointData  Vectors="f_34"> 
<DataArray  type="Float64"  Name="f_34"  NumberOfComponents="3" format="ascii">-7.8447020590357089e-03 6.2602824388980172e-01 0.0000000000000000e+00  -4.3903412697489257e-02 1.0642905336996888e+00 0.0000000000000000e+00  3.4607720478808895e-01 4.9194230288464635e-01 0.0000000000000000e+00  4.3003081603528254e-01 -3.8651460362723052e-02 0.0000000000000000e+00  3.8183057876827414e-01 5.5974710274013561e-04 0.0000000000000000e+00  3.7476691852069016e-01 1.4504687152899500e-03 0.0000000000000000e+00  3.7046086861538996e-01 -9.1941160184217947e-05 0.0000000000000000e+00  3.6818874261405771e-01 1.1306911245666742e-04 0.0000000000000000e+00  3.6710790376307023e-01 4.3966908289282808e-05 0.0000000000000000e+00  3.6659863675148879e-01 2.9579592758918534e-05 0.0000000000000000e+00  3.6643398460953081e-01 1.1562558523867960e-05 0.0000000000000000e+00  -9.7387556036470733e-03 6.3262450045703333e-01 0.0000000000000000e+00  1.4017586275070187e-01 7.5829020534942937e-01 0.0000000000000000e+00  3.9165968064175138e-01 4.2587506698748823e-01 0.0000000000000000e+00  4.0641574413855608e-01 -9.0412136158164097e-02 0.0000000000000000e+00  3.7206069476453552e-01 3.7005958596282779e-02 0.0000000000000000e+00  3.7391945805955135e-01 2.8189936973517871e-03 0.0000000000000000e+00  3.6916697181705499e-01 3.1145013946058757e-03 0.0000000000000000e+00  3.6768800499416210e-01 1.5554047972092025e-03 0.0000000000000000e+00  3.6682639556480789e-01 7.2791416804990653e-04 0.0000000000000000e+00  3.6642130331245376e-01 3.1833259551922546e-04 0.0000000000000000e+00  3.6631211555571108e-01 2.0117169880280657e-05 0.0000000000000000e+00  -6.5008890421554711e-04 4.7956378920057274e-01 0.0000000000000000e+00  1.7025263517873951e-01 5.6157329307596382e-01 0.0000000000000000e+00  3.5717945941149182e-01 2.7283626391598581e-01 0.0000000000000000e+00  3.6028704850675486e-01 -4.6949507029667770e-02 0.0000000000000000e+00  3.6582596992049343e-01 4.4164760615895020e-02 0.0000000000000000e+00  3.6857560957432112e-01 4.9195543659195549e-04 0.0000000000000000e+00  3.6637231671573212e-01 5.9699486474596641e-03 0.0000000000000000e+00  3.6643819314210596e-01 2.0416212741495429e-03 0.0000000000000000e+00  3.6608042909353633e-01 1.1549826529355536e-03 0.0000000000000000e+00  3.6597261984359974e-01 4.7742652100053268e-04 0.0000000000000000e+00  3.6594063092379864e-01 2.4199890563907187e-06 0.0000000000000000e+00  1.0758187390104387e-04 3.2402773153578673e-01 0.0000000000000000e+00  1.6952259771563483e-01 3.6442941549141922e-01 0.0000000000000000e+00  3.3903716536774514e-01 1.7860769292537293e-01 0.0000000000000000e+00  3.5205135926737197e-01 -2.6984466621834999e-02 0.0000000000000000e+00  3.6011267146699705e-01 2.8914807588647722e-02 0.0000000000000000e+00  3.6235057775318863e-01 1.3366133549143388e-03 0.0000000000000000e+00  3.6390136722925942e-01 6.0552703203614099e-03 0.0000000000000000e+00  3.6493579449576474e-01 1.6292691138440701e-03 0.0000000000000000e+00  3.6521962861448326e-01 1.2007388686815878e-03 0.0000000000000000e+00  3.6543842016647587e-01 4.3376304873077000e-04 0.0000000000000000e+00  3.6549018725171756e-01 -6.6273497030565306e-06 0.0000000000000000e+00  1.2103083119928536e-04 1.6610168768366229e-01 0.0000000000000000e+00  1.6678728012900193e-01 1.7541747189440596e-01 0.0000000000000000e+00  3.3145025410859547e-01 8.8310878014400976e-02 0.0000000000000000e+00  3.4480688554920852e-01 -1.8436588706121554e-02 0.0000000000000000e+00  3.5353159819846863e-01 1.7335612649863764e-02 0.0000000000000000e+00  3.5887627461607391e-01 7.8084917775164513e-04 0.0000000000000000e+00  3.6212957341317686e-01 3.5520516176537164e-03 0.0000000000000000e+00  3.6372304295932190e-01 8.0837074017038569e-04 0.0000000000000000e+00  3.6457595170783363e-01 7.7926013792127633e-04 0.0000000000000000e+00  3.6501132650959778e-01 2.2025572895443009e-04 0.0000000000000000e+00  3.6512838991393931e-01 -5.5640831281996181e-06 0.0000000000000000e+00  8.1636724777574304e-05 1.0461421123407307e-02 0.0000000000000000e+00  1.6550133423525520e-01 -1.0639999608199849e-02 0.0000000000000000e+00  3.2883914011119714e-01 -3.5380005715479124e-04 0.0000000000000000e+00  3.4261523188735998e-01 -1.0039771513318568e-02 0.0000000000000000e+00  3.5209481706862611e-01 4.9649473132443896e-03 0.0000000000000000e+00  3.5800009892576351e-01 -2.3135875653520778e-03 0.0000000000000000e+00  3.6141090223723527e-01 5.8067205526964104e-04 0.0000000000000000e+00  3.6331354536479710e-01 -3.2210784143346107e-04 0.0000000000000000e+00  3.6435987827431143e-01 4.9612356608810392e-05 0.0000000000000000e+00  3.6485097197274297e-01 -6.3636497808418929e-05 0.0000000000000000e+00  3.6499441829576529e-01 -4.0941170964980000e-06 0.0000000000000000e+00  -4.0649000840414079e-04 -1.4553200276037323e-01 0.0000000000000000e+00  1.6620074475674060e-01 -1.9680564215545873e-01 0.0000000000000000e+00  3.3116432534318013e-01 -8.8869623823359944e-02 0.0000000000000000e+00  3.4499571563972298e-01 -2.1646344973800455e-03 0.0000000000000000e+00  3.5391920640644303e-01 -7.5925191955918429e-03 0.0000000000000000e+00  3.5922566377946413e-01 -5.2032072902576647e-03 0.0000000000000000e+00  3.6218373276015947e-01 -2.1709380384215332e-03 0.0000000000000000e+00  3.6379774610086030e-01 -1.5267649430120902e-03 0.0000000000000000e+00  3.6463105201304485e-01 -6.6119649294408178e-04 0.0000000000000000e+00  3.6502118849535969e-01 -3.2599843764890630e-04 0.0000000000000000e+00  3.6513456186477805e-01 -4.6386844585711885e-06 0.0000000000000000e+00  7.2793192542323166e-04 -2.9991387736984321e-01 0.0000000000000000e+00  1.6918167598197081e-01 -3.8569911240701654e-01 0.0000000000000000e+00  3.3851403419559534e-01 -1.8003279746522749e-01 0.0000000000000000e+00  3.5214682291019078e-01 6.7016874389132491e-03 0.0000000000000000e+00  3.5955858336777058e-01 -1.8652829483464275e-02 0.0000000000000000e+00  3.6276668952427249e-01 -7.0684614128283235e-03 0.0000000000000000e+00  3.6430229020466404e-01 -4.1462310451155721e-03 0.0000000000000000e+00  3.6498432397067954e-01 -2.2831383327556768e-03 0.0000000000000000e+00  3.6531491635510571e-01 -1.0932218302807169e-03 0.0000000000000000e+00  3.6545993433241308e-01 -4.8247991912398359e-04 0.0000000000000000e+00  3.6549586349264951e-01 1.7516915846655916e-06 0.0000000000000000e+00  4.4072629537490974e-03 -4.4936658349975356e-01 0.0000000000000000e+00  1.6431997425042627e-01 -5.8943494272067409e-01 0.0000000000000000e+00  3.5093012700593784e-01 -2.7263271375347597e-01 0.0000000000000000e+00  3.6778475160628493e-01 1.9941209585567114e-02 0.0000000000000000e+00  3.6827624494442046e-01 -2.8127638878132123e-02 0.0000000000000000e+00  3.6812490013422738e-01 -5.7707268944593056e-03 0.0000000000000000e+00  3.6706407467619728e-01 -4.8436515617344706e-03 0.0000000000000000e+00  3.6650787620866437e-01 -2.1558539363941841e-03 0.0000000000000000e+00  3.6617101052502077e-01 -1.1198183440044669e-03 0.0000000000000000e+00  3.6600220835640818e-01 -4.6059831112190341e-04 0.0000000000000000e+00  3.6594489390041396e-01 1.2572844909140972e-05 0.0000000000000000e+00  2.4143340698128742e-02 -6.0844789624791284e-01 0.0000000000000000e+00  1.2970453291802467e-01 -7.8217066833452420e-01 0.0000000000000000e+00  3.9855032768571086e-01 -3.7930689256904393e-01 0.0000000000000000e+00  3.8420233515767666e-01 2.1433205501971447e-02 0.0000000000000000e+00  3.8182823204353189e-01 -2.0423452320169566e-02 0.0000000000000000e+00  3.7256352581294966e-01 -3.9351738295738898e-03 0.0000000000000000e+00  3.6957565478127341e-01 -2.9968821836238208e-03 0.0000000000000000e+00  3.6776691478154705e-01 -1.3087795872884895e-03 0.0000000000000000e+00  3.6686396209545363e-01 -6.7715437897289258e-04 0.0000000000000000e+00  3.6643861940918304e-01 -2.6789176891760968e-04 0.0000000000000000e+00  3.6630972765565828e-01 2.1423086372683685e-05 0.0000000000000000e+00  1.1314879498830217e-02 -7.2367838400378370e-01 0.0000000000000000e+00  -9.6717802221050562e-03 -8.2646228148662293e-01 0.0000000000000000e+00  2.7265325264659335e-01 -8.2804879160415157e-01 0.0000000000000000e+00  4.5996183464047857e-01 2.1931759645458254e-01 0.0000000000000000e+00  3.7908464385417073e-01 -5.0395268377818388e-02 0.0000000000000000e+00  3.7554299368255528e-01 1.1843708412218082e-02 0.0000000000000000e+00  3.7057136674115676e-01 -2.1863586498521211e-03 0.0000000000000000e+00  3.6823384956834532e-01 5.9375055687634700e-04 0.0000000000000000e+00  3.6713496905045873e-01 -4.9372021318451759e-05 0.0000000000000000e+00  3.6660453444207775e-01 5.1350743576688620e-05 0.0000000000000000e+00  3.6645848676470283e-01 2.5929316453646526e-05 0.0000000000000000e+00  </DataArray> 
</PointData> 
</Piece>
</UnstructuredGrid>
</VTKFile>