<?xml version="1.0"?>
<VTKFile type="UnstructuredGrid"  version="0.1"  >
<UnstructuredGrid>
<Piece  NumberOfPoints="121" NumberOfCells="200">
<Points>
<DataArray  type="Float64"  NumberOfComponents="3"  format="ascii">0 0 0  0.1 0 0  0.2 0 0  0.3 0 0  0.4 0 0  0.5 0 0  0.6 0 0  0.7 0 0  0.8 0 0  0.9 0 0  1 0 0  0 0.1 0  0.1 0.1 0  0.2 0.1 0  0.3 0.1 0  0.4 0.1 0  0.5 0.1 0  0.6 0.1 0  0.7 0.1 0  0.8 0.1 0  0.9 0.1 0  1 0.1 0  0 0.2 0  0.1 0.2 0  0.2 0.2 0  0.3 0.2 0  0.4 0.2 0  0.5 0.2 0  0.6 0.2 0  0.7 0.2 0  0.8 0.2 0  0.9 0.2 0  1 0.2 0  0 0.3 0  0.1 0.3 0  0.2 0.3 0  0.3 0.3 0  0.4 0.3 0  0.5 0.3 0  0.6 0.3 0  0.7 0.3 0  0.8 0.3 0  0.9 0.3 0  1 0.3 0  0 0.4 0  0.1 0.4 0  0.2 0.4 0  0.3 0.4 0  0.4 0.4 0  0.5 0.4 0  0.6 0.4 0  0.7 0.4 0  0.8 0.4 0  0.9 0.4 0  1 0.4 0  0 0.5 0  0.1 0.5 0  0.2 0.5 0  0.3 0.5 0  0.4 0.5 0  0.5 0.5 0  0.6 0.5 0  0.7 0.5 0  0.8 0.5 0  0.9 0.5 0  1 0.5 0  0 0.6 0  0.1 0.6 0  0.2 0.6 0  0.3 0.6 0  0.4 0.6 0  0.5 0.6 0  0.6 0.6 0  0.7 0.6 0  0.8 0.6 0  0.9 0.6 0  1 0.6 0  0 0.7 0  0.1 0.7 0  0.2 0.7 0  0.3 0.7 0  0.4 0.7 0  0.5 0.7 0  0.6 0.7 0  0.7 0.7 0  0.8 0.7 0  0.9 0.7 0  1 0.7 0  0 0.8 0  0.1 0.8 0  0.2 0.8 0  0.3 0.8 0  0.4 0.8 0  0.5 0.8 0  0.6 0.8 0  0.7 0.8 0  0.8 0.8 0  0.9 0.8 0  1 0.8 0  0 0.9 0  0.1 0.9 0  0.2 0.9 0  0.3 0.9 0  0.4 0.9 0  0.5 0.9 0  0.6 0.9 0  0.7 0.9 0  0.8 0.9 0  0.9 0.9 0  1 0.9 0  0 1 0  0.1 1 0  0.2 1 0  0.3 1 0  0.4 1 0  0.5 1 0  0.6 1 0  0.7 1 0  0.8 1 0  0.9 1 0  1 1 0  </DataArray>
</Points>
<Cells>
<DataArray  type="UInt32"  Name="connectivity"  format="ascii">0 1 12  0 11 12  1 2 13  1 12 13  2 3 14  2 13 14  3 4 15  3 14 15  4 5 16  4 15 16  5 6 17  5 16 17  6 7 18  6 17 18  7 8 19  7 18 19  8 9 20  8 19 20  9 10 21  9 20 21  11 12 23  11 22 23  12 13 24  12 23 24  13 14 25  13 24 25  14 15 26  14 25 26  15 16 27  15 26 27  16 17 28  16 27 28  17 18 29  17 28 29  18 19 30  18 29 30  19 20 31  19 30 31  20 21 32  20 31 32  22 23 34  22 33 34  23 24 35  23 34 35  24 25 36  24 35 36  25 26 37  25 36 37  26 27 38  26 37 38  27 28 39  27 38 39  28 29 40  28 39 40  29 30 41  29 40 41  30 31 42  30 41 42  31 32 43  31 42 43  33 34 45  33 44 45  34 35 46  34 45 46  35 36 47  35 46 47  36 37 48  36 47 48  37 38 49  37 48 49  38 39 50  38 49 50  39 40 51  39 50 51  40 41 52  40 51 52  41 42 53  41 52 53  42 43 54  42 53 54  44 45 56  44 55 56  45 46 57  45 56 57  46 47 58  46 57 58  47 48 59  47 58 59  48 49 60  48 59 60  49 50 61  49 60 61  50 51 62  50 61 62  51 52 63  51 62 63  52 53 64  52 63 64  53 54 65  53 64 65  55 56 67  55 66 67  56 57 68  56 67 68  57 58 69  57 68 69  58 59 70  58 69 70  59 60 71  59 70 71  60 61 72  60 71 72  61 62 73  61 72 73  62 63 74  62 73 74  63 64 75  63 74 75  64 65 76  64 75 76  66 67 78  66 77 78  67 68 79  67 78 79  68 69 80  68 79 80  69 70 81  69 80 81  70 71 82  70 81 82  71 72 83  71 82 83  72 73 84  72 83 84  73 74 85  73 84 85  74 75 86  74 85 86  75 76 87  75 86 87  77 78 89  77 88 89  78 79 90  78 89 90  79 80 91  79 90 91  80 81 92  80 91 92  81 82 93  81 92 93  82 83 94  82 93 94  83 84 95  83 94 95  84 85 96  84 95 96  85 86 97  85 96 97  86 87 98  86 97 98  88 89 100  88 99 100  89 90 101  89 100 101  90 91 102  90 101 102  91 92 103  91 102 103  92 93 104  92 103 104  93 94 105  93 104 105  94 95 106  94 105 106  95 96 107  95 106 107  96 97 108  96 107 108  97 98 109  97 108 109  99 100 111  99 110 111  100 101 112  100 111 112  101 102 113  101 112 113  102 103 114  102 113 114  103 104 115  103 114 115  104 105 116  104 115 116  105 106 117  105 116 117  106 107 118  106 117 118  107 108 119  107 118 119  108 109 120  108 119 120  </DataArray>
<DataArray  type="UInt32"  Name="offsets"  format="ascii">3 6 9 12 15 18 21 24 27 30 33 36 39 42 45 48 51 54 57 60 63 66 69 72 75 78 81 84 87 90 93 96 99 102 105 108 111 114 117 120 123 126 129 132 135 138 141 144 147 150 153 156 159 162 165 168 171 174 177 180 183 186 189 192 195 198 201 204 207 210 213 216 219 222 225 228 231 234 237 240 243 246 249 252 255 258 261 264 267 270 273 276 279 282 285 288 291 294 297 300 303 306 309 312 315 318 321 324 327 330 333 336 339 342 345 348 351 354 357 360 363 366 369 372 375 378 381 384 387 390 393 396 399 402 405 408 411 414 417 420 423 426 429 432 435 438 441 444 447 450 453 456 459 462 465 468 471 474 477 480 483 486 489 492 495 498 501 504 507 510 513 516 519 522 525 528 531 534 537 540 543 546 549 552 555 558 561 564 567 570 573 576 579 582 585 588 591 594 597 600 </DataArray>
<DataArray  type="UInt8"  Name="types"  format="ascii">5 5 5 5 5 5 5 5 5 5 5 5 5 5 5 5 5 5 5 5 5 5 5 5 5 5 5 5 5 5 5 5 5 5 5 5 5 5 5 5 5 5 5 5 5 5 5 5 5 5 5 5 5 5 5 5 5 5 5 5 5 5 5 5 5 5 5 5 5 5 5 5 5 5 5 5 5 5 5 5 5 5 5 5 5 5 5 5 5 5 5 5 5 5 5 5 5 5 5 5 5 5 5 5 5 5 5 5 5 5 5 5 5 5 5 5 5 5 5 5 5 5 5 5 5 5 5 5 5 5 5 5 5 5 5 5 5 5 5 5 5 5 5 5 5 5 5 5 5 5 5 5 5 5 5 5 5 5 5 5 5 5 5 5 5 5 5 5 5 5 5 5 5 5 5 5 5 5 5 5 5 5 5 5 5 5 5 5 5 5 5 5 5 5 5 5 5 5 5 5 </DataArray>
</Cells>
<PointData  Vectors="f_34"> 
<DataArray  type="Float64"  Name="f_34"  NumberOfComponents="3" format="ascii">-1.7105164053957713e-16 1.3650379241378546e-14 0.0000000000000000e+00  -9.5730222903006218e-16 2.3206571827719722e-14 0.0000000000000000e+00  7.5461213423866034e-15 1.0726670984567585e-14 0.0000000000000000e+00  9.3767074914824429e-15 -8.4278480617107120e-16 0.0000000000000000e+00  8.3257141463084980e-15 1.2205136599240181e-17 0.0000000000000000e+00  8.1716929145943554e-15 3.1627084296426474e-17 0.0000000000000000e+00  8.0778006424590785e-15 -2.0047525278021423e-18 0.0000000000000000e+00  8.0282575397235386e-15 2.4654419039209995e-18 0.0000000000000000e+00  8.0046901362417281e-15 9.5868673349811904e-19 0.0000000000000000e+00  7.9935857045949323e-15 6.4497514760978531e-19 0.0000000000000000e+00  7.9899955084614783e-15 2.5211851131584180e-19 0.0000000000000000e+00  -2.1235097397983118e-16 1.3794208860241551e-14 0.0000000000000000e+00  3.0564973796475176e-15 1.6534316109649147e-14 0.0000000000000000e+00  8.5400350966564658e-15 9.2860924895427263e-15 0.0000000000000000e+00  8.8617871338963368e-15 -1.9714125658511669e-15 0.0000000000000000e+00  8.1126844258494753e-15 8.0690507810210097e-16 0.0000000000000000e+00  8.1532142647897574e-15 6.1467407299108992e-17 0.0000000000000000e+00  8.0495875671404024e-15 6.7910873988726141e-17 0.0000000000000000e+00  8.0173390891924317e-15 3.3915187634117850e-17 0.0000000000000000e+00  7.9985519249016529e-15 1.5871974700898715e-17 0.0000000000000000e+00  7.9897189961539001e-15 6.9411575214536420e-18 0.0000000000000000e+00  7.9873381861782549e-15 4.3864953508774721e-19 0.0000000000000000e+00  -1.4175015536085202e-17 1.0456760788212395e-14 0.0000000000000000e+00  3.7123133975452873e-15 1.2244956193487831e-14 0.0000000000000000e+00  7.7882030495986474e-15 5.9491221196557130e-15 0.0000000000000000e+00  7.8559632027398734e-15 -1.0237215052290031e-15 0.0000000000000000e+00  7.9767379099894071e-15 9.6300085083347110e-16 0.0000000000000000e+00  8.0366930708279429e-15 1.0726957361555948e-17 0.0000000000000000e+00  7.9886508564500715e-15 1.3017314136345139e-16 0.0000000000000000e+00  7.9900872743942007e-15 4.4517008507878641e-17 0.0000000000000000e+00  7.9822863245336101e-15 2.5184089350070668e-17 0.0000000000000000e+00  7.9799355725320385e-15 1.0410158223960940e-17 0.0000000000000000e+00  7.9792380626495371e-15 5.2767217314001724e-20 0.0000000000000000e+00  2.3457941276637998e-18 7.0653384465600663e-15 0.0000000000000000e+00  3.6963951249608654e-15 7.9462864123546755e-15 0.0000000000000000e+00  7.3926151565237423e-15 3.8944932080224165e-15 0.0000000000000000e+00  7.6763861907935838e-15 -5.8838911280687759e-16 0.0000000000000000e+00  7.8521609577982261e-15 6.3047968383039015e-16 0.0000000000000000e+00  7.9009579087526193e-15 2.9144498465939534e-17 0.0000000000000000e+00  7.9347724605376684e-15 1.3203355773280685e-16 0.0000000000000000e+00  7.9573278717722674e-15 3.5525779399423765e-17 0.0000000000000000e+00  7.9635167991887980e-15 2.6181791456460980e-17 0.0000000000000000e+00  7.9682874907490017e-15 9.4580878320314253e-18 0.0000000000000000e+00  7.9694162582648207e-15 -1.4450759637470459e-19 0.0000000000000000e+00  2.6390450620966013e-18 3.6218030921846375e-15 0.0000000000000000e+00  3.6367522529856573e-15 3.8249312875155356e-15 0.0000000000000000e+00  7.2271845757649844e-15 1.9255951912736381e-15 0.0000000000000000e+00  7.5184223694767067e-15 -4.0200490986182162e-16 0.0000000000000000e+00  7.7086624067223970e-15 3.7799841997852565e-16 0.0000000000000000e+00  7.8252016535293123e-15 1.7026208498802703e-17 0.0000000000000000e+00  7.8961389679387119e-15 7.7451540148811559e-17 0.0000000000000000e+00  7.9308841472924740e-15 1.7626308842534128e-17 0.0000000000000000e+00  7.9494815955531221e-15 1.6991559908258188e-17 0.0000000000000000e+00  7.9589748272311629e-15 4.8026175490504213e-18 0.0000000000000000e+00  7.9615273636065580e-15 -1.2132335176815136e-19 0.0000000000000000e+00  1.7800670562965637e-18 2.2810850330164834e-16 0.0000000000000000e+00  3.6087125450254579e-15 -2.3200235963415076e-16 0.0000000000000000e+00  7.1702499299964676e-15 -7.7145160828095087e-18 0.0000000000000000e+00  7.4706339446859976e-15 -2.1891454577520527e-16 0.0000000000000000e+00  7.6773337765836901e-15 1.0825935475074642e-16 0.0000000000000000e+00  7.8060968757951498e-15 -5.0447161104042877e-17 0.0000000000000000e+00  7.8804685342207430e-15 1.2661399620030819e-17 0.0000000000000000e+00  7.9219551612311065e-15 -7.0234757538371107e-18 0.0000000000000000e+00  7.9447701718428642e-15 1.0817842316286121e-18 0.0000000000000000e+00  7.9554783392331798e-15 -1.3875768978910172e-18 0.0000000000000000e+00  7.9586061481286011e-15 -8.9271133570606007e-20 0.0000000000000000e+00  -8.8634064464509223e-18 -3.1732865870283808e-15 0.0000000000000000e+00  3.6239630052991921e-15 -4.2912946476228398e-15 0.0000000000000000e+00  7.2209499751346774e-15 -1.9377784949284996e-15 0.0000000000000000e+00  7.5225397593434810e-15 -4.7199279100595457e-17 0.0000000000000000e+00  7.7171141005358446e-15 -1.6555286032033608e-16 0.0000000000000000e+00  7.8328199912475284e-15 -1.1345455013691906e-16 0.0000000000000000e+00  7.8973198980852369e-15 -4.7336726135336072e-17 0.0000000000000000e+00  7.9325130294115565e-15 -3.3290703235793090e-17 0.0000000000000000e+00  7.9506830430434146e-15 -1.4417213552033733e-17 0.0000000000000000e+00  7.9591898652059336e-15 -7.1083091688817273e-18 0.0000000000000000e+00  7.9616619413519077e-15 -1.0114528005484989e-19 0.0000000000000000e+00  1.5872361895670180e-17 -6.5395422743439282e-15 0.0000000000000000e+00  3.6889614172942288e-15 -8.4100664926959034e-15 0.0000000000000000e+00  7.3812084205457412e-15 -3.9255672332241259e-15 0.0000000000000000e+00  7.6784677501177264e-15 1.4612851095972580e-16 0.0000000000000000e+00  7.8400792142644222e-15 -4.0671998245956416e-16 0.0000000000000000e+00  7.9100311151734731e-15 -1.5412591984451157e-16 0.0000000000000000e+00  7.9435144793112128e-15 -9.0407464424505865e-17 0.0000000000000000e+00  7.9583860440567238e-15 -4.9783223691315421e-17 0.0000000000000000e+00  7.9655945230124067e-15 -2.3837411049633407e-17 0.0000000000000000e+00  7.9687566014112023e-15 -1.0520346225053752e-17 0.0000000000000000e+00  7.9695400271876767e-15 3.8195168825997558e-20 0.0000000000000000e+00  9.6099195718930650e-17 -9.7983187548547648e-15 0.0000000000000000e+00  3.5829533049737520e-15 -1.2852472048647332e-14 0.0000000000000000e+00  7.6519380197475825e-15 -5.9446837625368358e-15 0.0000000000000000e+00  8.0194486233207810e-15 4.3481276768515231e-16 0.0000000000000000e+00  8.0301655047484789e-15 -6.1331567960156496e-16 0.0000000000000000e+00  8.0268654714424695e-15 -1.2582916406189790e-16 0.0000000000000000e+00  8.0037344546674837e-15 -1.0561453317176720e-16 0.0000000000000000e+00  7.9916066951144553e-15 -4.7007821305230996e-17 0.0000000000000000e+00  7.9842614285390239e-15 -2.4417340952757641e-17 0.0000000000000000e+00  7.9805807421788692e-15 -1.0043223586324421e-17 0.0000000000000000e+00  7.9793310157200715e-15 2.7414753700413903e-19 0.0000000000000000e+00  5.2643911820258831e-16 -1.3267044440034829e-14 0.0000000000000000e+00  2.8281728195773866e-15 -1.7055023249283632e-14 0.0000000000000000e+00  8.6902838215128599e-15 -8.2706858404102521e-15 0.0000000000000000e+00  8.3774296631394220e-15 4.6734534154950400e-16 0.0000000000000000e+00  8.3256629766000970e-15 -4.4532794216485240e-16 0.0000000000000000e+00  8.1236485230323060e-15 -8.5805418012236840e-17 0.0000000000000000e+00  8.0584987904047390e-15 -6.5346218397465871e-17 0.0000000000000000e+00  8.0190596961045881e-15 -2.8537590570794939e-17 0.0000000000000000e+00  7.9993710531041127e-15 -1.4765171009749587e-17 0.0000000000000000e+00  7.9900965690343688e-15 -5.8413087222439674e-18 0.0000000000000000e+00  7.9872861186531608e-15 4.6712469661297654e-19 0.0000000000000000e+00  2.4671793603088597e-16 -1.5779614557100567e-14 0.0000000000000000e+00  -2.1089059361071502e-16 -1.8020790085907377e-14 0.0000000000000000e+00  5.9451316076348421e-15 -1.8055383516772403e-14 0.0000000000000000e+00  1.0029345386065353e-14 4.7821618195866141e-15 0.0000000000000000e+00  8.2658397663336588e-15 -1.0988554143403195e-15 0.0000000000000000e+00  8.1886150269473791e-15 2.5824890974013414e-16 0.0000000000000000e+00  8.0802100246824784e-15 -4.7672968463366282e-17 0.0000000000000000e+00  8.0292410848566183e-15 1.2946572866728931e-17 0.0000000000000000e+00  8.0052802876298214e-15 -1.0765437845245721e-18 0.0000000000000000e+00  7.9937143021685813e-15 1.1196892967604337e-18 0.0000000000000000e+00  7.9905297714338037e-15 5.6538184429435981e-19 0.0000000000000000e+00  </DataArray> 
</PointData> 
</Piece>
</UnstructuredGrid>
</VTKFile>