<?xml version="1.0"?>
<VTKFile type="UnstructuredGrid"  version="0.1"  >
<UnstructuredGrid>
<Piece  NumberOfPoints="121" NumberOfCells="200">
<Points>
<DataArray  type="Float64"  NumberOfComponents="3"  format="ascii">0 0 0  0.1 0 0  0.2 0 0  0.3 0 0  0.4 0 0  0.5 0 0  0.6 0 0  0.7 0 0  0.8 0 0  0.9 0 0  1 0 0  0 0.1 0  0.1 0.1 0  0.2 0.1 0  0.3 0.1 0  0.4 0.1 0  0.5 0.1 0  0.6 0.1 0  0.7 0.1 0  0.8 0.1 0  0.9 0.1 0  1 0.1 0  0 0.2 0  0.1 0.2 0  0.2 0.2 0  0.3 0.2 0  0.4 0.2 0  0.5 0.2 0  0.6 0.2 0  0.7 0.2 0  0.8 0.2 0  0.9 0.2 0  1 0.2 0  0 0.3 0  0.1 0.3 0  0.2 0.3 0  0.3 0.3 0  0.4 0.3 0  0.5 0.3 0  0.6 0.3 0  0.7 0.3 0  0.8 0.3 0  0.9 0.3 0  1 0.3 0  0 0.4 0  0.1 0.4 0  0.2 0.4 0  0.3 0.4 0  0.4 0.4 0  0.5 0.4 0  0.6 0.4 0  0.7 0.4 0  0.8 0.4 0  0.9 0.4 0  1 0.4 0  0 0.5 0  0.1 0.5 0  0.2 0.5 0  0.3 0.5 0  0.4 0.5 0  0.5 0.5 0  0.6 0.5 0  0.7 0.5 0  0.8 0.5 0  0.9 0.5 0  1 0.5 0  0 0.6 0  0.1 0.6 0  0.2 0.6 0  0.3 0.6 0  0.4 0.6 0  0.5 0.6 0  0.6 0.6 0  0.7 0.6 0  0.8 0.6 0  0.9 0.6 0  1 0.6 0  0 0.7 0  0.1 0.7 0  0.2 0.7 0  0.3 0.7 0  0.4 0.7 0  0.5 0.7 0  0.6 0.7 0  0.7 0.7 0  0.8 0.7 0  0.9 0.7 0  1 0.7 0  0 0.8 0  0.1 0.8 0  0.2 0.8 0  0.3 0.8 0  0.4 0.8 0  0.5 0.8 0  0.6 0.8 0  0.7 0.8 0  0.8 0.8 0  0.9 0.8 0  1 0.8 0  0 0.9 0  0.1 0.9 0  0.2 0.9 0  0.3 0.9 0  0.4 0.9 0  0.5 0.9 0  0.6 0.9 0  0.7 0.9 0  0.8 0.9 0  0.9 0.9 0  1 0.9 0  0 1 0  0.1 1 0  0.2 1 0  0.3 1 0  0.4 1 0  0.5 1 0  0.6 1 0  0.7 1 0  0.8 1 0  0.9 1 0  1 1 0  </DataArray>
</Points>
<Cells>
<DataArray  type="UInt32"  Name="connectivity"  format="ascii">0 1 12  0 11 12  1 2 13  1 12 13  2 3 14  2 13 14  3 4 15  3 14 15  4 5 16  4 15 16  5 6 17  5 16 17  6 7 18  6 17 18  7 8 19  7 18 19  8 9 20  8 19 20  9 10 21  9 20 21  11 12 23  11 22 23  12 13 24  12 23 24  13 14 25  13 24 25  14 15 26  14 25 26  15 16 27  15 26 27  16 17 28  16 27 28  17 18 29  17 28 29  18 19 30  18 29 30  19 20 31  19 30 31  20 21 32  20 31 32  22 23 34  22 33 34  23 24 35  23 34 35  24 25 36  24 35 36  25 26 37  25 36 37  26 27 38  26 37 38  27 28 39  27 38 39  28 29 40  28 39 40  29 30 41  29 40 41  30 31 42  30 41 42  31 32 43  31 42 43  33 34 45  33 44 45  34 35 46  34 45 46  35 36 47  35 46 47  36 37 48  36 47 48  37 38 49  37 48 49  38 39 50  38 49 50  39 40 51  39 50 51  40 41 52  40 51 52  41 42 53  41 52 53  42 43 54  42 53 54  44 45 56  44 55 56  45 46 57  45 56 57  46 47 58  46 57 58  47 48 59  47 58 59  48 49 60  48 59 60  49 50 61  49 60 61  50 51 62  50 61 62  51 52 63  51 62 63  52 53 64  52 63 64  53 54 65  53 64 65  55 56 67  55 66 67  56 57 68  56 67 68  57 58 69  57 68 69  58 59 70  58 69 70  59 60 71  59 70 71  60 61 72  60 71 72  61 62 73  61 72 73  62 63 74  62 73 74  63 64 75  63 74 75  64 65 76  64 75 76  66 67 78  66 77 78  67 68 79  67 78 79  68 69 80  68 79 80  69 70 81  69 80 81  70 71 82  70 81 82  71 72 83  71 82 83  72 73 84  72 83 84  73 74 85  73 84 85  74 75 86  74 85 86  75 76 87  75 86 87  77 78 89  77 88 89  78 79 90  78 89 90  79 80 91  79 90 91  80 81 92  80 91 92  81 82 93  81 92 93  82 83 94  82 93 94  83 84 95  83 94 95  84 85 96  84 95 96  85 86 97  85 96 97  86 87 98  86 97 98  88 89 100  88 99 100  89 90 101  89 100 101  90 91 102  90 101 102  91 92 103  91 102 103  92 93 104  92 103 104  93 94 105  93 104 105  94 95 106  94 105 106  95 96 107  95 106 107  96 97 108  96 107 108  97 98 109  97 108 109  99 100 111  99 110 111  100 101 112  100 111 112  101 102 113  101 112 113  102 103 114  102 113 114  103 104 115  103 114 115  104 105 116  104 115 116  105 106 117  105 116 117  106 107 118  106 117 118  107 108 119  107 118 119  108 109 120  108 119 120  </DataArray>
<DataArray  type="UInt32"  Name="offsets"  format="ascii">3 6 9 12 15 18 21 24 27 30 33 36 39 42 45 48 51 54 57 60 63 66 69 72 75 78 81 84 87 90 93 96 99 102 105 108 111 114 117 120 123 126 129 132 135 138 141 144 147 150 153 156 159 162 165 168 171 174 177 180 183 186 189 192 195 198 201 204 207 210 213 216 219 222 225 228 231 234 237 240 243 246 249 252 255 258 261 264 267 270 273 276 279 282 285 288 291 294 297 300 303 306 309 312 315 318 321 324 327 330 333 336 339 342 345 348 351 354 357 360 363 366 369 372 375 378 381 384 387 390 393 396 399 402 405 408 411 414 417 420 423 426 429 432 435 438 441 444 447 450 453 456 459 462 465 468 471 474 477 480 483 486 489 492 495 498 501 504 507 510 513 516 519 522 525 528 531 534 537 540 543 546 549 552 555 558 561 564 567 570 573 576 579 582 585 588 591 594 597 600 </DataArray>
<DataArray  type="UInt8"  Name="types"  format="ascii">5 5 5 5 5 5 5 5 5 5 5 5 5 5 5 5 5 5 5 5 5 5 5 5 5 5 5 5 5 5 5 5 5 5 5 5 5 5 5 5 5 5 5 5 5 5 5 5 5 5 5 5 5 5 5 5 5 5 5 5 5 5 5 5 5 5 5 5 5 5 5 5 5 5 5 5 5 5 5 5 5 5 5 5 5 5 5 5 5 5 5 5 5 5 5 5 5 5 5 5 5 5 5 5 5 5 5 5 5 5 5 5 5 5 5 5 5 5 5 5 5 5 5 5 5 5 5 5 5 5 5 5 5 5 5 5 5 5 5 5 5 5 5 5 5 5 5 5 5 5 5 5 5 5 5 5 5 5 5 5 5 5 5 5 5 5 5 5 5 5 5 5 5 5 5 5 5 5 5 5 5 5 5 5 5 5 5 5 5 5 5 5 5 5 5 5 5 5 5 5 </DataArray>
</Cells>
<PointData  Vectors="f_34"> 
<DataArray  type="Float64"  Name="f_34"  NumberOfComponents="3" format="ascii">2.4143510381138315e-02 -1.9267168200263314e+00 0.0000000000000000e+00  1.3512081048487096e-01 -3.2755494543389156e+00 0.0000000000000000e+00  -1.0651161157679045e+00 -1.5140427268281238e+00 0.0000000000000000e+00  -1.3234987629897985e+00 1.1895696324613232e-01 0.0000000000000000e+00  -1.1751536862651837e+00 -1.7227244430825140e-03 0.0000000000000000e+00  -1.1534139754090005e+00 -4.4640836862344744e-03 0.0000000000000000e+00  -1.1401613165051996e+00 2.8296579508678025e-04 0.0000000000000000e+00  -1.1331684317165152e+00 -3.4799094596974433e-04 0.0000000000000000e+00  -1.1298419517784897e+00 -1.3531622982033205e-04 0.0000000000000000e+00  -1.1282745890809194e+00 -9.1036625674134424e-05 0.0000000000000000e+00  -1.1277678418942580e+00 -3.5585896027076394e-05 0.0000000000000000e+00  2.9972807793917866e-02 -1.9470180102702821e+00 0.0000000000000000e+00  -4.3141694509716394e-01 -2.3337772814051236e+00 0.0000000000000000e+00  -1.2054045512864069e+00 -1.3107086825607688e+00 0.0000000000000000e+00  -1.2508190449840353e+00 2.7825994301482321e-01 0.0000000000000000e+00  -1.1450850751067672e+00 -1.1389262954916844e-01 0.0000000000000000e+00  -1.1508057602993476e+00 -8.6759704937424929e-03 0.0000000000000000e+00  -1.1361791116301601e+00 -9.5854496686911001e-03 0.0000000000000000e+00  -1.1316273197873159e+00 -4.7870437380179249e-03 0.0000000000000000e+00  -1.1289755586311212e+00 -2.2402894514816879e-03 0.0000000000000000e+00  -1.1277288128750156e+00 -9.7972698857730529e-04 0.0000000000000000e+00  -1.1273927675136228e+00 -6.1914282558460655e-05 0.0000000000000000e+00  2.0007679182067321e-03 -1.4759455790479503e+00 0.0000000000000000e+00  -5.2398373245029795e-01 -1.7283448790171470e+00 0.0000000000000000e+00  -1.0992853420478779e+00 -8.3970367779860999e-01 0.0000000000000000e+00  -1.1088495178466744e+00 1.4449572486369897e-01 0.0000000000000000e+00  -1.1258965650954442e+00 -1.3592515667082133e-01 0.0000000000000000e+00  -1.1343590857911943e+00 -1.5140831482220688e-03 0.0000000000000000e+00  -1.1275780476327397e+00 -1.8373612670064796e-02 0.0000000000000000e+00  -1.1277807944256768e+00 -6.2834641845972011e-03 0.0000000000000000e+00  -1.1266797099031989e+00 -3.5546710966692079e-03 0.0000000000000000e+00  -1.1263479071495199e+00 -1.4693677438931301e-03 0.0000000000000000e+00  -1.1262494553776681e+00 -7.4479604768706921e-06 0.0000000000000000e+00  -3.3110296220429178e-04 -9.9725481493591162e-01 0.0000000000000000e+00  -5.2173690816858198e-01 -1.1215984125203156e+00 0.0000000000000000e+00  -1.0434491023428476e+00 -5.4969795612926231e-01 0.0000000000000000e+00  -1.0835026726573360e+00 8.3049648681475019e-02 0.0000000000000000e+00  -1.1083128405021538e+00 -8.8990627296170535e-02 0.0000000000000000e+00  -1.1152004078369029e+00 -4.1136729179907412e-03 0.0000000000000000e+00  -1.1199732470770307e+00 -1.8636205778122226e-02 0.0000000000000000e+00  -1.1231568868455595e+00 -5.0143747293077707e-03 0.0000000000000000e+00  -1.1240304384400266e+00 -3.6954942485873002e-03 0.0000000000000000e+00  -1.1247038095976700e+00 -1.3349853941096441e-03 0.0000000000000000e+00  -1.1248631323036791e+00 2.0396885069121361e-05 0.0000000000000000e+00  -3.7249459667303017e-04 -5.1120842968101987e-01 0.0000000000000000e+00  -5.1331846626325006e-01 -5.3987946538230125e-01 0.0000000000000000e+00  -1.0200989904625544e+00 -2.7179293541840283e-01 0.0000000000000000e+00  -1.0612064751594443e+00 5.6741985542499283e-02 0.0000000000000000e+00  -1.0880583796466570e+00 -5.3353529659330948e-02 0.0000000000000000e+00  -1.1045076022686502e+00 -2.4032066593782844e-03 0.0000000000000000e+00  -1.1145202264180047e+00 -1.0932090786850061e-02 0.0000000000000000e+00  -1.1194244214071645e+00 -2.4879093189568479e-03 0.0000000000000000e+00  -1.1220494046211691e+00 -2.3983160976572206e-03 0.0000000000000000e+00  -1.1233893504810637e+00 -6.7787743096626855e-04 0.0000000000000000e+00  -1.1237496345934197e+00 1.7124487048358727e-05 0.0000000000000000e+00  -2.5125200387777650e-04 -3.2196943566966153e-02 0.0000000000000000e+00  -5.0936073175637231e-01 3.2746551629708284e-02 0.0000000000000000e+00  -1.0120628078990708e+00 1.0888846113547913e-03 0.0000000000000000e+00  -1.0544612587651849e+00 3.0899239503540402e-02 0.0000000000000000e+00  -1.0836364220168166e+00 -1.5280536608913424e-02 0.0000000000000000e+00  -1.1018110107709076e+00 7.1204903616973484e-03 0.0000000000000000e+00  -1.1123083839711696e+00 -1.7871248249996731e-03 0.0000000000000000e+00  -1.1181641174019814e+00 9.9134600077293439e-04 0.0000000000000000e+00  -1.1213843989719978e+00 -1.5269113318017708e-04 0.0000000000000000e+00  -1.1228958299628706e+00 1.9585300166308206e-04 0.0000000000000000e+00  -1.1233373123497132e+00 1.2600396781540059e-05 0.0000000000000000e+00  1.2510476068932695e-03 4.4790144902773327e-01 0.0000000000000000e+00  -5.1151329600407336e-01 6.0570548488504294e-01 0.0000000000000000e+00  -1.0192189922084307e+00 2.7351257819610503e-01 0.0000000000000000e+00  -1.0617876344203454e+00 6.6620599565884574e-03 0.0000000000000000e+00  -1.0892513150472130e+00 2.3367371333958845e-02 0.0000000000000000e+00  -1.1055829115448830e+00 1.6013825417737406e-02 0.0000000000000000e+00  -1.1146869117485985e+00 6.6814602610775070e-03 0.0000000000000000e+00  -1.1196543340360554e+00 4.6988993302438178e-03 0.0000000000000000e+00  -1.1222189859234182e+00 2.0349535611720294e-03 0.0000000000000000e+00  -1.1234197025522838e+00 1.0033200246978846e-03 0.0000000000000000e+00  -1.1237686299048999e+00 1.4276402792463351e-05 0.0000000000000000e+00  -2.2403441030579281e-03 9.2304000295153987e-01 0.0000000000000000e+00  -5.2068765896141889e-01 1.1870598085581536e+00 0.0000000000000000e+00  -1.0418390701465401e+00 5.5408397691032241e-01 0.0000000000000000e+00  -1.0837964795392372e+00 -2.0625673102036321e-02 0.0000000000000000e+00  -1.1066075326810170e+00 5.7407506222993426e-02 0.0000000000000000e+00  -1.1164810681843902e+00 2.1754487323418215e-02 0.0000000000000000e+00  -1.1212071611181122e+00 1.2760787028877837e-02 0.0000000000000000e+00  -1.1233062452115730e+00 7.0267772598152948e-03 0.0000000000000000e+00  -1.1243237039506326e+00 3.3645908295335458e-03 0.0000000000000000e+00  -1.1247700233919908e+00 1.4849205041076578e-03 0.0000000000000000e+00  -1.1248806019769488e+00 -5.3911523561005205e-06 0.0000000000000000e+00  -1.3564160636760095e-02 1.3830081361938475e+00 0.0000000000000000e+00  -5.0572487957958545e-01 1.8140942194472138e+00 0.0000000000000000e+00  -1.0800518745849697e+00 8.3907721481446562e-01 0.0000000000000000e+00  -1.1319250752427241e+00 -6.1372732452858958e-02 0.0000000000000000e+00  -1.1334377361981369e+00 8.6567971114836773e-02 0.0000000000000000e+00  -1.1329719447673705e+00 1.7760471160611684e-02 0.0000000000000000e+00  -1.1297070597193726e+00 1.4907226671362317e-02 0.0000000000000000e+00  -1.1279952568524441e+00 6.6350361685973830e-03 0.0000000000000000e+00  -1.1269584908836559e+00 3.4464464819697017e-03 0.0000000000000000e+00  -1.1264389712282743e+00 1.4175758393909098e-03 0.0000000000000000e+00  -1.1262625754706197e+00 -3.8695237792743566e-05 0.0000000000000000e+00  -7.4305562199039762e-02 1.8726100735110711e+00 0.0000000000000000e+00  -3.9918950565880018e-01 2.4072737891944720e+00 0.0000000000000000e+00  -1.2266117822540858e+00 1.1673865787968198e+00 0.0000000000000000e+00  -1.1824532018590406e+00 -6.5964623722310822e-02 0.0000000000000000e+00  -1.1751464637890832e+00 6.2856922978067123e-02 0.0000000000000000e+00  -1.1466326299464555e+00 1.2111219711201642e-02 0.0000000000000000e+00  -1.1374369084610600e+00 9.2234549593921879e-03 0.0000000000000000e+00  -1.1318701791408716e+00 4.0280093895908855e-03 0.0000000000000000e+00  -1.1290911765240417e+00 2.0840668842919147e-03 0.0000000000000000e+00  -1.1277821063408411e+00 8.2448608694724664e-04 0.0000000000000000e+00  -1.1273854183129421e+00 -6.5933480244768927e-05 0.0000000000000000e+00  -3.4823618358670948e-02 2.2272530486579822e+00 0.0000000000000000e+00  2.9766678764748693e-02 2.5435893578276145e+00 0.0000000000000000e+00  -8.3914042702768454e-01 2.5484721338978966e+00 0.0000000000000000e+00  -1.4156169662018927e+00 -6.7499015602109658e-01 0.0000000000000000e+00  -1.1667025675858957e+00 1.5510068783793554e-01 0.0000000000000000e+00  -1.1558024891582837e+00 -3.6451186399383106e-02 0.0000000000000000e+00  -1.1405013947677622e+00 6.7289200230094305e-03 0.0000000000000000e+00  -1.1333072566471354e+00 -1.8273763140871987e-03 0.0000000000000000e+00  -1.1299252501679189e+00 1.5195145720667640e-04 0.0000000000000000e+00  -1.1282927403061536e+00 -1.5804133812927524e-04 0.0000000000000000e+00  -1.1278432517738519e+00 -7.9802230389530905e-05 0.0000000000000000e+00  </DataArray> 
</PointData> 
</Piece>
</UnstructuredGrid>
</VTKFile>