<?xml version="1.0"?>
<VTKFile type="UnstructuredGrid"  version="0.1"  >
<UnstructuredGrid>
<Piece  NumberOfPoints="121" NumberOfCells="200">
<Points>
<DataArray  type="Float64"  NumberOfComponents="3"  format="ascii">0 0 0  0.1 0 0  0.2 0 0  0.3 0 0  0.4 0 0  0.5 0 0  0.6 0 0  0.7 0 0  0.8 0 0  0.9 0 0  1 0 0  0 0.1 0  0.1 0.1 0  0.2 0.1 0  0.3 0.1 0  0.4 0.1 0  0.5 0.1 0  0.6 0.1 0  0.7 0.1 0  0.8 0.1 0  0.9 0.1 0  1 0.1 0  0 0.2 0  0.1 0.2 0  0.2 0.2 0  0.3 0.2 0  0.4 0.2 0  0.5 0.2 0  0.6 0.2 0  0.7 0.2 0  0.8 0.2 0  0.9 0.2 0  1 0.2 0  0 0.3 0  0.1 0.3 0  0.2 0.3 0  0.3 0.3 0  0.4 0.3 0  0.5 0.3 0  0.6 0.3 0  0.7 0.3 0  0.8 0.3 0  0.9 0.3 0  1 0.3 0  0 0.4 0  0.1 0.4 0  0.2 0.4 0  0.3 0.4 0  0.4 0.4 0  0.5 0.4 0  0.6 0.4 0  0.7 0.4 0  0.8 0.4 0  0.9 0.4 0  1 0.4 0  0 0.5 0  0.1 0.5 0  0.2 0.5 0  0.3 0.5 0  0.4 0.5 0  0.5 0.5 0  0.6 0.5 0  0.7 0.5 0  0.8 0.5 0  0.9 0.5 0  1 0.5 0  0 0.6 0  0.1 0.6 0  0.2 0.6 0  0.3 0.6 0  0.4 0.6 0  0.5 0.6 0  0.6 0.6 0  0.7 0.6 0  0.8 0.6 0  0.9 0.6 0  1 0.6 0  0 0.7 0  0.1 0.7 0  0.2 0.7 0  0.3 0.7 0  0.4 0.7 0  0.5 0.7 0  0.6 0.7 0  0.7 0.7 0  0.8 0.7 0  0.9 0.7 0  1 0.7 0  0 0.8 0  0.1 0.8 0  0.2 0.8 0  0.3 0.8 0  0.4 0.8 0  0.5 0.8 0  0.6 0.8 0  0.7 0.8 0  0.8 0.8 0  0.9 0.8 0  1 0.8 0  0 0.9 0  0.1 0.9 0  0.2 0.9 0  0.3 0.9 0  0.4 0.9 0  0.5 0.9 0  0.6 0.9 0  0.7 0.9 0  0.8 0.9 0  0.9 0.9 0  1 0.9 0  0 1 0  0.1 1 0  0.2 1 0  0.3 1 0  0.4 1 0  0.5 1 0  0.6 1 0  0.7 1 0  0.8 1 0  0.9 1 0  1 1 0  </DataArray>
</Points>
<Cells>
<DataArray  type="UInt32"  Name="connectivity"  format="ascii">0 1 12  0 11 12  1 2 13  1 12 13  2 3 14  2 13 14  3 4 15  3 14 15  4 5 16  4 15 16  5 6 17  5 16 17  6 7 18  6 17 18  7 8 19  7 18 19  8 9 20  8 19 20  9 10 21  9 20 21  11 12 23  11 22 23  12 13 24  12 23 24  13 14 25  13 24 25  14 15 26  14 25 26  15 16 27  15 26 27  16 17 28  16 27 28  17 18 29  17 28 29  18 19 30  18 29 30  19 20 31  19 30 31  20 21 32  20 31 32  22 23 34  22 33 34  23 24 35  23 34 35  24 25 36  24 35 36  25 26 37  25 36 37  26 27 38  26 37 38  27 28 39  27 38 39  28 29 40  28 39 40  29 30 41  29 40 41  30 31 42  30 41 42  31 32 43  31 42 43  33 34 45  33 44 45  34 35 46  34 45 46  35 36 47  35 46 47  36 37 48  36 47 48  37 38 49  37 48 49  38 39 50  38 49 50  39 40 51  39 50 51  40 41 52  40 51 52  41 42 53  41 52 53  42 43 54  42 53 54  44 45 56  44 55 56  45 46 57  45 56 57  46 47 58  46 57 58  47 48 59  47 58 59  48 49 60  48 59 60  49 50 61  49 60 61  50 51 62  50 61 62  51 52 63  51 62 63  52 53 64  52 63 64  53 54 65  53 64 65  55 56 67  55 66 67  56 57 68  56 67 68  57 58 69  57 68 69  58 59 70  58 69 70  59 60 71  59 70 71  60 61 72  60 71 72  61 62 73  61 72 73  62 63 74  62 73 74  63 64 75  63 74 75  64 65 76  64 75 76  66 67 78  66 77 78  67 68 79  67 78 79  68 69 80  68 79 80  69 70 81  69 80 81  70 71 82  70 81 82  71 72 83  71 82 83  72 73 84  72 83 84  73 74 85  73 84 85  74 75 86  74 85 86  75 76 87  75 86 87  77 78 89  77 88 89  78 79 90  78 89 90  79 80 91  79 90 91  80 81 92  80 91 92  81 82 93  81 92 93  82 83 94  82 93 94  83 84 95  83 94 95  84 85 96  84 95 96  85 86 97  85 96 97  86 87 98  86 97 98  88 89 100  88 99 100  89 90 101  89 100 101  90 91 102  90 101 102  91 92 103  91 102 103  92 93 104  92 103 104  93 94 105  93 104 105  94 95 106  94 105 106  95 96 107  95 106 107  96 97 108  96 107 108  97 98 109  97 108 109  99 100 111  99 110 111  100 101 112  100 111 112  101 102 113  101 112 113  102 103 114  102 113 114  103 104 115  103 114 115  104 105 116  104 115 116  105 106 117  105 116 117  106 107 118  106 117 118  107 108 119  107 118 119  108 109 120  108 119 120  </DataArray>
<DataArray  type="UInt32"  Name="offsets"  format="ascii">3 6 9 12 15 18 21 24 27 30 33 36 39 42 45 48 51 54 57 60 63 66 69 72 75 78 81 84 87 90 93 96 99 102 105 108 111 114 117 120 123 126 129 132 135 138 141 144 147 150 153 156 159 162 165 168 171 174 177 180 183 186 189 192 195 198 201 204 207 210 213 216 219 222 225 228 231 234 237 240 243 246 249 252 255 258 261 264 267 270 273 276 279 282 285 288 291 294 297 300 303 306 309 312 315 318 321 324 327 330 333 336 339 342 345 348 351 354 357 360 363 366 369 372 375 378 381 384 387 390 393 396 399 402 405 408 411 414 417 420 423 426 429 432 435 438 441 444 447 450 453 456 459 462 465 468 471 474 477 480 483 486 489 492 495 498 501 504 507 510 513 516 519 522 525 528 531 534 537 540 543 546 549 552 555 558 561 564 567 570 573 576 579 582 585 588 591 594 597 600 </DataArray>
<DataArray  type="UInt8"  Name="types"  format="ascii">5 5 5 5 5 5 5 5 5 5 5 5 5 5 5 5 5 5 5 5 5 5 5 5 5 5 5 5 5 5 5 5 5 5 5 5 5 5 5 5 5 5 5 5 5 5 5 5 5 5 5 5 5 5 5 5 5 5 5 5 5 5 5 5 5 5 5 5 5 5 5 5 5 5 5 5 5 5 5 5 5 5 5 5 5 5 5 5 5 5 5 5 5 5 5 5 5 5 5 5 5 5 5 5 5 5 5 5 5 5 5 5 5 5 5 5 5 5 5 5 5 5 5 5 5 5 5 5 5 5 5 5 5 5 5 5 5 5 5 5 5 5 5 5 5 5 5 5 5 5 5 5 5 5 5 5 5 5 5 5 5 5 5 5 5 5 5 5 5 5 5 5 5 5 5 5 5 5 5 5 5 5 5 5 5 5 5 5 5 5 5 5 5 5 5 5 5 5 5 5 </DataArray>
</Cells>
<PointData  Vectors="f_34"> 
<DataArray  type="Float64"  Name="f_34"  NumberOfComponents="3" format="ascii">-2.0537696622174660e-02 1.6389632204210780e+00 0.0000000000000000e+00  -1.1494062666415239e-01 2.7863487911308353e+00 0.0000000000000000e+00  9.0604188486686899e-01 1.2879216694560325e+00 0.0000000000000000e+00  1.1258352925903397e+00 -1.0119083694443860e-01 0.0000000000000000e+00  9.9964543315948562e-01 1.4654369400775341e-03 0.0000000000000000e+00  9.8115253054632878e-01 3.7973763962450015e-03 0.0000000000000000e+00  9.6987914553699794e-01 -2.4070508232381800e-04 0.0000000000000000e+00  9.6393064243878768e-01 2.9601877948912721e-04 0.0000000000000000e+00  9.6110096959054336e-01 1.1510686027746807e-04 0.0000000000000000e+00  9.5976769124486416e-01 7.7440379220804732e-05 0.0000000000000000e+00  9.5933662634090200e-01 3.0271171222025777e-05 0.0000000000000000e+00  -2.5496393178479439e-02 1.6562324443126071e+00 0.0000000000000000e+00  3.6698517308371742e-01 1.9852295309411467e+00 0.0000000000000000e+00  1.0253783559431409e+00 1.1149554003344979e+00 0.0000000000000000e+00  1.0640102317179301e+00 -2.3670204545758158e-01 0.0000000000000000e+00  9.7406754477155510e-01 9.6882857391349567e-02 0.0000000000000000e+00  9.7893385025494795e-01 7.3802213137408486e-03 0.0000000000000000e+00  9.6649167974102290e-01 8.1538705090907285e-03 0.0000000000000000e+00  9.6261969433045602e-01 4.0721026253586010e-03 0.0000000000000000e+00  9.6036397155937780e-01 1.9057040328488196e-03 0.0000000000000000e+00  9.5930342627413967e-01 8.3340555479661203e-04 0.0000000000000000e+00  9.5901756901582813e-01 5.2667434503218143e-05 0.0000000000000000e+00  -1.7019548469445179e-03 1.2555142999009181e+00 0.0000000000000000e+00  4.4572718557222146e-01 1.4702179684472323e+00 0.0000000000000000e+00  9.3510796482269543e-01 7.1429461229565849e-01 0.0000000000000000e+00  9.4324373869716427e-01 -1.2291540515873621e-01 0.0000000000000000e+00  9.5774482321934640e-01 1.1562484439742886e-01 0.0000000000000000e+00  9.6494347328988284e-01 1.2879560539474464e-03 0.0000000000000000e+00  9.5917517769892591e-01 1.5629528470142141e-02 0.0000000000000000e+00  9.5934764442222842e-01 5.3450338878804115e-03 0.0000000000000000e+00  9.5841100598311868e-01 3.0237838418060632e-03 0.0000000000000000e+00  9.5812875770248773e-01 1.2499188591080181e-03 0.0000000000000000e+00  9.5804500962317696e-01 6.3356135980545069e-06 0.0000000000000000e+00  2.8165300245216616e-04 8.4831561445830472e-01 0.0000000000000000e+00  4.4381592268075282e-01 9.5408859625689146e-01 0.0000000000000000e+00  8.8761082238227018e-01 4.6760101073087901e-01 0.0000000000000000e+00  9.2168242434767511e-01 -7.0646250784258458e-02 0.0000000000000000e+00  9.4278721368022300e-01 7.5699949045249987e-02 0.0000000000000000e+00  9.4864612840110618e-01 3.4992991929826177e-03 0.0000000000000000e+00  9.5270614795885467e-01 1.5852903509775539e-02 0.0000000000000000e+00  9.5541431370145613e-01 4.2654819168636386e-03 0.0000000000000000e+00  9.5615740107142655e-01 3.1435751698216151e-03 0.0000000000000000e+00  9.5673020479099757e-01 1.1356064046377425e-03 0.0000000000000000e+00  9.5686573277965448e-01 -1.7350626776417034e-05 0.0000000000000000e+00  3.1686282976536574e-04 4.3485986394459492e-01 0.0000000000000000e+00  4.3665476826891708e-01 4.5924890364018250e-01 0.0000000000000000e+00  8.6774803083618302e-01 2.3120088021806914e-01 0.0000000000000000e+00  9.0271614592291571e-01 -4.8267615869232533e-02 0.0000000000000000e+00  9.2555774018075565e-01 4.5385223133151867e-02 0.0000000000000000e+00  9.3955028470092106e-01 2.0442896874380660e-03 0.0000000000000000e+00  9.4806753152729450e-01 9.2993918648132824e-03 0.0000000000000000e+00  9.5223928895914112e-01 2.1163420732784378e-03 0.0000000000000000e+00  9.5447223305204398e-01 2.0401295271600512e-03 0.0000000000000000e+00  9.5561205908090951e-01 5.7663698462225932e-04 0.0000000000000000e+00  9.5591853505231339e-01 -1.4566958745868185e-05 0.0000000000000000e+00  2.1372772019730724e-04 2.7388356071707160e-02 0.0000000000000000e+00  4.3328811821140018e-01 -2.7855880614558071e-02 0.0000000000000000e+00  8.6091204564249080e-01 -9.2626057485164723e-04 0.0000000000000000e+00  8.9697832214462825e-01 -2.6284463061154142e-02 0.0000000000000000e+00  9.2179619834843374e-01 1.2998400818427056e-02 0.0000000000000000e+00  9.3725642696357214e-01 -6.0570508820408948e-03 0.0000000000000000e+00  9.4618602596194323e-01 1.5202191770177669e-03 0.0000000000000000e+00  9.5116721033836649e-01 -8.4328927691460517e-04 0.0000000000000000e+00  9.5390654545901432e-01 1.2988683587065552e-04 0.0000000000000000e+00  9.5519224545317460e-01 -1.6660251418657194e-04 0.0000000000000000e+00  9.5556779280239701e-01 -1.0718537708675679e-05 0.0000000000000000e+00  -1.0642046580910110e-03 -3.8100772967754110e-01 0.0000000000000000e+00  4.3511919872873939e-01 -5.1524386034079250e-01 0.0000000000000000e+00  8.6699945960996161e-01 -2.3266369573699697e-01 0.0000000000000000e+00  9.0321050951798254e-01 -5.6670866873627926e-03 0.0000000000000000e+00  9.2657251164355214e-01 -1.9877473314296634e-02 0.0000000000000000e+00  9.4046499740597655e-01 -1.3622173536410542e-02 0.0000000000000000e+00  9.4820932253850598e-01 -5.6835895720607757e-03 0.0000000000000000e+00  9.5243486432275670e-01 -3.9971225136384196e-03 0.0000000000000000e+00  9.5461648752387929e-01 -1.7310348917707514e-03 0.0000000000000000e+00  9.5563787809482659e-01 -8.5347499004465304e-04 0.0000000000000000e+00  9.5593469342938608e-01 -1.2144233576273363e-05 0.0000000000000000e+00  1.9057505222556971e-03 -7.8518472465209421e-01 0.0000000000000000e+00  4.4292337799451698e-01 -1.0097733857123374e+00 0.0000000000000000e+00  8.8624124719300523e-01 -4.7133198285374095e-01 0.0000000000000000e+00  9.2193235140926444e-01 1.7545245497054926e-02 0.0000000000000000e+00  9.4133659220368382e-01 -4.8833741574071436e-02 0.0000000000000000e+00  9.4973552316092136e-01 -1.8505472226952497e-02 0.0000000000000000e+00  9.5375577793533872e-01 -1.0854973801323478e-02 0.0000000000000000e+00  9.5554136551624347e-01 -5.9773337561763659e-03 0.0000000000000000e+00  9.5640686761508331e-01 -2.8620919089159028e-03 0.0000000000000000e+00  9.5678652960866217e-01 -1.2631488271587310e-03 0.0000000000000000e+00  9.5688059337133580e-01 4.5859881106939106e-06 0.0000000000000000e+00  1.1538364210274913e-02 -1.1764569890108942e+00 0.0000000000000000e+00  4.3019527761816745e-01 -1.5431607141997341e+00 0.0000000000000000e+00  9.1874700017795718e-01 -7.1376171105179542e-01 0.0000000000000000e+00  9.6287298024928947e-01 5.2206764471804903e-02 0.0000000000000000e+00  9.6415972651377313e-01 -7.3639114606240508e-02 0.0000000000000000e+00  9.6376350065666627e-01 -1.5107959149491472e-02 0.0000000000000000e+00  9.6098622355141350e-01 -1.2680844418285831e-02 0.0000000000000000e+00  9.5953007705892090e-01 -5.6440988802627916e-03 0.0000000000000000e+00  9.5864815124949743e-01 -2.9317224858314140e-03 0.0000000000000000e+00  9.5820622143469836e-01 -1.2058620336789436e-03 0.0000000000000000e+00  9.5805617024084277e-01 3.2916135311083601e-05 0.0000000000000000e+00  6.3208086549674039e-02 -1.5929372727605702e+00 0.0000000000000000e+00  3.3957087567435135e-01 -2.0477493947032137e+00 0.0000000000000000e+00  1.0434183041087084e+00 -9.9303833691296295e-01 0.0000000000000000e+00  1.0058547719999775e+00 5.6112860492029390e-02 0.0000000000000000e+00  9.9963928935435220e-01 -5.3469292341822405e-02 0.0000000000000000e+00  9.7538397354689932e-01 -1.0302418837464444e-02 0.0000000000000000e+00  9.6756162563197146e-01 -7.8459394170076347e-03 0.0000000000000000e+00  9.6282628283587268e-01 -3.4264294433067684e-03 0.0000000000000000e+00  9.6046232201345061e-01 -1.7728131797801207e-03 0.0000000000000000e+00  9.5934876040392636e-01 -7.0134975633359274e-04 0.0000000000000000e+00  9.5901131741232781e-01 5.6086368260652114e-05 0.0000000000000000e+00  2.9622739106549507e-02 -1.8946146062456988e+00 0.0000000000000000e+00  -2.5321049353191016e-02 -2.1637063433519836e+00 0.0000000000000000e+00  7.1381548257206628e-01 -2.1678598807631722e+00 0.0000000000000000e+00  1.2041957166166553e+00 5.7418092184908820e-01 0.0000000000000000e+00  9.9245648222346861e-01 -1.3193652548531287e-01 0.0000000000000000e+00  9.8318432169792003e-01 3.1007231176029597e-02 0.0000000000000000e+00  9.7016843338594849e-01 -5.7239612569106287e-03 0.0000000000000000e+00  9.6404873397824153e-01 1.5544591387441381e-03 0.0000000000000000e+00  9.6117182743284368e-01 -1.2925762990670508e-04 0.0000000000000000e+00  9.5978313159929063e-01 1.3443799202964688e-04 0.0000000000000000e+00  9.5940077381593114e-01 6.7883831787776881e-05 0.0000000000000000e+00  </DataArray> 
</PointData> 
</Piece>
</UnstructuredGrid>
</VTKFile>