<?xml version="1.0"?>
<VTKFile type="UnstructuredGrid"  version="0.1"  >
<UnstructuredGrid>
<Piece  NumberOfPoints="121" NumberOfCells="200">
<Points>
<DataArray  type="Float64"  NumberOfComponents="3"  format="ascii">0 0 0  0.1 0 0  0.2 0 0  0.3 0 0  0.4 0 0  0.5 0 0  0.6 0 0  0.7 0 0  0.8 0 0  0.9 0 0  1 0 0  0 0.1 0  0.1 0.1 0  0.2 0.1 0  0.3 0.1 0  0.4 0.1 0  0.5 0.1 0  0.6 0.1 0  0.7 0.1 0  0.8 0.1 0  0.9 0.1 0  1 0.1 0  0 0.2 0  0.1 0.2 0  0.2 0.2 0  0.3 0.2 0  0.4 0.2 0  0.5 0.2 0  0.6 0.2 0  0.7 0.2 0  0.8 0.2 0  0.9 0.2 0  1 0.2 0  0 0.3 0  0.1 0.3 0  0.2 0.3 0  0.3 0.3 0  0.4 0.3 0  0.5 0.3 0  0.6 0.3 0  0.7 0.3 0  0.8 0.3 0  0.9 0.3 0  1 0.3 0  0 0.4 0  0.1 0.4 0  0.2 0.4 0  0.3 0.4 0  0.4 0.4 0  0.5 0.4 0  0.6 0.4 0  0.7 0.4 0  0.8 0.4 0  0.9 0.4 0  1 0.4 0  0 0.5 0  0.1 0.5 0  0.2 0.5 0  0.3 0.5 0  0.4 0.5 0  0.5 0.5 0  0.6 0.5 0  0.7 0.5 0  0.8 0.5 0  0.9 0.5 0  1 0.5 0  0 0.6 0  0.1 0.6 0  0.2 0.6 0  0.3 0.6 0  0.4 0.6 0  0.5 0.6 0  0.6 0.6 0  0.7 0.6 0  0.8 0.6 0  0.9 0.6 0  1 0.6 0  0 0.7 0  0.1 0.7 0  0.2 0.7 0  0.3 0.7 0  0.4 0.7 0  0.5 0.7 0  0.6 0.7 0  0.7 0.7 0  0.8 0.7 0  0.9 0.7 0  1 0.7 0  0 0.8 0  0.1 0.8 0  0.2 0.8 0  0.3 0.8 0  0.4 0.8 0  0.5 0.8 0  0.6 0.8 0  0.7 0.8 0  0.8 0.8 0  0.9 0.8 0  1 0.8 0  0 0.9 0  0.1 0.9 0  0.2 0.9 0  0.3 0.9 0  0.4 0.9 0  0.5 0.9 0  0.6 0.9 0  0.7 0.9 0  0.8 0.9 0  0.9 0.9 0  1 0.9 0  0 1 0  0.1 1 0  0.2 1 0  0.3 1 0  0.4 1 0  0.5 1 0  0.6 1 0  0.7 1 0  0.8 1 0  0.9 1 0  1 1 0  </DataArray>
</Points>
<Cells>
<DataArray  type="UInt32"  Name="connectivity"  format="ascii">0 1 12  0 11 12  1 2 13  1 12 13  2 3 14  2 13 14  3 4 15  3 14 15  4 5 16  4 15 16  5 6 17  5 16 17  6 7 18  6 17 18  7 8 19  7 18 19  8 9 20  8 19 20  9 10 21  9 20 21  11 12 23  11 22 23  12 13 24  12 23 24  13 14 25  13 24 25  14 15 26  14 25 26  15 16 27  15 26 27  16 17 28  16 27 28  17 18 29  17 28 29  18 19 30  18 29 30  19 20 31  19 30 31  20 21 32  20 31 32  22 23 34  22 33 34  23 24 35  23 34 35  24 25 36  24 35 36  25 26 37  25 36 37  26 27 38  26 37 38  27 28 39  27 38 39  28 29 40  28 39 40  29 30 41  29 40 41  30 31 42  30 41 42  31 32 43  31 42 43  33 34 45  33 44 45  34 35 46  34 45 46  35 36 47  35 46 47  36 37 48  36 47 48  37 38 49  37 48 49  38 39 50  38 49 50  39 40 51  39 50 51  40 41 52  40 51 52  41 42 53  41 52 53  42 43 54  42 53 54  44 45 56  44 55 56  45 46 57  45 56 57  46 47 58  46 57 58  47 48 59  47 58 59  48 49 60  48 59 60  49 50 61  49 60 61  50 51 62  50 61 62  51 52 63  51 62 63  52 53 64  52 63 64  53 54 65  53 64 65  55 56 67  55 66 67  56 57 68  56 67 68  57 58 69  57 68 69  58 59 70  58 69 70  59 60 71  59 70 71  60 61 72  60 71 72  61 62 73  61 72 73  62 63 74  62 73 74  63 64 75  63 74 75  64 65 76  64 75 76  66 67 78  66 77 78  67 68 79  67 78 79  68 69 80  68 79 80  69 70 81  69 80 81  70 71 82  70 81 82  71 72 83  71 82 83  72 73 84  72 83 84  73 74 85  73 84 85  74 75 86  74 85 86  75 76 87  75 86 87  77 78 89  77 88 89  78 79 90  78 89 90  79 80 91  79 90 91  80 81 92  80 91 92  81 82 93  81 92 93  82 83 94  82 93 94  83 84 95  83 94 95  84 85 96  84 95 96  85 86 97  85 96 97  86 87 98  86 97 98  88 89 100  88 99 100  89 90 101  89 100 101  90 91 102  90 101 102  91 92 103  91 102 103  92 93 104  92 103 104  93 94 105  93 104 105  94 95 106  94 105 106  95 96 107  95 106 107  96 97 108  96 107 108  97 98 109  97 108 109  99 100 111  99 110 111  100 101 112  100 111 112  101 102 113  101 112 113  102 103 114  102 113 114  103 104 115  103 114 115  104 105 116  104 115 116  105 106 117  105 116 117  106 107 118  106 117 118  107 108 119  107 118 119  108 109 120  108 119 120  </DataArray>
<DataArray  type="UInt32"  Name="offsets"  format="ascii">3 6 9 12 15 18 21 24 27 30 33 36 39 42 45 48 51 54 57 60 63 66 69 72 75 78 81 84 87 90 93 96 99 102 105 108 111 114 117 120 123 126 129 132 135 138 141 144 147 150 153 156 159 162 165 168 171 174 177 180 183 186 189 192 195 198 201 204 207 210 213 216 219 222 225 228 231 234 237 240 243 246 249 252 255 258 261 264 267 270 273 276 279 282 285 288 291 294 297 300 303 306 309 312 315 318 321 324 327 330 333 336 339 342 345 348 351 354 357 360 363 366 369 372 375 378 381 384 387 390 393 396 399 402 405 408 411 414 417 420 423 426 429 432 435 438 441 444 447 450 453 456 459 462 465 468 471 474 477 480 483 486 489 492 495 498 501 504 507 510 513 516 519 522 525 528 531 534 537 540 543 546 549 552 555 558 561 564 567 570 573 576 579 582 585 588 591 594 597 600 </DataArray>
<DataArray  type="UInt8"  Name="types"  format="ascii">5 5 5 5 5 5 5 5 5 5 5 5 5 5 5 5 5 5 5 5 5 5 5 5 5 5 5 5 5 5 5 5 5 5 5 5 5 5 5 5 5 5 5 5 5 5 5 5 5 5 5 5 5 5 5 5 5 5 5 5 5 5 5 5 5 5 5 5 5 5 5 5 5 5 5 5 5 5 5 5 5 5 5 5 5 5 5 5 5 5 5 5 5 5 5 5 5 5 5 5 5 5 5 5 5 5 5 5 5 5 5 5 5 5 5 5 5 5 5 5 5 5 5 5 5 5 5 5 5 5 5 5 5 5 5 5 5 5 5 5 5 5 5 5 5 5 5 5 5 5 5 5 5 5 5 5 5 5 5 5 5 5 5 5 5 5 5 5 5 5 5 5 5 5 5 5 5 5 5 5 5 5 5 5 5 5 5 5 5 5 5 5 5 5 5 5 5 5 5 5 </DataArray>
</Cells>
<PointData  Vectors="f_34"> 
<DataArray  type="Float64"  Name="f_34"  NumberOfComponents="3" format="ascii">2.0537696622177130e-02 -1.6389632204213149e+00 0.0000000000000000e+00  1.1494062666416900e-01 -2.7863487911312408e+00 0.0000000000000000e+00  -9.0604188486700032e-01 -1.2879216694562199e+00 0.0000000000000000e+00  -1.1258352925905029e+00 1.0119083694445305e-01 0.0000000000000000e+00  -9.9964543315963073e-01 -1.4654369400790466e-03 0.0000000000000000e+00  -9.8115253054647056e-01 -3.7973763962463173e-03 0.0000000000000000e+00  -9.6987914553713739e-01 2.4070508232550562e-04 0.0000000000000000e+00  -9.6393064243892812e-01 -2.9601877948580245e-04 0.0000000000000000e+00  -9.6110096959068336e-01 -1.1510686027791578e-04 0.0000000000000000e+00  -9.5976769124500494e-01 -7.7440379225094744e-05 0.0000000000000000e+00  -9.5933662634104377e-01 -3.0271171216671261e-05 0.0000000000000000e+00  2.5496393178482919e-02 -1.6562324443128476e+00 0.0000000000000000e+00  -3.6698517308377071e-01 -1.9852295309414341e+00 0.0000000000000000e+00  -1.0253783559432876e+00 -1.1149554003346587e+00 0.0000000000000000e+00  -1.0640102317180848e+00 2.3670204545761614e-01 0.0000000000000000e+00  -9.7406754477169510e-01 -9.6882857391364596e-02 0.0000000000000000e+00  -9.7893385025509017e-01 -7.3802213137415563e-03 0.0000000000000000e+00  -9.6649167974116390e-01 -8.1538705090912194e-03 0.0000000000000000e+00  -9.6261969433059325e-01 -4.0721026253630653e-03 0.0000000000000000e+00  -9.6036397155951936e-01 -1.9057040328479171e-03 0.0000000000000000e+00  -9.5930342627427889e-01 -8.3340555479716953e-04 0.0000000000000000e+00  -9.5901756901596491e-01 -5.2667434499275076e-05 0.0000000000000000e+00  1.7019548469448052e-03 -1.2555142999010984e+00 0.0000000000000000e+00  -4.4572718557228608e-01 -1.4702179684474426e+00 0.0000000000000000e+00  -9.3510796482283043e-01 -7.1429461229576063e-01 0.0000000000000000e+00  -9.4324373869729994e-01 1.2291540515875383e-01 0.0000000000000000e+00  -9.5774482321948606e-01 -1.1562484439744397e-01 0.0000000000000000e+00  -9.6494347329002472e-01 -1.2879560539461826e-03 0.0000000000000000e+00  -9.5917517769906491e-01 -1.5629528470143809e-02 0.0000000000000000e+00  -9.5934764442236709e-01 -5.3450338878794825e-03 0.0000000000000000e+00  -9.5841100598325657e-01 -3.0237838418046845e-03 0.0000000000000000e+00  -9.5812875770262496e-01 -1.2499188591102578e-03 0.0000000000000000e+00  -9.5804500962331540e-01 -6.3356135959078976e-06 0.0000000000000000e+00  -2.8165300244864793e-04 -8.4831561445842896e-01 0.0000000000000000e+00  -4.4381592268081910e-01 -9.5408859625703057e-01 0.0000000000000000e+00  -8.8761082238239586e-01 -4.6760101073094845e-01 0.0000000000000000e+00  -9.2168242434780867e-01 7.0646250784268491e-02 0.0000000000000000e+00  -9.4278721368035956e-01 -7.5699949045263143e-02 0.0000000000000000e+00  -9.4864612840124374e-01 -3.4992991929857268e-03 0.0000000000000000e+00  -9.5270614795899211e-01 -1.5852903509777014e-02 0.0000000000000000e+00  -9.5541431370159702e-01 -4.2654819168603262e-03 0.0000000000000000e+00  -9.5615740107156566e-01 -3.1435751698223077e-03 0.0000000000000000e+00  -9.5673020479113791e-01 -1.1356064046378581e-03 0.0000000000000000e+00  -9.5686573277979015e-01 1.7350626774811053e-05 0.0000000000000000e+00  -3.1686282976792538e-04 -4.3485986394465270e-01 0.0000000000000000e+00  -4.3665476826898497e-01 -4.5924890364024595e-01 0.0000000000000000e+00  -8.6774803083630681e-01 -2.3120088021810306e-01 0.0000000000000000e+00  -9.0271614592304705e-01 4.8267615869240138e-02 0.0000000000000000e+00  -9.2555774018089099e-01 -4.5385223133156814e-02 0.0000000000000000e+00  -9.3955028470105739e-01 -2.0442896874376996e-03 0.0000000000000000e+00  -9.4806753152743128e-01 -9.2993918648139502e-03 0.0000000000000000e+00  -9.5223928895927823e-01 -2.1163420732794496e-03 0.0000000000000000e+00  -9.5447223305218221e-01 -2.0401295271602728e-03 0.0000000000000000e+00  -9.5561205908104974e-01 -5.7663698461950230e-04 0.0000000000000000e+00  -9.5591853505245783e-01 1.4566958749185378e-05 0.0000000000000000e+00  -2.1372772020626199e-04 -2.7388356071711830e-02 0.0000000000000000e+00  -4.3328811821146151e-01 2.7855880614559188e-02 0.0000000000000000e+00  -8.6091204564261603e-01 9.2626057485378310e-04 0.0000000000000000e+00  -8.9697832214475870e-01 2.6284463061157556e-02 0.0000000000000000e+00  -9.2179619834856641e-01 -1.2998400818429590e-02 0.0000000000000000e+00  -9.3725642696370615e-01 6.0570508820421741e-03 0.0000000000000000e+00  -9.4618602596207968e-01 -1.5202191770145570e-03 0.0000000000000000e+00  -9.5116721033850393e-01 8.4328927691898676e-04 0.0000000000000000e+00  -9.5390654545915476e-01 -1.2988683586734266e-04 0.0000000000000000e+00  -9.5519224545330939e-01 1.6660251418058736e-04 0.0000000000000000e+00  -9.5556779280254023e-01 1.0718537711000600e-05 0.0000000000000000e+00  1.0642046580910287e-03 3.8100772967759233e-01 0.0000000000000000e+00  -4.3511919872879984e-01 5.1524386034086833e-01 0.0000000000000000e+00  -8.6699945961008629e-01 2.3266369573703105e-01 0.0000000000000000e+00  -9.0321050951811299e-01 5.6670866873633997e-03 0.0000000000000000e+00  -9.2657251164368748e-01 1.9877473314300932e-02 0.0000000000000000e+00  -9.4046499740611222e-01 1.3622173536410697e-02 0.0000000000000000e+00  -9.4820932253864043e-01 5.6835895720592517e-03 0.0000000000000000e+00  -9.5243486432289282e-01 3.9971225136364169e-03 0.0000000000000000e+00  -9.5461648752401840e-01 1.7310348917688235e-03 0.0000000000000000e+00  -9.5563787809497303e-01 8.5347499004545188e-04 0.0000000000000000e+00  -9.5593469342952186e-01 1.2144233577303599e-05 0.0000000000000000e+00  -1.9057505222570313e-03 7.8518472465221034e-01 0.0000000000000000e+00  -4.4292337799458004e-01 1.0097733857124849e+00 0.0000000000000000e+00  -8.8624124719313313e-01 4.7133198285380801e-01 0.0000000000000000e+00  -9.2193235140939789e-01 -1.7545245497057150e-02 0.0000000000000000e+00  -9.4133659220381971e-01 4.8833741574077869e-02 0.0000000000000000e+00  -9.4973552316106080e-01 1.8505472226956362e-02 0.0000000000000000e+00  -9.5375577793547406e-01 1.0854973801325244e-02 0.0000000000000000e+00  -9.5554136551638214e-01 5.9773337561742253e-03 0.0000000000000000e+00  -9.5640686761522486e-01 2.8620919089151851e-03 0.0000000000000000e+00  -9.5678652960880184e-01 1.2631488271574935e-03 0.0000000000000000e+00  -9.5688059337147324e-01 -4.5859881080884373e-06 0.0000000000000000e+00  -1.1538364210275659e-02 1.1764569890110643e+00 0.0000000000000000e+00  -4.3019527761822968e-01 1.5431607141999559e+00 0.0000000000000000e+00  -9.1874700017808952e-01 7.1376171105189734e-01 0.0000000000000000e+00  -9.6287298024942891e-01 -5.2206764471812710e-02 0.0000000000000000e+00  -9.6415972651391346e-01 7.3639114606251152e-02 0.0000000000000000e+00  -9.6376350065680638e-01 1.5107959149491873e-02 0.0000000000000000e+00  -9.6098622355155083e-01 1.2680844418285906e-02 0.0000000000000000e+00  -9.5953007705906024e-01 5.6440988802641534e-03 0.0000000000000000e+00  -9.5864815124963809e-01 2.9317224858320624e-03 0.0000000000000000e+00  -9.5820622143483325e-01 1.2058620336795538e-03 0.0000000000000000e+00  -9.5805617024098655e-01 -3.2916135304665443e-05 0.0000000000000000e+00  -6.3208086549683948e-02 1.5929372727607995e+00 0.0000000000000000e+00  -3.3957087567440114e-01 2.0477493947035104e+00 0.0000000000000000e+00  -1.0434183041088589e+00 9.9303833691310661e-01 0.0000000000000000e+00  -1.0058547720001250e+00 -5.6112860492036121e-02 0.0000000000000000e+00  -9.9963928935449731e-01 5.3469292341829538e-02 0.0000000000000000e+00  -9.7538397354704254e-01 1.0302418837467173e-02 0.0000000000000000e+00  -9.6756162563211145e-01 7.8459394170087744e-03 0.0000000000000000e+00  -9.6282628283601268e-01 3.4264294433062831e-03 0.0000000000000000e+00  -9.6046232201358805e-01 1.7728131797793241e-03 0.0000000000000000e+00  -9.5934876040406381e-01 7.0134975633267215e-04 0.0000000000000000e+00  -9.5901131741246592e-01 -5.6086368267206753e-05 0.0000000000000000e+00  -2.9622739106552765e-02 1.8946146062459714e+00 0.0000000000000000e+00  2.5321049353194486e-02 2.1637063433522958e+00 0.0000000000000000e+00  -7.1381548257216920e-01 2.1678598807634848e+00 0.0000000000000000e+00  -1.2041957166168284e+00 -5.7418092184917280e-01 0.0000000000000000e+00  -9.9245648222361416e-01 1.3193652548533447e-01 0.0000000000000000e+00  -9.8318432169805825e-01 -3.1007231176037407e-02 0.0000000000000000e+00  -9.7016843338608794e-01 5.7239612569102965e-03 0.0000000000000000e+00  -9.6404873397838065e-01 -1.5544591387387512e-03 0.0000000000000000e+00  -9.6117182743298368e-01 1.2925762990967078e-04 0.0000000000000000e+00  -9.5978313159942785e-01 -1.3443799203176500e-04 0.0000000000000000e+00  -9.5940077381607536e-01 -6.7883831783853112e-05 0.0000000000000000e+00  </DataArray> 
</PointData> 
</Piece>
</UnstructuredGrid>
</VTKFile>