<?xml version="1.0"?>
<VTKFile type="UnstructuredGrid"  version="0.1"  >
<UnstructuredGrid>
<Piece  NumberOfPoints="121" NumberOfCells="200">
<Points>
<DataArray  type="Float64"  NumberOfComponents="3"  format="ascii">0 0 0  0.1 0 0  0.2 0 0  0.3 0 0  0.4 0 0  0.5 0 0  0.6 0 0  0.7 0 0  0.8 0 0  0.9 0 0  1 0 0  0 0.1 0  0.1 0.1 0  0.2 0.1 0  0.3 0.1 0  0.4 0.1 0  0.5 0.1 0  0.6 0.1 0  0.7 0.1 0  0.8 0.1 0  0.9 0.1 0  1 0.1 0  0 0.2 0  0.1 0.2 0  0.2 0.2 0  0.3 0.2 0  0.4 0.2 0  0.5 0.2 0  0.6 0.2 0  0.7 0.2 0  0.8 0.2 0  0.9 0.2 0  1 0.2 0  0 0.3 0  0.1 0.3 0  0.2 0.3 0  0.3 0.3 0  0.4 0.3 0  0.5 0.3 0  0.6 0.3 0  0.7 0.3 0  0.8 0.3 0  0.9 0.3 0  1 0.3 0  0 0.4 0  0.1 0.4 0  0.2 0.4 0  0.3 0.4 0  0.4 0.4 0  0.5 0.4 0  0.6 0.4 0  0.7 0.4 0  0.8 0.4 0  0.9 0.4 0  1 0.4 0  0 0.5 0  0.1 0.5 0  0.2 0.5 0  0.3 0.5 0  0.4 0.5 0  0.5 0.5 0  0.6 0.5 0  0.7 0.5 0  0.8 0.5 0  0.9 0.5 0  1 0.5 0  0 0.6 0  0.1 0.6 0  0.2 0.6 0  0.3 0.6 0  0.4 0.6 0  0.5 0.6 0  0.6 0.6 0  0.7 0.6 0  0.8 0.6 0  0.9 0.6 0  1 0.6 0  0 0.7 0  0.1 0.7 0  0.2 0.7 0  0.3 0.7 0  0.4 0.7 0  0.5 0.7 0  0.6 0.7 0  0.7 0.7 0  0.8 0.7 0  0.9 0.7 0  1 0.7 0  0 0.8 0  0.1 0.8 0  0.2 0.8 0  0.3 0.8 0  0.4 0.8 0  0.5 0.8 0  0.6 0.8 0  0.7 0.8 0  0.8 0.8 0  0.9 0.8 0  1 0.8 0  0 0.9 0  0.1 0.9 0  0.2 0.9 0  0.3 0.9 0  0.4 0.9 0  0.5 0.9 0  0.6 0.9 0  0.7 0.9 0  0.8 0.9 0  0.9 0.9 0  1 0.9 0  0 1 0  0.1 1 0  0.2 1 0  0.3 1 0  0.4 1 0  0.5 1 0  0.6 1 0  0.7 1 0  0.8 1 0  0.9 1 0  1 1 0  </DataArray>
</Points>
<Cells>
<DataArray  type="UInt32"  Name="connectivity"  format="ascii">0 1 12  0 11 12  1 2 13  1 12 13  2 3 14  2 13 14  3 4 15  3 14 15  4 5 16  4 15 16  5 6 17  5 16 17  6 7 18  6 17 18  7 8 19  7 18 19  8 9 20  8 19 20  9 10 21  9 20 21  11 12 23  11 22 23  12 13 24  12 23 24  13 14 25  13 24 25  14 15 26  14 25 26  15 16 27  15 26 27  16 17 28  16 27 28  17 18 29  17 28 29  18 19 30  18 29 30  19 20 31  19 30 31  20 21 32  20 31 32  22 23 34  22 33 34  23 24 35  23 34 35  24 25 36  24 35 36  25 26 37  25 36 37  26 27 38  26 37 38  27 28 39  27 38 39  28 29 40  28 39 40  29 30 41  29 40 41  30 31 42  30 41 42  31 32 43  31 42 43  33 34 45  33 44 45  34 35 46  34 45 46  35 36 47  35 46 47  36 37 48  36 47 48  37 38 49  37 48 49  38 39 50  38 49 50  39 40 51  39 50 51  40 41 52  40 51 52  41 42 53  41 52 53  42 43 54  42 53 54  44 45 56  44 55 56  45 46 57  45 56 57  46 47 58  46 57 58  47 48 59  47 58 59  48 49 60  48 59 60  49 50 61  49 60 61  50 51 62  50 61 62  51 52 63  51 62 63  52 53 64  52 63 64  53 54 65  53 64 65  55 56 67  55 66 67  56 57 68  56 67 68  57 58 69  57 68 69  58 59 70  58 69 70  59 60 71  59 70 71  60 61 72  60 71 72  61 62 73  61 72 73  62 63 74  62 73 74  63 64 75  63 74 75  64 65 76  64 75 76  66 67 78  66 77 78  67 68 79  67 78 79  68 69 80  68 79 80  69 70 81  69 80 81  70 71 82  70 81 82  71 72 83  71 82 83  72 73 84  72 83 84  73 74 85  73 84 85  74 75 86  74 85 86  75 76 87  75 86 87  77 78 89  77 88 89  78 79 90  78 89 90  79 80 91  79 90 91  80 81 92  80 91 92  81 82 93  81 92 93  82 83 94  82 93 94  83 84 95  83 94 95  84 85 96  84 95 96  85 86 97  85 96 97  86 87 98  86 97 98  88 89 100  88 99 100  89 90 101  89 100 101  90 91 102  90 101 102  91 92 103  91 102 103  92 93 104  92 103 104  93 94 105  93 104 105  94 95 106  94 105 106  95 96 107  95 106 107  96 97 108  96 107 108  97 98 109  97 108 109  99 100 111  99 110 111  100 101 112  100 111 112  101 102 113  101 112 113  102 103 114  102 113 114  103 104 115  103 114 115  104 105 116  104 115 116  105 106 117  105 116 117  106 107 118  106 117 118  107 108 119  107 118 119  108 109 120  108 119 120  </DataArray>
<DataArray  type="UInt32"  Name="offsets"  format="ascii">3 6 9 12 15 18 21 24 27 30 33 36 39 42 45 48 51 54 57 60 63 66 69 72 75 78 81 84 87 90 93 96 99 102 105 108 111 114 117 120 123 126 129 132 135 138 141 144 147 150 153 156 159 162 165 168 171 174 177 180 183 186 189 192 195 198 201 204 207 210 213 216 219 222 225 228 231 234 237 240 243 246 249 252 255 258 261 264 267 270 273 276 279 282 285 288 291 294 297 300 303 306 309 312 315 318 321 324 327 330 333 336 339 342 345 348 351 354 357 360 363 366 369 372 375 378 381 384 387 390 393 396 399 402 405 408 411 414 417 420 423 426 429 432 435 438 441 444 447 450 453 456 459 462 465 468 471 474 477 480 483 486 489 492 495 498 501 504 507 510 513 516 519 522 525 528 531 534 537 540 543 546 549 552 555 558 561 564 567 570 573 576 579 582 585 588 591 594 597 600 </DataArray>
<DataArray  type="UInt8"  Name="types"  format="ascii">5 5 5 5 5 5 5 5 5 5 5 5 5 5 5 5 5 5 5 5 5 5 5 5 5 5 5 5 5 5 5 5 5 5 5 5 5 5 5 5 5 5 5 5 5 5 5 5 5 5 5 5 5 5 5 5 5 5 5 5 5 5 5 5 5 5 5 5 5 5 5 5 5 5 5 5 5 5 5 5 5 5 5 5 5 5 5 5 5 5 5 5 5 5 5 5 5 5 5 5 5 5 5 5 5 5 5 5 5 5 5 5 5 5 5 5 5 5 5 5 5 5 5 5 5 5 5 5 5 5 5 5 5 5 5 5 5 5 5 5 5 5 5 5 5 5 5 5 5 5 5 5 5 5 5 5 5 5 5 5 5 5 5 5 5 5 5 5 5 5 5 5 5 5 5 5 5 5 5 5 5 5 5 5 5 5 5 5 5 5 5 5 5 5 5 5 5 5 5 5 </DataArray>
</Cells>
<PointData  Vectors="f_34"> 
<DataArray  type="Float64"  Name="f_34"  NumberOfComponents="3" format="ascii">2.0537696622172186e-02 -1.6389632204209568e+00 0.0000000000000000e+00  1.1494062666414298e-01 -2.7863487911306319e+00 0.0000000000000000e+00  -9.0604188486680082e-01 -1.2879216694559374e+00 0.0000000000000000e+00  -1.1258352925902573e+00 1.0119083694443147e-01 0.0000000000000000e+00  -9.9964543315941257e-01 -1.4654369400760585e-03 0.0000000000000000e+00  -9.8115253054625695e-01 -3.7973763962434949e-03 0.0000000000000000e+00  -9.6987914553692800e-01 2.4070508232510685e-04 0.0000000000000000e+00  -9.6393064243871907e-01 -2.9601877948702191e-04 0.0000000000000000e+00  -9.6110096959047120e-01 -1.1510686027736216e-04 0.0000000000000000e+00  -9.5976769124479955e-01 -7.7440379219374900e-05 0.0000000000000000e+00  -9.5933662634083494e-01 -3.0271171221532634e-05 0.0000000000000000e+00  2.5496393178477940e-02 -1.6562324443124858e+00 0.0000000000000000e+00  -3.6698517308368894e-01 -1.9852295309410022e+00 0.0000000000000000e+00  -1.0253783559430640e+00 -1.1149554003344160e+00 0.0000000000000000e+00  -1.0640102317178530e+00 2.3670204545756424e-01 0.0000000000000000e+00  -9.7406754477148283e-01 -9.6882857391344293e-02 0.0000000000000000e+00  -9.7893385025487578e-01 -7.3802213137430673e-03 0.0000000000000000e+00  -9.6649167974095362e-01 -8.1538705090891152e-03 0.0000000000000000e+00  -9.6261969433038519e-01 -4.0721026253590408e-03 0.0000000000000000e+00  -9.6036397155930719e-01 -1.9057040328487322e-03 0.0000000000000000e+00  -9.5930342627407039e-01 -8.3340555479841474e-04 0.0000000000000000e+00  -9.5901756901575907e-01 -5.2667434503413849e-05 0.0000000000000000e+00  1.7019548469463935e-03 -1.2555142999008273e+00 0.0000000000000000e+00  -4.4572718557218965e-01 -1.4702179684471224e+00 0.0000000000000000e+00  -9.3510796482262726e-01 -7.1429461229560587e-01 0.0000000000000000e+00  -9.4324373869709333e-01 1.2291540515872565e-01 0.0000000000000000e+00  -9.5774482321927690e-01 -1.1562484439741869e-01 0.0000000000000000e+00  -9.6494347328981289e-01 -1.2879560539456965e-03 0.0000000000000000e+00  -9.5917517769885408e-01 -1.5629528470141103e-02 0.0000000000000000e+00  -9.5934764442215859e-01 -5.3450338878786646e-03 0.0000000000000000e+00  -9.5841100598304807e-01 -3.0237838418065550e-03 0.0000000000000000e+00  -9.5812875770241912e-01 -1.2499188591067181e-03 0.0000000000000000e+00  -9.5804500962310757e-01 -6.3356136010686771e-06 0.0000000000000000e+00  -2.8165300245097354e-04 -8.4831561445824177e-01 0.0000000000000000e+00  -4.4381592268072201e-01 -9.5408859625682085e-01 0.0000000000000000e+00  -8.8761082238220168e-01 -4.6760101073084548e-01 0.0000000000000000e+00  -9.2168242434760816e-01 7.0646250784253420e-02 0.0000000000000000e+00  -9.4278721368015173e-01 -7.5699949045246448e-02 0.0000000000000000e+00  -9.4864612840103801e-01 -3.4992991929855733e-03 0.0000000000000000e+00  -9.5270614795878472e-01 -1.5852903509777368e-02 0.0000000000000000e+00  -9.5541431370138630e-01 -4.2654819168631650e-03 0.0000000000000000e+00  -9.5615740107135938e-01 -3.1435751698196705e-03 0.0000000000000000e+00  -9.5673020479092585e-01 -1.1356064046427687e-03 0.0000000000000000e+00  -9.5686573277958631e-01 1.7350626777939877e-05 0.0000000000000000e+00  -3.1686282976623674e-04 -4.3485986394456405e-01 0.0000000000000000e+00  -4.3665476826888738e-01 -4.5924890364014903e-01 0.0000000000000000e+00  -8.6774803083612007e-01 -2.3120088021805318e-01 0.0000000000000000e+00  -9.0271614592284932e-01 4.8267615869229084e-02 0.0000000000000000e+00  -9.2555774018068926e-01 -4.5385223133147620e-02 0.0000000000000000e+00  -9.3955028470085389e-01 -2.0442896874372902e-03 0.0000000000000000e+00  -9.4806753152722512e-01 -9.2993918648121808e-03 0.0000000000000000e+00  -9.5223928895906906e-01 -2.1163420732790220e-03 0.0000000000000000e+00  -9.5447223305197360e-01 -2.0401295271631854e-03 0.0000000000000000e+00  -9.5561205908084446e-01 -5.7663698461991213e-04 0.0000000000000000e+00  -9.5591853505224345e-01 1.4566958747197524e-05 0.0000000000000000e+00  -2.1372772020061909e-04 -2.7388356071703444e-02 0.0000000000000000e+00  -4.3328811821136781e-01 2.7855880614555312e-02 0.0000000000000000e+00  -8.6091204564242740e-01 9.2626057485263580e-04 0.0000000000000000e+00  -8.9697832214456164e-01 2.6284463061151404e-02 0.0000000000000000e+00  -9.2179619834836801e-01 -1.2998400818426596e-02 0.0000000000000000e+00  -9.3725642696350131e-01 6.0570508820403648e-03 0.0000000000000000e+00  -9.4618602596187418e-01 -1.5202191770152388e-03 0.0000000000000000e+00  -9.5116721033829577e-01 8.4328927691624265e-04 0.0000000000000000e+00  -9.5390654545894682e-01 -1.2988683586911612e-04 0.0000000000000000e+00  -9.5519224545310644e-01 1.6660251418817583e-04 0.0000000000000000e+00  -9.5556779280232851e-01 1.0718537717117653e-05 0.0000000000000000e+00  1.0642046580894595e-03 3.8100772967750929e-01 0.0000000000000000e+00  -4.3511919872870591e-01 5.1524386034075353e-01 0.0000000000000000e+00  -8.6699945960989833e-01 2.3266369573698045e-01 0.0000000000000000e+00  -9.0321050951791648e-01 5.6670866873621889e-03 0.0000000000000000e+00  -9.2657251164348531e-01 1.9877473314296866e-02 0.0000000000000000e+00  -9.4046499740590561e-01 1.3622173536408214e-02 0.0000000000000000e+00  -9.4820932253843571e-01 5.6835895720593792e-03 0.0000000000000000e+00  -9.5243486432268787e-01 3.9971225136377570e-03 0.0000000000000000e+00  -9.5461648752381112e-01 1.7310348917719935e-03 0.0000000000000000e+00  -9.5563787809475831e-01 8.5347499004427042e-04 0.0000000000000000e+00  -9.5593469342931769e-01 1.2144233575601910e-05 0.0000000000000000e+00  -1.9057505222551112e-03 7.8518472465204026e-01 0.0000000000000000e+00  -4.4292337799448411e-01 1.0097733857122662e+00 0.0000000000000000e+00  -8.8624124719293818e-01 4.7133198285370503e-01 0.0000000000000000e+00  -9.2193235140919716e-01 -1.7545245497053139e-02 0.0000000000000000e+00  -9.4133659220361487e-01 4.8833741574067238e-02 0.0000000000000000e+00  -9.4973552316085141e-01 1.8505472226949822e-02 0.0000000000000000e+00  -9.5375577793526989e-01 1.0854973801321902e-02 0.0000000000000000e+00  -9.5554136551617186e-01 5.9773337561734230e-03 0.0000000000000000e+00  -9.5640686761501181e-01 2.8620919089140089e-03 0.0000000000000000e+00  -9.5678652960859600e-01 1.2631488271589888e-03 0.0000000000000000e+00  -9.5688059337126952e-01 -4.5859881064477345e-06 0.0000000000000000e+00  -1.1538364210272975e-02 1.1764569890108092e+00 0.0000000000000000e+00  -4.3019527761813614e-01 1.5431607141996186e+00 0.0000000000000000e+00  -9.1874700017788979e-01 7.1376171105174291e-01 0.0000000000000000e+00  -9.6287298024921941e-01 -5.2206764471801843e-02 0.0000000000000000e+00  -9.6415972651370341e-01 7.3639114606234568e-02 0.0000000000000000e+00  -9.6376350065659855e-01 1.5107959149489853e-02 0.0000000000000000e+00  -9.6098622355134167e-01 1.2680844418279881e-02 0.0000000000000000e+00  -9.5953007705885118e-01 5.6440988802619737e-03 0.0000000000000000e+00  -9.5864815124942659e-01 2.9317224858298953e-03 0.0000000000000000e+00  -9.5820622143462530e-01 1.2058620336794954e-03 0.0000000000000000e+00  -9.5805617024077827e-01 -3.2916135306773409e-05 0.0000000000000000e+00  -6.3208086549670639e-02 1.5929372727604509e+00 0.0000000000000000e+00  -3.3957087567432798e-01 2.0477493947030649e+00 0.0000000000000000e+00  -1.0434183041086311e+00 9.9303833691289045e-01 0.0000000000000000e+00  -1.0058547719999051e+00 -5.6112860492024637e-02 0.0000000000000000e+00  -9.9963928935427915e-01 5.3469292341818478e-02 0.0000000000000000e+00  -9.7538397354682915e-01 1.0302418837463795e-02 0.0000000000000000e+00  -9.6756162563190240e-01 7.8459394170087623e-03 0.0000000000000000e+00  -9.6282628283579985e-01 3.4264294433075078e-03 0.0000000000000000e+00  -9.6046232201337878e-01 1.7728131797818711e-03 0.0000000000000000e+00  -9.5934876040385408e-01 7.0134975633328331e-04 0.0000000000000000e+00  -9.5901131741226142e-01 -5.6086368266473602e-05 0.0000000000000000e+00  -2.9622739106546652e-02 1.8946146062455598e+00 0.0000000000000000e+00  2.5321049353189694e-02 2.1637063433518251e+00 0.0000000000000000e+00  -7.1381548257201421e-01 2.1678598807630123e+00 0.0000000000000000e+00  -1.2041957166165675e+00 -5.7418092184904690e-01 0.0000000000000000e+00  -9.9245648222339711e-01 1.3193652548530280e-01 0.0000000000000000e+00  -9.8318432169784764e-01 -3.1007231176028355e-02 0.0000000000000000e+00  -9.7016843338587788e-01 5.7239612569111560e-03 0.0000000000000000e+00  -9.6404873397816970e-01 -1.5544591387417382e-03 0.0000000000000000e+00  -9.6117182743277418e-01 1.2925762990950214e-04 0.0000000000000000e+00  -9.5978313159922091e-01 -1.3443799203419690e-04 0.0000000000000000e+00  -9.5940077381586875e-01 -6.7883831788730030e-05 0.0000000000000000e+00  </DataArray> 
</PointData> 
</Piece>
</UnstructuredGrid>
</VTKFile>