<?xml version="1.0"?>
<VTKFile type="UnstructuredGrid"  version="0.1"  >
<UnstructuredGrid>
<Piece  NumberOfPoints="121" NumberOfCells="200">
<Points>
<DataArray  type="Float64"  NumberOfComponents="3"  format="ascii">0 0 0  0.1 0 0  0.2 0 0  0.3 0 0  0.4 0 0  0.5 0 0  0.6 0 0  0.7 0 0  0.8 0 0  0.9 0 0  1 0 0  0 0.1 0  0.1 0.1 0  0.2 0.1 0  0.3 0.1 0  0.4 0.1 0  0.5 0.1 0  0.6 0.1 0  0.7 0.1 0  0.8 0.1 0  0.9 0.1 0  1 0.1 0  0 0.2 0  0.1 0.2 0  0.2 0.2 0  0.3 0.2 0  0.4 0.2 0  0.5 0.2 0  0.6 0.2 0  0.7 0.2 0  0.8 0.2 0  0.9 0.2 0  1 0.2 0  0 0.3 0  0.1 0.3 0  0.2 0.3 0  0.3 0.3 0  0.4 0.3 0  0.5 0.3 0  0.6 0.3 0  0.7 0.3 0  0.8 0.3 0  0.9 0.3 0  1 0.3 0  0 0.4 0  0.1 0.4 0  0.2 0.4 0  0.3 0.4 0  0.4 0.4 0  0.5 0.4 0  0.6 0.4 0  0.7 0.4 0  0.8 0.4 0  0.9 0.4 0  1 0.4 0  0 0.5 0  0.1 0.5 0  0.2 0.5 0  0.3 0.5 0  0.4 0.5 0  0.5 0.5 0  0.6 0.5 0  0.7 0.5 0  0.8 0.5 0  0.9 0.5 0  1 0.5 0  0 0.6 0  0.1 0.6 0  0.2 0.6 0  0.3 0.6 0  0.4 0.6 0  0.5 0.6 0  0.6 0.6 0  0.7 0.6 0  0.8 0.6 0  0.9 0.6 0  1 0.6 0  0 0.7 0  0.1 0.7 0  0.2 0.7 0  0.3 0.7 0  0.4 0.7 0  0.5 0.7 0  0.6 0.7 0  0.7 0.7 0  0.8 0.7 0  0.9 0.7 0  1 0.7 0  0 0.8 0  0.1 0.8 0  0.2 0.8 0  0.3 0.8 0  0.4 0.8 0  0.5 0.8 0  0.6 0.8 0  0.7 0.8 0  0.8 0.8 0  0.9 0.8 0  1 0.8 0  0 0.9 0  0.1 0.9 0  0.2 0.9 0  0.3 0.9 0  0.4 0.9 0  0.5 0.9 0  0.6 0.9 0  0.7 0.9 0  0.8 0.9 0  0.9 0.9 0  1 0.9 0  0 1 0  0.1 1 0  0.2 1 0  0.3 1 0  0.4 1 0  0.5 1 0  0.6 1 0  0.7 1 0  0.8 1 0  0.9 1 0  1 1 0  </DataArray>
</Points>
<Cells>
<DataArray  type="UInt32"  Name="connectivity"  format="ascii">0 1 12  0 11 12  1 2 13  1 12 13  2 3 14  2 13 14  3 4 15  3 14 15  4 5 16  4 15 16  5 6 17  5 16 17  6 7 18  6 17 18  7 8 19  7 18 19  8 9 20  8 19 20  9 10 21  9 20 21  11 12 23  11 22 23  12 13 24  12 23 24  13 14 25  13 24 25  14 15 26  14 25 26  15 16 27  15 26 27  16 17 28  16 27 28  17 18 29  17 28 29  18 19 30  18 29 30  19 20 31  19 30 31  20 21 32  20 31 32  22 23 34  22 33 34  23 24 35  23 34 35  24 25 36  24 35 36  25 26 37  25 36 37  26 27 38  26 37 38  27 28 39  27 38 39  28 29 40  28 39 40  29 30 41  29 40 41  30 31 42  30 41 42  31 32 43  31 42 43  33 34 45  33 44 45  34 35 46  34 45 46  35 36 47  35 46 47  36 37 48  36 47 48  37 38 49  37 48 49  38 39 50  38 49 50  39 40 51  39 50 51  40 41 52  40 51 52  41 42 53  41 52 53  42 43 54  42 53 54  44 45 56  44 55 56  45 46 57  45 56 57  46 47 58  46 57 58  47 48 59  47 58 59  48 49 60  48 59 60  49 50 61  49 60 61  50 51 62  50 61 62  51 52 63  51 62 63  52 53 64  52 63 64  53 54 65  53 64 65  55 56 67  55 66 67  56 57 68  56 67 68  57 58 69  57 68 69  58 59 70  58 69 70  59 60 71  59 70 71  60 61 72  60 71 72  61 62 73  61 72 73  62 63 74  62 73 74  63 64 75  63 74 75  64 65 76  64 75 76  66 67 78  66 77 78  67 68 79  67 78 79  68 69 80  68 79 80  69 70 81  69 80 81  70 71 82  70 81 82  71 72 83  71 82 83  72 73 84  72 83 84  73 74 85  73 84 85  74 75 86  74 85 86  75 76 87  75 86 87  77 78 89  77 88 89  78 79 90  78 89 90  79 80 91  79 90 91  80 81 92  80 91 92  81 82 93  81 92 93  82 83 94  82 93 94  83 84 95  83 94 95  84 85 96  84 95 96  85 86 97  85 96 97  86 87 98  86 97 98  88 89 100  88 99 100  89 90 101  89 100 101  90 91 102  90 101 102  91 92 103  91 102 103  92 93 104  92 103 104  93 94 105  93 104 105  94 95 106  94 105 106  95 96 107  95 106 107  96 97 108  96 107 108  97 98 109  97 108 109  99 100 111  99 110 111  100 101 112  100 111 112  101 102 113  101 112 113  102 103 114  102 113 114  103 104 115  103 114 115  104 105 116  104 115 116  105 106 117  105 116 117  106 107 118  106 117 118  107 108 119  107 118 119  108 109 120  108 119 120  </DataArray>
<DataArray  type="UInt32"  Name="offsets"  format="ascii">3 6 9 12 15 18 21 24 27 30 33 36 39 42 45 48 51 54 57 60 63 66 69 72 75 78 81 84 87 90 93 96 99 102 105 108 111 114 117 120 123 126 129 132 135 138 141 144 147 150 153 156 159 162 165 168 171 174 177 180 183 186 189 192 195 198 201 204 207 210 213 216 219 222 225 228 231 234 237 240 243 246 249 252 255 258 261 264 267 270 273 276 279 282 285 288 291 294 297 300 303 306 309 312 315 318 321 324 327 330 333 336 339 342 345 348 351 354 357 360 363 366 369 372 375 378 381 384 387 390 393 396 399 402 405 408 411 414 417 420 423 426 429 432 435 438 441 444 447 450 453 456 459 462 465 468 471 474 477 480 483 486 489 492 495 498 501 504 507 510 513 516 519 522 525 528 531 534 537 540 543 546 549 552 555 558 561 564 567 570 573 576 579 582 585 588 591 594 597 600 </DataArray>
<DataArray  type="UInt8"  Name="types"  format="ascii">5 5 5 5 5 5 5 5 5 5 5 5 5 5 5 5 5 5 5 5 5 5 5 5 5 5 5 5 5 5 5 5 5 5 5 5 5 5 5 5 5 5 5 5 5 5 5 5 5 5 5 5 5 5 5 5 5 5 5 5 5 5 5 5 5 5 5 5 5 5 5 5 5 5 5 5 5 5 5 5 5 5 5 5 5 5 5 5 5 5 5 5 5 5 5 5 5 5 5 5 5 5 5 5 5 5 5 5 5 5 5 5 5 5 5 5 5 5 5 5 5 5 5 5 5 5 5 5 5 5 5 5 5 5 5 5 5 5 5 5 5 5 5 5 5 5 5 5 5 5 5 5 5 5 5 5 5 5 5 5 5 5 5 5 5 5 5 5 5 5 5 5 5 5 5 5 5 5 5 5 5 5 5 5 5 5 5 5 5 5 5 5 5 5 5 5 5 5 5 5 </DataArray>
</Cells>
<PointData  Vectors="f_34"> 
<DataArray  type="Float64"  Name="f_34"  NumberOfComponents="3" format="ascii">2.4143510381139648e-02 -1.9267168200264291e+00 0.0000000000000000e+00  1.3512081048487720e-01 -3.2755494543390862e+00 0.0000000000000000e+00  -1.0651161157679596e+00 -1.5140427268282008e+00 0.0000000000000000e+00  -1.3234987629898667e+00 1.1895696324613791e-01 0.0000000000000000e+00  -1.1751536862652452e+00 -1.7227244430845722e-03 0.0000000000000000e+00  -1.1534139754090593e+00 -4.4640836862343755e-03 0.0000000000000000e+00  -1.1401613165052595e+00 2.8296579508632960e-04 0.0000000000000000e+00  -1.1331684317165711e+00 -3.4799094596838534e-04 0.0000000000000000e+00  -1.1298419517785525e+00 -1.3531622981739349e-04 0.0000000000000000e+00  -1.1282745890809784e+00 -9.1036625673822662e-05 0.0000000000000000e+00  -1.1277678418943096e+00 -3.5585896025926767e-05 0.0000000000000000e+00  2.9972807793920041e-02 -1.9470180102703851e+00 0.0000000000000000e+00  -4.3141694509718631e-01 -2.3337772814052444e+00 0.0000000000000000e+00  -1.2054045512864697e+00 -1.3107086825608369e+00 0.0000000000000000e+00  -1.2508190449840992e+00 2.7825994301483714e-01 0.0000000000000000e+00  -1.1450850751068287e+00 -1.1389262954917415e-01 0.0000000000000000e+00  -1.1508057602994062e+00 -8.6759704937433776e-03 0.0000000000000000e+00  -1.1361791116302209e+00 -9.5854496686908833e-03 0.0000000000000000e+00  -1.1316273197873725e+00 -4.7870437380158875e-03 0.0000000000000000e+00  -1.1289755586311787e+00 -2.2402894514876393e-03 0.0000000000000000e+00  -1.1277288128750733e+00 -9.7972698857471340e-04 0.0000000000000000e+00  -1.1273927675136759e+00 -6.1914282558111041e-05 0.0000000000000000e+00  2.0007679182038108e-03 -1.4759455790480265e+00 0.0000000000000000e+00  -5.2398373245032370e-01 -1.7283448790172358e+00 0.0000000000000000e+00  -1.0992853420479338e+00 -8.3970367779865329e-01 0.0000000000000000e+00  -1.1088495178467321e+00 1.4449572486370663e-01 0.0000000000000000e+00  -1.1258965650955026e+00 -1.3592515667082727e-01 0.0000000000000000e+00  -1.1343590857912533e+00 -1.5140831482196072e-03 0.0000000000000000e+00  -1.1275780476327990e+00 -1.8373612670067083e-02 0.0000000000000000e+00  -1.1277807944257328e+00 -6.2834641845985828e-03 0.0000000000000000e+00  -1.1266797099032608e+00 -3.5546710966645597e-03 0.0000000000000000e+00  -1.1263479071495694e+00 -1.4693677438920908e-03 0.0000000000000000e+00  -1.1262494553777342e+00 -7.4479604711232322e-06 0.0000000000000000e+00  -3.3110296220686676e-04 -9.9725481493596135e-01 0.0000000000000000e+00  -5.2173690816860729e-01 -1.1215984125203737e+00 0.0000000000000000e+00  -1.0434491023429036e+00 -5.4969795612929029e-01 0.0000000000000000e+00  -1.0835026726573926e+00 8.3049648681479654e-02 0.0000000000000000e+00  -1.1083128405022078e+00 -8.8990627296175545e-02 0.0000000000000000e+00  -1.1152004078369600e+00 -4.1136729179924829e-03 0.0000000000000000e+00  -1.1199732470770896e+00 -1.8636205778123822e-02 0.0000000000000000e+00  -1.1231568868456148e+00 -5.0143747293046013e-03 0.0000000000000000e+00  -1.1240304384400850e+00 -3.6954942485860828e-03 0.0000000000000000e+00  -1.1247038095977298e+00 -1.3349853941104284e-03 0.0000000000000000e+00  -1.1248631323037341e+00 2.0396885064773274e-05 0.0000000000000000e+00  -3.7249459667424903e-04 -5.1120842968104674e-01 0.0000000000000000e+00  -5.1331846626327737e-01 -5.3987946538232934e-01 0.0000000000000000e+00  -1.0200989904626059e+00 -2.7179293541842015e-01 0.0000000000000000e+00  -1.0612064751594998e+00 5.6741985542502850e-02 0.0000000000000000e+00  -1.0880583796467125e+00 -5.3353529659334452e-02 0.0000000000000000e+00  -1.1045076022687079e+00 -2.4032066593790541e-03 0.0000000000000000e+00  -1.1145202264180631e+00 -1.0932090786850644e-02 0.0000000000000000e+00  -1.1194244214072220e+00 -2.4879093189569064e-03 0.0000000000000000e+00  -1.1220494046212255e+00 -2.3983160976606393e-03 0.0000000000000000e+00  -1.1233893504811230e+00 -6.7787743096914732e-04 0.0000000000000000e+00  -1.1237496345934725e+00 1.7124487050425531e-05 0.0000000000000000e+00  -2.5125200387948743e-04 -3.2196943566969220e-02 0.0000000000000000e+00  -5.0936073175639829e-01 3.2746551629712455e-02 0.0000000000000000e+00  -1.0120628078991241e+00 1.0888846113568558e-03 0.0000000000000000e+00  -1.0544612587652391e+00 3.0899239503542186e-02 0.0000000000000000e+00  -1.0836364220168724e+00 -1.5280536608914720e-02 0.0000000000000000e+00  -1.1018110107709653e+00 7.1204903616967300e-03 0.0000000000000000e+00  -1.1123083839712267e+00 -1.7871248250034327e-03 0.0000000000000000e+00  -1.1181641174020422e+00 9.9134600077594240e-04 0.0000000000000000e+00  -1.1213843989720533e+00 -1.5269113317744105e-04 0.0000000000000000e+00  -1.1228958299629335e+00 1.9585300166830927e-04 0.0000000000000000e+00  -1.1233373123497583e+00 1.2600396780812883e-05 0.0000000000000000e+00  1.2510476068922536e-03 4.4790144902775736e-01 0.0000000000000000e+00  -5.1151329600409912e-01 6.0570548488507425e-01 0.0000000000000000e+00  -1.0192189922084831e+00 2.7351257819612063e-01 0.0000000000000000e+00  -1.0617876344204009e+00 6.6620599565880541e-03 0.0000000000000000e+00  -1.0892513150472707e+00 2.3367371333959989e-02 0.0000000000000000e+00  -1.1055829115449380e+00 1.6013825417735758e-02 0.0000000000000000e+00  -1.1146869117486611e+00 6.6814602610799877e-03 0.0000000000000000e+00  -1.1196543340361067e+00 4.6988993302419894e-03 0.0000000000000000e+00  -1.1222189859234728e+00 2.0349535611709447e-03 0.0000000000000000e+00  -1.1234197025523418e+00 1.0033200246987442e-03 0.0000000000000000e+00  -1.1237686299049618e+00 1.4276402796724460e-05 0.0000000000000000e+00  -2.2403441030592062e-03 9.2304000295158617e-01 0.0000000000000000e+00  -5.2068765896144598e-01 1.1870598085582136e+00 0.0000000000000000e+00  -1.0418390701465954e+00 5.5408397691035005e-01 0.0000000000000000e+00  -1.0837964795392945e+00 -2.0625673102037518e-02 0.0000000000000000e+00  -1.1066075326810738e+00 5.7407506222996528e-02 0.0000000000000000e+00  -1.1164810681844501e+00 2.1754487323420682e-02 0.0000000000000000e+00  -1.1212071611181664e+00 1.2760787028875838e-02 0.0000000000000000e+00  -1.1233062452116320e+00 7.0267772598184060e-03 0.0000000000000000e+00  -1.1243237039506926e+00 3.3645908295349214e-03 0.0000000000000000e+00  -1.1247700233920470e+00 1.4849205041050583e-03 0.0000000000000000e+00  -1.1248806019770090e+00 -5.3911523590665758e-06 0.0000000000000000e+00  -1.3564160636754233e-02 1.3830081361939184e+00 0.0000000000000000e+00  -5.0572487957961076e-01 1.8140942194473064e+00 0.0000000000000000e+00  -1.0800518745850247e+00 8.3907721481450981e-01 0.0000000000000000e+00  -1.1319250752427841e+00 -6.1372732452861664e-02 0.0000000000000000e+00  -1.1334377361981940e+00 8.6567971114840089e-02 0.0000000000000000e+00  -1.1329719447674287e+00 1.7760471160611756e-02 0.0000000000000000e+00  -1.1297070597194321e+00 1.4907226671363853e-02 0.0000000000000000e+00  -1.1279952568525020e+00 6.6350361685956639e-03 0.0000000000000000e+00  -1.1269584908837129e+00 3.4464464819700474e-03 0.0000000000000000e+00  -1.1264389712283336e+00 1.4175758393927768e-03 0.0000000000000000e+00  -1.1262625754706745e+00 -3.8695237792749306e-05 0.0000000000000000e+00  -7.4305562199044994e-02 1.8726100735111699e+00 0.0000000000000000e+00  -3.9918950565882066e-01 2.4072737891945950e+00 0.0000000000000000e+00  -1.2266117822541505e+00 1.1673865787968816e+00 0.0000000000000000e+00  -1.1824532018591021e+00 -6.5964623722313973e-02 0.0000000000000000e+00  -1.1751464637891442e+00 6.2856922978070842e-02 0.0000000000000000e+00  -1.1466326299465164e+00 1.2111219711204735e-02 0.0000000000000000e+00  -1.1374369084611193e+00 9.2234549593950260e-03 0.0000000000000000e+00  -1.1318701791409269e+00 4.0280093895933410e-03 0.0000000000000000e+00  -1.1290911765240959e+00 2.0840668842927292e-03 0.0000000000000000e+00  -1.1277821063409021e+00 8.2448608694541368e-04 0.0000000000000000e+00  -1.1273854183130023e+00 -6.5933480245485341e-05 0.0000000000000000e+00  -3.4823618358672079e-02 2.2272530486580973e+00 0.0000000000000000e+00  2.9766678764750299e-02 2.5435893578277482e+00 0.0000000000000000e+00  -8.3914042702772829e-01 2.5484721338980303e+00 0.0000000000000000e+00  -1.4156169662019653e+00 -6.7499015602113288e-01 0.0000000000000000e+00  -1.1667025675859581e+00 1.5510068783794384e-01 0.0000000000000000e+00  -1.1558024891583421e+00 -3.6451186399386180e-02 0.0000000000000000e+00  -1.1405013947678171e+00 6.7289200230086204e-03 0.0000000000000000e+00  -1.1333072566471989e+00 -1.8273763140859295e-03 0.0000000000000000e+00  -1.1299252501679748e+00 1.5195145720512559e-04 0.0000000000000000e+00  -1.1282927403062137e+00 -1.5804133813074054e-04 0.0000000000000000e+00  -1.1278432517739145e+00 -7.9802230382332846e-05 0.0000000000000000e+00  </DataArray> 
</PointData> 
</Piece>
</UnstructuredGrid>
</VTKFile>