<?xml version="1.0"?>
<VTKFile type="UnstructuredGrid"  version="0.1"  >
<UnstructuredGrid>
<Piece  NumberOfPoints="121" NumberOfCells="200">
<Points>
<DataArray  type="Float64"  NumberOfComponents="3"  format="ascii">0 0 0  0.1 0 0  0.2 0 0  0.3 0 0  0.4 0 0  0.5 0 0  0.6 0 0  0.7 0 0  0.8 0 0  0.9 0 0  1 0 0  0 0.1 0  0.1 0.1 0  0.2 0.1 0  0.3 0.1 0  0.4 0.1 0  0.5 0.1 0  0.6 0.1 0  0.7 0.1 0  0.8 0.1 0  0.9 0.1 0  1 0.1 0  0 0.2 0  0.1 0.2 0  0.2 0.2 0  0.3 0.2 0  0.4 0.2 0  0.5 0.2 0  0.6 0.2 0  0.7 0.2 0  0.8 0.2 0  0.9 0.2 0  1 0.2 0  0 0.3 0  0.1 0.3 0  0.2 0.3 0  0.3 0.3 0  0.4 0.3 0  0.5 0.3 0  0.6 0.3 0  0.7 0.3 0  0.8 0.3 0  0.9 0.3 0  1 0.3 0  0 0.4 0  0.1 0.4 0  0.2 0.4 0  0.3 0.4 0  0.4 0.4 0  0.5 0.4 0  0.6 0.4 0  0.7 0.4 0  0.8 0.4 0  0.9 0.4 0  1 0.4 0  0 0.5 0  0.1 0.5 0  0.2 0.5 0  0.3 0.5 0  0.4 0.5 0  0.5 0.5 0  0.6 0.5 0  0.7 0.5 0  0.8 0.5 0  0.9 0.5 0  1 0.5 0  0 0.6 0  0.1 0.6 0  0.2 0.6 0  0.3 0.6 0  0.4 0.6 0  0.5 0.6 0  0.6 0.6 0  0.7 0.6 0  0.8 0.6 0  0.9 0.6 0  1 0.6 0  0 0.7 0  0.1 0.7 0  0.2 0.7 0  0.3 0.7 0  0.4 0.7 0  0.5 0.7 0  0.6 0.7 0  0.7 0.7 0  0.8 0.7 0  0.9 0.7 0  1 0.7 0  0 0.8 0  0.1 0.8 0  0.2 0.8 0  0.3 0.8 0  0.4 0.8 0  0.5 0.8 0  0.6 0.8 0  0.7 0.8 0  0.8 0.8 0  0.9 0.8 0  1 0.8 0  0 0.9 0  0.1 0.9 0  0.2 0.9 0  0.3 0.9 0  0.4 0.9 0  0.5 0.9 0  0.6 0.9 0  0.7 0.9 0  0.8 0.9 0  0.9 0.9 0  1 0.9 0  0 1 0  0.1 1 0  0.2 1 0  0.3 1 0  0.4 1 0  0.5 1 0  0.6 1 0  0.7 1 0  0.8 1 0  0.9 1 0  1 1 0  </DataArray>
</Points>
<Cells>
<DataArray  type="UInt32"  Name="connectivity"  format="ascii">0 1 12  0 11 12  1 2 13  1 12 13  2 3 14  2 13 14  3 4 15  3 14 15  4 5 16  4 15 16  5 6 17  5 16 17  6 7 18  6 17 18  7 8 19  7 18 19  8 9 20  8 19 20  9 10 21  9 20 21  11 12 23  11 22 23  12 13 24  12 23 24  13 14 25  13 24 25  14 15 26  14 25 26  15 16 27  15 26 27  16 17 28  16 27 28  17 18 29  17 28 29  18 19 30  18 29 30  19 20 31  19 30 31  20 21 32  20 31 32  22 23 34  22 33 34  23 24 35  23 34 35  24 25 36  24 35 36  25 26 37  25 36 37  26 27 38  26 37 38  27 28 39  27 38 39  28 29 40  28 39 40  29 30 41  29 40 41  30 31 42  30 41 42  31 32 43  31 42 43  33 34 45  33 44 45  34 35 46  34 45 46  35 36 47  35 46 47  36 37 48  36 47 48  37 38 49  37 48 49  38 39 50  38 49 50  39 40 51  39 50 51  40 41 52  40 51 52  41 42 53  41 52 53  42 43 54  42 53 54  44 45 56  44 55 56  45 46 57  45 56 57  46 47 58  46 57 58  47 48 59  47 58 59  48 49 60  48 59 60  49 50 61  49 60 61  50 51 62  50 61 62  51 52 63  51 62 63  52 53 64  52 63 64  53 54 65  53 64 65  55 56 67  55 66 67  56 57 68  56 67 68  57 58 69  57 68 69  58 59 70  58 69 70  59 60 71  59 70 71  60 61 72  60 71 72  61 62 73  61 72 73  62 63 74  62 73 74  63 64 75  63 74 75  64 65 76  64 75 76  66 67 78  66 77 78  67 68 79  67 78 79  68 69 80  68 79 80  69 70 81  69 80 81  70 71 82  70 81 82  71 72 83  71 82 83  72 73 84  72 83 84  73 74 85  73 84 85  74 75 86  74 85 86  75 76 87  75 86 87  77 78 89  77 88 89  78 79 90  78 89 90  79 80 91  79 90 91  80 81 92  80 91 92  81 82 93  81 92 93  82 83 94  82 93 94  83 84 95  83 94 95  84 85 96  84 95 96  85 86 97  85 96 97  86 87 98  86 97 98  88 89 100  88 99 100  89 90 101  89 100 101  90 91 102  90 101 102  91 92 103  91 102 103  92 93 104  92 103 104  93 94 105  93 104 105  94 95 106  94 105 106  95 96 107  95 106 107  96 97 108  96 107 108  97 98 109  97 108 109  99 100 111  99 110 111  100 101 112  100 111 112  101 102 113  101 112 113  102 103 114  102 113 114  103 104 115  103 114 115  104 105 116  104 115 116  105 106 117  105 116 117  106 107 118  106 117 118  107 108 119  107 118 119  108 109 120  108 119 120  </DataArray>
<DataArray  type="UInt32"  Name="offsets"  format="ascii">3 6 9 12 15 18 21 24 27 30 33 36 39 42 45 48 51 54 57 60 63 66 69 72 75 78 81 84 87 90 93 96 99 102 105 108 111 114 117 120 123 126 129 132 135 138 141 144 147 150 153 156 159 162 165 168 171 174 177 180 183 186 189 192 195 198 201 204 207 210 213 216 219 222 225 228 231 234 237 240 243 246 249 252 255 258 261 264 267 270 273 276 279 282 285 288 291 294 297 300 303 306 309 312 315 318 321 324 327 330 333 336 339 342 345 348 351 354 357 360 363 366 369 372 375 378 381 384 387 390 393 396 399 402 405 408 411 414 417 420 423 426 429 432 435 438 441 444 447 450 453 456 459 462 465 468 471 474 477 480 483 486 489 492 495 498 501 504 507 510 513 516 519 522 525 528 531 534 537 540 543 546 549 552 555 558 561 564 567 570 573 576 579 582 585 588 591 594 597 600 </DataArray>
<DataArray  type="UInt8"  Name="types"  format="ascii">5 5 5 5 5 5 5 5 5 5 5 5 5 5 5 5 5 5 5 5 5 5 5 5 5 5 5 5 5 5 5 5 5 5 5 5 5 5 5 5 5 5 5 5 5 5 5 5 5 5 5 5 5 5 5 5 5 5 5 5 5 5 5 5 5 5 5 5 5 5 5 5 5 5 5 5 5 5 5 5 5 5 5 5 5 5 5 5 5 5 5 5 5 5 5 5 5 5 5 5 5 5 5 5 5 5 5 5 5 5 5 5 5 5 5 5 5 5 5 5 5 5 5 5 5 5 5 5 5 5 5 5 5 5 5 5 5 5 5 5 5 5 5 5 5 5 5 5 5 5 5 5 5 5 5 5 5 5 5 5 5 5 5 5 5 5 5 5 5 5 5 5 5 5 5 5 5 5 5 5 5 5 5 5 5 5 5 5 5 5 5 5 5 5 5 5 5 5 5 5 </DataArray>
</Cells>
<PointData  Vectors="f_34"> 
<DataArray  type="Float64"  Name="f_34"  NumberOfComponents="3" format="ascii">-1.4921510023285013e-02 1.1907764814728490e+00 0.0000000000000000e+00  -8.3509253467115435e-02 2.0244008946134091e+00 0.0000000000000000e+00  6.5827796151008855e-01 9.3572986559971594e-01 0.0000000000000000e+00  8.1796721959645435e-01 -7.3519446484609813e-02 0.0000000000000000e+00  7.2628492011689727e-01 1.0647022590760285e-03 0.0000000000000000e+00  7.1284903990217463e-01 2.7589554467170583e-03 0.0000000000000000e+00  7.0465844625831175e-01 -1.7488247901528231e-04 0.0000000000000000e+00  7.0033660577949663e-01 2.1507023238824139e-04 0.0000000000000000e+00  6.9828072811489783e-01 8.3630029258815515e-05 0.0000000000000000e+00  6.9731204469510011e-01 5.6263728887911440e-05 0.0000000000000000e+00  6.9699885771004200e-01 2.1993293261667304e-05 0.0000000000000000e+00  -1.8524213954915873e-02 1.2033233070556943e+00 0.0000000000000000e+00  2.6663033539279796e-01 1.4423536820812546e+00 0.0000000000000000e+00  7.4498098288910364e-01 8.1006251517246630e-01 0.0000000000000000e+00  7.7304868357611722e-01 -1.7197410249083681e-01 0.0000000000000000e+00  7.0770149642648505e-01 7.0389516129513122e-02 0.0000000000000000e+00  7.1123707431443794e-01 5.3620446505259350e-03 0.0000000000000000e+00  7.0219730829537241e-01 5.9241336927048933e-03 0.0000000000000000e+00  6.9938414622678247e-01 2.9585557357263152e-03 0.0000000000000000e+00  6.9774526770220036e-01 1.3845750256556006e-03 0.0000000000000000e+00  6.9697473644960128e-01 6.0550457863484998e-04 0.0000000000000000e+00  6.9676704899450070e-01 3.8265131004941508e-05 0.0000000000000000e+00  -1.2365425770507386e-03 9.1218453339713323e-01 0.0000000000000000e+00  3.2383975620644023e-01 1.0681758795148375e+00 0.0000000000000000e+00  6.7939570472040645e-01 5.1896541335803292e-01 0.0000000000000000e+00  6.8530669043844417e-01 -8.9303269194853638e-02 0.0000000000000000e+00  6.9584234504601428e-01 8.4006366748756153e-02 0.0000000000000000e+00  7.0107247046649013e-01 9.3575484739539215e-04 0.0000000000000000e+00  6.9688155840554955e-01 1.1355517126231408e-02 0.0000000000000000e+00  6.9700686281469559e-01 3.8833944331750181e-03 0.0000000000000000e+00  6.9632635515532126e-01 2.1969075565652051e-03 0.0000000000000000e+00  6.9612128977598331e-01 9.0811920769983637e-04 0.0000000000000000e+00  6.9606044323472793e-01 4.6030927231485094e-06 0.0000000000000000e+00  2.0463288441882754e-04 6.1633737107511943e-01 0.0000000000000000e+00  3.2245114243358919e-01 6.9318594066574934e-01 0.0000000000000000e+00  6.4488701077869925e-01 3.3973202043436473e-01 0.0000000000000000e+00  6.6964147860384426e-01 -5.1327505638908817e-02 0.0000000000000000e+00  6.8497500559853908e-01 5.4999232349227926e-02 0.0000000000000000e+00  6.8923175631121736e-01 2.5423896819178672e-03 0.0000000000000000e+00  6.9218153318445741e-01 1.1517808592220753e-02 0.0000000000000000e+00  6.9414913076934426e-01 3.0990540150428710e-03 0.0000000000000000e+00  6.9468901534565453e-01 2.2839410508569053e-03 0.0000000000000000e+00  6.9510518160812040e-01 8.2506634804462530e-04 0.0000000000000000e+00  6.9520364845561511e-01 -1.2605968240782151e-05 0.0000000000000000e+00  2.3021432136759141e-04 3.1594418487845444e-01 0.0000000000000000e+00  3.1724825920377747e-01 3.3366385943451587e-01 0.0000000000000000e+00  6.3045584799556009e-01 1.6797727199074577e-01 0.0000000000000000e+00  6.5586167073026280e-01 -3.5068475654433842e-02 0.0000000000000000e+00  6.7245706036603159e-01 3.2974294749254854e-02 0.0000000000000000e+00  6.8262323903494060e-01 1.4852633974870538e-03 0.0000000000000000e+00  6.8881138107582496e-01 6.7564036743745651e-03 0.0000000000000000e+00  6.9184234026658231e-01 1.5376125200420318e-03 0.0000000000000000e+00  6.9346466911273474e-01 1.4822408641202575e-03 0.0000000000000000e+00  6.9429280119723646e-01 4.1895129254451789e-04 0.0000000000000000e+00  6.9451546902427452e-01 -1.0583515033490977e-05 0.0000000000000000e+00  1.5528227813731664e-04 1.9898805458254561e-02 0.0000000000000000e+00  3.1480224476008034e-01 -2.0238481921521549e-02 0.0000000000000000e+00  6.2548921403152580e-01 -6.7296769964506932e-04 0.0000000000000000e+00  6.5169289773713457e-01 -1.9096780239719183e-02 0.0000000000000000e+00  6.6972414025397775e-01 9.4438909906494964e-03 0.0000000000000000e+00  6.8095665383556281e-01 -4.4007050600961056e-03 0.0000000000000000e+00  6.8744438726591761e-01 1.1045038839910275e-03 0.0000000000000000e+00  6.9106342955522204e-01 -6.1268552308761301e-04 0.0000000000000000e+00  6.9305367301883558e-01 9.4368310086487874e-05 0.0000000000000000e+00  6.9398778874284939e-01 -1.2104381182715548e-04 0.0000000000000000e+00  6.9426063986334585e-01 -7.7874734862306176e-06 0.0000000000000000e+00  -7.7318994260540104e-04 -2.7681831910957483e-01 0.0000000000000000e+00  3.1613260262812681e-01 -3.7434657683133915e-01 0.0000000000000000e+00  6.2991197916446784e-01 -1.6904006967587262e-01 0.0000000000000000e+00  6.5622084690637583e-01 -4.1173794882631582e-03 0.0000000000000000e+00  6.7319433498996017e-01 -1.4441829712133250e-02 0.0000000000000000e+00  6.8328781671607053e-01 -9.8970883980715862e-03 0.0000000000000000e+00  6.8891439827555712e-01 -4.1293695358310253e-03 0.0000000000000000e+00  6.9198443408568189e-01 -2.9040794958061947e-03 0.0000000000000000e+00  6.9356947612138109e-01 -1.2576704663336666e-03 0.0000000000000000e+00  6.9431155980887749e-01 -6.2008587685296690e-04 0.0000000000000000e+00  6.9452720877239460e-01 -8.8233021619242929e-06 0.0000000000000000e+00  1.3846088021867431e-03 -5.7047009480007715e-01 0.0000000000000000e+00  3.2180267076089480e-01 -7.3364330836816771e-01 0.0000000000000000e+00  6.4389195615839834e-01 -3.4244273035242451e-01 0.0000000000000000e+00  6.6982306124298896e-01 1.2747367017907971e-02 0.0000000000000000e+00  6.8392106740379399e-01 -3.5479790055194013e-02 0.0000000000000000e+00  6.9002324793401215e-01 -1.3445012573707577e-02 0.0000000000000000e+00  6.9294413400104127e-01 -7.8866001070460705e-03 0.0000000000000000e+00  6.9424143931604876e-01 -4.3427871779444733e-03 0.0000000000000000e+00  6.9487026339893543e-01 -2.0794314908884298e-03 0.0000000000000000e+00  6.9514610398353616e-01 -9.1773134213138580e-04 0.0000000000000000e+00  6.9521444530746357e-01 3.3319153910320389e-06 0.0000000000000000e+00  8.3831123023813212e-03 -8.5474603488577305e-01 0.0000000000000000e+00  3.1255516453675286e-01 -1.1211718864135249e+00 0.0000000000000000e+00  6.6750876810680870e-01 -5.1857823794113866e-01 0.0000000000000000e+00  6.9956816921855802e-01 3.7930434638335640e-02 0.0000000000000000e+00  7.0050304510245731e-01 -5.3501948486108550e-02 0.0000000000000000e+00  7.0021517016657564e-01 -1.0976574833475422e-02 0.0000000000000000e+00  6.9819736023755130e-01 -9.2131727609041005e-03 0.0000000000000000e+00  6.9713940788374806e-01 -4.1006778687779659e-03 0.0000000000000000e+00  6.9649865127665933e-01 -2.1300210662692754e-03 0.0000000000000000e+00  6.9617757047180762e-01 -8.7611005037764133e-04 0.0000000000000000e+00  6.9606855189810812e-01 2.3914972155135908e-05 0.0000000000000000e+00  4.5923362992194280e-02 -1.1573366731057324e+00 0.0000000000000000e+00  2.4671268244950240e-01 -1.4877770219495101e+00 0.0000000000000000e+00  7.5808777243440528e-01 -7.2148458370717194e-01 0.0000000000000000e+00  7.3079626885531157e-01 4.0768379515501746e-02 0.0000000000000000e+00  7.2628045638118366e-01 -3.8847714828695201e-02 0.0000000000000000e+00  7.0865793791686482e-01 -7.4851454267436061e-03 0.0000000000000000e+00  7.0297466948781306e-01 -5.7004086586120405e-03 0.0000000000000000e+00  6.9953424156176003e-01 -2.4894467097731385e-03 0.0000000000000000e+00  6.9781672348973667e-01 -1.2880241693245052e-03 0.0000000000000000e+00  6.9700767362285798e-01 -5.0956042498215249e-04 0.0000000000000000e+00  6.9676250693869657e-01 4.0749131785984603e-05 0.0000000000000000e+00  2.1522179756921622e-02 -1.3765180856179906e+00 0.0000000000000000e+00  -1.8396819208820858e-02 -1.5720246765605959e+00 0.0000000000000000e+00  5.1861730523741167e-01 -1.5750423981314867e+00 0.0000000000000000e+00  8.7489940016412082e-01 4.1716685849279472e-01 0.0000000000000000e+00  7.2106184153013597e-01 -9.5857496762369029e-02 0.0000000000000000e+00  7.1432522258182674e-01 2.2528072125085584e-02 0.0000000000000000e+00  7.0486862618341184e-01 -4.1587012818015507e-03 0.0000000000000000e+00  7.0042240430510283e-01 1.1293806723416328e-03 0.0000000000000000e+00  6.9833220935077478e-01 -9.3911165193974239e-05 0.0000000000000000e+00  6.9732326276923373e-01 9.7674918593531238e-05 0.0000000000000000e+00  6.9704546357871644e-01 4.9320490757830304e-05 0.0000000000000000e+00  </DataArray> 
</PointData> 
</Piece>
</UnstructuredGrid>
</VTKFile>