<?xml version="1.0"?>
<VTKFile type="UnstructuredGrid"  version="0.1"  >
<UnstructuredGrid>
<Piece  NumberOfPoints="121" NumberOfCells="200">
<Points>
<DataArray  type="Float64"  NumberOfComponents="3"  format="ascii">0 0 0  0.1 0 0  0.2 0 0  0.3 0 0  0.4 0 0  0.5 0 0  0.6 0 0  0.7 0 0  0.8 0 0  0.9 0 0  1 0 0  0 0.1 0  0.1 0.1 0  0.2 0.1 0  0.3 0.1 0  0.4 0.1 0  0.5 0.1 0  0.6 0.1 0  0.7 0.1 0  0.8 0.1 0  0.9 0.1 0  1 0.1 0  0 0.2 0  0.1 0.2 0  0.2 0.2 0  0.3 0.2 0  0.4 0.2 0  0.5 0.2 0  0.6 0.2 0  0.7 0.2 0  0.8 0.2 0  0.9 0.2 0  1 0.2 0  0 0.3 0  0.1 0.3 0  0.2 0.3 0  0.3 0.3 0  0.4 0.3 0  0.5 0.3 0  0.6 0.3 0  0.7 0.3 0  0.8 0.3 0  0.9 0.3 0  1 0.3 0  0 0.4 0  0.1 0.4 0  0.2 0.4 0  0.3 0.4 0  0.4 0.4 0  0.5 0.4 0  0.6 0.4 0  0.7 0.4 0  0.8 0.4 0  0.9 0.4 0  1 0.4 0  0 0.5 0  0.1 0.5 0  0.2 0.5 0  0.3 0.5 0  0.4 0.5 0  0.5 0.5 0  0.6 0.5 0  0.7 0.5 0  0.8 0.5 0  0.9 0.5 0  1 0.5 0  0 0.6 0  0.1 0.6 0  0.2 0.6 0  0.3 0.6 0  0.4 0.6 0  0.5 0.6 0  0.6 0.6 0  0.7 0.6 0  0.8 0.6 0  0.9 0.6 0  1 0.6 0  0 0.7 0  0.1 0.7 0  0.2 0.7 0  0.3 0.7 0  0.4 0.7 0  0.5 0.7 0  0.6 0.7 0  0.7 0.7 0  0.8 0.7 0  0.9 0.7 0  1 0.7 0  0 0.8 0  0.1 0.8 0  0.2 0.8 0  0.3 0.8 0  0.4 0.8 0  0.5 0.8 0  0.6 0.8 0  0.7 0.8 0  0.8 0.8 0  0.9 0.8 0  1 0.8 0  0 0.9 0  0.1 0.9 0  0.2 0.9 0  0.3 0.9 0  0.4 0.9 0  0.5 0.9 0  0.6 0.9 0  0.7 0.9 0  0.8 0.9 0  0.9 0.9 0  1 0.9 0  0 1 0  0.1 1 0  0.2 1 0  0.3 1 0  0.4 1 0  0.5 1 0  0.6 1 0  0.7 1 0  0.8 1 0  0.9 1 0  1 1 0  </DataArray>
</Points>
<Cells>
<DataArray  type="UInt32"  Name="connectivity"  format="ascii">0 1 12  0 11 12  1 2 13  1 12 13  2 3 14  2 13 14  3 4 15  3 14 15  4 5 16  4 15 16  5 6 17  5 16 17  6 7 18  6 17 18  7 8 19  7 18 19  8 9 20  8 19 20  9 10 21  9 20 21  11 12 23  11 22 23  12 13 24  12 23 24  13 14 25  13 24 25  14 15 26  14 25 26  15 16 27  15 26 27  16 17 28  16 27 28  17 18 29  17 28 29  18 19 30  18 29 30  19 20 31  19 30 31  20 21 32  20 31 32  22 23 34  22 33 34  23 24 35  23 34 35  24 25 36  24 35 36  25 26 37  25 36 37  26 27 38  26 37 38  27 28 39  27 38 39  28 29 40  28 39 40  29 30 41  29 40 41  30 31 42  30 41 42  31 32 43  31 42 43  33 34 45  33 44 45  34 35 46  34 45 46  35 36 47  35 46 47  36 37 48  36 47 48  37 38 49  37 48 49  38 39 50  38 49 50  39 40 51  39 50 51  40 41 52  40 51 52  41 42 53  41 52 53  42 43 54  42 53 54  44 45 56  44 55 56  45 46 57  45 56 57  46 47 58  46 57 58  47 48 59  47 58 59  48 49 60  48 59 60  49 50 61  49 60 61  50 51 62  50 61 62  51 52 63  51 62 63  52 53 64  52 63 64  53 54 65  53 64 65  55 56 67  55 66 67  56 57 68  56 67 68  57 58 69  57 68 69  58 59 70  58 69 70  59 60 71  59 70 71  60 61 72  60 71 72  61 62 73  61 72 73  62 63 74  62 73 74  63 64 75  63 74 75  64 65 76  64 75 76  66 67 78  66 77 78  67 68 79  67 78 79  68 69 80  68 79 80  69 70 81  69 80 81  70 71 82  70 81 82  71 72 83  71 82 83  72 73 84  72 83 84  73 74 85  73 84 85  74 75 86  74 85 86  75 76 87  75 86 87  77 78 89  77 88 89  78 79 90  78 89 90  79 80 91  79 90 91  80 81 92  80 91 92  81 82 93  81 92 93  82 83 94  82 93 94  83 84 95  83 94 95  84 85 96  84 95 96  85 86 97  85 96 97  86 87 98  86 97 98  88 89 100  88 99 100  89 90 101  89 100 101  90 91 102  90 101 102  91 92 103  91 102 103  92 93 104  92 103 104  93 94 105  93 104 105  94 95 106  94 105 106  95 96 107  95 106 107  96 97 108  96 107 108  97 98 109  97 108 109  99 100 111  99 110 111  100 101 112  100 111 112  101 102 113  101 112 113  102 103 114  102 113 114  103 104 115  103 114 115  104 105 116  104 115 116  105 106 117  105 116 117  106 107 118  106 117 118  107 108 119  107 118 119  108 109 120  108 119 120  </DataArray>
<DataArray  type="UInt32"  Name="offsets"  format="ascii">3 6 9 12 15 18 21 24 27 30 33 36 39 42 45 48 51 54 57 60 63 66 69 72 75 78 81 84 87 90 93 96 99 102 105 108 111 114 117 120 123 126 129 132 135 138 141 144 147 150 153 156 159 162 165 168 171 174 177 180 183 186 189 192 195 198 201 204 207 210 213 216 219 222 225 228 231 234 237 240 243 246 249 252 255 258 261 264 267 270 273 276 279 282 285 288 291 294 297 300 303 306 309 312 315 318 321 324 327 330 333 336 339 342 345 348 351 354 357 360 363 366 369 372 375 378 381 384 387 390 393 396 399 402 405 408 411 414 417 420 423 426 429 432 435 438 441 444 447 450 453 456 459 462 465 468 471 474 477 480 483 486 489 492 495 498 501 504 507 510 513 516 519 522 525 528 531 534 537 540 543 546 549 552 555 558 561 564 567 570 573 576 579 582 585 588 591 594 597 600 </DataArray>
<DataArray  type="UInt8"  Name="types"  format="ascii">5 5 5 5 5 5 5 5 5 5 5 5 5 5 5 5 5 5 5 5 5 5 5 5 5 5 5 5 5 5 5 5 5 5 5 5 5 5 5 5 5 5 5 5 5 5 5 5 5 5 5 5 5 5 5 5 5 5 5 5 5 5 5 5 5 5 5 5 5 5 5 5 5 5 5 5 5 5 5 5 5 5 5 5 5 5 5 5 5 5 5 5 5 5 5 5 5 5 5 5 5 5 5 5 5 5 5 5 5 5 5 5 5 5 5 5 5 5 5 5 5 5 5 5 5 5 5 5 5 5 5 5 5 5 5 5 5 5 5 5 5 5 5 5 5 5 5 5 5 5 5 5 5 5 5 5 5 5 5 5 5 5 5 5 5 5 5 5 5 5 5 5 5 5 5 5 5 5 5 5 5 5 5 5 5 5 5 5 5 5 5 5 5 5 5 5 5 5 5 5 </DataArray>
</Cells>
<PointData  Vectors="f_34"> 
<DataArray  type="Float64"  Name="f_34"  NumberOfComponents="3" format="ascii">-2.0537696622177522e-02 1.6389632204213942e+00 0.0000000000000000e+00  -1.1494062666417446e-01 2.7863487911313767e+00 0.0000000000000000e+00  9.0604188486704351e-01 1.2879216694562827e+00 0.0000000000000000e+00  1.1258352925905575e+00 -1.0119083694445892e-01 0.0000000000000000e+00  9.9964543315967969e-01 1.4654369400759824e-03 0.0000000000000000e+00  9.8115253054652052e-01 3.7973763962462596e-03 0.0000000000000000e+00  9.6987914553718424e-01 -2.4070508232683512e-04 0.0000000000000000e+00  9.6393064243897419e-01 2.9601877948943486e-04 0.0000000000000000e+00  9.6110096959073155e-01 1.1510686027357592e-04 0.0000000000000000e+00  9.5976769124505257e-01 7.7440379220129098e-05 0.0000000000000000e+00  9.5933662634109484e-01 3.0271171222451685e-05 0.0000000000000000e+00  -2.5496393178484941e-02 1.6562324443129284e+00 0.0000000000000000e+00  3.6698517308378803e-01 1.9852295309415338e+00 0.0000000000000000e+00  1.0253783559433391e+00 1.1149554003347135e+00 0.0000000000000000e+00  1.0640102317181375e+00 -2.3670204545762791e-01 0.0000000000000000e+00  9.7406754477174229e-01 9.6882857391370689e-02 0.0000000000000000e+00  9.7893385025513546e-01 7.3802213137422225e-03 0.0000000000000000e+00  9.6649167974121264e-01 8.1538705090905134e-03 0.0000000000000000e+00  9.6261969433064110e-01 4.0721026253609776e-03 0.0000000000000000e+00  9.6036397155956155e-01 1.9057040328497132e-03 0.0000000000000000e+00  9.5930342627433185e-01 8.3340555479351642e-04 0.0000000000000000e+00  9.5901756901601043e-01 5.2667434504522276e-05 0.0000000000000000e+00  -1.7019548469457044e-03 1.2555142999011610e+00 0.0000000000000000e+00  4.4572718557230984e-01 1.4702179684475156e+00 0.0000000000000000e+00  9.3510796482287528e-01 7.1429461229579594e-01 0.0000000000000000e+00  9.4324373869734601e-01 -1.2291540515875887e-01 0.0000000000000000e+00  9.5774482321953269e-01 1.1562484439744990e-01 0.0000000000000000e+00  9.6494347329006924e-01 1.2879560539484742e-03 0.0000000000000000e+00  9.5917517769911276e-01 1.5629528470145385e-02 0.0000000000000000e+00  9.5934764442241316e-01 5.3450338878820057e-03 0.0000000000000000e+00  9.5841100598330464e-01 3.0237838418075910e-03 0.0000000000000000e+00  9.5812875770267147e-01 1.2499188591082058e-03 0.0000000000000000e+00  9.5804500962336847e-01 6.3356135995667335e-06 0.0000000000000000e+00  2.8165300245151564e-04 8.4831561445846904e-01 0.0000000000000000e+00  4.4381592268084147e-01 9.5408859625707532e-01 0.0000000000000000e+00  8.8761082238243882e-01 4.6760101073097005e-01 0.0000000000000000e+00  9.2168242434785486e-01 -7.0646250784272474e-02 0.0000000000000000e+00  9.4278721368040563e-01 7.5699949045265558e-02 0.0000000000000000e+00  9.4864612840129003e-01 3.4992991929857355e-03 0.0000000000000000e+00  9.5270614795903930e-01 1.5852903509780279e-02 0.0000000000000000e+00  9.5541431370164398e-01 4.2654819168630505e-03 0.0000000000000000e+00  9.5615740107161040e-01 3.1435751698218263e-03 0.0000000000000000e+00  9.5673020479118176e-01 1.1356064046397856e-03 0.0000000000000000e+00  9.5686573277984843e-01 -1.7350626777278494e-05 0.0000000000000000e+00  3.1686282976677520e-04 4.3485986394468007e-01 0.0000000000000000e+00  4.3665476826900546e-01 4.5924890364027365e-01 0.0000000000000000e+00  8.6774803083635121e-01 2.3120088021811649e-01 0.0000000000000000e+00  9.0271614592309046e-01 -4.8267615869241623e-02 0.0000000000000000e+00  9.2555774018093595e-01 4.5385223133160443e-02 0.0000000000000000e+00  9.3955028470110491e-01 2.0442896874381580e-03 0.0000000000000000e+00  9.4806753152747725e-01 9.2993918648164708e-03 0.0000000000000000e+00  9.5223928895932308e-01 2.1163420732795797e-03 0.0000000000000000e+00  9.5447223305222817e-01 2.0401295271593139e-03 0.0000000000000000e+00  9.5561205908109692e-01 5.7663698461936483e-04 0.0000000000000000e+00  9.5591853505250179e-01 -1.4566958745193222e-05 0.0000000000000000e+00  2.1372772020306481e-04 2.7388356071711608e-02 0.0000000000000000e+00  4.3328811821148394e-01 -2.7855880614563861e-02 0.0000000000000000e+00  8.6091204564265766e-01 -9.2626057485474772e-04 0.0000000000000000e+00  8.9697832214480200e-01 -2.6284463061159089e-02 0.0000000000000000e+00  9.2179619834861393e-01 1.2998400818429762e-02 0.0000000000000000e+00  9.3725642696375255e-01 -6.0570508820410362e-03 0.0000000000000000e+00  9.4618602596212653e-01 1.5202191770128390e-03 0.0000000000000000e+00  9.5116721033854901e-01 -8.4328927691644734e-04 0.0000000000000000e+00  9.5390654545920284e-01 1.2988683587053954e-04 0.0000000000000000e+00  9.5519224545335757e-01 -1.6660251418471205e-04 0.0000000000000000e+00  9.5556779280259219e-01 -1.0718537711641131e-05 0.0000000000000000e+00  -1.0642046580878722e-03 -3.8100772967761148e-01 0.0000000000000000e+00  4.3511919872882077e-01 -5.1524386034089009e-01 0.0000000000000000e+00  8.6699945961013070e-01 -2.3266369573704151e-01 0.0000000000000000e+00  9.0321050951815673e-01 -5.6670866873629443e-03 0.0000000000000000e+00  9.2657251164373378e-01 -1.9877473314300956e-02 0.0000000000000000e+00  9.4046499740615819e-01 -1.3622173536412145e-02 0.0000000000000000e+00  9.4820932253868495e-01 -5.6835895720597635e-03 0.0000000000000000e+00  9.5243486432294200e-01 -3.9971225136392766e-03 0.0000000000000000e+00  9.5461648752406714e-01 -1.7310348917716370e-03 0.0000000000000000e+00  9.5563787809501377e-01 -8.5347499004497244e-04 0.0000000000000000e+00  9.5593469342957527e-01 -1.2144233580770878e-05 0.0000000000000000e+00  1.9057505222541515e-03 -7.8518472465224776e-01 0.0000000000000000e+00  4.4292337799460396e-01 -1.0097733857125366e+00 0.0000000000000000e+00  8.8624124719317665e-01 -4.7133198285383210e-01 0.0000000000000000e+00  9.2193235140944363e-01 1.7545245497057872e-02 0.0000000000000000e+00  9.4133659220386690e-01 -4.8833741574080859e-02 0.0000000000000000e+00  9.4973552316110643e-01 -1.8505472226957351e-02 0.0000000000000000e+00  9.5375577793552146e-01 -1.0854973801328077e-02 0.0000000000000000e+00  9.5554136551642510e-01 -5.9773337561725209e-03 0.0000000000000000e+00  9.5640686761527416e-01 -2.8620919089159228e-03 0.0000000000000000e+00  9.5678652960884580e-01 -1.2631488271574714e-03 0.0000000000000000e+00  9.5688059337153275e-01 4.5859881035164923e-06 0.0000000000000000e+00  1.1538364210278691e-02 -1.1764569890111238e+00 0.0000000000000000e+00  4.3019527761824933e-01 -1.5431607142000319e+00 0.0000000000000000e+00  9.1874700017813549e-01 -7.1376171105193342e-01 0.0000000000000000e+00  9.6287298024947710e-01 5.2206764471814486e-02 0.0000000000000000e+00  9.6415972651396065e-01 -7.3639114606254455e-02 0.0000000000000000e+00  9.6376350065685468e-01 -1.5107959149493144e-02 0.0000000000000000e+00  9.6098622355159702e-01 -1.2680844418283403e-02 0.0000000000000000e+00  9.5953007705910953e-01 -5.6440988802632227e-03 0.0000000000000000e+00  9.5864815124968217e-01 -2.9317224858297925e-03 0.0000000000000000e+00  9.5820622143488066e-01 -1.2058620336834421e-03 0.0000000000000000e+00  9.5805617024103618e-01 3.2916135305694500e-05 0.0000000000000000e+00  6.3208086549687820e-02 -1.5929372727608790e+00 0.0000000000000000e+00  3.3957087567441768e-01 -2.0477493947036116e+00 0.0000000000000000e+00  1.0434183041089113e+00 -9.9303833691315668e-01 0.0000000000000000e+00  1.0058547720001738e+00 5.6112860492040520e-02 0.0000000000000000e+00  9.9963928935454505e-01 -5.3469292341832564e-02 0.0000000000000000e+00  9.7538397354709050e-01 -1.0302418837467762e-02 0.0000000000000000e+00  9.6756162563215775e-01 -7.8459394170102247e-03 0.0000000000000000e+00  9.6282628283606042e-01 -3.4264294433083140e-03 0.0000000000000000e+00  9.6046232201363313e-01 -1.7728131797826337e-03 0.0000000000000000e+00  9.5934876040410988e-01 -7.0134975633581959e-04 0.0000000000000000e+00  9.5901131741251888e-01 5.6086368268893914e-05 0.0000000000000000e+00  2.9622739106554882e-02 -1.8946146062460663e+00 0.0000000000000000e+00  -2.5321049353196481e-02 -2.1637063433524037e+00 0.0000000000000000e+00  7.1381548257220495e-01 -2.1678598807635927e+00 0.0000000000000000e+00  1.2041957166168891e+00 5.7418092184920055e-01 0.0000000000000000e+00  9.9245648222366178e-01 -1.3193652548533902e-01 0.0000000000000000e+00  9.8318432169810954e-01 3.1007231176037559e-02 0.0000000000000000e+00  9.7016843338613412e-01 -5.7239612569121951e-03 0.0000000000000000e+00  9.6404873397842983e-01 1.5544591387396355e-03 0.0000000000000000e+00  9.6117182743302798e-01 -1.2925762990612010e-04 0.0000000000000000e+00  9.5978313159947415e-01 1.3443799203357893e-04 0.0000000000000000e+00  9.5940077381613187e-01 6.7883831783811371e-05 0.0000000000000000e+00  </DataArray> 
</PointData> 
</Piece>
</UnstructuredGrid>
</VTKFile>