<?xml version="1.0"?>
<VTKFile type="UnstructuredGrid"  version="0.1"  >
<UnstructuredGrid>
<Piece  NumberOfPoints="121" NumberOfCells="200">
<Points>
<DataArray  type="Float64"  NumberOfComponents="3"  format="ascii">0 0 0  0.1 0 0  0.2 0 0  0.3 0 0  0.4 0 0  0.5 0 0  0.6 0 0  0.7 0 0  0.8 0 0  0.9 0 0  1 0 0  0 0.1 0  0.1 0.1 0  0.2 0.1 0  0.3 0.1 0  0.4 0.1 0  0.5 0.1 0  0.6 0.1 0  0.7 0.1 0  0.8 0.1 0  0.9 0.1 0  1 0.1 0  0 0.2 0  0.1 0.2 0  0.2 0.2 0  0.3 0.2 0  0.4 0.2 0  0.5 0.2 0  0.6 0.2 0  0.7 0.2 0  0.8 0.2 0  0.9 0.2 0  1 0.2 0  0 0.3 0  0.1 0.3 0  0.2 0.3 0  0.3 0.3 0  0.4 0.3 0  0.5 0.3 0  0.6 0.3 0  0.7 0.3 0  0.8 0.3 0  0.9 0.3 0  1 0.3 0  0 0.4 0  0.1 0.4 0  0.2 0.4 0  0.3 0.4 0  0.4 0.4 0  0.5 0.4 0  0.6 0.4 0  0.7 0.4 0  0.8 0.4 0  0.9 0.4 0  1 0.4 0  0 0.5 0  0.1 0.5 0  0.2 0.5 0  0.3 0.5 0  0.4 0.5 0  0.5 0.5 0  0.6 0.5 0  0.7 0.5 0  0.8 0.5 0  0.9 0.5 0  1 0.5 0  0 0.6 0  0.1 0.6 0  0.2 0.6 0  0.3 0.6 0  0.4 0.6 0  0.5 0.6 0  0.6 0.6 0  0.7 0.6 0  0.8 0.6 0  0.9 0.6 0  1 0.6 0  0 0.7 0  0.1 0.7 0  0.2 0.7 0  0.3 0.7 0  0.4 0.7 0  0.5 0.7 0  0.6 0.7 0  0.7 0.7 0  0.8 0.7 0  0.9 0.7 0  1 0.7 0  0 0.8 0  0.1 0.8 0  0.2 0.8 0  0.3 0.8 0  0.4 0.8 0  0.5 0.8 0  0.6 0.8 0  0.7 0.8 0  0.8 0.8 0  0.9 0.8 0  1 0.8 0  0 0.9 0  0.1 0.9 0  0.2 0.9 0  0.3 0.9 0  0.4 0.9 0  0.5 0.9 0  0.6 0.9 0  0.7 0.9 0  0.8 0.9 0  0.9 0.9 0  1 0.9 0  0 1 0  0.1 1 0  0.2 1 0  0.3 1 0  0.4 1 0  0.5 1 0  0.6 1 0  0.7 1 0  0.8 1 0  0.9 1 0  1 1 0  </DataArray>
</Points>
<Cells>
<DataArray  type="UInt32"  Name="connectivity"  format="ascii">0 1 12  0 11 12  1 2 13  1 12 13  2 3 14  2 13 14  3 4 15  3 14 15  4 5 16  4 15 16  5 6 17  5 16 17  6 7 18  6 17 18  7 8 19  7 18 19  8 9 20  8 19 20  9 10 21  9 20 21  11 12 23  11 22 23  12 13 24  12 23 24  13 14 25  13 24 25  14 15 26  14 25 26  15 16 27  15 26 27  16 17 28  16 27 28  17 18 29  17 28 29  18 19 30  18 29 30  19 20 31  19 30 31  20 21 32  20 31 32  22 23 34  22 33 34  23 24 35  23 34 35  24 25 36  24 35 36  25 26 37  25 36 37  26 27 38  26 37 38  27 28 39  27 38 39  28 29 40  28 39 40  29 30 41  29 40 41  30 31 42  30 41 42  31 32 43  31 42 43  33 34 45  33 44 45  34 35 46  34 45 46  35 36 47  35 46 47  36 37 48  36 47 48  37 38 49  37 48 49  38 39 50  38 49 50  39 40 51  39 50 51  40 41 52  40 51 52  41 42 53  41 52 53  42 43 54  42 53 54  44 45 56  44 55 56  45 46 57  45 56 57  46 47 58  46 57 58  47 48 59  47 58 59  48 49 60  48 59 60  49 50 61  49 60 61  50 51 62  50 61 62  51 52 63  51 62 63  52 53 64  52 63 64  53 54 65  53 64 65  55 56 67  55 66 67  56 57 68  56 67 68  57 58 69  57 68 69  58 59 70  58 69 70  59 60 71  59 70 71  60 61 72  60 71 72  61 62 73  61 72 73  62 63 74  62 73 74  63 64 75  63 74 75  64 65 76  64 75 76  66 67 78  66 77 78  67 68 79  67 78 79  68 69 80  68 79 80  69 70 81  69 80 81  70 71 82  70 81 82  71 72 83  71 82 83  72 73 84  72 83 84  73 74 85  73 84 85  74 75 86  74 85 86  75 76 87  75 86 87  77 78 89  77 88 89  78 79 90  78 89 90  79 80 91  79 90 91  80 81 92  80 91 92  81 82 93  81 92 93  82 83 94  82 93 94  83 84 95  83 94 95  84 85 96  84 95 96  85 86 97  85 96 97  86 87 98  86 97 98  88 89 100  88 99 100  89 90 101  89 100 101  90 91 102  90 101 102  91 92 103  91 102 103  92 93 104  92 103 104  93 94 105  93 104 105  94 95 106  94 105 106  95 96 107  95 106 107  96 97 108  96 107 108  97 98 109  97 108 109  99 100 111  99 110 111  100 101 112  100 111 112  101 102 113  101 112 113  102 103 114  102 113 114  103 104 115  103 114 115  104 105 116  104 115 116  105 106 117  105 116 117  106 107 118  106 117 118  107 108 119  107 118 119  108 109 120  108 119 120  </DataArray>
<DataArray  type="UInt32"  Name="offsets"  format="ascii">3 6 9 12 15 18 21 24 27 30 33 36 39 42 45 48 51 54 57 60 63 66 69 72 75 78 81 84 87 90 93 96 99 102 105 108 111 114 117 120 123 126 129 132 135 138 141 144 147 150 153 156 159 162 165 168 171 174 177 180 183 186 189 192 195 198 201 204 207 210 213 216 219 222 225 228 231 234 237 240 243 246 249 252 255 258 261 264 267 270 273 276 279 282 285 288 291 294 297 300 303 306 309 312 315 318 321 324 327 330 333 336 339 342 345 348 351 354 357 360 363 366 369 372 375 378 381 384 387 390 393 396 399 402 405 408 411 414 417 420 423 426 429 432 435 438 441 444 447 450 453 456 459 462 465 468 471 474 477 480 483 486 489 492 495 498 501 504 507 510 513 516 519 522 525 528 531 534 537 540 543 546 549 552 555 558 561 564 567 570 573 576 579 582 585 588 591 594 597 600 </DataArray>
<DataArray  type="UInt8"  Name="types"  format="ascii">5 5 5 5 5 5 5 5 5 5 5 5 5 5 5 5 5 5 5 5 5 5 5 5 5 5 5 5 5 5 5 5 5 5 5 5 5 5 5 5 5 5 5 5 5 5 5 5 5 5 5 5 5 5 5 5 5 5 5 5 5 5 5 5 5 5 5 5 5 5 5 5 5 5 5 5 5 5 5 5 5 5 5 5 5 5 5 5 5 5 5 5 5 5 5 5 5 5 5 5 5 5 5 5 5 5 5 5 5 5 5 5 5 5 5 5 5 5 5 5 5 5 5 5 5 5 5 5 5 5 5 5 5 5 5 5 5 5 5 5 5 5 5 5 5 5 5 5 5 5 5 5 5 5 5 5 5 5 5 5 5 5 5 5 5 5 5 5 5 5 5 5 5 5 5 5 5 5 5 5 5 5 5 5 5 5 5 5 5 5 5 5 5 5 5 5 5 5 5 5 </DataArray>
</Cells>
<PointData  Vectors="f_34"> 
<DataArray  type="Float64"  Name="f_34"  NumberOfComponents="3" format="ascii">2.0537696622172284e-02 -1.6389632204209359e+00 0.0000000000000000e+00  1.1494062666414219e-01 -2.7863487911305955e+00 0.0000000000000000e+00  -9.0604188486678938e-01 -1.2879216694559219e+00 0.0000000000000000e+00  -1.1258352925902428e+00 1.0119083694442943e-01 0.0000000000000000e+00  -9.9964543315940002e-01 -1.4654369400757558e-03 0.0000000000000000e+00  -9.8115253054624418e-01 -3.7973763962441836e-03 0.0000000000000000e+00  -9.6987914553691579e-01 2.4070508232394827e-04 0.0000000000000000e+00  -9.6393064243870552e-01 -2.9601877948887942e-04 0.0000000000000000e+00  -9.6110096959046010e-01 -1.1510686027595544e-04 0.0000000000000000e+00  -9.5976769124478301e-01 -7.7440379220793673e-05 0.0000000000000000e+00  -9.5933662634081718e-01 -3.0271171221076453e-05 0.0000000000000000e+00  2.5496393178477281e-02 -1.6562324443124654e+00 0.0000000000000000e+00  -3.6698517308368556e-01 -1.9852295309409764e+00 0.0000000000000000e+00  -1.0253783559430512e+00 -1.1149554003344015e+00 0.0000000000000000e+00  -1.0640102317178395e+00 2.3670204545756207e-01 0.0000000000000000e+00  -9.7406754477147151e-01 -9.6882857391342003e-02 0.0000000000000000e+00  -9.7893385025486046e-01 -7.3802213137426076e-03 0.0000000000000000e+00  -9.6649167974093941e-01 -8.1538705090892939e-03 0.0000000000000000e+00  -9.6261969433037198e-01 -4.0721026253589237e-03 0.0000000000000000e+00  -9.6036397155929587e-01 -1.9057040328485820e-03 0.0000000000000000e+00  -9.5930342627405862e-01 -8.3340555479707640e-04 0.0000000000000000e+00  -9.5901756901574720e-01 -5.2667434500686958e-05 0.0000000000000000e+00  1.7019548469457018e-03 -1.2555142999008089e+00 0.0000000000000000e+00  -4.4572718557218355e-01 -1.4702179684471031e+00 0.0000000000000000e+00  -9.3510796482261405e-01 -7.1429461229559710e-01 0.0000000000000000e+00  -9.4324373869708178e-01 1.2291540515872489e-01 0.0000000000000000e+00  -9.5774482321926435e-01 -1.1562484439741819e-01 0.0000000000000000e+00  -9.6494347328980057e-01 -1.2879560539449976e-03 0.0000000000000000e+00  -9.5917517769884342e-01 -1.5629528470142304e-02 0.0000000000000000e+00  -9.5934764442214637e-01 -5.3450338878792006e-03 0.0000000000000000e+00  -9.5841100598303541e-01 -3.0237838418055336e-03 0.0000000000000000e+00  -9.5812875770240624e-01 -1.2499188591065056e-03 0.0000000000000000e+00  -9.5804500962308881e-01 -6.3356135999613289e-06 0.0000000000000000e+00  -2.8165300245014955e-04 -8.4831561445823189e-01 0.0000000000000000e+00  -4.4381592268071424e-01 -9.5408859625681075e-01 0.0000000000000000e+00  -8.8761082238219147e-01 -4.6760101073083832e-01 0.0000000000000000e+00  -9.2168242434759617e-01 7.0646250784251657e-02 0.0000000000000000e+00  -9.4278721368014107e-01 -7.5699949045244241e-02 0.0000000000000000e+00  -9.4864612840102380e-01 -3.4992991929840662e-03 0.0000000000000000e+00  -9.5270614795877251e-01 -1.5852903509774745e-02 0.0000000000000000e+00  -9.5541431370137586e-01 -4.2654819168627192e-03 0.0000000000000000e+00  -9.5615740107134517e-01 -3.1435751698223931e-03 0.0000000000000000e+00  -9.5673020479091408e-01 -1.1356064046409294e-03 0.0000000000000000e+00  -9.5686573277957498e-01 1.7350626776570188e-05 0.0000000000000000e+00  -3.1686282976435743e-04 -4.3485986394455606e-01 0.0000000000000000e+00  -4.3665476826888383e-01 -4.5924890364014104e-01 0.0000000000000000e+00  -8.6774803083610508e-01 -2.3120088021805088e-01 0.0000000000000000e+00  -9.0271614592283911e-01 4.8267615869228800e-02 0.0000000000000000e+00  -9.2555774018067516e-01 -4.5385223133146663e-02 0.0000000000000000e+00  -9.3955028470084057e-01 -2.0442896874364432e-03 0.0000000000000000e+00  -9.4806753152721335e-01 -9.2993918648113481e-03 0.0000000000000000e+00  -9.5223928895905741e-01 -2.1163420732781550e-03 0.0000000000000000e+00  -9.5447223305195894e-01 -2.0401295271587900e-03 0.0000000000000000e+00  -9.5561205908083302e-01 -5.7663698461592270e-04 0.0000000000000000e+00  -9.5591853505223179e-01 1.4566958747984253e-05 0.0000000000000000e+00  -2.1372772019761995e-04 -2.7388356071708336e-02 0.0000000000000000e+00  -4.3328811821136498e-01 2.7855880614554965e-02 0.0000000000000000e+00  -8.6091204564241597e-01 9.2626057485246385e-04 0.0000000000000000e+00  -8.9697832214455109e-01 2.6284463061151654e-02 0.0000000000000000e+00  -9.2179619834835480e-01 -1.2998400818426592e-02 0.0000000000000000e+00  -9.3725642696349054e-01 6.0570508820389961e-03 0.0000000000000000e+00  -9.4618602596186063e-01 -1.5202191770174287e-03 0.0000000000000000e+00  -9.5116721033828411e-01 8.4328927691532910e-04 0.0000000000000000e+00  -9.5390654545893383e-01 -1.2988683586947889e-04 0.0000000000000000e+00  -9.5519224545309078e-01 1.6660251418605364e-04 0.0000000000000000e+00  -9.5556779280231663e-01 1.0718537708030435e-05 0.0000000000000000e+00  1.0642046580911714e-03 3.8100772967750623e-01 0.0000000000000000e+00  -4.3511919872870242e-01 5.1524386034074843e-01 0.0000000000000000e+00  -8.6699945960988578e-01 2.3266369573697665e-01 0.0000000000000000e+00  -9.0321050951790471e-01 5.6670866873622331e-03 0.0000000000000000e+00  -9.2657251164347210e-01 1.9877473314295940e-02 0.0000000000000000e+00  -9.4046499740589418e-01 1.3622173536409876e-02 0.0000000000000000e+00  -9.4820932253842372e-01 5.6835895720609379e-03 0.0000000000000000e+00  -9.5243486432267566e-01 3.9971225136390242e-03 0.0000000000000000e+00  -9.5461648752379669e-01 1.7310348917696583e-03 0.0000000000000000e+00  -9.5563787809474876e-01 8.5347499004452066e-04 0.0000000000000000e+00  -9.5593469342930393e-01 1.2144233575273632e-05 0.0000000000000000e+00  -1.9057505222535218e-03 7.8518472465202482e-01 0.0000000000000000e+00  -4.4292337799448139e-01 1.0097733857122539e+00 0.0000000000000000e+00  -8.8624124719292774e-01 4.7133198285370009e-01 0.0000000000000000e+00  -9.2193235140918495e-01 -1.7545245497053771e-02 0.0000000000000000e+00  -9.4133659220360211e-01 4.8833741574066170e-02 0.0000000000000000e+00  -9.4973552316083998e-01 1.8505472226949725e-02 0.0000000000000000e+00  -9.5375577793525601e-01 1.0854973801320195e-02 0.0000000000000000e+00  -9.5554136551615931e-01 5.9773337561704731e-03 0.0000000000000000e+00  -9.5640686761500315e-01 2.8620919089122937e-03 0.0000000000000000e+00  -9.5678652960857946e-01 1.2631488271583786e-03 0.0000000000000000e+00  -9.5688059337125775e-01 -4.5859881071896506e-06 0.0000000000000000e+00  -1.1538364210275829e-02 1.1764569890107943e+00 0.0000000000000000e+00  -4.3019527761813020e-01 1.5431607141995978e+00 0.0000000000000000e+00  -9.1874700017787680e-01 7.1376171105173192e-01 0.0000000000000000e+00  -9.6287298024920676e-01 -5.2206764471800282e-02 0.0000000000000000e+00  -9.6415972651368986e-01 7.3639114606234998e-02 0.0000000000000000e+00  -9.6376350065658400e-01 1.5107959149489049e-02 0.0000000000000000e+00  -9.6098622355132901e-01 1.2680844418280022e-02 0.0000000000000000e+00  -9.5953007705883941e-01 5.6440988802598929e-03 0.0000000000000000e+00  -9.5864815124941194e-01 2.9317224858291724e-03 0.0000000000000000e+00  -9.5820622143461287e-01 1.2058620336808986e-03 0.0000000000000000e+00  -9.5805617024076872e-01 -3.2916135307194934e-05 0.0000000000000000e+00  -6.3208086549668155e-02 1.5929372727604301e+00 0.0000000000000000e+00  -3.3957087567432359e-01 2.0477493947030392e+00 0.0000000000000000e+00  -1.0434183041086178e+00 9.9303833691287724e-01 0.0000000000000000e+00  -1.0058547719998923e+00 -5.6112860492024151e-02 0.0000000000000000e+00  -9.9963928935426594e-01 5.3469292341816313e-02 0.0000000000000000e+00  -9.7538397354681827e-01 1.0302418837464383e-02 0.0000000000000000e+00  -9.6756162563188908e-01 7.8459394170067864e-03 0.0000000000000000e+00  -9.6282628283578908e-01 3.4264294433066582e-03 0.0000000000000000e+00  -9.6046232201336612e-01 1.7728131797830134e-03 0.0000000000000000e+00  -9.5934876040384087e-01 7.0134975633257262e-04 0.0000000000000000e+00  -9.5901131741224688e-01 -5.6086368267749613e-05 0.0000000000000000e+00  -2.9622739106547055e-02 1.8946146062455347e+00 0.0000000000000000e+00  2.5321049353188373e-02 2.1637063433517962e+00 0.0000000000000000e+00  -7.1381548257200400e-01 2.1678598807629830e+00 0.0000000000000000e+00  -1.2041957166165522e+00 -5.7418092184903879e-01 0.0000000000000000e+00  -9.9245648222338478e-01 1.3193652548530307e-01 0.0000000000000000e+00  -9.8318432169783432e-01 -3.1007231176028192e-02 0.0000000000000000e+00  -9.7016843338586367e-01 5.7239612569067559e-03 0.0000000000000000e+00  -9.6404873397815971e-01 -1.5544591387375232e-03 0.0000000000000000e+00  -9.6117182743275908e-01 1.2925762990389402e-04 0.0000000000000000e+00  -9.5978313159920770e-01 -1.3443799203310264e-04 0.0000000000000000e+00  -9.5940077381586064e-01 -6.7883831779817536e-05 0.0000000000000000e+00  </DataArray> 
</PointData> 
</Piece>
</UnstructuredGrid>
</VTKFile>