<?xml version="1.0"?>
<VTKFile type="UnstructuredGrid"  version="0.1"  >
<UnstructuredGrid>
<Piece  NumberOfPoints="121" NumberOfCells="200">
<Points>
<DataArray  type="Float64"  NumberOfComponents="3"  format="ascii">0 0 0  0.1 0 0  0.2 0 0  0.3 0 0  0.4 0 0  0.5 0 0  0.6 0 0  0.7 0 0  0.8 0 0  0.9 0 0  1 0 0  0 0.1 0  0.1 0.1 0  0.2 0.1 0  0.3 0.1 0  0.4 0.1 0  0.5 0.1 0  0.6 0.1 0  0.7 0.1 0  0.8 0.1 0  0.9 0.1 0  1 0.1 0  0 0.2 0  0.1 0.2 0  0.2 0.2 0  0.3 0.2 0  0.4 0.2 0  0.5 0.2 0  0.6 0.2 0  0.7 0.2 0  0.8 0.2 0  0.9 0.2 0  1 0.2 0  0 0.3 0  0.1 0.3 0  0.2 0.3 0  0.3 0.3 0  0.4 0.3 0  0.5 0.3 0  0.6 0.3 0  0.7 0.3 0  0.8 0.3 0  0.9 0.3 0  1 0.3 0  0 0.4 0  0.1 0.4 0  0.2 0.4 0  0.3 0.4 0  0.4 0.4 0  0.5 0.4 0  0.6 0.4 0  0.7 0.4 0  0.8 0.4 0  0.9 0.4 0  1 0.4 0  0 0.5 0  0.1 0.5 0  0.2 0.5 0  0.3 0.5 0  0.4 0.5 0  0.5 0.5 0  0.6 0.5 0  0.7 0.5 0  0.8 0.5 0  0.9 0.5 0  1 0.5 0  0 0.6 0  0.1 0.6 0  0.2 0.6 0  0.3 0.6 0  0.4 0.6 0  0.5 0.6 0  0.6 0.6 0  0.7 0.6 0  0.8 0.6 0  0.9 0.6 0  1 0.6 0  0 0.7 0  0.1 0.7 0  0.2 0.7 0  0.3 0.7 0  0.4 0.7 0  0.5 0.7 0  0.6 0.7 0  0.7 0.7 0  0.8 0.7 0  0.9 0.7 0  1 0.7 0  0 0.8 0  0.1 0.8 0  0.2 0.8 0  0.3 0.8 0  0.4 0.8 0  0.5 0.8 0  0.6 0.8 0  0.7 0.8 0  0.8 0.8 0  0.9 0.8 0  1 0.8 0  0 0.9 0  0.1 0.9 0  0.2 0.9 0  0.3 0.9 0  0.4 0.9 0  0.5 0.9 0  0.6 0.9 0  0.7 0.9 0  0.8 0.9 0  0.9 0.9 0  1 0.9 0  0 1 0  0.1 1 0  0.2 1 0  0.3 1 0  0.4 1 0  0.5 1 0  0.6 1 0  0.7 1 0  0.8 1 0  0.9 1 0  1 1 0  </DataArray>
</Points>
<Cells>
<DataArray  type="UInt32"  Name="connectivity"  format="ascii">0 1 12  0 11 12  1 2 13  1 12 13  2 3 14  2 13 14  3 4 15  3 14 15  4 5 16  4 15 16  5 6 17  5 16 17  6 7 18  6 17 18  7 8 19  7 18 19  8 9 20  8 19 20  9 10 21  9 20 21  11 12 23  11 22 23  12 13 24  12 23 24  13 14 25  13 24 25  14 15 26  14 25 26  15 16 27  15 26 27  16 17 28  16 27 28  17 18 29  17 28 29  18 19 30  18 29 30  19 20 31  19 30 31  20 21 32  20 31 32  22 23 34  22 33 34  23 24 35  23 34 35  24 25 36  24 35 36  25 26 37  25 36 37  26 27 38  26 37 38  27 28 39  27 38 39  28 29 40  28 39 40  29 30 41  29 40 41  30 31 42  30 41 42  31 32 43  31 42 43  33 34 45  33 44 45  34 35 46  34 45 46  35 36 47  35 46 47  36 37 48  36 47 48  37 38 49  37 48 49  38 39 50  38 49 50  39 40 51  39 50 51  40 41 52  40 51 52  41 42 53  41 52 53  42 43 54  42 53 54  44 45 56  44 55 56  45 46 57  45 56 57  46 47 58  46 57 58  47 48 59  47 58 59  48 49 60  48 59 60  49 50 61  49 60 61  50 51 62  50 61 62  51 52 63  51 62 63  52 53 64  52 63 64  53 54 65  53 64 65  55 56 67  55 66 67  56 57 68  56 67 68  57 58 69  57 68 69  58 59 70  58 69 70  59 60 71  59 70 71  60 61 72  60 71 72  61 62 73  61 72 73  62 63 74  62 73 74  63 64 75  63 74 75  64 65 76  64 75 76  66 67 78  66 77 78  67 68 79  67 78 79  68 69 80  68 79 80  69 70 81  69 80 81  70 71 82  70 81 82  71 72 83  71 82 83  72 73 84  72 83 84  73 74 85  73 84 85  74 75 86  74 85 86  75 76 87  75 86 87  77 78 89  77 88 89  78 79 90  78 89 90  79 80 91  79 90 91  80 81 92  80 91 92  81 82 93  81 92 93  82 83 94  82 93 94  83 84 95  83 94 95  84 85 96  84 95 96  85 86 97  85 96 97  86 87 98  86 97 98  88 89 100  88 99 100  89 90 101  89 100 101  90 91 102  90 101 102  91 92 103  91 102 103  92 93 104  92 103 104  93 94 105  93 104 105  94 95 106  94 105 106  95 96 107  95 106 107  96 97 108  96 107 108  97 98 109  97 108 109  99 100 111  99 110 111  100 101 112  100 111 112  101 102 113  101 112 113  102 103 114  102 113 114  103 104 115  103 114 115  104 105 116  104 115 116  105 106 117  105 116 117  106 107 118  106 117 118  107 108 119  107 118 119  108 109 120  108 119 120  </DataArray>
<DataArray  type="UInt32"  Name="offsets"  format="ascii">3 6 9 12 15 18 21 24 27 30 33 36 39 42 45 48 51 54 57 60 63 66 69 72 75 78 81 84 87 90 93 96 99 102 105 108 111 114 117 120 123 126 129 132 135 138 141 144 147 150 153 156 159 162 165 168 171 174 177 180 183 186 189 192 195 198 201 204 207 210 213 216 219 222 225 228 231 234 237 240 243 246 249 252 255 258 261 264 267 270 273 276 279 282 285 288 291 294 297 300 303 306 309 312 315 318 321 324 327 330 333 336 339 342 345 348 351 354 357 360 363 366 369 372 375 378 381 384 387 390 393 396 399 402 405 408 411 414 417 420 423 426 429 432 435 438 441 444 447 450 453 456 459 462 465 468 471 474 477 480 483 486 489 492 495 498 501 504 507 510 513 516 519 522 525 528 531 534 537 540 543 546 549 552 555 558 561 564 567 570 573 576 579 582 585 588 591 594 597 600 </DataArray>
<DataArray  type="UInt8"  Name="types"  format="ascii">5 5 5 5 5 5 5 5 5 5 5 5 5 5 5 5 5 5 5 5 5 5 5 5 5 5 5 5 5 5 5 5 5 5 5 5 5 5 5 5 5 5 5 5 5 5 5 5 5 5 5 5 5 5 5 5 5 5 5 5 5 5 5 5 5 5 5 5 5 5 5 5 5 5 5 5 5 5 5 5 5 5 5 5 5 5 5 5 5 5 5 5 5 5 5 5 5 5 5 5 5 5 5 5 5 5 5 5 5 5 5 5 5 5 5 5 5 5 5 5 5 5 5 5 5 5 5 5 5 5 5 5 5 5 5 5 5 5 5 5 5 5 5 5 5 5 5 5 5 5 5 5 5 5 5 5 5 5 5 5 5 5 5 5 5 5 5 5 5 5 5 5 5 5 5 5 5 5 5 5 5 5 5 5 5 5 5 5 5 5 5 5 5 5 5 5 5 5 5 5 </DataArray>
</Cells>
<PointData  Vectors="f_34"> 
<DataArray  type="Float64"  Name="f_34"  NumberOfComponents="3" format="ascii">7.8447020590357904e-03 -6.2602824388981793e-01 0.0000000000000000e+00  4.3903412697490367e-02 -1.0642905336997164e+00 0.0000000000000000e+00  -3.4607720478809778e-01 -4.9194230288465929e-01 0.0000000000000000e+00  -4.3003081603529403e-01 3.8651460362724266e-02 0.0000000000000000e+00  -3.8183057876828308e-01 -5.5974710273968566e-04 0.0000000000000000e+00  -3.7476691852070043e-01 -1.4504687152904702e-03 0.0000000000000000e+00  -3.7046086861539806e-01 9.1941160183206169e-05 0.0000000000000000e+00  -3.6818874261406720e-01 -1.1306911245505473e-04 0.0000000000000000e+00  -3.6710790376307995e-01 -4.3966908288217329e-05 0.0000000000000000e+00  -3.6659863675149668e-01 -2.9579592760981761e-05 0.0000000000000000e+00  -3.6643398460953974e-01 -1.1562558528433441e-05 0.0000000000000000e+00  9.7387556036476960e-03 -6.3262450045705010e-01 0.0000000000000000e+00  -1.4017586275070568e-01 -7.5829020534944902e-01 0.0000000000000000e+00  -3.9165968064176149e-01 -4.2587506698749927e-01 0.0000000000000000e+00  -4.0641574413856674e-01 9.0412136158166651e-02 0.0000000000000000e+00  -3.7206069476454462e-01 -3.7005958596284458e-02 0.0000000000000000e+00  -3.7391945805956178e-01 -2.8189936973511205e-03 0.0000000000000000e+00  -3.6916697181706359e-01 -3.1145013946061941e-03 0.0000000000000000e+00  -3.6768800499417192e-01 -1.5554047972098552e-03 0.0000000000000000e+00  -3.6682639556481794e-01 -7.2791416805091864e-04 0.0000000000000000e+00  -3.6642130331246420e-01 -3.1833259551924178e-04 0.0000000000000000e+00  -3.6631211555572002e-01 -2.0117169879448552e-05 0.0000000000000000e+00  6.5008890421640840e-04 -4.7956378920058496e-01 0.0000000000000000e+00  -1.7025263517874364e-01 -5.6157329307597781e-01 0.0000000000000000e+00  -3.5717945941150037e-01 -2.7283626391599225e-01 0.0000000000000000e+00  -3.6028704850676424e-01 4.6949507029669144e-02 0.0000000000000000e+00  -3.6582596992050298e-01 -4.4164760615896019e-02 0.0000000000000000e+00  -3.6857560957432994e-01 -4.9195543659225701e-04 0.0000000000000000e+00  -3.6637231671574222e-01 -5.9699486474596598e-03 0.0000000000000000e+00  -3.6643819314211473e-01 -2.0416212741502663e-03 0.0000000000000000e+00  -3.6608042909354527e-01 -1.1549826529356029e-03 0.0000000000000000e+00  -3.6597261984360779e-01 -4.7742652100030581e-04 0.0000000000000000e+00  -3.6594063092380702e-01 -2.4199890559893721e-06 0.0000000000000000e+00  -1.0758187390197628e-04 -3.2402773153579523e-01 0.0000000000000000e+00  -1.6952259771563916e-01 -3.6442941549142949e-01 0.0000000000000000e+00  -3.3903716536775386e-01 -1.7860769292537801e-01 0.0000000000000000e+00  -3.5205135926738124e-01 2.6984466621835769e-02 0.0000000000000000e+00  -3.6011267146700682e-01 -2.8914807588648801e-02 0.0000000000000000e+00  -3.6235057775319790e-01 -1.3366133549147620e-03 0.0000000000000000e+00  -3.6390136722926897e-01 -6.0552703203611852e-03 0.0000000000000000e+00  -3.6493579449577424e-01 -1.6292691138438051e-03 0.0000000000000000e+00  -3.6521962861449303e-01 -1.2007388686808129e-03 0.0000000000000000e+00  -3.6543842016648581e-01 -4.3376304872992308e-04 0.0000000000000000e+00  -3.6549018725172633e-01 6.6273497019858335e-06 0.0000000000000000e+00  -1.2103083120051773e-04 -1.6610168768366759e-01 0.0000000000000000e+00  -1.6678728012900526e-01 -1.7541747189441129e-01 0.0000000000000000e+00  -3.3145025410860413e-01 -8.8310878014403280e-02 0.0000000000000000e+00  -3.4480688554921723e-01 1.8436588706121616e-02 0.0000000000000000e+00  -3.5353159819847801e-01 -1.7335612649864059e-02 0.0000000000000000e+00  -3.5887627461608373e-01 -7.8084917775036262e-04 0.0000000000000000e+00  -3.6212957341318630e-01 -3.5520516176547256e-03 0.0000000000000000e+00  -3.6372304295933122e-01 -8.0837074017021027e-04 0.0000000000000000e+00  -3.6457595170784202e-01 -7.7926013792131406e-04 0.0000000000000000e+00  -3.6501132650960633e-01 -2.2025572895466427e-04 0.0000000000000000e+00  -3.6512838991395030e-01 5.5640831296687553e-06 0.0000000000000000e+00  -8.1636724779585729e-05 -1.0461421123406507e-02 0.0000000000000000e+00  -1.6550133423525967e-01 1.0639999608201670e-02 0.0000000000000000e+00  -3.2883914011120530e-01 3.5380005715526390e-04 0.0000000000000000e+00  -3.4261523188736903e-01 1.0039771513319114e-02 0.0000000000000000e+00  -3.5209481706863549e-01 -4.9649473132444086e-03 0.0000000000000000e+00  -3.5800009892577228e-01 2.3135875653517005e-03 0.0000000000000000e+00  -3.6141090223724609e-01 -5.8067205526896959e-04 0.0000000000000000e+00  -3.6331354536480626e-01 3.2210784143287728e-04 0.0000000000000000e+00  -3.6435987827431982e-01 -4.9612356611334218e-05 0.0000000000000000e+00  -3.6485097197275107e-01 6.3636497807228719e-05 0.0000000000000000e+00  -3.6499441829577378e-01 4.0941170945597887e-06 0.0000000000000000e+00  4.0649000840356519e-04 1.4553200276037651e-01 0.0000000000000000e+00  -1.6620074475674473e-01 1.9680564215546439e-01 0.0000000000000000e+00  -3.3116432534318857e-01 8.8869623823361429e-02 0.0000000000000000e+00  -3.4499571563973169e-01 2.1646344973797970e-03 0.0000000000000000e+00  -3.5391920640645219e-01 7.5925191955920658e-03 0.0000000000000000e+00  -3.5922566377947307e-01 5.2032072902580837e-03 0.0000000000000000e+00  -3.6218373276016919e-01 2.1709380384214235e-03 0.0000000000000000e+00  -3.6379774610087035e-01 1.5267649430131891e-03 0.0000000000000000e+00  -3.6463105201305412e-01 6.6119649294441518e-04 0.0000000000000000e+00  -3.6502118849536835e-01 3.2599843764916081e-04 0.0000000000000000e+00  -3.6513456186478649e-01 4.6386844584421168e-06 0.0000000000000000e+00  -7.2793192542314352e-04 2.9991387736985031e-01 0.0000000000000000e+00  -1.6918167598197481e-01 3.8569911240702665e-01 0.0000000000000000e+00  -3.3851403419560483e-01 1.8003279746523260e-01 0.0000000000000000e+00  -3.5214682291019994e-01 -6.7016874389130877e-03 0.0000000000000000e+00  -3.5955858336777979e-01 1.8652829483464924e-02 0.0000000000000000e+00  -3.6276668952428248e-01 7.0684614128287112e-03 0.0000000000000000e+00  -3.6430229020467347e-01 4.1462310451152260e-03 0.0000000000000000e+00  -3.6498432397068864e-01 2.2831383327557948e-03 0.0000000000000000e+00  -3.6531491635511587e-01 1.0932218302804808e-03 0.0000000000000000e+00  -3.6545993433242102e-01 4.8247991912323294e-04 0.0000000000000000e+00  -3.6549586349265717e-01 -1.7516915845226336e-06 0.0000000000000000e+00  -4.4072629537498277e-03 4.4936658349976488e-01 0.0000000000000000e+00  -1.6431997425042957e-01 5.8943494272068930e-01 0.0000000000000000e+00  -3.5093012700594639e-01 2.7263271375348302e-01 0.0000000000000000e+00  -3.6778475160629420e-01 -1.9941209585567478e-02 0.0000000000000000e+00  -3.6827624494442979e-01 2.8127638878132605e-02 0.0000000000000000e+00  -3.6812490013423693e-01 5.7707268944591885e-03 0.0000000000000000e+00  -3.6706407467620727e-01 4.8436515617355791e-03 0.0000000000000000e+00  -3.6650787620867381e-01 2.1558539363948064e-03 0.0000000000000000e+00  -3.6617101052503015e-01 1.1198183440063346e-03 0.0000000000000000e+00  -3.6600220835641556e-01 4.6059831112426155e-04 0.0000000000000000e+00  -3.6594489390042362e-01 -1.2572844907767239e-05 0.0000000000000000e+00  -2.4143340698129311e-02 6.0844789624792861e-01 0.0000000000000000e+00  -1.2970453291802780e-01 7.8217066833454485e-01 0.0000000000000000e+00  -3.9855032768572146e-01 3.7930689256905326e-01 0.0000000000000000e+00  -3.8420233515768643e-01 -2.1433205501972283e-02 0.0000000000000000e+00  -3.8182823204354260e-01 2.0423452320169937e-02 0.0000000000000000e+00  -3.7256352581295876e-01 3.9351738295737319e-03 0.0000000000000000e+00  -3.6957565478128279e-01 2.9968821836234521e-03 0.0000000000000000e+00  -3.6776691478155565e-01 1.3087795872895691e-03 0.0000000000000000e+00  -3.6686396209546251e-01 6.7715437897259919e-04 0.0000000000000000e+00  -3.6643861940919131e-01 2.6789176891650721e-04 0.0000000000000000e+00  -3.6630972765567077e-01 -2.1423086372996200e-05 0.0000000000000000e+00  -1.1314879498830168e-02 7.2367838400380247e-01 0.0000000000000000e+00  9.6717802221049747e-03 8.2646228148664347e-01 0.0000000000000000e+00  -2.7265325264660017e-01 8.2804879160417366e-01 0.0000000000000000e+00  -4.5996183464049034e-01 -2.1931759645458812e-01 0.0000000000000000e+00  -3.7908464385418017e-01 5.0395268377819658e-02 0.0000000000000000e+00  -3.7554299368256472e-01 -1.1843708412217744e-02 0.0000000000000000e+00  -3.7057136674116598e-01 2.1863586498526489e-03 0.0000000000000000e+00  -3.6823384956835437e-01 -5.9375055687642625e-04 0.0000000000000000e+00  -3.6713496905047027e-01 4.9372021319311497e-05 0.0000000000000000e+00  -3.6660453444208646e-01 -5.1350743579269834e-05 0.0000000000000000e+00  -3.6645848676471210e-01 -2.5929316454175956e-05 0.0000000000000000e+00  </DataArray> 
</PointData> 
</Piece>
</UnstructuredGrid>
</VTKFile>