<?xml version="1.0"?>
<VTKFile type="UnstructuredGrid"  version="0.1"  >
<UnstructuredGrid>
<Piece  NumberOfPoints="121" NumberOfCells="200">
<Points>
<DataArray  type="Float64"  NumberOfComponents="3"  format="ascii">0 0 0  0.1 0 0  0.2 0 0  0.3 0 0  0.4 0 0  0.5 0 0  0.6 0 0  0.7 0 0  0.8 0 0  0.9 0 0  1 0 0  0 0.1 0  0.1 0.1 0  0.2 0.1 0  0.3 0.1 0  0.4 0.1 0  0.5 0.1 0  0.6 0.1 0  0.7 0.1 0  0.8 0.1 0  0.9 0.1 0  1 0.1 0  0 0.2 0  0.1 0.2 0  0.2 0.2 0  0.3 0.2 0  0.4 0.2 0  0.5 0.2 0  0.6 0.2 0  0.7 0.2 0  0.8 0.2 0  0.9 0.2 0  1 0.2 0  0 0.3 0  0.1 0.3 0  0.2 0.3 0  0.3 0.3 0  0.4 0.3 0  0.5 0.3 0  0.6 0.3 0  0.7 0.3 0  0.8 0.3 0  0.9 0.3 0  1 0.3 0  0 0.4 0  0.1 0.4 0  0.2 0.4 0  0.3 0.4 0  0.4 0.4 0  0.5 0.4 0  0.6 0.4 0  0.7 0.4 0  0.8 0.4 0  0.9 0.4 0  1 0.4 0  0 0.5 0  0.1 0.5 0  0.2 0.5 0  0.3 0.5 0  0.4 0.5 0  0.5 0.5 0  0.6 0.5 0  0.7 0.5 0  0.8 0.5 0  0.9 0.5 0  1 0.5 0  0 0.6 0  0.1 0.6 0  0.2 0.6 0  0.3 0.6 0  0.4 0.6 0  0.5 0.6 0  0.6 0.6 0  0.7 0.6 0  0.8 0.6 0  0.9 0.6 0  1 0.6 0  0 0.7 0  0.1 0.7 0  0.2 0.7 0  0.3 0.7 0  0.4 0.7 0  0.5 0.7 0  0.6 0.7 0  0.7 0.7 0  0.8 0.7 0  0.9 0.7 0  1 0.7 0  0 0.8 0  0.1 0.8 0  0.2 0.8 0  0.3 0.8 0  0.4 0.8 0  0.5 0.8 0  0.6 0.8 0  0.7 0.8 0  0.8 0.8 0  0.9 0.8 0  1 0.8 0  0 0.9 0  0.1 0.9 0  0.2 0.9 0  0.3 0.9 0  0.4 0.9 0  0.5 0.9 0  0.6 0.9 0  0.7 0.9 0  0.8 0.9 0  0.9 0.9 0  1 0.9 0  0 1 0  0.1 1 0  0.2 1 0  0.3 1 0  0.4 1 0  0.5 1 0  0.6 1 0  0.7 1 0  0.8 1 0  0.9 1 0  1 1 0  </DataArray>
</Points>
<Cells>
<DataArray  type="UInt32"  Name="connectivity"  format="ascii">0 1 12  0 11 12  1 2 13  1 12 13  2 3 14  2 13 14  3 4 15  3 14 15  4 5 16  4 15 16  5 6 17  5 16 17  6 7 18  6 17 18  7 8 19  7 18 19  8 9 20  8 19 20  9 10 21  9 20 21  11 12 23  11 22 23  12 13 24  12 23 24  13 14 25  13 24 25  14 15 26  14 25 26  15 16 27  15 26 27  16 17 28  16 27 28  17 18 29  17 28 29  18 19 30  18 29 30  19 20 31  19 30 31  20 21 32  20 31 32  22 23 34  22 33 34  23 24 35  23 34 35  24 25 36  24 35 36  25 26 37  25 36 37  26 27 38  26 37 38  27 28 39  27 38 39  28 29 40  28 39 40  29 30 41  29 40 41  30 31 42  30 41 42  31 32 43  31 42 43  33 34 45  33 44 45  34 35 46  34 45 46  35 36 47  35 46 47  36 37 48  36 47 48  37 38 49  37 48 49  38 39 50  38 49 50  39 40 51  39 50 51  40 41 52  40 51 52  41 42 53  41 52 53  42 43 54  42 53 54  44 45 56  44 55 56  45 46 57  45 56 57  46 47 58  46 57 58  47 48 59  47 58 59  48 49 60  48 59 60  49 50 61  49 60 61  50 51 62  50 61 62  51 52 63  51 62 63  52 53 64  52 63 64  53 54 65  53 64 65  55 56 67  55 66 67  56 57 68  56 67 68  57 58 69  57 68 69  58 59 70  58 69 70  59 60 71  59 70 71  60 61 72  60 71 72  61 62 73  61 72 73  62 63 74  62 73 74  63 64 75  63 74 75  64 65 76  64 75 76  66 67 78  66 77 78  67 68 79  67 78 79  68 69 80  68 79 80  69 70 81  69 80 81  70 71 82  70 81 82  71 72 83  71 82 83  72 73 84  72 83 84  73 74 85  73 84 85  74 75 86  74 85 86  75 76 87  75 86 87  77 78 89  77 88 89  78 79 90  78 89 90  79 80 91  79 90 91  80 81 92  80 91 92  81 82 93  81 92 93  82 83 94  82 93 94  83 84 95  83 94 95  84 85 96  84 95 96  85 86 97  85 96 97  86 87 98  86 97 98  88 89 100  88 99 100  89 90 101  89 100 101  90 91 102  90 101 102  91 92 103  91 102 103  92 93 104  92 103 104  93 94 105  93 104 105  94 95 106  94 105 106  95 96 107  95 106 107  96 97 108  96 107 108  97 98 109  97 108 109  99 100 111  99 110 111  100 101 112  100 111 112  101 102 113  101 112 113  102 103 114  102 113 114  103 104 115  103 114 115  104 105 116  104 115 116  105 106 117  105 116 117  106 107 118  106 117 118  107 108 119  107 118 119  108 109 120  108 119 120  </DataArray>
<DataArray  type="UInt32"  Name="offsets"  format="ascii">3 6 9 12 15 18 21 24 27 30 33 36 39 42 45 48 51 54 57 60 63 66 69 72 75 78 81 84 87 90 93 96 99 102 105 108 111 114 117 120 123 126 129 132 135 138 141 144 147 150 153 156 159 162 165 168 171 174 177 180 183 186 189 192 195 198 201 204 207 210 213 216 219 222 225 228 231 234 237 240 243 246 249 252 255 258 261 264 267 270 273 276 279 282 285 288 291 294 297 300 303 306 309 312 315 318 321 324 327 330 333 336 339 342 345 348 351 354 357 360 363 366 369 372 375 378 381 384 387 390 393 396 399 402 405 408 411 414 417 420 423 426 429 432 435 438 441 444 447 450 453 456 459 462 465 468 471 474 477 480 483 486 489 492 495 498 501 504 507 510 513 516 519 522 525 528 531 534 537 540 543 546 549 552 555 558 561 564 567 570 573 576 579 582 585 588 591 594 597 600 </DataArray>
<DataArray  type="UInt8"  Name="types"  format="ascii">5 5 5 5 5 5 5 5 5 5 5 5 5 5 5 5 5 5 5 5 5 5 5 5 5 5 5 5 5 5 5 5 5 5 5 5 5 5 5 5 5 5 5 5 5 5 5 5 5 5 5 5 5 5 5 5 5 5 5 5 5 5 5 5 5 5 5 5 5 5 5 5 5 5 5 5 5 5 5 5 5 5 5 5 5 5 5 5 5 5 5 5 5 5 5 5 5 5 5 5 5 5 5 5 5 5 5 5 5 5 5 5 5 5 5 5 5 5 5 5 5 5 5 5 5 5 5 5 5 5 5 5 5 5 5 5 5 5 5 5 5 5 5 5 5 5 5 5 5 5 5 5 5 5 5 5 5 5 5 5 5 5 5 5 5 5 5 5 5 5 5 5 5 5 5 5 5 5 5 5 5 5 5 5 5 5 5 5 5 5 5 5 5 5 5 5 5 5 5 5 </DataArray>
</Cells>
<PointData  Vectors="f_34"> 
<DataArray  type="Float64"  Name="f_34"  NumberOfComponents="3" format="ascii">2.5385989126272351e-02 -2.0258699530622670e+00 0.0000000000000000e+00  1.4207442793330560e-01 -3.4441165148618134e+00 0.0000000000000000e+00  -1.1199293601574012e+00 -1.5919587331425484e+00 0.0000000000000000e+00  -1.3916089531099169e+00 1.2507875316341346e-01 0.0000000000000000e+00  -1.2356297087822539e+00 -1.8113796746765949e-03 0.0000000000000000e+00  -1.2127712240511088e+00 -4.6938153619144607e-03 0.0000000000000000e+00  -1.1988365538430481e+00 2.9752784428660890e-04 0.0000000000000000e+00  -1.1914837996492931e+00 -3.6589933406439706e-04 0.0000000000000000e+00  -1.1879861316547757e+00 -1.4227990397912426e-04 0.0000000000000000e+00  -1.1863381089865985e+00 -9.5721572920001209e-05 0.0000000000000000e+00  -1.1858052834625825e+00 -3.7417225382170125e-05 0.0000000000000000e+00  3.1515275149659849e-02 -2.0472158877108608e+00 0.0000000000000000e+00  -4.5361862066596342e-01 -2.4538786511830928e+00 0.0000000000000000e+00  -1.2674373506025995e+00 -1.3781606666938242e+00 0.0000000000000000e+00  -1.3151889751585639e+00 2.9257981859879328e-01 0.0000000000000000e+00  -1.2040137000138689e+00 -1.1975379759011681e-01 0.0000000000000000e+00  -1.2100287843906199e+00 -9.1224552327757863e-03 0.0000000000000000e+00  -1.1946494158477670e+00 -1.0078738228966379e-02 0.0000000000000000e+00  -1.1898633786724251e+00 -5.0333956562998204e-03 0.0000000000000000e+00  -1.1870751519889748e+00 -2.3555797296005852e-03 0.0000000000000000e+00  -1.1857642459232067e+00 -1.0301459185524877e-03 0.0000000000000000e+00  -1.1854109069200698e+00 -6.5100529248701312e-05 0.0000000000000000e+00  2.1037318854614444e-03 -1.5519010214004714e+00 0.0000000000000000e+00  -5.5094910078688675e-01 -1.8172893507422778e+00 0.0000000000000000e+00  -1.1558570108222450e+00 -8.8291669675922313e-01 0.0000000000000000e+00  -1.1659133803806527e+00 1.5193179625811418e-01 0.0000000000000000e+00  -1.1838377065975398e+00 -1.4292016756304607e-01 0.0000000000000000e+00  -1.1927357274309591e+00 -1.5920012347100784e-03 0.0000000000000000e+00  -1.1856057219662219e+00 -1.9319159645361555e-02 0.0000000000000000e+00  -1.1858189025600834e+00 -6.6068252274581402e-03 0.0000000000000000e+00  -1.1846611537790026e+00 -3.7376023777353526e-03 0.0000000000000000e+00  -1.1843122757176039e+00 -1.5449846762179604e-03 0.0000000000000000e+00  -1.1842087573986047e+00 -7.8312490863370700e-06 0.0000000000000000e+00  -3.4814225709131581e-04 -1.0485757658448884e+00 0.0000000000000000e+00  -5.4858664993015982e-01 -1.1793183615307774e+00 0.0000000000000000e+00  -1.0971473140288899e+00 -5.7798663561093322e-01 0.0000000000000000e+00  -1.1392621301604464e+00 8.7323568324834594e-02 0.0000000000000000e+00  -1.1653490844262853e+00 -9.3570282913193539e-02 0.0000000000000000e+00  -1.1725911012956696e+00 -4.3253716761398747e-03 0.0000000000000000e+00  -1.1776095614590267e+00 -1.9595266378828337e-02 0.0000000000000000e+00  -1.1809570384112207e+00 -5.2724256060413801e-03 0.0000000000000000e+00  -1.1818755449137239e+00 -3.8856726022781724e-03 0.0000000000000000e+00  -1.1825835692488769e+00 -1.4036867118167853e-03 0.0000000000000000e+00  -1.1827510910557124e+00 2.1446554141997342e-05 0.0000000000000000e+00  -3.9166399713515325e-04 -5.3751635252178487e-01 0.0000000000000000e+00  -5.3973497627976041e-01 -5.6766286349147432e-01 0.0000000000000000e+00  -1.0725955534550260e+00 -2.8578000440729917e-01 0.0000000000000000e+00  -1.1158185207472564e+00 5.9662054326214783e-02 0.0000000000000000e+00  -1.1440522839644154e+00 -5.6099220966565305e-02 0.0000000000000000e+00  -1.1613480201695299e+00 -2.5268810193733236e-03 0.0000000000000000e+00  -1.1718759162280750e+00 -1.1494680494316034e-02 0.0000000000000000e+00  -1.1770324919994719e+00 -2.6159426662118674e-03 0.0000000000000000e+00  -1.1797925626882555e+00 -2.5217387784726873e-03 0.0000000000000000e+00  -1.1812014651424612e+00 -7.1276251133093422e-04 0.0000000000000000e+00  -1.1815802902765855e+00 1.8005751234308709e-05 0.0000000000000000e+00  -2.6418199084646770e-04 -3.3853869896597853e-02 0.0000000000000000e+00  -5.3557356795221334e-01 3.4431762012706667e-02 0.0000000000000000e+00  -1.0641458110624376e+00 1.1449210353981349e-03 0.0000000000000000e+00  -1.1087261805143795e+00 3.2489383095665472e-02 0.0000000000000000e+00  -1.1394027625594572e+00 -1.6066907010363812e-02 0.0000000000000000e+00  -1.1585126560754506e+00 7.4869266333749329e-03 0.0000000000000000e+00  -1.1695502474492554e+00 -1.8790942434891199e-03 0.0000000000000000e+00  -1.1757073299469700e+00 1.0423628709645232e-03 0.0000000000000000e+00  -1.1790933343692469e+00 -1.6054895852016785e-04 0.0000000000000000e+00  -1.1806825469606970e+00 2.0593203275367120e-04 0.0000000000000000e+00  -1.1811467490131133e+00 1.3248841228891679e-05 0.0000000000000000e+00  1.3154292993699200e-03 4.7095145383426540e-01 0.0000000000000000e+00  -5.3783690794392069e-01 6.3687643637057900e-01 0.0000000000000000e+00  -1.0716702685334127e+00 2.8758814382723352e-01 0.0000000000000000e+00  -1.1164295877563617e+00 7.0049043799629927e-03 0.0000000000000000e+00  -1.1453066104740566e+00 2.4569908237407227e-02 0.0000000000000000e+00  -1.1624786672528613e+00 1.6837932492297789e-02 0.0000000000000000e+00  -1.1720511795565278e+00 7.0253030672749045e-03 0.0000000000000000e+00  -1.1772742364436257e+00 4.9407151412507715e-03 0.0000000000000000e+00  -1.1799708710215078e+00 2.1396767976543996e-03 0.0000000000000000e+00  -1.1812333791987744e+00 1.0549531047937537e-03 0.0000000000000000e+00  -1.1816002631290545e+00 1.5011098237602769e-05 0.0000000000000000e+00  -2.3556371936606967e-03 9.7054169456436901e-01 0.0000000000000000e+00  -5.4748340402501627e-01 1.2481485466104723e+00 0.0000000000000000e+00  -1.0954544259946650e+00 5.8259837077694343e-01 0.0000000000000000e+00  -1.1395710569979867e+00 -2.1687116116279534e-02 0.0000000000000000e+00  -1.1635560176716613e+00 6.0361824181205177e-02 0.0000000000000000e+00  -1.1739376672731385e+00 2.2874021628246716e-02 0.0000000000000000e+00  -1.1789069754611772e+00 1.3417485512413438e-02 0.0000000000000000e+00  -1.1811140830909592e+00 7.3883908468376086e-03 0.0000000000000000e+00  -1.1821839025197991e+00 3.5377401572737706e-03 0.0000000000000000e+00  -1.1826531905523270e+00 1.5613378160648805e-03 0.0000000000000000e+00  -1.1827694597572289e+00 -5.6685930457192228e-06 0.0000000000000000e+00  -1.4262202513048022e-02 1.4541808110220777e+00 0.0000000000000000e+00  -5.3175060673540575e-01 1.9074515429578471e+00 0.0000000000000000e+00  -1.1356337463438781e+00 8.8225799459651300e-01 0.0000000000000000e+00  -1.1901764572858424e+00 -6.4531109772466594e-02 0.0000000000000000e+00  -1.1917669631385395e+00 9.1022951456203663e-02 0.0000000000000000e+00  -1.1912772010447108e+00 1.8674464510058286e-02 0.0000000000000000e+00  -1.1878442977502639e+00 1.5674385713095880e-02 0.0000000000000000e+00  -1.1860444017003522e+00 6.9764898877336719e-03 0.0000000000000000e+00  -1.1849542814487861e+00 3.6238082836480092e-03 0.0000000000000000e+00  -1.1844080261564143e+00 1.4905274451103719e-03 0.0000000000000000e+00  -1.1842225526807020e+00 -4.0686580804241639e-05 0.0000000000000000e+00  -7.8129491703081838e-02 1.9689787530250364e+00 0.0000000000000000e+00  -4.1973268551259701e-01 2.5311574527370264e+00 0.0000000000000000e+00  -1.2897359528458143e+00 1.2274628886876666e+00 0.0000000000000000e+00  -1.2433048736844281e+00 -6.9359309980105283e-02 0.0000000000000000e+00  -1.2356221146214663e+00 6.6091680043296214e-02 0.0000000000000000e+00  -1.2056408954677331e+00 1.2734490015780026e-02 0.0000000000000000e+00  -1.1959719417012280e+00 9.6981144667659253e-03 0.0000000000000000e+00  -1.1901187361084857e+00 4.2352997120345083e-03 0.0000000000000000e+00  -1.1871967198358293e+00 2.1913176016212918e-03 0.0000000000000000e+00  -1.1858202819893215e+00 8.6691597483683843e-04 0.0000000000000000e+00  -1.1854031795131665e+00 -6.9326563780515999e-05 0.0000000000000000e+00  -3.6615719215433287e-02 2.3418724444835006e+00 0.0000000000000000e+00  3.1298538262169058e-02 2.6744881237303462e+00 0.0000000000000000e+00  -8.8232445985082120e-01 2.6796221783176626e+00 0.0000000000000000e+00  -1.4884677639521442e+00 -7.0972665078891350e-01 0.0000000000000000e+00  -1.2267436767384257e+00 1.6308251421496925e-01 0.0000000000000000e+00  -1.2152826560305550e+00 -3.8327045527621027e-02 0.0000000000000000e+00  -1.1991941332894165e+00 7.0752052141127373e-03 0.0000000000000000e+00  -1.1916297688196265e+00 -1.9214171637294589e-03 0.0000000000000000e+00  -1.1880737167646005e+00 1.5977121717775024e-04 0.0000000000000000e+00  -1.1863571943142566e+00 -1.6617449690687559e-04 0.0000000000000000e+00  -1.1858845741023143e+00 -8.3909030663853752e-05 0.0000000000000000e+00  </DataArray> 
</PointData> 
</Piece>
</UnstructuredGrid>
</VTKFile>