<?xml version="1.0"?>
<VTKFile type="UnstructuredGrid"  version="0.1"  >
<UnstructuredGrid>
<Piece  NumberOfPoints="121" NumberOfCells="200">
<Points>
<DataArray  type="Float64"  NumberOfComponents="3"  format="ascii">0 0 0  0.1 0 0  0.2 0 0  0.3 0 0  0.4 0 0  0.5 0 0  0.6 0 0  0.7 0 0  0.8 0 0  0.9 0 0  1 0 0  0 0.1 0  0.1 0.1 0  0.2 0.1 0  0.3 0.1 0  0.4 0.1 0  0.5 0.1 0  0.6 0.1 0  0.7 0.1 0  0.8 0.1 0  0.9 0.1 0  1 0.1 0  0 0.2 0  0.1 0.2 0  0.2 0.2 0  0.3 0.2 0  0.4 0.2 0  0.5 0.2 0  0.6 0.2 0  0.7 0.2 0  0.8 0.2 0  0.9 0.2 0  1 0.2 0  0 0.3 0  0.1 0.3 0  0.2 0.3 0  0.3 0.3 0  0.4 0.3 0  0.5 0.3 0  0.6 0.3 0  0.7 0.3 0  0.8 0.3 0  0.9 0.3 0  1 0.3 0  0 0.4 0  0.1 0.4 0  0.2 0.4 0  0.3 0.4 0  0.4 0.4 0  0.5 0.4 0  0.6 0.4 0  0.7 0.4 0  0.8 0.4 0  0.9 0.4 0  1 0.4 0  0 0.5 0  0.1 0.5 0  0.2 0.5 0  0.3 0.5 0  0.4 0.5 0  0.5 0.5 0  0.6 0.5 0  0.7 0.5 0  0.8 0.5 0  0.9 0.5 0  1 0.5 0  0 0.6 0  0.1 0.6 0  0.2 0.6 0  0.3 0.6 0  0.4 0.6 0  0.5 0.6 0  0.6 0.6 0  0.7 0.6 0  0.8 0.6 0  0.9 0.6 0  1 0.6 0  0 0.7 0  0.1 0.7 0  0.2 0.7 0  0.3 0.7 0  0.4 0.7 0  0.5 0.7 0  0.6 0.7 0  0.7 0.7 0  0.8 0.7 0  0.9 0.7 0  1 0.7 0  0 0.8 0  0.1 0.8 0  0.2 0.8 0  0.3 0.8 0  0.4 0.8 0  0.5 0.8 0  0.6 0.8 0  0.7 0.8 0  0.8 0.8 0  0.9 0.8 0  1 0.8 0  0 0.9 0  0.1 0.9 0  0.2 0.9 0  0.3 0.9 0  0.4 0.9 0  0.5 0.9 0  0.6 0.9 0  0.7 0.9 0  0.8 0.9 0  0.9 0.9 0  1 0.9 0  0 1 0  0.1 1 0  0.2 1 0  0.3 1 0  0.4 1 0  0.5 1 0  0.6 1 0  0.7 1 0  0.8 1 0  0.9 1 0  1 1 0  </DataArray>
</Points>
<Cells>
<DataArray  type="UInt32"  Name="connectivity"  format="ascii">0 1 12  0 11 12  1 2 13  1 12 13  2 3 14  2 13 14  3 4 15  3 14 15  4 5 16  4 15 16  5 6 17  5 16 17  6 7 18  6 17 18  7 8 19  7 18 19  8 9 20  8 19 20  9 10 21  9 20 21  11 12 23  11 22 23  12 13 24  12 23 24  13 14 25  13 24 25  14 15 26  14 25 26  15 16 27  15 26 27  16 17 28  16 27 28  17 18 29  17 28 29  18 19 30  18 29 30  19 20 31  19 30 31  20 21 32  20 31 32  22 23 34  22 33 34  23 24 35  23 34 35  24 25 36  24 35 36  25 26 37  25 36 37  26 27 38  26 37 38  27 28 39  27 38 39  28 29 40  28 39 40  29 30 41  29 40 41  30 31 42  30 41 42  31 32 43  31 42 43  33 34 45  33 44 45  34 35 46  34 45 46  35 36 47  35 46 47  36 37 48  36 47 48  37 38 49  37 48 49  38 39 50  38 49 50  39 40 51  39 50 51  40 41 52  40 51 52  41 42 53  41 52 53  42 43 54  42 53 54  44 45 56  44 55 56  45 46 57  45 56 57  46 47 58  46 57 58  47 48 59  47 58 59  48 49 60  48 59 60  49 50 61  49 60 61  50 51 62  50 61 62  51 52 63  51 62 63  52 53 64  52 63 64  53 54 65  53 64 65  55 56 67  55 66 67  56 57 68  56 67 68  57 58 69  57 68 69  58 59 70  58 69 70  59 60 71  59 70 71  60 61 72  60 71 72  61 62 73  61 72 73  62 63 74  62 73 74  63 64 75  63 74 75  64 65 76  64 75 76  66 67 78  66 77 78  67 68 79  67 78 79  68 69 80  68 79 80  69 70 81  69 80 81  70 71 82  70 81 82  71 72 83  71 82 83  72 73 84  72 83 84  73 74 85  73 84 85  74 75 86  74 85 86  75 76 87  75 86 87  77 78 89  77 88 89  78 79 90  78 89 90  79 80 91  79 90 91  80 81 92  80 91 92  81 82 93  81 92 93  82 83 94  82 93 94  83 84 95  83 94 95  84 85 96  84 95 96  85 86 97  85 96 97  86 87 98  86 97 98  88 89 100  88 99 100  89 90 101  89 100 101  90 91 102  90 101 102  91 92 103  91 102 103  92 93 104  92 103 104  93 94 105  93 104 105  94 95 106  94 105 106  95 96 107  95 106 107  96 97 108  96 107 108  97 98 109  97 108 109  99 100 111  99 110 111  100 101 112  100 111 112  101 102 113  101 112 113  102 103 114  102 113 114  103 104 115  103 114 115  104 105 116  104 115 116  105 106 117  105 116 117  106 107 118  106 117 118  107 108 119  107 118 119  108 109 120  108 119 120  </DataArray>
<DataArray  type="UInt32"  Name="offsets"  format="ascii">3 6 9 12 15 18 21 24 27 30 33 36 39 42 45 48 51 54 57 60 63 66 69 72 75 78 81 84 87 90 93 96 99 102 105 108 111 114 117 120 123 126 129 132 135 138 141 144 147 150 153 156 159 162 165 168 171 174 177 180 183 186 189 192 195 198 201 204 207 210 213 216 219 222 225 228 231 234 237 240 243 246 249 252 255 258 261 264 267 270 273 276 279 282 285 288 291 294 297 300 303 306 309 312 315 318 321 324 327 330 333 336 339 342 345 348 351 354 357 360 363 366 369 372 375 378 381 384 387 390 393 396 399 402 405 408 411 414 417 420 423 426 429 432 435 438 441 444 447 450 453 456 459 462 465 468 471 474 477 480 483 486 489 492 495 498 501 504 507 510 513 516 519 522 525 528 531 534 537 540 543 546 549 552 555 558 561 564 567 570 573 576 579 582 585 588 591 594 597 600 </DataArray>
<DataArray  type="UInt8"  Name="types"  format="ascii">5 5 5 5 5 5 5 5 5 5 5 5 5 5 5 5 5 5 5 5 5 5 5 5 5 5 5 5 5 5 5 5 5 5 5 5 5 5 5 5 5 5 5 5 5 5 5 5 5 5 5 5 5 5 5 5 5 5 5 5 5 5 5 5 5 5 5 5 5 5 5 5 5 5 5 5 5 5 5 5 5 5 5 5 5 5 5 5 5 5 5 5 5 5 5 5 5 5 5 5 5 5 5 5 5 5 5 5 5 5 5 5 5 5 5 5 5 5 5 5 5 5 5 5 5 5 5 5 5 5 5 5 5 5 5 5 5 5 5 5 5 5 5 5 5 5 5 5 5 5 5 5 5 5 5 5 5 5 5 5 5 5 5 5 5 5 5 5 5 5 5 5 5 5 5 5 5 5 5 5 5 5 5 5 5 5 5 5 5 5 5 5 5 5 5 5 5 5 5 5 </DataArray>
</Cells>
<PointData  Scalars="f_28"> 
<DataArray  type="Float64"  Name="f_28"  format="ascii">-5.2206156009579353e-06  -8.8011897891201379e-07  -5.2200309276740079e-06  8.1252143846737599e-06  2.6549817776693830e-07  -3.9365040480409953e-06  3.1951113846698154e-06  -1.6100685200577962e-06  6.0336901405804744e-07  -1.9166223307949106e-07  1.4405406071892653e-07  -3.3940909799125459e-05  4.5296584290996863e-06  3.1189624926453964e-05  -6.4414371539704332e-06  -1.5518080692348375e-05  1.5046697683386068e-05  -7.8180853491144001e-06  2.8282954217525836e-06  -7.3971739598083841e-07  1.3540416126777585e-07  -1.3800898787722479e-08  2.4970063886281546e-04  1.3813773789672309e-04  -1.4140186739688759e-04  -8.6571587882153502e-05  1.2793507812417944e-04  -7.6364689825729649e-05  3.0629331093575362e-05  -9.1686859266822418e-06  2.0851123393451110e-06  -3.7936643930468457e-07  5.5950067471119467e-08  1.9202897123890490e-06  -1.3086835039721240e-03  -8.2104019875824536e-05  1.0336025579250824e-03  -7.3164960554818745e-04  3.0657937369126838e-04  -9.1981146961578228e-05  1.9960578309344120e-05  -2.6883014629170544e-06  -8.5855278333729740e-09  3.5678173399846770e-07  -3.2944626988223114e-03  3.1292931496240558e-03  6.5063755356230477e-03  -6.8050881326812036e-03  3.0760344700346658e-03  -9.1166373815590885e-04  1.8698898755213888e-04  -2.0594351429409207e-05  -2.3080660007231123e-06  1.9318030489006433e-06  -1.1385211584343584e-06  -4.0041263265162899e-02  2.8538620336904953e-02  -5.2405812674338824e-02  3.1342844631867907e-02  -9.1098069318960757e-03  1.6711581785487277e-03  -1.2279147021224086e-04  -4.2209240433682927e-05  2.0275001423412608e-05  -5.0412992933899183e-06  1.1051765138909040e-06  -1.7292938731369962e-02  1.0972521387403643e-01  9.7213571614447103e-01  -9.8147306155985131e-02  1.3479201051283290e-02  5.6906049802160395e-05  -6.3992814586953672e-04  2.0284668370411645e-04  -3.4029765794684808e-05  1.2521547332145126e-06  3.3191676452226712e-06  5.3958144030378128e-03  -1.6818737885391410e-02  9.9524394569436125e-02  -5.4849739602658897e-02  3.0921072940024268e-02  -8.9312677878921540e-03  1.6291435183274966e-03  -1.1412574576462010e-04  -4.3639340494720581e-05  2.1820541964572498e-05  -1.0909393312094910e-05  -2.6639357636012230e-04  4.7911760280971874e-04  -5.5747322697092877e-03  -1.1405476743522226e-02  1.0306506762103779e-02  -7.5132661462124564e-03  3.1587443688410712e-03  -9.1238105757198936e-04  1.8636336101744539e-04  -2.3659430610202706e-05  -1.8802936355210152e-06  -1.4979855783478900e-04  1.6912605000987262e-04  7.8050611377379644e-05  2.7599348822467422e-03  5.4915140371278640e-04  -1.3762398450687227e-03  1.4793748853977144e-03  -8.2438834140979118e-04  3.0225200950596105e-04  -8.3387817887166677e-05  3.0363265919632079e-05  8.2576382354057436e-05  -6.6867744440374000e-06  2.7960520840238753e-05  -7.0441926903066295e-04  -1.1677948204689139e-03  4.4419238811646675e-04  6.5046245572383406e-05  -3.9503296410461718e-04  3.4108026326447452e-04  -1.7997254874714151e-04  1.0865672559642737e-04  </DataArray> 
</PointData> 
</Piece>
</UnstructuredGrid>
</VTKFile>