<?xml version="1.0"?>
<VTKFile type="UnstructuredGrid"  version="0.1"  >
<UnstructuredGrid>
<Piece  NumberOfPoints="16" NumberOfCells="18">
<Points>
<DataArray  type="Float64"  NumberOfComponents="3"  format="ascii">0 0 0  0.3333333333333333 0 0  0.6666666666666666 0 0  1 0 0  0 0.3333333333333333 0  0.3333333333333333 0.3333333333333333 0  0.6666666666666666 0.3333333333333333 0  1 0.3333333333333333 0  0 0.6666666666666666 0  0.3333333333333333 0.6666666666666666 0  0.6666666666666666 0.6666666666666666 0  1 0.6666666666666666 0  0 1 0  0.3333333333333333 1 0  0.6666666666666666 1 0  1 1 0  </DataArray>
</Points>
<Cells>
<DataArray  type="UInt32"  Name="connectivity"  format="ascii">0 1 5  0 4 5  1 2 6  1 5 6  2 3 7  2 6 7  4 5 9  4 8 9  5 6 10  5 9 10  6 7 11  6 10 11  8 9 13  8 12 13  9 10 14  9 13 14  10 11 15  10 14 15  </DataArray>
<DataArray  type="UInt32"  Name="offsets"  format="ascii">3 6 9 12 15 18 21 24 27 30 33 36 39 42 45 48 51 54 </DataArray>
<DataArray  type="UInt8"  Name="types"  format="ascii">5 5 5 5 5 5 5 5 5 5 5 5 5 5 5 5 5 5 </DataArray>
</Cells>
<PointData  Scalars="f_8"> 
<DataArray  type="Float64"  Name="f_8"  format="ascii">1.0000000000000000e+00  1.1111111111111112e+00  1.4444444444444444e+00  2.0000000000000000e+00  1.2222222222222223e+00  1.3333333333333333e+00  1.6666666666666665e+00  2.2222222222222223e+00  1.8888888888888888e+00  2.0000000000000000e+00  2.3333333333333330e+00  2.8888888888888888e+00  3.0000000000000000e+00  3.1111111111111112e+00  3.4444444444444446e+00  4.0000000000000000e+00  </DataArray> 
</PointData> 
</Piece>
</UnstructuredGrid>
</VTKFile>