<?xml version="1.0"?>
<VTKFile type="UnstructuredGrid"  version="0.1"  >
<UnstructuredGrid>
<Piece  NumberOfPoints="49" NumberOfCells="72">
<Points>
<DataArray  type="Float64"  NumberOfComponents="3"  format="ascii">-2 -2 0  -1.333333333333333 -2 0  -0.6666666666666667 -2 0  0 -2 0  0.6666666666666665 -2 0  1.333333333333333 -2 0  2 -2 0  -2 -1.333333333333333 0  -1.333333333333333 -1.333333333333333 0  -0.6666666666666667 -1.333333333333333 0  0 -1.333333333333333 0  0.6666666666666665 -1.333333333333333 0  1.333333333333333 -1.333333333333333 0  2 -1.333333333333333 0  -2 -0.6666666666666667 0  -1.333333333333333 -0.6666666666666667 0  -0.6666666666666667 -0.6666666666666667 0  0 -0.6666666666666667 0  0.6666666666666665 -0.6666666666666667 0  1.333333333333333 -0.6666666666666667 0  2 -0.6666666666666667 0  -2 0 0  -1.333333333333333 0 0  -0.6666666666666667 0 0  0 0 0  0.6666666666666665 0 0  1.333333333333333 0 0  2 0 0  -2 0.6666666666666665 0  -1.333333333333333 0.6666666666666665 0  -0.6666666666666667 0.6666666666666665 0  0 0.6666666666666665 0  0.6666666666666665 0.6666666666666665 0  1.333333333333333 0.6666666666666665 0  2 0.6666666666666665 0  -2 1.333333333333333 0  -1.333333333333333 1.333333333333333 0  -0.6666666666666667 1.333333333333333 0  0 1.333333333333333 0  0.6666666666666665 1.333333333333333 0  1.333333333333333 1.333333333333333 0  2 1.333333333333333 0  -2 2 0  -1.333333333333333 2 0  -0.6666666666666667 2 0  0 2 0  0.6666666666666665 2 0  1.333333333333333 2 0  2 2 0  </DataArray>
</Points>
<Cells>
<DataArray  type="UInt32"  Name="connectivity"  format="ascii">0 1 8  0 7 8  1 2 9  1 8 9  2 3 10  2 9 10  3 4 11  3 10 11  4 5 12  4 11 12  5 6 13  5 12 13  7 8 15  7 14 15  8 9 16  8 15 16  9 10 17  9 16 17  10 11 18  10 17 18  11 12 19  11 18 19  12 13 20  12 19 20  14 15 22  14 21 22  15 16 23  15 22 23  16 17 24  16 23 24  17 18 25  17 24 25  18 19 26  18 25 26  19 20 27  19 26 27  21 22 29  21 28 29  22 23 30  22 29 30  23 24 31  23 30 31  24 25 32  24 31 32  25 26 33  25 32 33  26 27 34  26 33 34  28 29 36  28 35 36  29 30 37  29 36 37  30 31 38  30 37 38  31 32 39  31 38 39  32 33 40  32 39 40  33 34 41  33 40 41  35 36 43  35 42 43  36 37 44  36 43 44  37 38 45  37 44 45  38 39 46  38 45 46  39 40 47  39 46 47  40 41 48  40 47 48  </DataArray>
<DataArray  type="UInt32"  Name="offsets"  format="ascii">3 6 9 12 15 18 21 24 27 30 33 36 39 42 45 48 51 54 57 60 63 66 69 72 75 78 81 84 87 90 93 96 99 102 105 108 111 114 117 120 123 126 129 132 135 138 141 144 147 150 153 156 159 162 165 168 171 174 177 180 183 186 189 192 195 198 201 204 207 210 213 216 </DataArray>
<DataArray  type="UInt8"  Name="types"  format="ascii">5 5 5 5 5 5 5 5 5 5 5 5 5 5 5 5 5 5 5 5 5 5 5 5 5 5 5 5 5 5 5 5 5 5 5 5 5 5 5 5 5 5 5 5 5 5 5 5 5 5 5 5 5 5 5 5 5 5 5 5 5 5 5 5 5 5 5 5 5 5 5 5 </DataArray>
</Cells>
<PointData  Scalars="f_12"> 
<DataArray  type="Float64"  Name="f_12"  format="ascii">0.0000000000000000e+00  0.0000000000000000e+00  0.0000000000000000e+00  0.0000000000000000e+00  0.0000000000000000e+00  0.0000000000000000e+00  0.0000000000000000e+00  0.0000000000000000e+00  4.9336231658549494e-03  8.3809734500760250e-03  9.5174073344522336e-03  8.1022463313285865e-03  4.5822229679497858e-03  0.0000000000000000e+00  0.0000000000000000e+00  8.3809734500760250e-03  1.4396586963433693e-02  1.6495992906569265e-02  1.4169106351193285e-02  8.1022463313285831e-03  0.0000000000000000e+00  0.0000000000000000e+00  9.5174073344522266e-03  1.6495992906569255e-02  1.9052851757670720e-02  1.6495992906569255e-02  9.5174073344522232e-03  0.0000000000000000e+00  0.0000000000000000e+00  8.1022463313285761e-03  1.4169106351193264e-02  1.6495992906569244e-02  1.4396586963433662e-02  8.3809734500760041e-03  0.0000000000000000e+00  0.0000000000000000e+00  4.5822229679497806e-03  8.1022463313285744e-03  9.5174073344522197e-03  8.3809734500760059e-03  4.9336231658549346e-03  0.0000000000000000e+00  0.0000000000000000e+00  0.0000000000000000e+00  0.0000000000000000e+00  0.0000000000000000e+00  0.0000000000000000e+00  0.0000000000000000e+00  0.0000000000000000e+00  </DataArray> 
</PointData> 
</Piece>
</UnstructuredGrid>
</VTKFile>