<?xml version="1.0"?>
<VTKFile type="UnstructuredGrid"  version="0.1"  >
<UnstructuredGrid>
<Piece  NumberOfPoints="16" NumberOfCells="18">
<Points>
<DataArray  type="Float64"  NumberOfComponents="3"  format="ascii">-2 -2 0  -0.6666666666666667 -2 0  0.6666666666666665 -2 0  2 -2 0  -2 -0.6666666666666667 0  -0.6666666666666667 -0.6666666666666667 0  0.6666666666666665 -0.6666666666666667 0  2 -0.6666666666666667 0  -2 0.6666666666666665 0  -0.6666666666666667 0.6666666666666665 0  0.6666666666666665 0.6666666666666665 0  2 0.6666666666666665 0  -2 2 0  -0.6666666666666667 2 0  0.6666666666666665 2 0  2 2 0  </DataArray>
</Points>
<Cells>
<DataArray  type="UInt32"  Name="connectivity"  format="ascii">0 1 5  0 4 5  1 2 6  1 5 6  2 3 7  2 6 7  4 5 9  4 8 9  5 6 10  5 9 10  6 7 11  6 10 11  8 9 13  8 12 13  9 10 14  9 13 14  10 11 15  10 14 15  </DataArray>
<DataArray  type="UInt32"  Name="offsets"  format="ascii">3 6 9 12 15 18 21 24 27 30 33 36 39 42 45 48 51 54 </DataArray>
<DataArray  type="UInt8"  Name="types"  format="ascii">5 5 5 5 5 5 5 5 5 5 5 5 5 5 5 5 5 5 </DataArray>
</Cells>
<PointData  Scalars="f_12"> 
<DataArray  type="Float64"  Name="f_12"  format="ascii">0.0000000000000000e+00  0.0000000000000000e+00  0.0000000000000000e+00  0.0000000000000000e+00  0.0000000000000000e+00  3.9657207254214987e-03  3.7836461897498034e-03  0.0000000000000000e+00  0.0000000000000000e+00  3.7836461897498099e-03  3.9657207254214849e-03  0.0000000000000000e+00  0.0000000000000000e+00  0.0000000000000000e+00  0.0000000000000000e+00  0.0000000000000000e+00  </DataArray> 
</PointData> 
</Piece>
</UnstructuredGrid>
</VTKFile>