<?xml version="1.0"?>
<VTKFile type="UnstructuredGrid"  version="0.1"  >
<UnstructuredGrid>
<Piece  NumberOfPoints="25" NumberOfCells="32">
<Points>
<DataArray  type="Float64"  NumberOfComponents="3"  format="ascii">-2 -2 0  -1 -2 0  0 -2 0  1 -2 0  2 -2 0  -2 -1 0  -1 -1 0  0 -1 0  1 -1 0  2 -1 0  -2 0 0  -1 0 0  0 0 0  1 0 0  2 0 0  -2 1 0  -1 1 0  0 1 0  1 1 0  2 1 0  -2 2 0  -1 2 0  0 2 0  1 2 0  2 2 0  </DataArray>
</Points>
<Cells>
<DataArray  type="UInt32"  Name="connectivity"  format="ascii">0 1 6  0 5 6  1 2 7  1 6 7  2 3 8  2 7 8  3 4 9  3 8 9  5 6 11  5 10 11  6 7 12  6 11 12  7 8 13  7 12 13  8 9 14  8 13 14  10 11 16  10 15 16  11 12 17  11 16 17  12 13 18  12 17 18  13 14 19  13 18 19  15 16 21  15 20 21  16 17 22  16 21 22  17 18 23  17 22 23  18 19 24  18 23 24  </DataArray>
<DataArray  type="UInt32"  Name="offsets"  format="ascii">3 6 9 12 15 18 21 24 27 30 33 36 39 42 45 48 51 54 57 60 63 66 69 72 75 78 81 84 87 90 93 96 </DataArray>
<DataArray  type="UInt8"  Name="types"  format="ascii">5 5 5 5 5 5 5 5 5 5 5 5 5 5 5 5 5 5 5 5 5 5 5 5 5 5 5 5 5 5 5 5 </DataArray>
</Cells>
<PointData  Scalars="f_12"> 
<DataArray  type="Float64"  Name="f_12"  format="ascii">0.0000000000000000e+00  0.0000000000000000e+00  0.0000000000000000e+00  0.0000000000000000e+00  0.0000000000000000e+00  0.0000000000000000e+00  4.1335244483776352e-02  5.6110882727938974e-02  3.7341085416569560e-02  0.0000000000000000e+00  0.0000000000000000e+00  5.6110882727939008e-02  8.0232315632695575e-02  5.6110882727938953e-02  0.0000000000000000e+00  0.0000000000000000e+00  3.7341085416569580e-02  5.6110882727938967e-02  4.1335244483776325e-02  0.0000000000000000e+00  0.0000000000000000e+00  0.0000000000000000e+00  0.0000000000000000e+00  0.0000000000000000e+00  0.0000000000000000e+00  </DataArray> 
</PointData> 
</Piece>
</UnstructuredGrid>
</VTKFile>